<svg xmlns="http://www.w3.org/2000/svg" xmlns:xlink="http://www.w3.org/1999/xlink" contentStyleType="text/css" height="398px" preserveAspectRatio="none" style="width:481px;height:398px;" version="1.1" viewBox="0 0 481 398" width="481px" zoomAndPan="magnify"><defs/><g><!--class ProjectConfig--><g id="elem_ProjectConfig"><rect codeLine="4" fill="#F1F1F1" height="194.6719" id="ProjectConfig" rx="2.5" ry="2.5" style="stroke:#181818;stroke-width:0.5;" width="237.7637" x="113.5" y="7"/><ellipse cx="181.4458" cy="23" fill="#ADD1B2" rx="11" ry="11" style="stroke:#181818;stroke-width:1.0;"/><path d="M184.4146,28.6406 Q183.8364,28.9375 183.1958,29.0781 Q182.5552,29.2344 181.8521,29.2344 Q179.3521,29.2344 178.0239,27.5938 Q176.7114,25.9375 176.7114,22.8125 Q176.7114,19.6875 178.0239,18.0313 Q179.3521,16.375 181.8521,16.375 Q182.5552,16.375 183.1958,16.5313 Q183.8521,16.6875 184.4146,16.9844 L184.4146,19.7031 Q183.7896,19.125 183.1958,18.8594 Q182.6021,18.5781 181.9771,18.5781 Q180.6333,18.5781 179.9458,19.6563 Q179.2583,20.7188 179.2583,22.8125 Q179.2583,24.9063 179.9458,25.9844 Q180.6333,27.0469 181.9771,27.0469 Q182.6021,27.0469 183.1958,26.7813 Q183.7896,26.5 184.4146,25.9219 L184.4146,28.6406 Z " fill="#000000"/><text fill="#000000" font-family="sans-serif" font-size="14" lengthAdjust="spacing" textLength="93.3721" x="201.9458" y="27.8467">ProjectConfig</text><line style="stroke:#181818;stroke-width:0.5;" x1="114.5" x2="350.2637" y1="39" y2="39"/><ellipse cx="124.5" cy="52.6484" fill="none" rx="3" ry="3" style="stroke:#038048;stroke-width:1.0;"/><text fill="#000000" font-family="sans-serif" font-size="14" lengthAdjust="spacing" textLength="133.0137" x="133.5" y="55.9951">project: ProjectInfo</text><ellipse cx="124.5" cy="68.9453" fill="none" rx="3" ry="3" style="stroke:#038048;stroke-width:1.0;"/><text fill="#000000" font-family="sans-serif" font-size="14" lengthAdjust="spacing" textLength="157.9922" x="133.5" y="72.292">features: FeatureFlags</text><ellipse cx="124.5" cy="85.2422" fill="none" rx="3" ry="3" style="stroke:#038048;stroke-width:1.0;"/><text fill="#000000" font-family="sans-serif" font-size="14" lengthAdjust="spacing" textLength="131.8857" x="133.5" y="88.5889">paths: PathsConfig</text><ellipse cx="124.5" cy="101.5391" fill="none" rx="3" ry="3" style="stroke:#038048;stroke-width:1.0;"/><text fill="#000000" font-family="sans-serif" font-size="14" lengthAdjust="spacing" textLength="169.0869" x="133.5" y="104.8857">defaults: DefaultsConfig</text><ellipse cx="124.5" cy="117.8359" fill="none" rx="3" ry="3" style="stroke:#038048;stroke-width:1.0;"/><text fill="#000000" font-family="sans-serif" font-size="14" lengthAdjust="spacing" textLength="153.4805" x="133.5" y="121.1826">simulation: SimConfig</text><ellipse cx="124.5" cy="134.1328" fill="none" rx="3" ry="3" style="stroke:#038048;stroke-width:1.0;"/><text fill="#000000" font-family="sans-serif" font-size="14" lengthAdjust="spacing" textLength="160.3984" x="133.5" y="137.4795">synthesis: SynthConfig</text><ellipse cx="124.5" cy="150.4297" fill="none" rx="3" ry="3" style="stroke:#038048;stroke-width:1.0;"/><text fill="#000000" font-family="sans-serif" font-size="14" lengthAdjust="spacing" textLength="102.2793" x="133.5" y="153.7764">lint: LintConfig</text><ellipse cx="124.5" cy="166.7266" fill="none" rx="3" ry="3" style="stroke:#038048;stroke-width:1.0;"/><text fill="#000000" font-family="sans-serif" font-size="14" lengthAdjust="spacing" textLength="211.7637" x="133.5" y="170.0732">constraints: ConstraintsConfig</text><ellipse cx="124.5" cy="183.0234" fill="none" rx="3" ry="3" style="stroke:#038048;stroke-width:1.0;"/><text fill="#000000" font-family="sans-serif" font-size="14" lengthAdjust="spacing" textLength="122.2881" x="133.5" y="186.3701">fpga: FPGAConfig</text><line style="stroke:#181818;stroke-width:0.5;" x1="114.5" x2="350.2637" y1="193.6719" y2="193.6719"/></g><!--class ProjectInfo--><g id="elem_ProjectInfo"><rect codeLine="16" fill="#F1F1F1" height="129.4844" id="ProjectInfo" rx="2.5" ry="2.5" style="stroke:#181818;stroke-width:0.5;" width="118.8867" x="7" y="262"/><ellipse cx="27.3719" cy="278" fill="#ADD1B2" rx="11" ry="11" style="stroke:#181818;stroke-width:1.0;"/><path d="M30.3406,283.6406 Q29.7625,283.9375 29.1219,284.0781 Q28.4813,284.2344 27.7781,284.2344 Q25.2781,284.2344 23.95,282.5938 Q22.6375,280.9375 22.6375,277.8125 Q22.6375,274.6875 23.95,273.0313 Q25.2781,271.375 27.7781,271.375 Q28.4813,271.375 29.1219,271.5313 Q29.7781,271.6875 30.3406,271.9844 L30.3406,274.7031 Q29.7156,274.125 29.1219,273.8594 Q28.5281,273.5781 27.9031,273.5781 Q26.5594,273.5781 25.8719,274.6563 Q25.1844,275.7188 25.1844,277.8125 Q25.1844,279.9063 25.8719,280.9844 Q26.5594,282.0469 27.9031,282.0469 Q28.5281,282.0469 29.1219,281.7813 Q29.7156,281.5 30.3406,280.9219 L30.3406,283.6406 Z " fill="#000000"/><text fill="#000000" font-family="sans-serif" font-size="14" lengthAdjust="spacing" textLength="74.9492" x="42.5656" y="282.8467">ProjectInfo</text><line style="stroke:#181818;stroke-width:0.5;" x1="8" x2="124.8867" y1="294" y2="294"/><ellipse cx="18" cy="307.6484" fill="none" rx="3" ry="3" style="stroke:#038048;stroke-width:1.0;"/><text fill="#000000" font-family="sans-serif" font-size="14" lengthAdjust="spacing" textLength="67.4092" x="27" y="310.9951">name: str</text><ellipse cx="18" cy="323.9453" fill="none" rx="3" ry="3" style="stroke:#038048;stroke-width:1.0;"/><text fill="#000000" font-family="sans-serif" font-size="14" lengthAdjust="spacing" textLength="78.9824" x="27" y="327.292">version: str</text><ellipse cx="18" cy="340.2422" fill="none" rx="3" ry="3" style="stroke:#038048;stroke-width:1.0;"/><text fill="#000000" font-family="sans-serif" font-size="14" lengthAdjust="spacing" textLength="73.8418" x="27" y="343.5889">author: str</text><ellipse cx="18" cy="356.5391" fill="none" rx="3" ry="3" style="stroke:#038048;stroke-width:1.0;"/><text fill="#000000" font-family="sans-serif" font-size="14" lengthAdjust="spacing" textLength="76.5762" x="27" y="359.8857">license: str</text><ellipse cx="18" cy="372.8359" fill="none" rx="3" ry="3" style="stroke:#038048;stroke-width:1.0;"/><text fill="#000000" font-family="sans-serif" font-size="14" lengthAdjust="spacing" textLength="92.8867" x="27" y="376.1826">language: str</text><line style="stroke:#181818;stroke-width:0.5;" x1="8" x2="124.8867" y1="383.4844" y2="383.4844"/></g><!--class FeatureFlags--><g id="elem_FeatureFlags"><rect codeLine="24" fill="#F1F1F1" height="129.4844" id="FeatureFlags" rx="2.5" ry="2.5" style="stroke:#181818;stroke-width:0.5;" width="142.874" x="161" y="262"/><ellipse cx="185.0879" cy="278" fill="#ADD1B2" rx="11" ry="11" style="stroke:#181818;stroke-width:1.0;"/><path d="M188.0566,283.6406 Q187.4785,283.9375 186.8379,284.0781 Q186.1973,284.2344 185.4941,284.2344 Q182.9941,284.2344 181.666,282.5938 Q180.3535,280.9375 180.3535,277.8125 Q180.3535,274.6875 181.666,273.0313 Q182.9941,271.375 185.4941,271.375 Q186.1973,271.375 186.8379,271.5313 Q187.4941,271.6875 188.0566,271.9844 L188.0566,274.7031 Q187.4316,274.125 186.8379,273.8594 Q186.2441,273.5781 185.6191,273.5781 Q184.2754,273.5781 183.5879,274.6563 Q182.9004,275.7188 182.9004,277.8125 Q182.9004,279.9063 183.5879,280.9844 Q184.2754,282.0469 185.6191,282.0469 Q186.2441,282.0469 186.8379,281.7813 Q187.4316,281.5 188.0566,280.9219 L188.0566,283.6406 Z " fill="#000000"/><text fill="#000000" font-family="sans-serif" font-size="14" lengthAdjust="spacing" textLength="90.6787" x="201.1074" y="282.8467">FeatureFlags</text><line style="stroke:#181818;stroke-width:0.5;" x1="162" x2="302.874" y1="294" y2="294"/><ellipse cx="172" cy="307.6484" fill="none" rx="3" ry="3" style="stroke:#038048;stroke-width:1.0;"/><text fill="#000000" font-family="sans-serif" font-size="14" lengthAdjust="spacing" textLength="101.6846" x="181" y="310.9951">firmware: bool</text><ellipse cx="172" cy="323.9453" fill="none" rx="3" ry="3" style="stroke:#038048;stroke-width:1.0;"/><text fill="#000000" font-family="sans-serif" font-size="14" lengthAdjust="spacing" textLength="51.8506" x="181" y="327.292">ip: bool</text><ellipse cx="172" cy="340.2422" fill="none" rx="3" ry="3" style="stroke:#038048;stroke-width:1.0;"/><text fill="#000000" font-family="sans-serif" font-size="14" lengthAdjust="spacing" textLength="116.874" x="181" y="343.5889">constraints: bool</text><ellipse cx="172" cy="356.5391" fill="none" rx="3" ry="3" style="stroke:#038048;stroke-width:1.0;"/><text fill="#000000" font-family="sans-serif" font-size="14" lengthAdjust="spacing" textLength="84.4307" x="181" y="359.8857">formal: bool</text><ellipse cx="172" cy="372.8359" fill="none" rx="3" ry="3" style="stroke:#038048;stroke-width:1.0;"/><text fill="#000000" font-family="sans-serif" font-size="14" lengthAdjust="spacing" textLength="104.0703" x="181" y="376.1826">coverage: bool</text><line style="stroke:#181818;stroke-width:0.5;" x1="162" x2="302.874" y1="383.4844" y2="383.4844"/></g><!--class DefaultsConfig--><g id="elem_DefaultsConfig"><rect codeLine="32" fill="#F1F1F1" height="96.8906" id="DefaultsConfig" rx="2.5" ry="2.5" style="stroke:#181818;stroke-width:0.5;" width="135.3662" x="339" y="278"/><ellipse cx="354" cy="294" fill="#ADD1B2" rx="11" ry="11" style="stroke:#181818;stroke-width:1.0;"/><path d="M356.9688,299.6406 Q356.3906,299.9375 355.75,300.0781 Q355.1094,300.2344 354.4063,300.2344 Q351.9063,300.2344 350.5781,298.5938 Q349.2656,296.9375 349.2656,293.8125 Q349.2656,290.6875 350.5781,289.0313 Q351.9063,287.375 354.4063,287.375 Q355.1094,287.375 355.75,287.5313 Q356.4063,287.6875 356.9688,287.9844 L356.9688,290.7031 Q356.3438,290.125 355.75,289.8594 Q355.1563,289.5781 354.5313,289.5781 Q353.1875,289.5781 352.5,290.6563 Q351.8125,291.7188 351.8125,293.8125 Q351.8125,295.9063 352.5,296.9844 Q353.1875,298.0469 354.5313,298.0469 Q355.1563,298.0469 355.75,297.7813 Q356.3438,297.5 356.9688,296.9219 L356.9688,299.6406 Z " fill="#000000"/><text fill="#000000" font-family="sans-serif" font-size="14" lengthAdjust="spacing" textLength="103.3662" x="368" y="298.8467">DefaultsConfig</text><line style="stroke:#181818;stroke-width:0.5;" x1="340" x2="473.3662" y1="310" y2="310"/><ellipse cx="350" cy="323.6484" fill="none" rx="3" ry="3" style="stroke:#038048;stroke-width:1.0;"/><text fill="#000000" font-family="sans-serif" font-size="14" lengthAdjust="spacing" textLength="93.6797" x="359" y="326.9951">simulator: str</text><ellipse cx="350" cy="339.9453" fill="none" rx="3" ry="3" style="stroke:#038048;stroke-width:1.0;"/><text fill="#000000" font-family="sans-serif" font-size="14" lengthAdjust="spacing" textLength="108.0352" x="359" y="343.292">synthesizer: str</text><ellipse cx="350" cy="356.2422" fill="none" rx="3" ry="3" style="stroke:#038048;stroke-width:1.0;"/><text fill="#000000" font-family="sans-serif" font-size="14" lengthAdjust="spacing" textLength="64.2168" x="359" y="359.5889">linter: str</text><line style="stroke:#181818;stroke-width:0.5;" x1="340" x2="473.3662" y1="366.8906" y2="366.8906"/></g><!--reverse link ProjectConfig to ProjectInfo--><g id="link_ProjectConfig_ProjectInfo"><path codeLine="38" d="M152.2219,211.8989 C137.0019,232.0689 128.55,243.26 114.51,261.87 " fill="none" id="ProjectConfig-backto-ProjectInfo" style="stroke:#181818;stroke-width:1.0;"/><polygon fill="#181818" points="159.45,202.32,152.643,204.7001,152.2219,211.8989,159.0289,209.5188,159.45,202.32" style="stroke:#181818;stroke-width:1.0;"/></g><!--reverse link ProjectConfig to FeatureFlags--><g id="link_ProjectConfig_FeatureFlags"><path codeLine="39" d="M232.5,214.32 C232.5,234.49 232.5,243.26 232.5,261.87 " fill="none" id="ProjectConfig-backto-FeatureFlags" style="stroke:#181818;stroke-width:1.0;"/><polygon fill="#181818" points="232.5,202.32,228.5,208.32,232.5,214.32,236.5,208.32,232.5,202.32" style="stroke:#181818;stroke-width:1.0;"/></g><!--reverse link ProjectConfig to DefaultsConfig--><g id="link_ProjectConfig_DefaultsConfig"><path codeLine="40" d="M316.5162,211.7303 C337.2162,237.8903 351.26,255.66 368.78,277.81 " fill="none" id="ProjectConfig-backto-DefaultsConfig" style="stroke:#181818;stroke-width:1.0;"/><polygon fill="#181818" points="309.07,202.32,309.6563,209.5072,316.5162,211.7303,315.9299,204.5431,309.07,202.32" style="stroke:#181818;stroke-width:1.0;"/></g><!--SRC=[PLBRJiCm37tlL-GPj1_e6oegGa9eqhx0wv8kBBMhE1q2nB_ZfccNi9V6FiVNK_F5uWWU1dM4xj9xcl3Ka2ElWWTaeJI6YhUeapOmkT0IXdSOj689sh7srbHLvu1PxJrzw2uqXCRswgTIIZsE2rQlv2iQYeJH42QlkLRjOhKEUbvo89m5ty_FKYp2QG1XdfELaMo7oK6mXBKws25dlZ2SDLl9EyncHZcBCjcRV3Em8sHHG439Q6vE5cB67cJk_SjJ0d__IJ1lcGH0qQfMKYHwL-qvphW2C8Kp-PllRAUHimm7s4_G9sHhb8kMEXdhXq_vQxKw4ha8sJ5pYiKsr90Vm1LXCcHi6A6jOobwwfbappTOzVxMnLeOLbygbfVoiDiLvt7F5YToJvUZ_G40]--></g></svg>