<svg xmlns="http://www.w3.org/2000/svg" xmlns:xlink="http://www.w3.org/1999/xlink" contentStyleType="text/css" height="381px" preserveAspectRatio="none" style="width:642px;height:381px;" version="1.1" viewBox="0 0 642 381" width="642px" zoomAndPan="magnify"><defs/><g><!--class SynthBackend--><g id="elem_SynthBackend"><rect codeLine="4" fill="#F1F1F1" height="113.1875" id="SynthBackend" rx="2.5" ry="2.5" style="stroke:#181818;stroke-width:0.5;" width="296.9697" x="173" y="7"/><ellipse cx="266.8506" cy="23" fill="#B4A7E5" rx="11" ry="11" style="stroke:#181818;stroke-width:1.0;"/><path d="M262.7725,18.7656 L262.7725,16.6094 L270.1631,16.6094 L270.1631,18.7656 L267.6943,18.7656 L267.6943,26.8438 L270.1631,26.8438 L270.1631,29 L262.7725,29 L262.7725,26.8438 L265.2412,26.8438 L265.2412,18.7656 L262.7725,18.7656 Z " fill="#000000"/><text fill="#000000" font-family="sans-serif" font-size="14" font-style="italic" lengthAdjust="spacing" textLength="100.7686" x="287.3506" y="27.8467">SynthBackend</text><line style="stroke:#181818;stroke-width:0.5;" x1="174" x2="468.9697" y1="39" y2="39"/><line style="stroke:#181818;stroke-width:0.5;" x1="174" x2="468.9697" y1="47" y2="47"/><ellipse cx="184" cy="60.6484" fill="#84BE84" rx="3" ry="3" style="stroke:#038048;stroke-width:1.0;"/><text fill="#000000" font-family="sans-serif" font-size="14" lengthAdjust="spacing" textLength="270.9697" x="193" y="63.9951">synthesize(sources, top, options): bool</text><ellipse cx="184" cy="76.9453" fill="#84BE84" rx="3" ry="3" style="stroke:#038048;stroke-width:1.0;"/><text fill="#000000" font-family="sans-serif" font-size="14" lengthAdjust="spacing" textLength="177.0918" x="193" y="80.292">implement(options): bool</text><ellipse cx="184" cy="93.2422" fill="#84BE84" rx="3" ry="3" style="stroke:#038048;stroke-width:1.0;"/><text fill="#000000" font-family="sans-serif" font-size="14" lengthAdjust="spacing" textLength="189.5332" x="193" y="96.5889">generate_bitstream(): Path</text><ellipse cx="184" cy="109.5391" fill="#84BE84" rx="3" ry="3" style="stroke:#038048;stroke-width:1.0;"/><text fill="#000000" font-family="sans-serif" font-size="14" lengthAdjust="spacing" textLength="198.0439" x="193" y="112.8857">get_reports(): Dict[str, Path]</text></g><!--class VivadoBackend--><g id="elem_VivadoBackend"><rect codeLine="11" fill="#F1F1F1" height="178.375" id="VivadoBackend" rx="2.5" ry="2.5" style="stroke:#181818;stroke-width:0.5;" width="296.9697" x="7" y="188.5"/><ellipse cx="97.1626" cy="204.5" fill="#ADD1B2" rx="11" ry="11" style="stroke:#181818;stroke-width:1.0;"/><path d="M100.1313,210.1406 Q99.5532,210.4375 98.9126,210.5781 Q98.272,210.7344 97.5688,210.7344 Q95.0688,210.7344 93.7407,209.0938 Q92.4282,207.4375 92.4282,204.3125 Q92.4282,201.1875 93.7407,199.5313 Q95.0688,197.875 97.5688,197.875 Q98.272,197.875 98.9126,198.0313 Q99.5688,198.1875 100.1313,198.4844 L100.1313,201.2031 Q99.5063,200.625 98.9126,200.3594 Q98.3188,200.0781 97.6938,200.0781 Q96.3501,200.0781 95.6626,201.1563 Q94.9751,202.2188 94.9751,204.3125 Q94.9751,206.4063 95.6626,207.4844 Q96.3501,208.5469 97.6938,208.5469 Q98.3188,208.5469 98.9126,208.2813 Q99.5063,208 100.1313,207.4219 L100.1313,210.1406 Z " fill="#000000"/><text fill="#000000" font-family="sans-serif" font-size="14" lengthAdjust="spacing" textLength="108.1445" x="117.6626" y="209.3467">VivadoBackend</text><line style="stroke:#181818;stroke-width:0.5;" x1="8" x2="302.9697" y1="220.5" y2="220.5"/><rect fill="none" height="6" style="stroke:#C82930;stroke-width:1.0;" width="6" x="15" y="231.1484"/><text fill="#000000" font-family="sans-serif" font-size="14" lengthAdjust="spacing" textLength="137.334" x="27" y="237.4951">config: SynthConfig</text><rect fill="none" height="6" style="stroke:#C82930;stroke-width:1.0;" width="6" x="15" y="247.4453"/><text fill="#000000" font-family="sans-serif" font-size="14" lengthAdjust="spacing" textLength="183.1826" x="27" y="253.792">target: SynthTargetConfig</text><rect fill="none" height="6" style="stroke:#C82930;stroke-width:1.0;" width="6" x="15" y="263.7422"/><text fill="#000000" font-family="sans-serif" font-size="14" lengthAdjust="spacing" textLength="100.5088" x="27" y="270.0889">build_dir: Path</text><line style="stroke:#181818;stroke-width:1.0;" x1="8" x2="302.9697" y1="277.3906" y2="277.3906"/><ellipse cx="18" cy="291.0391" fill="#84BE84" rx="3" ry="3" style="stroke:#038048;stroke-width:1.0;"/><text fill="#000000" font-family="sans-serif" font-size="14" lengthAdjust="spacing" textLength="270.9697" x="27" y="294.3857">synthesize(sources, top, options): bool</text><ellipse cx="18" cy="307.3359" fill="#84BE84" rx="3" ry="3" style="stroke:#038048;stroke-width:1.0;"/><text fill="#000000" font-family="sans-serif" font-size="14" lengthAdjust="spacing" textLength="177.0918" x="27" y="310.6826">implement(options): bool</text><ellipse cx="18" cy="323.6328" fill="#84BE84" rx="3" ry="3" style="stroke:#038048;stroke-width:1.0;"/><text fill="#000000" font-family="sans-serif" font-size="14" lengthAdjust="spacing" textLength="189.5332" x="27" y="326.9795">generate_bitstream(): Path</text><rect fill="#F24D5C" height="6" style="stroke:#C82930;stroke-width:1.0;" width="6" x="15" y="336.9297"/><text fill="#000000" font-family="sans-serif" font-size="14" lengthAdjust="spacing" textLength="184.9873" x="27" y="343.2764">generate_tcl_script(): Path</text><rect fill="#F24D5C" height="6" style="stroke:#C82930;stroke-width:1.0;" width="6" x="15" y="353.2266"/><text fill="#000000" font-family="sans-serif" font-size="14" lengthAdjust="spacing" textLength="166.0039" x="27" y="359.5732">run_vivado(script): bool</text></g><!--class YosysBackend--><g id="elem_YosysBackend"><rect codeLine="23" fill="#F1F1F1" height="194.6719" id="YosysBackend" rx="2.5" ry="2.5" style="stroke:#181818;stroke-width:0.5;" width="296.9697" x="339" y="180"/><ellipse cx="433.0591" cy="196" fill="#ADD1B2" rx="11" ry="11" style="stroke:#181818;stroke-width:1.0;"/><path d="M436.0278,201.6406 Q435.4497,201.9375 434.8091,202.0781 Q434.1685,202.2344 433.4653,202.2344 Q430.9653,202.2344 429.6372,200.5938 Q428.3247,198.9375 428.3247,195.8125 Q428.3247,192.6875 429.6372,191.0313 Q430.9653,189.375 433.4653,189.375 Q434.1685,189.375 434.8091,189.5313 Q435.4653,189.6875 436.0278,189.9844 L436.0278,192.7031 Q435.4028,192.125 434.8091,191.8594 Q434.2153,191.5781 433.5903,191.5781 Q432.2466,191.5781 431.5591,192.6563 Q430.8716,193.7188 430.8716,195.8125 Q430.8716,197.9063 431.5591,198.9844 Q432.2466,200.0469 433.5903,200.0469 Q434.2153,200.0469 434.8091,199.7813 Q435.4028,199.5 436.0278,198.9219 L436.0278,201.6406 Z " fill="#000000"/><text fill="#000000" font-family="sans-serif" font-size="14" lengthAdjust="spacing" textLength="100.3516" x="453.5591" y="200.8467">YosysBackend</text><line style="stroke:#181818;stroke-width:0.5;" x1="340" x2="634.9697" y1="212" y2="212"/><rect fill="none" height="6" style="stroke:#C82930;stroke-width:1.0;" width="6" x="347" y="222.6484"/><text fill="#000000" font-family="sans-serif" font-size="14" lengthAdjust="spacing" textLength="137.334" x="359" y="228.9951">config: SynthConfig</text><rect fill="none" height="6" style="stroke:#C82930;stroke-width:1.0;" width="6" x="347" y="238.9453"/><text fill="#000000" font-family="sans-serif" font-size="14" lengthAdjust="spacing" textLength="183.1826" x="359" y="245.292">target: SynthTargetConfig</text><rect fill="none" height="6" style="stroke:#C82930;stroke-width:1.0;" width="6" x="347" y="255.2422"/><text fill="#000000" font-family="sans-serif" font-size="14" lengthAdjust="spacing" textLength="100.5088" x="359" y="261.5889">build_dir: Path</text><line style="stroke:#181818;stroke-width:1.0;" x1="340" x2="634.9697" y1="268.8906" y2="268.8906"/><ellipse cx="350" cy="282.5391" fill="#84BE84" rx="3" ry="3" style="stroke:#038048;stroke-width:1.0;"/><text fill="#000000" font-family="sans-serif" font-size="14" lengthAdjust="spacing" textLength="270.9697" x="359" y="285.8857">synthesize(sources, top, options): bool</text><ellipse cx="350" cy="298.8359" fill="#84BE84" rx="3" ry="3" style="stroke:#038048;stroke-width:1.0;"/><text fill="#000000" font-family="sans-serif" font-size="14" lengthAdjust="spacing" textLength="177.0918" x="359" y="302.1826">implement(options): bool</text><ellipse cx="350" cy="315.1328" fill="#84BE84" rx="3" ry="3" style="stroke:#038048;stroke-width:1.0;"/><text fill="#000000" font-family="sans-serif" font-size="14" lengthAdjust="spacing" textLength="189.5332" x="359" y="318.4795">generate_bitstream(): Path</text><rect fill="#F24D5C" height="6" style="stroke:#C82930;stroke-width:1.0;" width="6" x="347" y="328.4297"/><text fill="#000000" font-family="sans-serif" font-size="14" lengthAdjust="spacing" textLength="183.4902" x="359" y="334.7764">generate_ys_script(): Path</text><rect fill="#F24D5C" height="6" style="stroke:#C82930;stroke-width:1.0;" width="6" x="347" y="344.7266"/><text fill="#000000" font-family="sans-serif" font-size="14" lengthAdjust="spacing" textLength="159.2363" x="359" y="351.0732">run_yosys(script): bool</text><rect fill="#F24D5C" height="6" style="stroke:#C82930;stroke-width:1.0;" width="6" x="347" y="361.0234"/><text fill="#000000" font-family="sans-serif" font-size="14" lengthAdjust="spacing" textLength="135.2764" x="359" y="367.3701">run_nextpnr(): bool</text></g><!--reverse link SynthBackend to VivadoBackend--><g id="link_SynthBackend_VivadoBackend"><path codeLine="36" d="M266.7944,134.3735 C250.4644,155.2335 242.58,165.29 224.51,188.37 " fill="none" id="SynthBackend-backto-VivadoBackend" style="stroke:#181818;stroke-width:1.0;stroke-dasharray:7.0,7.0;"/><polygon fill="none" points="277.89,120.2,262.0699,130.675,271.5189,138.072,277.89,120.2" style="stroke:#181818;stroke-width:1.0;"/></g><!--reverse link SynthBackend to YosysBackend--><g id="link_SynthBackend_YosysBackend"><path codeLine="37" d="M376.2102,134.3699 C390.5302,152.6499 395.77,159.36 411.76,179.77 " fill="none" id="SynthBackend-backto-YosysBackend" style="stroke:#181818;stroke-width:1.0;stroke-dasharray:7.0,7.0;"/><polygon fill="none" points="365.11,120.2,371.487,138.0699,380.9335,130.6698,365.11,120.2" style="stroke:#181818;stroke-width:1.0;"/></g><!--SRC=[tPBBJiD034NtynMp3ABf1rIiA6A9a4182A5eCd7QKIVso7OgmkFVITC73IfR5btwdYi_hYohWCcnQspf_6h1r68rfqXibHrAZm3LoC5LGUtQgBU4UkSQiDARSW4EjJ415RXs7kn3XxgyxXi2LlR3M6ilPIE1X7V8X5hs81Ehb2QMaWP2kPZPaYWEtj2a24q_E3i15u30Jg4eWueok2RhyRtJvGvhmP28LJRwJV3wqjicW-FLV1dZenEnJs7jAXhjc7l2EYncs_NdGp7ewhXlkzCVX-A8bcs8LL45_jaYp__pvlo0rST2F8Ua8yuj5klXtcnBzxqFQJoJT79cONJoLnRTvjfVKUmPmficvEmeej4tNtrEf-FdES6Fu_m6]--></g></svg>