<svg xmlns="http://www.w3.org/2000/svg" xmlns:xlink="http://www.w3.org/1999/xlink" contentStyleType="text/css" height="470px" preserveAspectRatio="none" style="width:613px;height:470px;" version="1.1" viewBox="0 0 613 470" width="613px" zoomAndPan="magnify"><defs/><g><line style="stroke:#181818;stroke-width:0.5;stroke-dasharray:5.0,5.0;" x1="23" x2="23" y1="81.2969" y2="389.4922"/><line style="stroke:#181818;stroke-width:0.5;stroke-dasharray:5.0,5.0;" x1="157.1777" x2="157.1777" y1="81.2969" y2="389.4922"/><line style="stroke:#181818;stroke-width:0.5;stroke-dasharray:5.0,5.0;" x1="292.5332" x2="292.5332" y1="81.2969" y2="389.4922"/><line style="stroke:#181818;stroke-width:0.5;stroke-dasharray:5.0,5.0;" x1="433.0845" x2="433.0845" y1="81.2969" y2="389.4922"/><line style="stroke:#181818;stroke-width:0.5;stroke-dasharray:5.0,5.0;" x1="549.9829" x2="549.9829" y1="81.2969" y2="389.4922"/><text fill="#000000" font-family="sans-serif" font-size="14" lengthAdjust="spacing" textLength="31.9102" x="5" y="77.9951">User</text><ellipse cx="23.9551" cy="13.5" fill="#E2E2F0" rx="8" ry="8" style="stroke:#181818;stroke-width:0.5;"/><path d="M23.9551,21.5 L23.9551,48.5 M10.9551,29.5 L36.9551,29.5 M23.9551,48.5 L10.9551,63.5 M23.9551,48.5 L36.9551,63.5 " fill="none" style="stroke:#181818;stroke-width:0.5;"/><text fill="#000000" font-family="sans-serif" font-size="14" lengthAdjust="spacing" textLength="31.9102" x="5" y="401.4873">User</text><ellipse cx="23.9551" cy="413.2891" fill="#E2E2F0" rx="8" ry="8" style="stroke:#181818;stroke-width:0.5;"/><path d="M23.9551,421.2891 L23.9551,448.2891 M10.9551,429.2891 L36.9551,429.2891 M23.9551,448.2891 L10.9551,463.2891 M23.9551,448.2891 L36.9551,463.2891 " fill="none" style="stroke:#181818;stroke-width:0.5;"/><rect fill="#E2E2F0" height="30.2969" rx="2.5" ry="2.5" style="stroke:#181818;stroke-width:0.5;" width="35.7041" x="140.1777" y="50"/><text fill="#000000" font-family="sans-serif" font-size="14" lengthAdjust="spacing" textLength="21.7041" x="147.1777" y="69.9951">CLI</text><rect fill="#E2E2F0" height="30.2969" rx="2.5" ry="2.5" style="stroke:#181818;stroke-width:0.5;" width="35.7041" x="140.1777" y="388.4922"/><text fill="#000000" font-family="sans-serif" font-size="14" lengthAdjust="spacing" textLength="21.7041" x="147.1777" y="408.4873">CLI</text><rect fill="#E2E2F0" height="30.2969" rx="2.5" ry="2.5" style="stroke:#181818;stroke-width:0.5;" width="107.3721" x="239.5332" y="50"/><text fill="#000000" font-family="sans-serif" font-size="14" lengthAdjust="spacing" textLength="93.3721" x="246.5332" y="69.9951">ProjectConfig</text><rect fill="#E2E2F0" height="30.2969" rx="2.5" ry="2.5" style="stroke:#181818;stroke-width:0.5;" width="107.3721" x="239.5332" y="388.4922"/><text fill="#000000" font-family="sans-serif" font-size="14" lengthAdjust="spacing" textLength="93.3721" x="246.5332" y="408.4873">ProjectConfig</text><rect fill="#E2E2F0" height="30.2969" rx="2.5" ry="2.5" style="stroke:#181818;stroke-width:0.5;" width="100.8984" x="383.0845" y="50"/><text fill="#000000" font-family="sans-serif" font-size="14" lengthAdjust="spacing" textLength="86.8984" x="390.0845" y="69.9951">YAML Parser</text><rect fill="#E2E2F0" height="30.2969" rx="2.5" ry="2.5" style="stroke:#181818;stroke-width:0.5;" width="100.8984" x="383.0845" y="388.4922"/><text fill="#000000" font-family="sans-serif" font-size="14" lengthAdjust="spacing" textLength="86.8984" x="390.0845" y="408.4873">YAML Parser</text><rect fill="#E2E2F0" height="30.2969" rx="2.5" ry="2.5" style="stroke:#181818;stroke-width:0.5;" width="113.2236" x="493.9829" y="50"/><text fill="#000000" font-family="sans-serif" font-size="14" lengthAdjust="spacing" textLength="99.2236" x="500.9829" y="69.9951">Model Classes</text><rect fill="#E2E2F0" height="30.2969" rx="2.5" ry="2.5" style="stroke:#181818;stroke-width:0.5;" width="113.2236" x="493.9829" y="388.4922"/><text fill="#000000" font-family="sans-serif" font-size="14" lengthAdjust="spacing" textLength="99.2236" x="500.9829" y="408.4873">Model Classes</text><polygon fill="#181818" points="146.0298,108.4297,156.0298,112.4297,146.0298,116.4297,150.0298,112.4297" style="stroke:#181818;stroke-width:1.0;"/><line style="stroke:#181818;stroke-width:1.0;" x1="23.9551" x2="152.0298" y1="112.4297" y2="112.4297"/><text fill="#000000" font-family="sans-serif" font-size="13" lengthAdjust="spacing" textLength="110.0747" x="30.9551" y="107.3638">aly &lt;command&gt;</text><polygon fill="#181818" points="281.2192,137.5625,291.2192,141.5625,281.2192,145.5625,285.2192,141.5625" style="stroke:#181818;stroke-width:1.0;"/><line style="stroke:#181818;stroke-width:1.0;" x1="158.0298" x2="287.2192" y1="141.5625" y2="141.5625"/><text fill="#000000" font-family="sans-serif" font-size="13" lengthAdjust="spacing" textLength="37.9272" x="165.0298" y="136.4966">load()</text><line style="stroke:#181818;stroke-width:1.0;" x1="293.2192" x2="335.2192" y1="170.6953" y2="170.6953"/><line style="stroke:#181818;stroke-width:1.0;" x1="335.2192" x2="335.2192" y1="170.6953" y2="183.6953"/><line style="stroke:#181818;stroke-width:1.0;" x1="294.2192" x2="335.2192" y1="183.6953" y2="183.6953"/><polygon fill="#181818" points="304.2192,179.6953,294.2192,183.6953,304.2192,187.6953,300.2192,183.6953" style="stroke:#181818;stroke-width:1.0;"/><text fill="#000000" font-family="sans-serif" font-size="13" lengthAdjust="spacing" textLength="119.5771" x="300.2192" y="165.6294">find_project_root()</text><polygon fill="#181818" points="421.5337,208.8281,431.5337,212.8281,421.5337,216.8281,425.5337,212.8281" style="stroke:#181818;stroke-width:1.0;"/><line style="stroke:#181818;stroke-width:1.0;" x1="293.2192" x2="427.5337" y1="212.8281" y2="212.8281"/><text fill="#000000" font-family="sans-serif" font-size="13" lengthAdjust="spacing" textLength="116.3145" x="300.2192" y="207.7622">parse config.yaml</text><polygon fill="#181818" points="304.2192,237.9609,294.2192,241.9609,304.2192,245.9609,300.2192,241.9609" style="stroke:#181818;stroke-width:1.0;"/><line style="stroke:#181818;stroke-width:1.0;stroke-dasharray:2.0,2.0;" x1="298.2192" x2="432.5337" y1="241.9609" y2="241.9609"/><text fill="#000000" font-family="sans-serif" font-size="13" lengthAdjust="spacing" textLength="52.1841" x="310.2192" y="236.895">raw dict</text><polygon fill="#181818" points="538.5947,267.0938,548.5947,271.0938,538.5947,275.0938,542.5947,271.0938" style="stroke:#181818;stroke-width:1.0;"/><line style="stroke:#181818;stroke-width:1.0;" x1="293.2192" x2="544.5947" y1="271.0938" y2="271.0938"/><text fill="#000000" font-family="sans-serif" font-size="13" lengthAdjust="spacing" textLength="71.2905" x="300.2192" y="266.0278">from_dict()</text><polygon fill="#181818" points="304.2192,296.2266,294.2192,300.2266,304.2192,304.2266,300.2192,300.2266" style="stroke:#181818;stroke-width:1.0;"/><line style="stroke:#181818;stroke-width:1.0;stroke-dasharray:2.0,2.0;" x1="298.2192" x2="549.5947" y1="300.2266" y2="300.2266"/><text fill="#000000" font-family="sans-serif" font-size="13" lengthAdjust="spacing" textLength="81.2056" x="310.2192" y="295.1606">typed config</text><polygon fill="#181818" points="169.0298,325.3594,159.0298,329.3594,169.0298,333.3594,165.0298,329.3594" style="stroke:#181818;stroke-width:1.0;"/><line style="stroke:#181818;stroke-width:1.0;stroke-dasharray:2.0,2.0;" x1="163.0298" x2="292.2192" y1="329.3594" y2="329.3594"/><text fill="#000000" font-family="sans-serif" font-size="13" lengthAdjust="spacing" textLength="86.7026" x="175.0298" y="324.2935">ProjectConfig</text><line style="stroke:#181818;stroke-width:1.0;" x1="158.0298" x2="200.0298" y1="358.4922" y2="358.4922"/><line style="stroke:#181818;stroke-width:1.0;" x1="200.0298" x2="200.0298" y1="358.4922" y2="371.4922"/><line style="stroke:#181818;stroke-width:1.0;" x1="159.0298" x2="200.0298" y1="371.4922" y2="371.4922"/><polygon fill="#181818" points="169.0298,367.4922,159.0298,371.4922,169.0298,375.4922,165.0298,371.4922" style="stroke:#181818;stroke-width:1.0;"/><text fill="#000000" font-family="sans-serif" font-size="13" lengthAdjust="spacing" textLength="121.1895" x="165.0298" y="353.4263">execute command</text><!--SRC=[LP3DQiGW4CVlFiMmf_QGFa0e2qKe57QNN7heAKpLB7RL2JgXpTjNpGVaEF-FcP-cXmqZHlJmZUfnZpG5BSbH18uOKhPCO97sb3O3JexVAV0DlO6KGqqoqGv2eEBS-yoJo66soeuO6EJbup2VkaW_Hh6aCDZx2J119u-9hxVh1JgCULNrotnCN4aR1z9XIYRLJ5MI4EK-DETojWLqCxmgyXw3Feii5QUJBJX2_VGiEha9Wmsw7nUoFXBnxfRZBOo51bHbVfdHEr4XcxKUyHUqLRns5fYyDPBlYvwtBThUu7aqUbrOMnlpuNisvkgOFwCcBXJrGVy0]--></g></svg>