<svg xmlns="http://www.w3.org/2000/svg" xmlns:xlink="http://www.w3.org/1999/xlink" contentStyleType="text/css" height="666px" preserveAspectRatio="none" style="width:459px;height:666px;" version="1.1" viewBox="0 0 459 666" width="459px" zoomAndPan="magnify"><defs/><g><ellipse cx="191.416" cy="20" fill="#222222" rx="10" ry="10" style="stroke:#222222;stroke-width:1.0;"/><rect fill="#F1F1F1" height="33.9688" rx="12.5" ry="12.5" style="stroke:#181818;stroke-width:0.5;" width="194.5801" x="94.126" y="50"/><text fill="#000000" font-family="sans-serif" font-size="12" lengthAdjust="spacing" textLength="174.5801" x="104.126" y="71.1387">Get target module/testbench</text><rect fill="#F1F1F1" height="33.9688" rx="12.5" ry="12.5" style="stroke:#181818;stroke-width:0.5;" width="135.916" x="123.458" y="103.9688"/><text fill="#000000" font-family="sans-serif" font-size="12" lengthAdjust="spacing" textLength="115.916" x="133.458" y="125.1074">Initialize visited set</text><rect fill="#F1F1F1" height="33.9688" rx="12.5" ry="12.5" style="stroke:#181818;stroke-width:0.5;" width="142.6836" x="120.0742" y="157.9375"/><text fill="#000000" font-family="sans-serif" font-size="12" lengthAdjust="spacing" textLength="122.6836" x="130.0742" y="179.0762">Initialize ordered list</text><rect fill="#F1F1F1" height="33.9688" rx="12.5" ry="12.5" style="stroke:#181818;stroke-width:0.5;" width="149.7207" x="116.5557" y="267.6167"/><text fill="#000000" font-family="sans-serif" font-size="12" lengthAdjust="spacing" textLength="129.7207" x="126.5557" y="288.7554">Get next dependency</text><polygon fill="#F1F1F1" points="147.4885,321.5854,235.3435,321.5854,247.3435,333.5854,235.3435,345.5854,147.4885,345.5854,135.4885,333.5854,147.4885,321.5854" style="stroke:#181818;stroke-width:0.5;"/><text fill="#000000" font-family="sans-serif" font-size="11" lengthAdjust="spacing" textLength="87.855" x="147.4885" y="337.3936">Already visited?</text><text fill="#000000" font-family="sans-serif" font-size="11" lengthAdjust="spacing" textLength="19.0083" x="116.4802" y="330.9912">yes</text><text fill="#000000" font-family="sans-serif" font-size="11" lengthAdjust="spacing" textLength="13.7017" x="247.3435" y="330.9912">no</text><rect fill="#F1F1F1" height="33.9688" rx="12.5" ry="12.5" style="stroke:#181818;stroke-width:0.5;" width="128.6563" x="38" y="355.5854"/><text fill="#000000" font-family="sans-serif" font-size="12" lengthAdjust="spacing" textLength="108.6563" x="48" y="376.7241">Skip (cycle check)</text><rect fill="#F1F1F1" height="33.9688" rx="12.5" ry="12.5" style="stroke:#181818;stroke-width:0.5;" width="110.5508" x="225.2285" y="355.5854"/><text fill="#000000" font-family="sans-serif" font-size="12" lengthAdjust="spacing" textLength="90.5508" x="235.2285" y="376.7241">Mark as visited</text><rect fill="#F1F1F1" height="33.9688" rx="12.5" ry="12.5" style="stroke:#181818;stroke-width:0.5;" width="187.6953" x="186.6563" y="416.6519"/><text fill="#000000" font-family="sans-serif" font-size="12" lengthAdjust="spacing" textLength="167.6953" x="196.6563" y="437.7905">Recursively resolve its deps</text><rect fill="#F1F1F1" height="33.9688" rx="12.5" ry="12.5" style="stroke:#181818;stroke-width:0.5;" width="131.7676" x="214.6201" y="470.6206"/><text fill="#000000" font-family="sans-serif" font-size="12" lengthAdjust="spacing" textLength="111.7676" x="224.6201" y="491.7593">Add to ordered list</text><polygon fill="#F1F1F1" points="191.416,510.5894,203.416,522.5894,191.416,534.5894,179.416,522.5894,191.416,510.5894" style="stroke:#181818;stroke-width:0.5;"/><polygon fill="#F1F1F1" points="122.6311,211.9063,260.2009,211.9063,272.2009,223.9063,260.2009,235.9063,122.6311,235.9063,110.6311,223.9063,122.6311,211.9063" style="stroke:#181818;stroke-width:0.5;"/><text fill="#000000" font-family="sans-serif" font-size="11" lengthAdjust="spacing" textLength="19.0083" x="195.416" y="246.1167">yes</text><text fill="#000000" font-family="sans-serif" font-size="11" lengthAdjust="spacing" textLength="137.5698" x="122.6311" y="227.7144">Unvisited dependencies?</text><text fill="#000000" font-family="sans-serif" font-size="11" lengthAdjust="spacing" textLength="13.7017" x="96.9294" y="221.312">no</text><path d="M277.9326,573.4409 L277.9326,589.5737 L257.9326,593.5737 L277.9326,597.5737 L277.9326,613.7065 A0,0 0 0 0 277.9326,613.7065 L447.2139,613.7065 A0,0 0 0 0 447.2139,613.7065 L447.2139,583.4409 L437.2139,573.4409 L277.9326,573.4409 A0,0 0 0 0 277.9326,573.4409 " fill="#FEFFDD" style="stroke:#181818;stroke-width:0.5;"/><path d="M437.2139,573.4409 L437.2139,583.4409 L447.2139,583.4409 L437.2139,573.4409 " fill="#FEFFDD" style="stroke:#181818;stroke-width:0.5;"/><text fill="#000000" font-family="sans-serif" font-size="13" lengthAdjust="spacing" textLength="110.189" x="283.9326" y="590.5078">Files are ordered</text><text fill="#000000" font-family="sans-serif" font-size="13" lengthAdjust="spacing" textLength="148.2813" x="283.9326" y="605.6406">for correct compilation</text><rect fill="#F1F1F1" height="33.9688" rx="12.5" ry="12.5" style="stroke:#181818;stroke-width:0.5;" width="133.0332" x="124.8994" y="576.5894"/><text fill="#000000" font-family="sans-serif" font-size="12" lengthAdjust="spacing" textLength="113.0332" x="134.8994" y="597.728">Return ordered list</text><ellipse cx="191.416" cy="644.7065" fill="none" rx="11" ry="11" style="stroke:#222222;stroke-width:1.0;"/><ellipse cx="191.416" cy="644.7065" fill="#222222" rx="6" ry="6" style="stroke:#222222;stroke-width:1.0;"/><line style="stroke:#181818;stroke-width:1.0;" x1="191.416" x2="191.416" y1="30" y2="50"/><polygon fill="#181818" points="187.416,40,191.416,50,195.416,40,191.416,44" style="stroke:#181818;stroke-width:1.0;"/><line style="stroke:#181818;stroke-width:1.0;" x1="191.416" x2="191.416" y1="83.9688" y2="103.9688"/><polygon fill="#181818" points="187.416,93.9688,191.416,103.9688,195.416,93.9688,191.416,97.9688" style="stroke:#181818;stroke-width:1.0;"/><line style="stroke:#181818;stroke-width:1.0;" x1="191.416" x2="191.416" y1="137.9375" y2="157.9375"/><polygon fill="#181818" points="187.416,147.9375,191.416,157.9375,195.416,147.9375,191.416,151.9375" style="stroke:#181818;stroke-width:1.0;"/><line style="stroke:#181818;stroke-width:1.0;" x1="280.5039" x2="280.5039" y1="389.5542" y2="416.6519"/><polygon fill="#181818" points="276.5039,406.6519,280.5039,416.6519,284.5039,406.6519,280.5039,410.6519" style="stroke:#181818;stroke-width:1.0;"/><line style="stroke:#181818;stroke-width:1.0;" x1="280.5039" x2="280.5039" y1="450.6206" y2="470.6206"/><polygon fill="#181818" points="276.5039,460.6206,280.5039,470.6206,284.5039,460.6206,280.5039,464.6206" style="stroke:#181818;stroke-width:1.0;"/><line style="stroke:#181818;stroke-width:1.0;" x1="135.4885" x2="102.3281" y1="333.5854" y2="333.5854"/><line style="stroke:#181818;stroke-width:1.0;" x1="102.3281" x2="102.3281" y1="333.5854" y2="355.5854"/><polygon fill="#181818" points="98.3281,345.5854,102.3281,355.5854,106.3281,345.5854,102.3281,349.5854" style="stroke:#181818;stroke-width:1.0;"/><line style="stroke:#181818;stroke-width:1.0;" x1="247.3435" x2="280.5039" y1="333.5854" y2="333.5854"/><line style="stroke:#181818;stroke-width:1.0;" x1="280.5039" x2="280.5039" y1="333.5854" y2="355.5854"/><polygon fill="#181818" points="276.5039,345.5854,280.5039,355.5854,284.5039,345.5854,280.5039,349.5854" style="stroke:#181818;stroke-width:1.0;"/><line style="stroke:#181818;stroke-width:1.0;" x1="102.3281" x2="102.3281" y1="389.5542" y2="522.5894"/><line style="stroke:#181818;stroke-width:1.0;" x1="102.3281" x2="179.416" y1="522.5894" y2="522.5894"/><polygon fill="#181818" points="169.416,518.5894,179.416,522.5894,169.416,526.5894,173.416,522.5894" style="stroke:#181818;stroke-width:1.0;"/><line style="stroke:#181818;stroke-width:1.0;" x1="280.5039" x2="280.5039" y1="504.5894" y2="522.5894"/><line style="stroke:#181818;stroke-width:1.0;" x1="280.5039" x2="203.416" y1="522.5894" y2="522.5894"/><polygon fill="#181818" points="213.416,518.5894,203.416,522.5894,213.416,526.5894,209.416,522.5894" style="stroke:#181818;stroke-width:1.0;"/><line style="stroke:#181818;stroke-width:1.0;" x1="191.416" x2="191.416" y1="301.5854" y2="321.5854"/><polygon fill="#181818" points="187.416,311.5854,191.416,321.5854,195.416,311.5854,191.416,315.5854" style="stroke:#181818;stroke-width:1.0;"/><line style="stroke:#181818;stroke-width:1.0;" x1="191.416" x2="191.416" y1="235.9063" y2="267.6167"/><polygon fill="#181818" points="187.416,257.6167,191.416,267.6167,195.416,257.6167,191.416,261.6167" style="stroke:#181818;stroke-width:1.0;"/><line style="stroke:#181818;stroke-width:1.0;" x1="191.416" x2="191.416" y1="534.5894" y2="544.5894"/><line style="stroke:#181818;stroke-width:1.0;" x1="191.416" x2="396.3516" y1="544.5894" y2="544.5894"/><polygon fill="#181818" points="392.3516,396.6519,396.3516,386.6519,400.3516,396.6519,396.3516,392.6519" style="stroke:#181818;stroke-width:1.0;"/><line style="stroke:#181818;stroke-width:1.0;" x1="396.3516" x2="396.3516" y1="223.9063" y2="544.5894"/><line style="stroke:#181818;stroke-width:1.0;" x1="396.3516" x2="272.2009" y1="223.9063" y2="223.9063"/><polygon fill="#181818" points="282.2009,219.9063,272.2009,223.9063,282.2009,227.9063,278.2009,223.9063" style="stroke:#181818;stroke-width:1.0;"/><line style="stroke:#181818;stroke-width:1.0;" x1="110.6311" x2="24" y1="223.9063" y2="223.9063"/><polygon fill="#181818" points="20,382.6519,24,392.6519,28,382.6519,24,386.6519" style="stroke:#181818;stroke-width:1.0;"/><line style="stroke:#181818;stroke-width:1.0;" x1="24" x2="24" y1="223.9063" y2="556.5894"/><line style="stroke:#181818;stroke-width:1.0;" x1="24" x2="191.416" y1="556.5894" y2="556.5894"/><line style="stroke:#181818;stroke-width:1.0;" x1="191.416" x2="191.416" y1="556.5894" y2="576.5894"/><polygon fill="#181818" points="187.416,566.5894,191.416,576.5894,195.416,566.5894,191.416,570.5894" style="stroke:#181818;stroke-width:1.0;"/><line style="stroke:#181818;stroke-width:1.0;" x1="191.416" x2="191.416" y1="191.9063" y2="211.9063"/><polygon fill="#181818" points="187.416,201.9063,191.416,211.9063,195.416,201.9063,191.416,205.9063" style="stroke:#181818;stroke-width:1.0;"/><line style="stroke:#181818;stroke-width:1.0;" x1="191.416" x2="191.416" y1="610.5581" y2="633.7065"/><polygon fill="#181818" points="187.416,623.7065,191.416,633.7065,195.416,623.7065,191.416,627.7065" style="stroke:#181818;stroke-width:1.0;"/><!--SRC=[NP4nJyGm38Nt_0gFlG6ntmteX7I80GOG6qikSQzMKwUotOFowt4HlHCiSPJt-RqarfvuZ187ECRKdwHEdEzhgG8caTKbP0jweJAsSIfsg6pFSK1GXsuKXTeGrA9Os3wWWUzENeQQfuAtXcf7vDJjmlQHoIWM-a8uav9X1aNxArJ9A2uKKbV2HqS5eNdZjI7ZY9pTa53lDa0ApOow2G3mayxuQLTeTWjNg8LcNmHZdjTaxxKE-Tgz6BpsD4AJvkIPgSFKRtQBX4Nz3bmlt5EK7gAkNhlr_0NJ94fdB3C8QYrd139TxgCNQ9ypMFttq2M5i_-ahxzlNlA2Mzea_8_cQWX2fywsS71OmMUrCk_S-WXJ5S5aNeUHIZIgl4ofZjy0]--></g></svg>