<?xml version="1.0" encoding="UTF-8" standalone="no"?>
<!DOCTYPE svg PUBLIC "-//W3C//DTD SVG 1.1//EN"
 "http://www.w3.org/Graphics/SVG/1.1/DTD/svg11.dtd">
<!-- Generated by graphviz version 2.43.0 (0)
 -->
<!-- Title: project Pages: 1 -->
<svg width="562pt" height="188pt"
 viewBox="0.00 0.00 562.00 188.00" xmlns="http://www.w3.org/2000/svg" xmlns:xlink="http://www.w3.org/1999/xlink">
<g id="graph0" class="graph" transform="scale(1 1) rotate(0) translate(4 184)">
<title>project</title>
<polygon fill="white" stroke="transparent" points="-4,4 -4,-184 558,-184 558,4 -4,4"/>
<!-- root -->
<g id="node1" class="node">
<title>root</title>
<polygon fill="#e3f2fd" stroke="black" points="314,-180 311,-184 290,-184 287,-180 216,-180 216,-144 314,-144 314,-180"/>
<text text-anchor="middle" x="265" y="-158.3" font-family="sans-serif" font-size="14.00">Project Root</text>
</g>
<!-- aly -->
<g id="node2" class="node">
<title>aly</title>
<polygon fill="#fff3e0" stroke="black" points="76,-108 73,-112 52,-112 49,-108 22,-108 22,-72 76,-72 76,-108"/>
<text text-anchor="middle" x="49" y="-86.3" font-family="sans-serif" font-size="14.00">.aly/</text>
</g>
<!-- root&#45;&gt;aly -->
<g id="edge1" class="edge">
<title>root&#45;&gt;aly</title>
<path fill="none" stroke="black" d="M215.81,-148.72C181.46,-139.65 134.49,-126.26 85.77,-108.03"/>
<polygon fill="black" stroke="black" points="86.92,-104.72 76.33,-104.44 84.43,-111.26 86.92,-104.72"/>
</g>
<!-- rtl -->
<g id="node3" class="node">
<title>rtl</title>
<polygon fill="#e8f5e9" stroke="black" points="148,-108 145,-112 124,-112 121,-108 94,-108 94,-72 148,-72 148,-108"/>
<text text-anchor="middle" x="121" y="-86.3" font-family="sans-serif" font-size="14.00">rtl/</text>
</g>
<!-- root&#45;&gt;rtl -->
<g id="edge2" class="edge">
<title>root&#45;&gt;rtl</title>
<path fill="none" stroke="black" d="M229.77,-143.88C207.77,-133.18 179.51,-119.44 157.3,-108.65"/>
<polygon fill="black" stroke="black" points="158.72,-105.44 148.2,-104.22 155.66,-111.74 158.72,-105.44"/>
</g>
<!-- tb -->
<g id="node4" class="node">
<title>tb</title>
<polygon fill="#fce4ec" stroke="black" points="220,-108 217,-112 196,-112 193,-108 166,-108 166,-72 220,-72 220,-108"/>
<text text-anchor="middle" x="193" y="-86.3" font-family="sans-serif" font-size="14.00">tb/</text>
</g>
<!-- root&#45;&gt;tb -->
<g id="edge3" class="edge">
<title>root&#45;&gt;tb</title>
<path fill="none" stroke="black" d="M247.2,-143.7C238.4,-135.14 227.62,-124.66 218,-115.3"/>
<polygon fill="black" stroke="black" points="220.2,-112.57 210.59,-108.1 215.32,-117.58 220.2,-112.57"/>
</g>
<!-- fw -->
<g id="node5" class="node">
<title>fw</title>
<polygon fill="#f3e5f5" stroke="black" points="292,-108 289,-112 268,-112 265,-108 238,-108 238,-72 292,-72 292,-108"/>
<text text-anchor="middle" x="265" y="-86.3" font-family="sans-serif" font-size="14.00">fw/</text>
</g>
<!-- root&#45;&gt;fw -->
<g id="edge4" class="edge">
<title>root&#45;&gt;fw</title>
<path fill="none" stroke="black" d="M265,-143.7C265,-135.98 265,-126.71 265,-118.11"/>
<polygon fill="black" stroke="black" points="268.5,-118.1 265,-108.1 261.5,-118.1 268.5,-118.1"/>
</g>
<!-- ip -->
<g id="node6" class="node">
<title>ip</title>
<polygon fill="#e0f7fa" stroke="black" points="364,-108 361,-112 340,-112 337,-108 310,-108 310,-72 364,-72 364,-108"/>
<text text-anchor="middle" x="337" y="-86.3" font-family="sans-serif" font-size="14.00">ip/</text>
</g>
<!-- root&#45;&gt;ip -->
<g id="edge5" class="edge">
<title>root&#45;&gt;ip</title>
<path fill="none" stroke="black" d="M282.8,-143.7C291.6,-135.14 302.38,-124.66 312,-115.3"/>
<polygon fill="black" stroke="black" points="314.68,-117.58 319.41,-108.1 309.8,-112.57 314.68,-117.58"/>
</g>
<!-- constraints -->
<g id="node7" class="node">
<title>constraints</title>
<polygon fill="#fff8e1" stroke="black" points="480,-108 477,-112 456,-112 453,-108 382,-108 382,-72 480,-72 480,-108"/>
<text text-anchor="middle" x="431" y="-86.3" font-family="sans-serif" font-size="14.00">constraints/</text>
</g>
<!-- root&#45;&gt;constraints -->
<g id="edge6" class="edge">
<title>root&#45;&gt;constraints</title>
<path fill="none" stroke="black" d="M305.61,-143.88C328.4,-134.26 357.03,-122.19 381.17,-112.01"/>
<polygon fill="black" stroke="black" points="382.67,-115.18 390.52,-108.07 379.95,-108.73 382.67,-115.18"/>
</g>
<!-- build -->
<g id="node8" class="node">
<title>build</title>
<polygon fill="#eceff1" stroke="black" points="554,-108 551,-112 530,-112 527,-108 498,-108 498,-72 554,-72 554,-108"/>
<text text-anchor="middle" x="526" y="-86.3" font-family="sans-serif" font-size="14.00">build/</text>
</g>
<!-- root&#45;&gt;build -->
<g id="edge7" class="edge">
<title>root&#45;&gt;build</title>
<path fill="none" stroke="black" d="M314.29,-152.26C358.07,-143.85 423.73,-129.64 488.42,-107.85"/>
<polygon fill="black" stroke="black" points="489.63,-111.14 497.95,-104.58 487.36,-104.52 489.63,-111.14"/>
</g>
<!-- config -->
<g id="node9" class="node">
<title>config</title>
<polygon fill="#ffffff" stroke="black" points="92,-36 0,-36 0,0 98,0 98,-30 92,-36"/>
<polyline fill="none" stroke="black" points="92,-36 92,-30 "/>
<polyline fill="none" stroke="black" points="98,-30 92,-30 "/>
<text text-anchor="middle" x="49" y="-14.3" font-family="sans-serif" font-size="14.00">config.yaml</text>
</g>
<!-- aly&#45;&gt;config -->
<g id="edge8" class="edge">
<title>aly&#45;&gt;config</title>
<path fill="none" stroke="black" d="M49,-71.7C49,-63.98 49,-54.71 49,-46.11"/>
<polygon fill="black" stroke="black" points="52.5,-46.1 49,-36.1 45.5,-46.1 52.5,-46.1"/>
</g>
</g>
</svg>
