<?xml version="1.0" encoding="UTF-8" standalone="no"?>
<!DOCTYPE svg PUBLIC "-//W3C//DTD SVG 1.1//EN"
 "http://www.w3.org/Graphics/SVG/1.1/DTD/svg11.dtd">
<!-- Generated by graphviz version 2.43.0 (0)
 -->
<!-- Title: modules Pages: 1 -->
<svg width="218pt" height="188pt"
 viewBox="0.00 0.00 217.50 188.00" xmlns="http://www.w3.org/2000/svg" xmlns:xlink="http://www.w3.org/1999/xlink">
<g id="graph0" class="graph" transform="scale(1 1) rotate(0) translate(4 184)">
<title>modules</title>
<polygon fill="white" stroke="transparent" points="-4,4 -4,-184 213.5,-184 213.5,4 -4,4"/>
<!-- cpu -->
<g id="node1" class="node">
<title>cpu</title>
<polygon fill="#e8f5e9" stroke="black" points="152.5,-36 74.5,-36 74.5,-32 70.5,-32 70.5,-28 74.5,-28 74.5,-8 70.5,-8 70.5,-4 74.5,-4 74.5,0 152.5,0 152.5,-36"/>
<polyline fill="none" stroke="black" points="74.5,-32 78.5,-32 78.5,-28 74.5,-28 "/>
<polyline fill="none" stroke="black" points="74.5,-8 78.5,-8 78.5,-4 74.5,-4 "/>
<text text-anchor="middle" x="113.5" y="-14.3" font-family="sans-serif" font-size="14.00">cpu_core</text>
</g>
<!-- alu -->
<g id="node2" class="node">
<title>alu</title>
<polygon fill="#e8f5e9" stroke="black" points="93.5,-108 39.5,-108 39.5,-104 35.5,-104 35.5,-100 39.5,-100 39.5,-80 35.5,-80 35.5,-76 39.5,-76 39.5,-72 93.5,-72 93.5,-108"/>
<polyline fill="none" stroke="black" points="39.5,-104 43.5,-104 43.5,-100 39.5,-100 "/>
<polyline fill="none" stroke="black" points="39.5,-80 43.5,-80 43.5,-76 39.5,-76 "/>
<text text-anchor="middle" x="66.5" y="-86.3" font-family="sans-serif" font-size="14.00">alu</text>
</g>
<!-- cpu&#45;&gt;alu -->
<g id="edge1" class="edge">
<title>cpu&#45;&gt;alu</title>
<path fill="none" stroke="black" d="M101.88,-36.3C96.36,-44.53 89.65,-54.52 83.57,-63.58"/>
<polygon fill="black" stroke="black" points="80.65,-61.64 77.98,-71.9 86.46,-65.54 80.65,-61.64"/>
</g>
<!-- regfile -->
<g id="node5" class="node">
<title>regfile</title>
<polygon fill="#e8f5e9" stroke="black" points="209.5,-108 111.5,-108 111.5,-104 107.5,-104 107.5,-100 111.5,-100 111.5,-80 107.5,-80 107.5,-76 111.5,-76 111.5,-72 209.5,-72 209.5,-108"/>
<polyline fill="none" stroke="black" points="111.5,-104 115.5,-104 115.5,-100 111.5,-100 "/>
<polyline fill="none" stroke="black" points="111.5,-80 115.5,-80 115.5,-76 111.5,-76 "/>
<text text-anchor="middle" x="160.5" y="-86.3" font-family="sans-serif" font-size="14.00">register_file</text>
</g>
<!-- cpu&#45;&gt;regfile -->
<g id="edge2" class="edge">
<title>cpu&#45;&gt;regfile</title>
<path fill="none" stroke="black" d="M125.12,-36.3C130.64,-44.53 137.35,-54.52 143.43,-63.58"/>
<polygon fill="black" stroke="black" points="140.54,-65.54 149.02,-71.9 146.35,-61.64 140.54,-65.54"/>
</g>
<!-- adder -->
<g id="node3" class="node">
<title>adder</title>
<polygon fill="#e8f5e9" stroke="black" points="57,-180 0,-180 0,-176 -4,-176 -4,-172 0,-172 0,-152 -4,-152 -4,-148 0,-148 0,-144 57,-144 57,-180"/>
<polyline fill="none" stroke="black" points="0,-176 4,-176 4,-172 0,-172 "/>
<polyline fill="none" stroke="black" points="0,-152 4,-152 4,-148 0,-148 "/>
<text text-anchor="middle" x="28.5" y="-158.3" font-family="sans-serif" font-size="14.00">adder</text>
</g>
<!-- alu&#45;&gt;adder -->
<g id="edge3" class="edge">
<title>alu&#45;&gt;adder</title>
<path fill="none" stroke="black" d="M57.11,-108.3C52.74,-116.36 47.44,-126.11 42.6,-135.02"/>
<polygon fill="black" stroke="black" points="39.48,-133.44 37.79,-143.9 45.63,-136.78 39.48,-133.44"/>
</g>
<!-- shifter -->
<g id="node4" class="node">
<title>shifter</title>
<polygon fill="#e8f5e9" stroke="black" points="136,-180 75,-180 75,-176 71,-176 71,-172 75,-172 75,-152 71,-152 71,-148 75,-148 75,-144 136,-144 136,-180"/>
<polyline fill="none" stroke="black" points="75,-176 79,-176 79,-172 75,-172 "/>
<polyline fill="none" stroke="black" points="75,-152 79,-152 79,-148 75,-148 "/>
<text text-anchor="middle" x="105.5" y="-158.3" font-family="sans-serif" font-size="14.00">shifter</text>
</g>
<!-- alu&#45;&gt;shifter -->
<g id="edge4" class="edge">
<title>alu&#45;&gt;shifter</title>
<path fill="none" stroke="black" d="M76.14,-108.3C80.63,-116.36 86.06,-126.11 91.02,-135.02"/>
<polygon fill="black" stroke="black" points="88.05,-136.86 95.97,-143.9 94.16,-133.46 88.05,-136.86"/>
</g>
</g>
</svg>
