<?xml version="1.0" encoding="UTF-8" standalone="no"?>
<!DOCTYPE svg PUBLIC "-//W3C//DTD SVG 1.1//EN"
 "http://www.w3.org/Graphics/SVG/1.1/DTD/svg11.dtd">
<!-- Generated by graphviz version 2.43.0 (0)
 -->
<!-- Title: modules Pages: 1 -->
<svg width="839pt" height="404pt"
 viewBox="0.00 0.00 838.65 404.00" xmlns="http://www.w3.org/2000/svg" xmlns:xlink="http://www.w3.org/1999/xlink">
<g id="graph0" class="graph" transform="scale(1 1) rotate(0) translate(4 400)">
<title>modules</title>
<polygon fill="white" stroke="transparent" points="-4,4 -4,-400 834.65,-400 834.65,4 -4,4"/>
<g id="clust1" class="cluster">
<title>cluster_aly</title>
<polygon fill="#f5f5f5" stroke="black" points="187,-80 187,-233 817,-233 817,-80 187,-80"/>
<text text-anchor="middle" x="502" y="-217.8" font-family="sans-serif" font-size="14.00">aly</text>
</g>
<g id="clust2" class="cluster">
<title>cluster_app</title>
<polygon fill="#fafafa" stroke="black" points="8,-241 8,-388 528,-388 528,-241 8,-241"/>
<text text-anchor="middle" x="268" y="-372.8" font-family="sans-serif" font-size="14.00">aly.app</text>
</g>
<g id="clust3" class="cluster">
<title>cluster_config</title>
<polygon fill="#fafafa" stroke="black" points="21,-8 21,-156 179,-156 179,-8 21,-8"/>
<text text-anchor="middle" x="100" y="-140.8" font-family="sans-serif" font-size="14.00">aly.config</text>
</g>
<!-- main -->
<g id="node1" class="node">
<title>main</title>
<path fill="#e3f2fd" stroke="black" d="M797,-202C797,-202 717,-202 717,-202 711,-202 705,-196 705,-190 705,-190 705,-176 705,-176 705,-170 711,-164 717,-164 717,-164 797,-164 797,-164 803,-164 809,-170 809,-176 809,-176 809,-190 809,-190 809,-196 803,-202 797,-202"/>
<text text-anchor="middle" x="757" y="-186.8" font-family="sans-serif" font-size="14.00">__main__.py</text>
<text text-anchor="middle" x="757" y="-171.8" font-family="sans-serif" font-size="14.00">(Entry point)</text>
</g>
<!-- commands -->
<g id="node2" class="node">
<title>commands</title>
<path fill="#e3f2fd" stroke="black" d="M796.5,-126C796.5,-126 687.5,-126 687.5,-126 681.5,-126 675.5,-120 675.5,-114 675.5,-114 675.5,-100 675.5,-100 675.5,-94 681.5,-88 687.5,-88 687.5,-88 796.5,-88 796.5,-88 802.5,-88 808.5,-94 808.5,-100 808.5,-100 808.5,-114 808.5,-114 808.5,-120 802.5,-126 796.5,-126"/>
<text text-anchor="middle" x="742" y="-110.8" font-family="sans-serif" font-size="14.00">commands.py</text>
<text text-anchor="middle" x="742" y="-95.8" font-family="sans-serif" font-size="14.00">(CLI registration)</text>
</g>
<!-- main&#45;&gt;commands -->
<g id="edge1" class="edge">
<title>main&#45;&gt;commands</title>
<path fill="none" stroke="black" d="M753.29,-163.71C751.6,-155.37 749.57,-145.32 747.69,-136.06"/>
<polygon fill="black" stroke="black" points="751.08,-135.19 745.67,-126.08 744.22,-136.58 751.08,-135.19"/>
</g>
<!-- app_main -->
<g id="node7" class="node">
<title>app_main</title>
<path fill="#f3e5f5" stroke="black" d="M396.5,-357C396.5,-357 347.5,-357 347.5,-357 341.5,-357 335.5,-351 335.5,-345 335.5,-345 335.5,-333 335.5,-333 335.5,-327 341.5,-321 347.5,-321 347.5,-321 396.5,-321 396.5,-321 402.5,-321 408.5,-327 408.5,-333 408.5,-333 408.5,-345 408.5,-345 408.5,-351 402.5,-357 396.5,-357"/>
<text text-anchor="middle" x="372" y="-335.3" font-family="sans-serif" font-size="14.00">main.py</text>
</g>
<!-- commands&#45;&gt;app_main -->
<g id="edge2" class="edge">
<title>commands&#45;&gt;app_main</title>
<path fill="none" stroke="black" d="M780.03,-126.17C794.69,-135.31 809.87,-147.91 818,-164 831.83,-191.37 837.04,-208.96 818,-233 768.52,-295.48 523.28,-324.48 419.02,-334.13"/>
<polygon fill="black" stroke="black" points="418.44,-330.67 408.79,-335.06 419.07,-337.64 418.44,-330.67"/>
</g>
<!-- util -->
<g id="node3" class="node">
<title>util</title>
<path fill="#eceff1" stroke="black" d="M674.5,-202C674.5,-202 619.5,-202 619.5,-202 613.5,-202 607.5,-196 607.5,-190 607.5,-190 607.5,-176 607.5,-176 607.5,-170 613.5,-164 619.5,-164 619.5,-164 674.5,-164 674.5,-164 680.5,-164 686.5,-170 686.5,-176 686.5,-176 686.5,-190 686.5,-190 686.5,-196 680.5,-202 674.5,-202"/>
<text text-anchor="middle" x="647" y="-186.8" font-family="sans-serif" font-size="14.00">util.py</text>
<text text-anchor="middle" x="647" y="-171.8" font-family="sans-serif" font-size="14.00">(Utilities)</text>
</g>
<!-- log -->
<g id="node4" class="node">
<title>log</title>
<path fill="#eceff1" stroke="black" d="M577.5,-202C577.5,-202 518.5,-202 518.5,-202 512.5,-202 506.5,-196 506.5,-190 506.5,-190 506.5,-176 506.5,-176 506.5,-170 512.5,-164 518.5,-164 518.5,-164 577.5,-164 577.5,-164 583.5,-164 589.5,-170 589.5,-176 589.5,-176 589.5,-190 589.5,-190 589.5,-196 583.5,-202 577.5,-202"/>
<text text-anchor="middle" x="548" y="-186.8" font-family="sans-serif" font-size="14.00">log.py</text>
<text text-anchor="middle" x="548" y="-171.8" font-family="sans-serif" font-size="14.00">(Logging)</text>
</g>
<!-- backends -->
<g id="node5" class="node">
<title>backends</title>
<path fill="#fff3e0" stroke="black" d="M327,-202C327,-202 207,-202 207,-202 201,-202 195,-196 195,-190 195,-190 195,-176 195,-176 195,-170 201,-164 207,-164 207,-164 327,-164 327,-164 333,-164 339,-170 339,-176 339,-176 339,-190 339,-190 339,-196 333,-202 327,-202"/>
<text text-anchor="middle" x="267" y="-186.8" font-family="sans-serif" font-size="14.00">backends.py</text>
<text text-anchor="middle" x="267" y="-171.8" font-family="sans-serif" font-size="14.00">(Backend registry)</text>
</g>
<!-- configuration -->
<g id="node6" class="node">
<title>configuration</title>
<path fill="#e8f5e9" stroke="black" d="M476.5,-202C476.5,-202 369.5,-202 369.5,-202 363.5,-202 357.5,-196 357.5,-190 357.5,-190 357.5,-176 357.5,-176 357.5,-170 363.5,-164 369.5,-164 369.5,-164 476.5,-164 476.5,-164 482.5,-164 488.5,-170 488.5,-176 488.5,-176 488.5,-190 488.5,-190 488.5,-196 482.5,-202 476.5,-202"/>
<text text-anchor="middle" x="423" y="-186.8" font-family="sans-serif" font-size="14.00">configuration.py</text>
<text text-anchor="middle" x="423" y="-171.8" font-family="sans-serif" font-size="14.00">(Config loading)</text>
</g>
<!-- project_config -->
<g id="node13" class="node">
<title>project_config</title>
<path fill="#e8f5e9" stroke="black" d="M156.5,-125C156.5,-125 45.5,-125 45.5,-125 39.5,-125 33.5,-119 33.5,-113 33.5,-113 33.5,-101 33.5,-101 33.5,-95 39.5,-89 45.5,-89 45.5,-89 156.5,-89 156.5,-89 162.5,-89 168.5,-95 168.5,-101 168.5,-101 168.5,-113 168.5,-113 168.5,-119 162.5,-125 156.5,-125"/>
<text text-anchor="middle" x="101" y="-103.3" font-family="sans-serif" font-size="14.00">project_config.py</text>
</g>
<!-- configuration&#45;&gt;project_config -->
<g id="edge12" class="edge">
<title>configuration&#45;&gt;project_config</title>
<path fill="none" stroke="black" d="M357.28,-165.49C354.16,-164.94 351.05,-164.44 348,-164 311.66,-158.8 218.19,-166.46 183,-156 164.93,-150.63 146.65,-140.49 131.95,-130.9"/>
<polygon fill="black" stroke="black" points="133.54,-127.75 123.3,-125.06 129.63,-133.56 133.54,-127.75"/>
</g>
<!-- app_main&#45;&gt;configuration -->
<g id="edge11" class="edge">
<title>app_main&#45;&gt;configuration</title>
<path fill="none" stroke="black" d="M408.62,-337.15C445.83,-334.1 501.74,-322.98 529,-285 540.4,-269.11 540.98,-256.46 529,-241 520.29,-229.75 511.02,-238.75 498,-233 483.09,-226.42 467.81,-217.01 454.97,-208.2"/>
<polygon fill="black" stroke="black" points="456.7,-205.13 446.51,-202.23 452.67,-210.85 456.7,-205.13"/>
</g>
<!-- init -->
<g id="node8" class="node">
<title>init</title>
<path fill="#f3e5f5" stroke="black" d="M64,-285C64,-285 28,-285 28,-285 22,-285 16,-279 16,-273 16,-273 16,-261 16,-261 16,-255 22,-249 28,-249 28,-249 64,-249 64,-249 70,-249 76,-255 76,-261 76,-261 76,-273 76,-273 76,-279 70,-285 64,-285"/>
<text text-anchor="middle" x="46" y="-263.3" font-family="sans-serif" font-size="14.00">init.py</text>
</g>
<!-- app_main&#45;&gt;init -->
<g id="edge3" class="edge">
<title>app_main&#45;&gt;init</title>
<path fill="none" stroke="black" d="M335.12,-333.93C281.69,-327.44 179.76,-312.84 86.03,-284.96"/>
<polygon fill="black" stroke="black" points="86.99,-281.59 76.41,-282.04 84.96,-288.29 86.99,-281.59"/>
</g>
<!-- simulate -->
<g id="node9" class="node">
<title>simulate</title>
<path fill="#f3e5f5" stroke="black" d="M180,-285C180,-285 106,-285 106,-285 100,-285 94,-279 94,-273 94,-273 94,-261 94,-261 94,-255 100,-249 106,-249 106,-249 180,-249 180,-249 186,-249 192,-255 192,-261 192,-261 192,-273 192,-273 192,-279 186,-285 180,-285"/>
<text text-anchor="middle" x="143" y="-263.3" font-family="sans-serif" font-size="14.00">simulate.py</text>
</g>
<!-- app_main&#45;&gt;simulate -->
<g id="edge4" class="edge">
<title>app_main&#45;&gt;simulate</title>
<path fill="none" stroke="black" d="M335.46,-326.83C299.5,-315.84 243.99,-298.87 201.81,-285.98"/>
<polygon fill="black" stroke="black" points="202.8,-282.62 192.21,-283.04 200.75,-289.31 202.8,-282.62"/>
</g>
<!-- synthesize -->
<g id="node10" class="node">
<title>synthesize</title>
<path fill="#f3e5f5" stroke="black" d="M311.5,-285C311.5,-285 222.5,-285 222.5,-285 216.5,-285 210.5,-279 210.5,-273 210.5,-273 210.5,-261 210.5,-261 210.5,-255 216.5,-249 222.5,-249 222.5,-249 311.5,-249 311.5,-249 317.5,-249 323.5,-255 323.5,-261 323.5,-261 323.5,-273 323.5,-273 323.5,-279 317.5,-285 311.5,-285"/>
<text text-anchor="middle" x="267" y="-263.3" font-family="sans-serif" font-size="14.00">synthesize.py</text>
</g>
<!-- app_main&#45;&gt;synthesize -->
<g id="edge5" class="edge">
<title>app_main&#45;&gt;synthesize</title>
<path fill="none" stroke="black" d="M346.31,-320.88C332.71,-311.81 315.83,-300.55 301.14,-290.76"/>
<polygon fill="black" stroke="black" points="303.05,-287.82 292.78,-285.19 299.16,-293.65 303.05,-287.82"/>
</g>
<!-- lint -->
<g id="node11" class="node">
<title>lint</title>
<path fill="#f3e5f5" stroke="black" d="M390,-285C390,-285 354,-285 354,-285 348,-285 342,-279 342,-273 342,-273 342,-261 342,-261 342,-255 348,-249 354,-249 354,-249 390,-249 390,-249 396,-249 402,-255 402,-261 402,-261 402,-273 402,-273 402,-279 396,-285 390,-285"/>
<text text-anchor="middle" x="372" y="-263.3" font-family="sans-serif" font-size="14.00">lint.py</text>
</g>
<!-- app_main&#45;&gt;lint -->
<g id="edge6" class="edge">
<title>app_main&#45;&gt;lint</title>
<path fill="none" stroke="black" d="M372,-320.7C372,-312.98 372,-303.71 372,-295.11"/>
<polygon fill="black" stroke="black" points="375.5,-295.1 372,-285.1 368.5,-295.1 375.5,-295.1"/>
</g>
<!-- firmware -->
<g id="node12" class="node">
<title>firmware</title>
<path fill="#f3e5f5" stroke="black" d="M507.5,-285C507.5,-285 432.5,-285 432.5,-285 426.5,-285 420.5,-279 420.5,-273 420.5,-273 420.5,-261 420.5,-261 420.5,-255 426.5,-249 432.5,-249 432.5,-249 507.5,-249 507.5,-249 513.5,-249 519.5,-255 519.5,-261 519.5,-261 519.5,-273 519.5,-273 519.5,-279 513.5,-285 507.5,-285"/>
<text text-anchor="middle" x="470" y="-263.3" font-family="sans-serif" font-size="14.00">firmware.py</text>
</g>
<!-- app_main&#45;&gt;firmware -->
<g id="edge7" class="edge">
<title>app_main&#45;&gt;firmware</title>
<path fill="none" stroke="black" d="M395.97,-320.88C408.55,-311.89 424.13,-300.76 437.75,-291.03"/>
<polygon fill="black" stroke="black" points="439.83,-293.85 445.93,-285.19 435.76,-288.15 439.83,-293.85"/>
</g>
<!-- simulate&#45;&gt;backends -->
<g id="edge8" class="edge">
<title>simulate&#45;&gt;backends</title>
<path fill="none" stroke="black" d="M168.99,-248.81C187.06,-236.86 211.36,-220.79 231.25,-207.64"/>
<polygon fill="black" stroke="black" points="233.34,-210.45 239.75,-202.02 229.48,-204.62 233.34,-210.45"/>
</g>
<!-- synthesize&#45;&gt;backends -->
<g id="edge9" class="edge">
<title>synthesize&#45;&gt;backends</title>
<path fill="none" stroke="black" d="M267,-248.61C267,-238.07 267,-224.36 267,-212.29"/>
<polygon fill="black" stroke="black" points="270.5,-212.22 267,-202.22 263.5,-212.22 270.5,-212.22"/>
</g>
<!-- lint&#45;&gt;backends -->
<g id="edge10" class="edge">
<title>lint&#45;&gt;backends</title>
<path fill="none" stroke="black" d="M349.99,-248.81C334.9,-237.03 314.67,-221.22 297.96,-208.17"/>
<polygon fill="black" stroke="black" points="300.11,-205.42 290.07,-202.02 295.8,-210.93 300.11,-205.42"/>
</g>
<!-- models_init -->
<g id="node14" class="node">
<title>models_init</title>
<path fill="#e8f5e9" stroke="black" d="M159,-52C159,-52 41,-52 41,-52 35,-52 29,-46 29,-40 29,-40 29,-28 29,-28 29,-22 35,-16 41,-16 41,-16 159,-16 159,-16 165,-16 171,-22 171,-28 171,-28 171,-40 171,-40 171,-46 165,-52 159,-52"/>
<text text-anchor="middle" x="100" y="-30.3" font-family="sans-serif" font-size="14.00">models/__init__.py</text>
</g>
<!-- project_config&#45;&gt;models_init -->
<g id="edge13" class="edge">
<title>project_config&#45;&gt;models_init</title>
<path fill="none" stroke="black" d="M100.76,-88.81C100.64,-80.79 100.51,-71.05 100.38,-62.07"/>
<polygon fill="black" stroke="black" points="103.88,-61.98 100.24,-52.03 96.88,-62.08 103.88,-61.98"/>
</g>
</g>
</svg>
