<?xml version="1.0" encoding="UTF-8" standalone="no"?>
<!DOCTYPE svg PUBLIC "-//W3C//DTD SVG 1.1//EN"
 "http://www.w3.org/Graphics/SVG/1.1/DTD/svg11.dtd">
<!-- Generated by graphviz version 2.43.0 (0)
 -->
<!-- Title: ip_types Pages: 1 -->
<svg width="349pt" height="158pt"
 viewBox="0.00 0.00 349.00 158.00" xmlns="http://www.w3.org/2000/svg" xmlns:xlink="http://www.w3.org/1999/xlink">
<g id="graph0" class="graph" transform="scale(1 1) rotate(0) translate(4 154)">
<title>ip_types</title>
<polygon fill="white" stroke="transparent" points="-4,4 -4,-154 345,-154 345,4 -4,4"/>
<!-- ip -->
<g id="node1" class="node">
<title>ip</title>
<path fill="#e3f2fd" stroke="black" d="M59,-93C59,-93 12,-93 12,-93 6,-93 0,-87 0,-81 0,-81 0,-69 0,-69 0,-63 6,-57 12,-57 12,-57 59,-57 59,-57 65,-57 71,-63 71,-69 71,-69 71,-81 71,-81 71,-87 65,-93 59,-93"/>
<text text-anchor="middle" x="35.5" y="-71.3" font-family="sans-serif" font-size="14.00">IP Block</text>
</g>
<!-- src -->
<g id="node2" class="node">
<title>src</title>
<path fill="#e8f5e9" stroke="black" d="M254.5,-150C254.5,-150 193.5,-150 193.5,-150 187.5,-150 181.5,-144 181.5,-138 181.5,-138 181.5,-124 181.5,-124 181.5,-118 187.5,-112 193.5,-112 193.5,-112 254.5,-112 254.5,-112 260.5,-112 266.5,-118 266.5,-124 266.5,-124 266.5,-138 266.5,-138 266.5,-144 260.5,-150 254.5,-150"/>
<text text-anchor="middle" x="224" y="-134.8" font-family="sans-serif" font-size="14.00">Source IP</text>
<text text-anchor="middle" x="224" y="-119.8" font-family="sans-serif" font-size="14.00">(RTL files)</text>
</g>
<!-- ip&#45;&gt;src -->
<g id="edge1" class="edge">
<title>ip&#45;&gt;src</title>
<path fill="none" stroke="black" d="M71.29,-89.95C82.56,-94.48 95.2,-99.25 107,-103 127.78,-109.6 151.07,-115.5 171.3,-120.17"/>
<polygon fill="black" stroke="black" points="170.74,-123.63 181.27,-122.42 172.29,-116.8 170.74,-123.63"/>
</g>
<!-- tb -->
<g id="node3" class="node">
<title>tb</title>
<path fill="#fff3e0" stroke="black" d="M271.5,-94C271.5,-94 176.5,-94 176.5,-94 170.5,-94 164.5,-88 164.5,-82 164.5,-82 164.5,-68 164.5,-68 164.5,-62 170.5,-56 176.5,-56 176.5,-56 271.5,-56 271.5,-56 277.5,-56 283.5,-62 283.5,-68 283.5,-68 283.5,-82 283.5,-82 283.5,-88 277.5,-94 271.5,-94"/>
<text text-anchor="middle" x="224" y="-78.8" font-family="sans-serif" font-size="14.00">IP Testbenches</text>
<text text-anchor="middle" x="224" y="-63.8" font-family="sans-serif" font-size="14.00">(simulation)</text>
</g>
<!-- ip&#45;&gt;tb -->
<g id="edge2" class="edge">
<title>ip&#45;&gt;tb</title>
<path fill="none" stroke="black" d="M71.14,-75C94.41,-75 125.86,-75 154.11,-75"/>
<polygon fill="black" stroke="black" points="154.35,-78.5 164.35,-75 154.35,-71.5 154.35,-78.5"/>
</g>
<!-- fw -->
<g id="node4" class="node">
<title>fw</title>
<path fill="#f3e5f5" stroke="black" d="M329,-38C329,-38 119,-38 119,-38 113,-38 107,-32 107,-26 107,-26 107,-12 107,-12 107,-6 113,0 119,0 119,0 329,0 329,0 335,0 341,-6 341,-12 341,-12 341,-26 341,-26 341,-32 335,-38 329,-38"/>
<text text-anchor="middle" x="224" y="-22.8" font-family="sans-serif" font-size="14.00">Firmware for intructions testing</text>
<text text-anchor="middle" x="224" y="-7.8" font-family="sans-serif" font-size="14.00">(optional)</text>
</g>
<!-- ip&#45;&gt;fw -->
<g id="edge3" class="edge">
<title>ip&#45;&gt;fw</title>
<path fill="none" stroke="black" d="M71.29,-60.05C82.56,-55.52 95.2,-50.75 107,-47 113.86,-44.82 120.99,-42.72 128.19,-40.72"/>
<polygon fill="black" stroke="black" points="129.3,-44.04 138.04,-38.04 127.47,-37.28 129.3,-44.04"/>
</g>
</g>
</svg>
