<?xml version="1.0" encoding="UTF-8" standalone="no"?>
<!DOCTYPE svg PUBLIC "-//W3C//DTD SVG 1.1//EN"
 "http://www.w3.org/Graphics/SVG/1.1/DTD/svg11.dtd">
<!-- Generated by graphviz version 2.43.0 (0)
 -->
<!-- Title: synth Pages: 1 -->
<svg width="335pt" height="206pt"
 viewBox="0.00 0.00 335.00 206.00" xmlns="http://www.w3.org/2000/svg" xmlns:xlink="http://www.w3.org/1999/xlink">
<g id="graph0" class="graph" transform="scale(1 1) rotate(0) translate(4 202)">
<title>synth</title>
<polygon fill="white" stroke="transparent" points="-4,4 -4,-202 331,-202 331,4 -4,4"/>
<!-- aly -->
<g id="node1" class="node">
<title>aly</title>
<path fill="#e3f2fd" stroke="black" d="M68,-145C68,-145 12,-145 12,-145 6,-145 0,-139 0,-133 0,-133 0,-121 0,-121 0,-115 6,-109 12,-109 12,-109 68,-109 68,-109 74,-109 80,-115 80,-121 80,-121 80,-133 80,-133 80,-139 74,-145 68,-145"/>
<text text-anchor="middle" x="40" y="-123.3" font-family="sans-serif" font-size="14.00">aly synth</text>
</g>
<!-- vivado -->
<g id="node2" class="node">
<title>vivado</title>
<path fill="#fff3e0" stroke="black" d="M215.5,-174C215.5,-174 132.5,-174 132.5,-174 126.5,-174 120.5,-168 120.5,-162 120.5,-162 120.5,-148 120.5,-148 120.5,-142 126.5,-136 132.5,-136 132.5,-136 215.5,-136 215.5,-136 221.5,-136 227.5,-142 227.5,-148 227.5,-148 227.5,-162 227.5,-162 227.5,-168 221.5,-174 215.5,-174"/>
<text text-anchor="middle" x="174" y="-158.8" font-family="sans-serif" font-size="14.00">Vivado</text>
<text text-anchor="middle" x="174" y="-143.8" font-family="sans-serif" font-size="14.00">(Xilinx FPGA)</text>
</g>
<!-- aly&#45;&gt;vivado -->
<g id="edge1" class="edge">
<title>aly&#45;&gt;vivado</title>
<path fill="none" stroke="black" d="M80.25,-135.33C89.81,-137.35 100.27,-139.57 110.61,-141.77"/>
<polygon fill="black" stroke="black" points="109.95,-145.2 120.46,-143.85 111.4,-138.36 109.95,-145.2"/>
</g>
<!-- yosys -->
<g id="node3" class="node">
<title>yosys</title>
<path fill="#e8f5e9" stroke="black" d="M220,-118C220,-118 128,-118 128,-118 122,-118 116,-112 116,-106 116,-106 116,-92 116,-92 116,-86 122,-80 128,-80 128,-80 220,-80 220,-80 226,-80 232,-86 232,-92 232,-92 232,-106 232,-106 232,-112 226,-118 220,-118"/>
<text text-anchor="middle" x="174" y="-102.8" font-family="sans-serif" font-size="14.00">Yosys</text>
<text text-anchor="middle" x="174" y="-87.8" font-family="sans-serif" font-size="14.00">(Open Source)</text>
</g>
<!-- aly&#45;&gt;yosys -->
<g id="edge2" class="edge">
<title>aly&#45;&gt;yosys</title>
<path fill="none" stroke="black" d="M80.25,-118.67C88.31,-116.96 97.01,-115.12 105.74,-113.27"/>
<polygon fill="black" stroke="black" points="106.53,-116.68 115.58,-111.18 105.07,-109.83 106.53,-116.68"/>
</g>
<!-- ice40 -->
<g id="node4" class="node">
<title>ice40</title>
<path fill="#eceff1" stroke="black" d="M314,-198C314,-198 281,-198 281,-198 275,-198 269,-192 269,-186 269,-186 269,-174 269,-174 269,-168 275,-162 281,-162 281,-162 314,-162 314,-162 320,-162 326,-168 326,-174 326,-174 326,-186 326,-186 326,-192 320,-198 314,-198"/>
<text text-anchor="middle" x="297.5" y="-176.3" font-family="sans-serif" font-size="14.00">iCE40</text>
</g>
<!-- yosys&#45;&gt;ice40 -->
<g id="edge3" class="edge">
<title>yosys&#45;&gt;ice40</title>
<path fill="none" stroke="black" d="M216.72,-118.09C221.97,-120.9 227.18,-123.9 232,-127 244.84,-135.27 258.05,-145.72 269.14,-155.15"/>
<polygon fill="black" stroke="black" points="266.95,-157.88 276.8,-161.79 271.53,-152.59 266.95,-157.88"/>
</g>
<!-- ecp5 -->
<g id="node5" class="node">
<title>ecp5</title>
<path fill="#eceff1" stroke="black" d="M312.5,-144C312.5,-144 282.5,-144 282.5,-144 276.5,-144 270.5,-138 270.5,-132 270.5,-132 270.5,-120 270.5,-120 270.5,-114 276.5,-108 282.5,-108 282.5,-108 312.5,-108 312.5,-108 318.5,-108 324.5,-114 324.5,-120 324.5,-120 324.5,-132 324.5,-132 324.5,-138 318.5,-144 312.5,-144"/>
<text text-anchor="middle" x="297.5" y="-122.3" font-family="sans-serif" font-size="14.00">ECP5</text>
</g>
<!-- yosys&#45;&gt;ecp5 -->
<g id="edge4" class="edge">
<title>yosys&#45;&gt;ecp5</title>
<path fill="none" stroke="black" d="M232.19,-111.71C241.75,-113.83 251.42,-115.98 260.26,-117.95"/>
<polygon fill="black" stroke="black" points="259.68,-121.4 270.2,-120.16 261.2,-114.57 259.68,-121.4"/>
</g>
<!-- gowin -->
<g id="node6" class="node">
<title>gowin</title>
<path fill="#eceff1" stroke="black" d="M315,-90C315,-90 280,-90 280,-90 274,-90 268,-84 268,-78 268,-78 268,-66 268,-66 268,-60 274,-54 280,-54 280,-54 315,-54 315,-54 321,-54 327,-60 327,-66 327,-66 327,-78 327,-78 327,-84 321,-90 315,-90"/>
<text text-anchor="middle" x="297.5" y="-68.3" font-family="sans-serif" font-size="14.00">Gowin</text>
</g>
<!-- yosys&#45;&gt;gowin -->
<g id="edge5" class="edge">
<title>yosys&#45;&gt;gowin</title>
<path fill="none" stroke="black" d="M232.19,-86.29C240.93,-84.35 249.77,-82.38 257.99,-80.56"/>
<polygon fill="black" stroke="black" points="258.99,-83.92 268,-78.33 257.48,-77.09 258.99,-83.92"/>
</g>
<!-- asic -->
<g id="node7" class="node">
<title>asic</title>
<path fill="#eceff1" stroke="black" d="M312.5,-36C312.5,-36 282.5,-36 282.5,-36 276.5,-36 270.5,-30 270.5,-24 270.5,-24 270.5,-12 270.5,-12 270.5,-6 276.5,0 282.5,0 282.5,0 312.5,0 312.5,0 318.5,0 324.5,-6 324.5,-12 324.5,-12 324.5,-24 324.5,-24 324.5,-30 318.5,-36 312.5,-36"/>
<text text-anchor="middle" x="297.5" y="-14.3" font-family="sans-serif" font-size="14.00">ASIC</text>
</g>
<!-- yosys&#45;&gt;asic -->
<g id="edge6" class="edge">
<title>yosys&#45;&gt;asic</title>
<path fill="none" stroke="black" d="M203.79,-79.8C221.16,-68.23 243.4,-53.4 261.74,-41.17"/>
<polygon fill="black" stroke="black" points="264.02,-43.86 270.4,-35.4 260.14,-38.04 264.02,-43.86"/>
</g>
</g>
</svg>
