<?xml version="1.0" encoding="UTF-8" standalone="no"?>
<!DOCTYPE svg PUBLIC "-//W3C//DTD SVG 1.1//EN"
 "http://www.w3.org/Graphics/SVG/1.1/DTD/svg11.dtd">
<!-- Generated by graphviz version 2.43.0 (0)
 -->
<!-- Title: deps Pages: 1 -->
<svg width="469pt" height="398pt"
 viewBox="0.00 0.00 469.03 398.00" xmlns="http://www.w3.org/2000/svg" xmlns:xlink="http://www.w3.org/1999/xlink">
<g id="graph0" class="graph" transform="scale(1 1) rotate(0) translate(4 394)">
<title>deps</title>
<polygon fill="white" stroke="transparent" points="-4,4 -4,-394 465.03,-394 465.03,4 -4,4"/>
<!-- tb -->
<g id="node1" class="node">
<title>tb</title>
<polygon fill="#fce4ec" stroke="black" points="309.03,-38 213.03,-38 213.03,-34 209.03,-34 209.03,-30 213.03,-30 213.03,-8 209.03,-8 209.03,-4 213.03,-4 213.03,0 309.03,0 309.03,-38"/>
<polyline fill="none" stroke="black" points="213.03,-34 217.03,-34 217.03,-30 213.03,-30 "/>
<polyline fill="none" stroke="black" points="213.03,-8 217.03,-8 217.03,-4 213.03,-4 "/>
<text text-anchor="middle" x="261.03" y="-22.8" font-family="sans-serif" font-size="14.00">tb_cpu</text>
<text text-anchor="middle" x="261.03" y="-7.8" font-family="sans-serif" font-size="14.00">(testbench)</text>
</g>
<!-- cpu -->
<g id="node2" class="node">
<title>cpu</title>
<polygon fill="#e8f5e9" stroke="black" points="237.03,-126 159.03,-126 159.03,-122 155.03,-122 155.03,-118 159.03,-118 159.03,-98 155.03,-98 155.03,-94 159.03,-94 159.03,-90 237.03,-90 237.03,-126"/>
<polyline fill="none" stroke="black" points="159.03,-122 163.03,-122 163.03,-118 159.03,-118 "/>
<polyline fill="none" stroke="black" points="159.03,-98 163.03,-98 163.03,-94 159.03,-94 "/>
<text text-anchor="middle" x="198.03" y="-104.3" font-family="sans-serif" font-size="14.00">cpu_core</text>
</g>
<!-- tb&#45;&gt;cpu -->
<g id="edge1" class="edge">
<title>tb&#45;&gt;cpu</title>
<path fill="none" stroke="black" d="M216.47,-38.14C209.53,-42.92 203.26,-48.81 199.03,-56 194.91,-63 193.61,-71.54 193.65,-79.61"/>
<polygon fill="black" stroke="black" points="190.17,-80.04 194.34,-89.78 197.15,-79.57 190.17,-80.04"/>
<text text-anchor="middle" x="251.03" y="-59.8" font-family="sans-serif" font-size="14.00">deps (type: rtl)</text>
</g>
<!-- fw -->
<g id="node6" class="node">
<title>fw</title>
<polygon fill="#f3e5f5" stroke="black" points="369.03,-127 281.03,-127 281.03,-123 277.03,-123 277.03,-119 281.03,-119 281.03,-97 277.03,-97 277.03,-93 281.03,-93 281.03,-89 369.03,-89 369.03,-127"/>
<polyline fill="none" stroke="black" points="281.03,-123 285.03,-123 285.03,-119 281.03,-119 "/>
<polyline fill="none" stroke="black" points="281.03,-97 285.03,-97 285.03,-93 281.03,-93 "/>
<text text-anchor="middle" x="325.03" y="-111.8" font-family="sans-serif" font-size="14.00">boot.hex</text>
<text text-anchor="middle" x="325.03" y="-96.8" font-family="sans-serif" font-size="14.00">(firmware)</text>
</g>
<!-- tb&#45;&gt;fw -->
<g id="edge2" class="edge">
<title>tb&#45;&gt;fw</title>
<path fill="none" stroke="black" d="M285.96,-38.12C292.08,-43.4 298.25,-49.5 303.03,-56 308.24,-63.07 312.52,-71.55 315.88,-79.56"/>
<polygon fill="black" stroke="black" points="312.65,-80.89 319.52,-88.95 319.17,-78.37 312.65,-80.89"/>
<text text-anchor="middle" x="386.03" y="-59.8" font-family="sans-serif" font-size="14.00">deps (type: firmware)</text>
</g>
<!-- alu -->
<g id="node3" class="node">
<title>alu</title>
<polygon fill="#e8f5e9" stroke="black" points="281.03,-301 227.03,-301 227.03,-297 223.03,-297 223.03,-293 227.03,-293 227.03,-273 223.03,-273 223.03,-269 227.03,-269 227.03,-265 281.03,-265 281.03,-301"/>
<polyline fill="none" stroke="black" points="227.03,-297 231.03,-297 231.03,-293 227.03,-293 "/>
<polyline fill="none" stroke="black" points="227.03,-273 231.03,-273 231.03,-269 227.03,-269 "/>
<text text-anchor="middle" x="254.03" y="-279.3" font-family="sans-serif" font-size="14.00">alu</text>
</g>
<!-- cpu&#45;&gt;alu -->
<g id="edge3" class="edge">
<title>cpu&#45;&gt;alu</title>
<path fill="none" stroke="black" d="M159.01,-114.88C91.88,-126.65 -34.3,-157 9.03,-214 34.16,-247.05 154.65,-268.25 216.79,-277.16"/>
<polygon fill="black" stroke="black" points="216.57,-280.67 226.96,-278.59 217.54,-273.73 216.57,-280.67"/>
<text text-anchor="middle" x="61.03" y="-192.3" font-family="sans-serif" font-size="14.00">deps (type: rtl)</text>
</g>
<!-- regfile -->
<g id="node4" class="node">
<title>regfile</title>
<polygon fill="#e8f5e9" stroke="black" points="182.03,-214 122.03,-214 122.03,-210 118.03,-210 118.03,-206 122.03,-206 122.03,-186 118.03,-186 118.03,-182 122.03,-182 122.03,-178 182.03,-178 182.03,-214"/>
<polyline fill="none" stroke="black" points="122.03,-210 126.03,-210 126.03,-206 122.03,-206 "/>
<polyline fill="none" stroke="black" points="122.03,-186 126.03,-186 126.03,-182 122.03,-182 "/>
<text text-anchor="middle" x="152.03" y="-192.3" font-family="sans-serif" font-size="14.00">regfile</text>
</g>
<!-- cpu&#45;&gt;regfile -->
<g id="edge4" class="edge">
<title>cpu&#45;&gt;regfile</title>
<path fill="none" stroke="black" d="M158.74,-123.64C149.72,-128.95 141.25,-135.94 136.03,-145 131.9,-152.19 132.72,-160.58 135.5,-168.42"/>
<polygon fill="black" stroke="black" points="132.34,-169.93 139.67,-177.58 138.72,-167.03 132.34,-169.93"/>
<text text-anchor="middle" x="188.03" y="-148.8" font-family="sans-serif" font-size="14.00">deps (type: rtl)</text>
</g>
<!-- decoder -->
<g id="node5" class="node">
<title>decoder</title>
<polygon fill="#e8f5e9" stroke="black" points="294.53,-214 221.53,-214 221.53,-210 217.53,-210 217.53,-206 221.53,-206 221.53,-186 217.53,-186 217.53,-182 221.53,-182 221.53,-178 294.53,-178 294.53,-214"/>
<polyline fill="none" stroke="black" points="221.53,-210 225.53,-210 225.53,-206 221.53,-206 "/>
<polyline fill="none" stroke="black" points="221.53,-186 225.53,-186 225.53,-182 221.53,-182 "/>
<text text-anchor="middle" x="258.03" y="-192.3" font-family="sans-serif" font-size="14.00">decoder</text>
</g>
<!-- cpu&#45;&gt;decoder -->
<g id="edge5" class="edge">
<title>cpu&#45;&gt;decoder</title>
<path fill="none" stroke="black" d="M222.36,-126.17C228.77,-131.62 235.23,-138.04 240.03,-145 244.82,-151.94 248.49,-160.3 251.22,-168.18"/>
<polygon fill="black" stroke="black" points="247.88,-169.25 254.19,-177.76 254.57,-167.17 247.88,-169.25"/>
<text text-anchor="middle" x="300.03" y="-148.8" font-family="sans-serif" font-size="14.00">deps (type: rtl)</text>
</g>
<!-- pkg -->
<g id="node7" class="node">
<title>pkg</title>
<polygon fill="#e0f7fa" stroke="black" points="360.53,-390 275.53,-390 275.53,-386 271.53,-386 271.53,-382 275.53,-382 275.53,-360 271.53,-360 271.53,-356 275.53,-356 275.53,-352 360.53,-352 360.53,-390"/>
<polyline fill="none" stroke="black" points="275.53,-386 279.53,-386 279.53,-382 275.53,-382 "/>
<polyline fill="none" stroke="black" points="275.53,-360 279.53,-360 279.53,-356 275.53,-356 "/>
<text text-anchor="middle" x="318.03" y="-374.8" font-family="sans-serif" font-size="14.00">cpu_pkg</text>
<text text-anchor="middle" x="318.03" y="-359.8" font-family="sans-serif" font-size="14.00">(package)</text>
</g>
<!-- cpu&#45;&gt;pkg -->
<g id="edge7" class="edge">
<title>cpu&#45;&gt;pkg</title>
<path fill="none" stroke="black" stroke-dasharray="5,2" d="M237.16,-118.73C248.4,-121.47 260.69,-124.41 272.03,-127 309.25,-135.51 331.52,-115.73 356.03,-145 403.86,-202.12 360.92,-296.73 334.75,-342.93"/>
<polygon fill="black" stroke="black" points="331.62,-341.36 329.62,-351.76 337.67,-344.87 331.62,-341.36"/>
<text text-anchor="middle" x="391.53" y="-235.8" font-family="sans-serif" font-size="14.00">uses</text>
</g>
<!-- alu&#45;&gt;pkg -->
<g id="edge8" class="edge">
<title>alu&#45;&gt;pkg</title>
<path fill="none" stroke="black" stroke-dasharray="5,2" d="M266.98,-301.4C276,-313.52 288.18,-329.89 298.39,-343.6"/>
<polygon fill="black" stroke="black" points="295.66,-345.8 304.44,-351.73 301.28,-341.62 295.66,-345.8"/>
<text text-anchor="middle" x="305.53" y="-322.8" font-family="sans-serif" font-size="14.00">uses</text>
</g>
<!-- decoder&#45;&gt;alu -->
<g id="edge6" class="edge">
<title>decoder&#45;&gt;alu</title>
<path fill="none" stroke="black" d="M256.34,-214.07C255.84,-219.77 255.34,-226.15 255.03,-232 254.65,-239.34 254.41,-247.29 254.26,-254.65"/>
<polygon fill="black" stroke="black" points="250.75,-254.81 254.1,-264.87 257.75,-254.92 250.75,-254.81"/>
<text text-anchor="middle" x="307.03" y="-235.8" font-family="sans-serif" font-size="14.00">deps (type: rtl)</text>
</g>
</g>
</svg>
