<?xml version="1.0" encoding="UTF-8" standalone="no"?>
<!DOCTYPE svg PUBLIC "-//W3C//DTD SVG 1.1//EN"
 "http://www.w3.org/Graphics/SVG/1.1/DTD/svg11.dtd">
<!-- Generated by graphviz version 2.43.0 (0)
 -->
<!-- Title: ip Pages: 1 -->
<svg width="478pt" height="118pt"
 viewBox="0.00 0.00 478.00 118.00" xmlns="http://www.w3.org/2000/svg" xmlns:xlink="http://www.w3.org/1999/xlink">
<g id="graph0" class="graph" transform="scale(1 1) rotate(0) translate(4 114)">
<title>ip</title>
<polygon fill="white" stroke="transparent" points="-4,4 -4,-114 474,-114 474,4 -4,4"/>
<!-- ip -->
<g id="node1" class="node">
<title>ip</title>
<path fill="#e3f2fd" stroke="black" d="M249,-110C249,-110 194,-110 194,-110 188,-110 182,-104 182,-98 182,-98 182,-86 182,-86 182,-80 188,-74 194,-74 194,-74 249,-74 249,-74 255,-74 261,-80 261,-86 261,-86 261,-98 261,-98 261,-104 255,-110 249,-110"/>
<text text-anchor="middle" x="221.5" y="-88.3" font-family="sans-serif" font-size="14.00">IP Blocks</text>
</g>
<!-- src -->
<g id="node2" class="node">
<title>src</title>
<path fill="#e8f5e9" stroke="black" d="M73,-38C73,-38 12,-38 12,-38 6,-38 0,-32 0,-26 0,-26 0,-12 0,-12 0,-6 6,0 12,0 12,0 73,0 73,0 79,0 85,-6 85,-12 85,-12 85,-26 85,-26 85,-32 79,-38 73,-38"/>
<text text-anchor="middle" x="42.5" y="-22.8" font-family="sans-serif" font-size="14.00">Source IP</text>
<text text-anchor="middle" x="42.5" y="-7.8" font-family="sans-serif" font-size="14.00">(RTL files)</text>
</g>
<!-- ip&#45;&gt;src -->
<g id="edge1" class="edge">
<title>ip&#45;&gt;src</title>
<path fill="none" stroke="black" d="M181.77,-75.24C156.16,-65.08 122.57,-51.76 94.8,-40.74"/>
<polygon fill="black" stroke="black" points="95.83,-37.39 85.24,-36.95 93.24,-43.89 95.83,-37.39"/>
</g>
<!-- bin -->
<g id="node3" class="node">
<title>bin</title>
<path fill="#fff3e0" stroke="black" d="M204,-38C204,-38 115,-38 115,-38 109,-38 103,-32 103,-26 103,-26 103,-12 103,-12 103,-6 109,0 115,0 115,0 204,0 204,0 210,0 216,-6 216,-12 216,-12 216,-26 216,-26 216,-32 210,-38 204,-38"/>
<text text-anchor="middle" x="159.5" y="-22.8" font-family="sans-serif" font-size="14.00">Binary IP</text>
<text text-anchor="middle" x="159.5" y="-7.8" font-family="sans-serif" font-size="14.00">(precompiled)</text>
</g>
<!-- ip&#45;&gt;bin -->
<g id="edge2" class="edge">
<title>ip&#45;&gt;bin</title>
<path fill="none" stroke="black" d="M206.49,-73.81C199.1,-65.35 190.04,-54.97 181.85,-45.6"/>
<polygon fill="black" stroke="black" points="184.45,-43.25 175.24,-38.02 179.18,-47.85 184.45,-43.25"/>
</g>
<!-- vendor -->
<g id="node4" class="node">
<title>vendor</title>
<path fill="#f3e5f5" stroke="black" d="M322.5,-38C322.5,-38 246.5,-38 246.5,-38 240.5,-38 234.5,-32 234.5,-26 234.5,-26 234.5,-12 234.5,-12 234.5,-6 240.5,0 246.5,0 246.5,0 322.5,0 322.5,0 328.5,0 334.5,-6 334.5,-12 334.5,-12 334.5,-26 334.5,-26 334.5,-32 328.5,-38 322.5,-38"/>
<text text-anchor="middle" x="284.5" y="-22.8" font-family="sans-serif" font-size="14.00">Vendor IP</text>
<text text-anchor="middle" x="284.5" y="-7.8" font-family="sans-serif" font-size="14.00">(Xilinx, etc.)</text>
</g>
<!-- ip&#45;&gt;vendor -->
<g id="edge3" class="edge">
<title>ip&#45;&gt;vendor</title>
<path fill="none" stroke="black" d="M236.75,-73.81C244.26,-65.35 253.47,-54.97 261.79,-45.6"/>
<polygon fill="black" stroke="black" points="264.49,-47.82 268.51,-38.02 259.26,-43.18 264.49,-47.82"/>
</g>
<!-- internal -->
<g id="node5" class="node">
<title>internal</title>
<path fill="#e0f7fa" stroke="black" d="M458,-38C458,-38 365,-38 365,-38 359,-38 353,-32 353,-26 353,-26 353,-12 353,-12 353,-6 359,0 365,0 365,0 458,0 458,0 464,0 470,-6 470,-12 470,-12 470,-26 470,-26 470,-32 464,-38 458,-38"/>
<text text-anchor="middle" x="411.5" y="-22.8" font-family="sans-serif" font-size="14.00">Internal IP</text>
<text text-anchor="middle" x="411.5" y="-7.8" font-family="sans-serif" font-size="14.00">(project reuse)</text>
</g>
<!-- ip&#45;&gt;internal -->
<g id="edge4" class="edge">
<title>ip&#45;&gt;internal</title>
<path fill="none" stroke="black" d="M261.33,-76.12C288.14,-66.1 323.91,-52.73 353.82,-41.56"/>
<polygon fill="black" stroke="black" points="355.16,-44.79 363.3,-38.01 352.71,-38.23 355.16,-44.79"/>
</g>
</g>
</svg>
