<?xml version="1.0" encoding="UTF-8" standalone="no"?>
<!DOCTYPE svg PUBLIC "-//W3C//DTD SVG 1.1//EN"
 "http://www.w3.org/Graphics/SVG/1.1/DTD/svg11.dtd">
<!-- Generated by graphviz version 2.43.0 (0)
 -->
<!-- Title: manifests Pages: 1 -->
<svg width="636pt" height="46pt"
 viewBox="0.00 0.00 635.50 46.00" xmlns="http://www.w3.org/2000/svg" xmlns:xlink="http://www.w3.org/1999/xlink">
<g id="graph0" class="graph" transform="scale(1 1) rotate(0) translate(4 42)">
<title>manifests</title>
<polygon fill="white" stroke="transparent" points="-4,4 -4,-42 631.5,-42 631.5,4 -4,4"/>
<!-- rtl -->
<g id="node1" class="node">
<title>rtl</title>
<polygon fill="#e8f5e9" stroke="black" points="129,-38 0,-38 0,0 135,0 135,-32 129,-38"/>
<polyline fill="none" stroke="black" points="129,-38 129,-32 "/>
<polyline fill="none" stroke="black" points="135,-32 129,-32 "/>
<text text-anchor="middle" x="67.5" y="-22.8" font-family="sans-serif" font-size="14.00">RTL Manifest</text>
<text text-anchor="middle" x="67.5" y="-7.8" font-family="sans-serif" font-size="14.00">rtl/manifest.yaml</text>
</g>
<!-- tb -->
<g id="node2" class="node">
<title>tb</title>
<polygon fill="#fce4ec" stroke="black" points="297.5,-38 153.5,-38 153.5,0 303.5,0 303.5,-32 297.5,-38"/>
<polyline fill="none" stroke="black" points="297.5,-38 297.5,-32 "/>
<polyline fill="none" stroke="black" points="303.5,-32 297.5,-32 "/>
<text text-anchor="middle" x="228.5" y="-22.8" font-family="sans-serif" font-size="14.00">Testbench Manifest</text>
<text text-anchor="middle" x="228.5" y="-7.8" font-family="sans-serif" font-size="14.00">tb/manifest.yaml</text>
</g>
<!-- fw -->
<g id="node3" class="node">
<title>fw</title>
<polygon fill="#f3e5f5" stroke="black" points="459,-38 322,-38 322,0 465,0 465,-32 459,-38"/>
<polyline fill="none" stroke="black" points="459,-38 459,-32 "/>
<polyline fill="none" stroke="black" points="465,-32 459,-32 "/>
<text text-anchor="middle" x="393.5" y="-22.8" font-family="sans-serif" font-size="14.00">Firmware Manifest</text>
<text text-anchor="middle" x="393.5" y="-7.8" font-family="sans-serif" font-size="14.00">fw/manifest.yaml</text>
</g>
<!-- ip -->
<g id="node4" class="node">
<title>ip</title>
<polygon fill="#e0f7fa" stroke="black" points="621.5,-38 483.5,-38 483.5,0 627.5,0 627.5,-32 621.5,-38"/>
<polyline fill="none" stroke="black" points="621.5,-38 621.5,-32 "/>
<polyline fill="none" stroke="black" points="627.5,-32 621.5,-32 "/>
<text text-anchor="middle" x="555.5" y="-22.8" font-family="sans-serif" font-size="14.00">IP Manifest</text>
<text text-anchor="middle" x="555.5" y="-7.8" font-family="sans-serif" font-size="14.00">ip/*/manifest.yaml</text>
</g>
</g>
</svg>
