<?xml version="1.0" encoding="UTF-8" standalone="no"?>
<!DOCTYPE svg PUBLIC "-//W3C//DTD SVG 1.1//EN"
 "http://www.w3.org/Graphics/SVG/1.1/DTD/svg11.dtd">
<!-- Generated by graphviz version 2.43.0 (0)
 -->
<!-- Title: overview Pages: 1 -->
<svg width="438pt" height="44pt"
 viewBox="0.00 0.00 438.00 44.00" xmlns="http://www.w3.org/2000/svg" xmlns:xlink="http://www.w3.org/1999/xlink">
<g id="graph0" class="graph" transform="scale(1 1) rotate(0) translate(4 40)">
<title>overview</title>
<polygon fill="white" stroke="transparent" points="-4,4 -4,-40 434,-40 434,4 -4,4"/>
<!-- RTL -->
<g id="node1" class="node">
<title>RTL</title>
<path fill="#e1f5fe" stroke="black" d="M82,-36C82,-36 12,-36 12,-36 6,-36 0,-30 0,-24 0,-24 0,-12 0,-12 0,-6 6,0 12,0 12,0 82,0 82,0 88,0 94,-6 94,-12 94,-12 94,-24 94,-24 94,-30 88,-36 82,-36"/>
<text text-anchor="middle" x="47" y="-14.3" font-family="sans-serif" font-size="14.00">RTL Design</text>
</g>
<!-- Sim -->
<g id="node2" class="node">
<title>Sim</title>
<path fill="#fff3e0" stroke="black" d="M208,-36C208,-36 142,-36 142,-36 136,-36 130,-30 130,-24 130,-24 130,-12 130,-12 130,-6 136,0 142,0 142,0 208,0 208,0 214,0 220,-6 220,-12 220,-12 220,-24 220,-24 220,-30 214,-36 208,-36"/>
<text text-anchor="middle" x="175" y="-14.3" font-family="sans-serif" font-size="14.00">Simulation</text>
</g>
<!-- RTL&#45;&gt;Sim -->
<g id="edge1" class="edge">
<title>RTL&#45;&gt;Sim</title>
<path fill="none" stroke="black" d="M94.2,-18C102.49,-18 111.2,-18 119.69,-18"/>
<polygon fill="black" stroke="black" points="119.9,-21.5 129.9,-18 119.9,-14.5 119.9,-21.5"/>
</g>
<!-- Synth -->
<g id="node3" class="node">
<title>Synth</title>
<path fill="#f3e5f5" stroke="black" d="M328,-36C328,-36 268,-36 268,-36 262,-36 256,-30 256,-24 256,-24 256,-12 256,-12 256,-6 262,0 268,0 268,0 328,0 328,0 334,0 340,-6 340,-12 340,-12 340,-24 340,-24 340,-30 334,-36 328,-36"/>
<text text-anchor="middle" x="298" y="-14.3" font-family="sans-serif" font-size="14.00">Synthesis</text>
</g>
<!-- Sim&#45;&gt;Synth -->
<g id="edge2" class="edge">
<title>Sim&#45;&gt;Synth</title>
<path fill="none" stroke="black" d="M220.03,-18C228.29,-18 237,-18 245.46,-18"/>
<polygon fill="black" stroke="black" points="245.63,-21.5 255.63,-18 245.63,-14.5 245.63,-21.5"/>
</g>
<!-- FPGA -->
<g id="node4" class="node">
<title>FPGA</title>
<path fill="#e8f5e9" stroke="black" d="M418,-36C418,-36 388,-36 388,-36 382,-36 376,-30 376,-24 376,-24 376,-12 376,-12 376,-6 382,0 388,0 388,0 418,0 418,0 424,0 430,-6 430,-12 430,-12 430,-24 430,-24 430,-30 424,-36 418,-36"/>
<text text-anchor="middle" x="403" y="-14.3" font-family="sans-serif" font-size="14.00">FPGA</text>
</g>
<!-- Synth&#45;&gt;FPGA -->
<g id="edge3" class="edge">
<title>Synth&#45;&gt;FPGA</title>
<path fill="none" stroke="black" d="M340,-18C348.52,-18 357.45,-18 365.78,-18"/>
<polygon fill="black" stroke="black" points="365.95,-21.5 375.95,-18 365.95,-14.5 365.95,-21.5"/>
</g>
</g>
</svg>
