<?xml version="1.0" encoding="UTF-8" standalone="no"?>
<!DOCTYPE svg PUBLIC "-//W3C//DTD SVG 1.1//EN"
 "http://www.w3.org/Graphics/SVG/1.1/DTD/svg11.dtd">
<!-- Generated by graphviz version 2.43.0 (0)
 -->
<!-- Title: lint Pages: 1 -->
<svg width="203pt" height="102pt"
 viewBox="0.00 0.00 203.00 102.00" xmlns="http://www.w3.org/2000/svg" xmlns:xlink="http://www.w3.org/1999/xlink">
<g id="graph0" class="graph" transform="scale(1 1) rotate(0) translate(4 98)">
<title>lint</title>
<polygon fill="white" stroke="transparent" points="-4,4 -4,-98 199,-98 199,4 -4,4"/>
<!-- aly -->
<g id="node1" class="node">
<title>aly</title>
<path fill="#e3f2fd" stroke="black" d="M51,-65C51,-65 12,-65 12,-65 6,-65 0,-59 0,-53 0,-53 0,-41 0,-41 0,-35 6,-29 12,-29 12,-29 51,-29 51,-29 57,-29 63,-35 63,-41 63,-41 63,-53 63,-53 63,-59 57,-65 51,-65"/>
<text text-anchor="middle" x="31.5" y="-43.3" font-family="sans-serif" font-size="14.00">aly lint</text>
</g>
<!-- verilator -->
<g id="node2" class="node">
<title>verilator</title>
<path fill="#e8f5e9" stroke="black" d="M183,-94C183,-94 111,-94 111,-94 105,-94 99,-88 99,-82 99,-82 99,-68 99,-68 99,-62 105,-56 111,-56 111,-56 183,-56 183,-56 189,-56 195,-62 195,-68 195,-68 195,-82 195,-82 195,-88 189,-94 183,-94"/>
<text text-anchor="middle" x="147" y="-78.8" font-family="sans-serif" font-size="14.00">Verilator</text>
<text text-anchor="middle" x="147" y="-63.8" font-family="sans-serif" font-size="14.00">(Lint mode)</text>
</g>
<!-- aly&#45;&gt;verilator -->
<g id="edge1" class="edge">
<title>aly&#45;&gt;verilator</title>
<path fill="none" stroke="black" d="M63.21,-54.58C71.13,-56.53 79.91,-58.7 88.71,-60.87"/>
<polygon fill="black" stroke="black" points="88.06,-64.31 98.61,-63.31 89.74,-57.52 88.06,-64.31"/>
</g>
<!-- slang -->
<g id="node3" class="node">
<title>slang</title>
<path fill="#fff3e0" stroke="black" d="M182.5,-38C182.5,-38 111.5,-38 111.5,-38 105.5,-38 99.5,-32 99.5,-26 99.5,-26 99.5,-12 99.5,-12 99.5,-6 105.5,0 111.5,0 111.5,0 182.5,0 182.5,0 188.5,0 194.5,-6 194.5,-12 194.5,-12 194.5,-26 194.5,-26 194.5,-32 188.5,-38 182.5,-38"/>
<text text-anchor="middle" x="147" y="-22.8" font-family="sans-serif" font-size="14.00">Slang</text>
<text text-anchor="middle" x="147" y="-7.8" font-family="sans-serif" font-size="14.00">(SV parser)</text>
</g>
<!-- aly&#45;&gt;slang -->
<g id="edge2" class="edge">
<title>aly&#45;&gt;slang</title>
<path fill="none" stroke="black" d="M63.21,-39.42C71.41,-37.4 80.53,-35.15 89.64,-32.9"/>
<polygon fill="black" stroke="black" points="90.6,-36.27 99.47,-30.48 88.93,-29.48 90.6,-36.27"/>
</g>
</g>
</svg>
