<?xml version="1.0" encoding="UTF-8" standalone="no"?>
<!DOCTYPE svg PUBLIC "-//W3C//DTD SVG 1.1//EN"
 "http://www.w3.org/Graphics/SVG/1.1/DTD/svg11.dtd">
<!-- Generated by graphviz version 2.43.0 (0)
 -->
<!-- Title: commands Pages: 1 -->
<svg width="692pt" height="116pt"
 viewBox="0.00 0.00 692.00 116.00" xmlns="http://www.w3.org/2000/svg" xmlns:xlink="http://www.w3.org/1999/xlink">
<g id="graph0" class="graph" transform="scale(1 1) rotate(0) translate(4 112)">
<title>commands</title>
<polygon fill="white" stroke="transparent" points="-4,4 -4,-112 688,-112 688,4 -4,4"/>
<!-- aly -->
<g id="node1" class="node">
<title>aly</title>
<path fill="#e3f2fd" stroke="black" d="M344,-108C344,-108 314,-108 314,-108 308,-108 302,-102 302,-96 302,-96 302,-84 302,-84 302,-78 308,-72 314,-72 314,-72 344,-72 344,-72 350,-72 356,-78 356,-84 356,-84 356,-96 356,-96 356,-102 350,-108 344,-108"/>
<text text-anchor="middle" x="329" y="-86.3" font-family="sans-serif" font-size="14.00">aly</text>
</g>
<!-- init -->
<g id="node2" class="node">
<title>init</title>
<path fill="#e8f5e9" stroke="black" d="M42,-36C42,-36 12,-36 12,-36 6,-36 0,-30 0,-24 0,-24 0,-12 0,-12 0,-6 6,0 12,0 12,0 42,0 42,0 48,0 54,-6 54,-12 54,-12 54,-24 54,-24 54,-30 48,-36 42,-36"/>
<text text-anchor="middle" x="27" y="-14.3" font-family="sans-serif" font-size="14.00">init</text>
</g>
<!-- aly&#45;&gt;init -->
<g id="edge1" class="edge">
<title>aly&#45;&gt;init</title>
<path fill="none" stroke="black" d="M301.63,-85.79C254.44,-79.79 154.85,-65.03 63.86,-35.86"/>
<polygon fill="black" stroke="black" points="64.83,-32.49 54.23,-32.7 62.65,-39.14 64.83,-32.49"/>
</g>
<!-- sim -->
<g id="node3" class="node">
<title>sim</title>
<path fill="#fff3e0" stroke="black" d="M114,-36C114,-36 84,-36 84,-36 78,-36 72,-30 72,-24 72,-24 72,-12 72,-12 72,-6 78,0 84,0 84,0 114,0 114,0 120,0 126,-6 126,-12 126,-12 126,-24 126,-24 126,-30 120,-36 114,-36"/>
<text text-anchor="middle" x="99" y="-14.3" font-family="sans-serif" font-size="14.00">sim</text>
</g>
<!-- aly&#45;&gt;sim -->
<g id="edge2" class="edge">
<title>aly&#45;&gt;sim</title>
<path fill="none" stroke="black" d="M301.86,-83.16C265.7,-75.05 199.7,-59.07 135.73,-35.96"/>
<polygon fill="black" stroke="black" points="136.9,-32.66 126.31,-32.5 134.49,-39.23 136.9,-32.66"/>
</g>
<!-- synth -->
<g id="node4" class="node">
<title>synth</title>
<path fill="#f3e5f5" stroke="black" d="M188,-36C188,-36 156,-36 156,-36 150,-36 144,-30 144,-24 144,-24 144,-12 144,-12 144,-6 150,0 156,0 156,0 188,0 188,0 194,0 200,-6 200,-12 200,-12 200,-24 200,-24 200,-30 194,-36 188,-36"/>
<text text-anchor="middle" x="172" y="-14.3" font-family="sans-serif" font-size="14.00">synth</text>
</g>
<!-- aly&#45;&gt;synth -->
<g id="edge3" class="edge">
<title>aly&#45;&gt;synth</title>
<path fill="none" stroke="black" d="M301.78,-77.12C279.33,-67.28 246.42,-52.8 209.68,-36.28"/>
<polygon fill="black" stroke="black" points="210.82,-32.95 200.26,-32.04 207.94,-39.34 210.82,-32.95"/>
</g>
<!-- lint -->
<g id="node5" class="node">
<title>lint</title>
<path fill="#fce4ec" stroke="black" d="M260,-36C260,-36 230,-36 230,-36 224,-36 218,-30 218,-24 218,-24 218,-12 218,-12 218,-6 224,0 230,0 230,0 260,0 260,0 266,0 272,-6 272,-12 272,-12 272,-24 272,-24 272,-30 266,-36 260,-36"/>
<text text-anchor="middle" x="245" y="-14.3" font-family="sans-serif" font-size="14.00">lint</text>
</g>
<!-- aly&#45;&gt;lint -->
<g id="edge4" class="edge">
<title>aly&#45;&gt;lint</title>
<path fill="none" stroke="black" d="M308.24,-71.7C297.76,-62.97 284.89,-52.24 273.5,-42.75"/>
<polygon fill="black" stroke="black" points="275.45,-39.82 265.53,-36.1 270.97,-45.19 275.45,-39.82"/>
</g>
<!-- fw -->
<g id="node6" class="node">
<title>fw</title>
<path fill="#e0f7fa" stroke="black" d="M355.5,-36C355.5,-36 302.5,-36 302.5,-36 296.5,-36 290.5,-30 290.5,-24 290.5,-24 290.5,-12 290.5,-12 290.5,-6 296.5,0 302.5,0 302.5,0 355.5,0 355.5,0 361.5,0 367.5,-6 367.5,-12 367.5,-12 367.5,-24 367.5,-24 367.5,-30 361.5,-36 355.5,-36"/>
<text text-anchor="middle" x="329" y="-14.3" font-family="sans-serif" font-size="14.00">firmware</text>
</g>
<!-- aly&#45;&gt;fw -->
<g id="edge5" class="edge">
<title>aly&#45;&gt;fw</title>
<path fill="none" stroke="black" d="M329,-71.7C329,-63.98 329,-54.71 329,-46.11"/>
<polygon fill="black" stroke="black" points="332.5,-46.1 329,-36.1 325.5,-46.1 332.5,-46.1"/>
</g>
<!-- prog -->
<g id="node7" class="node">
<title>prog</title>
<path fill="#fff8e1" stroke="black" d="M450,-36C450,-36 398,-36 398,-36 392,-36 386,-30 386,-24 386,-24 386,-12 386,-12 386,-6 392,0 398,0 398,0 450,0 450,0 456,0 462,-6 462,-12 462,-12 462,-24 462,-24 462,-30 456,-36 450,-36"/>
<text text-anchor="middle" x="424" y="-14.3" font-family="sans-serif" font-size="14.00">program</text>
</g>
<!-- aly&#45;&gt;prog -->
<g id="edge6" class="edge">
<title>aly&#45;&gt;prog</title>
<path fill="none" stroke="black" d="M352.48,-71.7C364.56,-62.8 379.45,-51.82 392.52,-42.2"/>
<polygon fill="black" stroke="black" points="394.81,-44.85 400.79,-36.1 390.66,-39.22 394.81,-44.85"/>
</g>
<!-- config -->
<g id="node8" class="node">
<title>config</title>
<path fill="#eceff1" stroke="black" d="M527.5,-36C527.5,-36 492.5,-36 492.5,-36 486.5,-36 480.5,-30 480.5,-24 480.5,-24 480.5,-12 480.5,-12 480.5,-6 486.5,0 492.5,0 492.5,0 527.5,0 527.5,0 533.5,0 539.5,-6 539.5,-12 539.5,-12 539.5,-24 539.5,-24 539.5,-30 533.5,-36 527.5,-36"/>
<text text-anchor="middle" x="510" y="-14.3" font-family="sans-serif" font-size="14.00">config</text>
</g>
<!-- aly&#45;&gt;config -->
<g id="edge7" class="edge">
<title>aly&#45;&gt;config</title>
<path fill="none" stroke="black" d="M356.13,-79.37C384.83,-69.06 431.36,-52.03 471,-36 471.09,-35.96 471.19,-35.92 471.28,-35.89"/>
<polygon fill="black" stroke="black" points="472.36,-39.23 480.26,-32.16 469.68,-32.76 472.36,-39.23"/>
</g>
<!-- rtl -->
<g id="node9" class="node">
<title>rtl</title>
<path fill="#e8f5e9" stroke="black" d="M600,-36C600,-36 570,-36 570,-36 564,-36 558,-30 558,-24 558,-24 558,-12 558,-12 558,-6 564,0 570,0 570,0 600,0 600,0 606,0 612,-6 612,-12 612,-12 612,-24 612,-24 612,-30 606,-36 600,-36"/>
<text text-anchor="middle" x="585" y="-14.3" font-family="sans-serif" font-size="14.00">rtl</text>
</g>
<!-- aly&#45;&gt;rtl -->
<g id="edge8" class="edge">
<title>aly&#45;&gt;rtl</title>
<path fill="none" stroke="black" d="M356.27,-84.29C396.55,-76.95 474.32,-61.26 547.85,-36.04"/>
<polygon fill="black" stroke="black" points="549.44,-39.19 557.73,-32.59 547.13,-32.58 549.44,-39.19"/>
</g>
<!-- ip -->
<g id="node10" class="node">
<title>ip</title>
<path fill="#e0f7fa" stroke="black" d="M672,-36C672,-36 642,-36 642,-36 636,-36 630,-30 630,-24 630,-24 630,-12 630,-12 630,-6 636,0 642,0 642,0 672,0 672,0 678,0 684,-6 684,-12 684,-12 684,-24 684,-24 684,-30 678,-36 672,-36"/>
<text text-anchor="middle" x="657" y="-14.3" font-family="sans-serif" font-size="14.00">ip</text>
</g>
<!-- aly&#45;&gt;ip -->
<g id="edge9" class="edge">
<title>aly&#45;&gt;ip</title>
<path fill="none" stroke="black" d="M356.15,-86.47C406.8,-81.24 519.01,-67.28 620.04,-35.85"/>
<polygon fill="black" stroke="black" points="621.31,-39.12 629.78,-32.76 619.19,-32.45 621.31,-39.12"/>
</g>
</g>
</svg>
