<?xml version="1.0" encoding="UTF-8" standalone="no"?>
<!DOCTYPE svg PUBLIC "-//W3C//DTD SVG 1.1//EN"
 "http://www.w3.org/Graphics/SVG/1.1/DTD/svg11.dtd">
<!-- Generated by graphviz version 2.43.0 (0)
 -->
<!-- Title: api Pages: 1 -->
<svg width="324pt" height="188pt"
 viewBox="0.00 0.00 324.00 188.00" xmlns="http://www.w3.org/2000/svg" xmlns:xlink="http://www.w3.org/1999/xlink">
<g id="graph0" class="graph" transform="scale(1 1) rotate(0) translate(4 184)">
<title>api</title>
<polygon fill="white" stroke="transparent" points="-4,4 -4,-184 320,-184 320,4 -4,4"/>
<!-- aly -->
<g id="node1" class="node">
<title>aly</title>
<path fill="#e3f2fd" stroke="black" d="M195.5,-180C195.5,-180 165.5,-180 165.5,-180 159.5,-180 153.5,-174 153.5,-168 153.5,-168 153.5,-156 153.5,-156 153.5,-150 159.5,-144 165.5,-144 165.5,-144 195.5,-144 195.5,-144 201.5,-144 207.5,-150 207.5,-156 207.5,-156 207.5,-168 207.5,-168 207.5,-174 201.5,-180 195.5,-180"/>
<text text-anchor="middle" x="180.5" y="-158.3" font-family="sans-serif" font-size="14.00">aly</text>
</g>
<!-- config -->
<g id="node2" class="node">
<title>config</title>
<path fill="#e8f5e9" stroke="black" d="M97.5,-108C97.5,-108 39.5,-108 39.5,-108 33.5,-108 27.5,-102 27.5,-96 27.5,-96 27.5,-84 27.5,-84 27.5,-78 33.5,-72 39.5,-72 39.5,-72 97.5,-72 97.5,-72 103.5,-72 109.5,-78 109.5,-84 109.5,-84 109.5,-96 109.5,-96 109.5,-102 103.5,-108 97.5,-108"/>
<text text-anchor="middle" x="68.5" y="-86.3" font-family="sans-serif" font-size="14.00">aly.config</text>
</g>
<!-- aly&#45;&gt;config -->
<g id="edge1" class="edge">
<title>aly&#45;&gt;config</title>
<path fill="none" stroke="black" d="M153.39,-144.05C138.64,-134.84 120.21,-123.32 104.29,-113.37"/>
<polygon fill="black" stroke="black" points="106.09,-110.36 95.75,-108.03 102.38,-116.3 106.09,-110.36"/>
</g>
<!-- backends -->
<g id="node4" class="node">
<title>backends</title>
<path fill="#fff3e0" stroke="black" d="M221,-108C221,-108 140,-108 140,-108 134,-108 128,-102 128,-96 128,-96 128,-84 128,-84 128,-78 134,-72 140,-72 140,-72 221,-72 221,-72 227,-72 233,-78 233,-84 233,-84 233,-96 233,-96 233,-102 227,-108 221,-108"/>
<text text-anchor="middle" x="180.5" y="-86.3" font-family="sans-serif" font-size="14.00">aly.backends</text>
</g>
<!-- aly&#45;&gt;backends -->
<g id="edge2" class="edge">
<title>aly&#45;&gt;backends</title>
<path fill="none" stroke="black" d="M180.5,-143.7C180.5,-135.98 180.5,-126.71 180.5,-118.11"/>
<polygon fill="black" stroke="black" points="184,-118.1 180.5,-108.1 177,-118.1 184,-118.1"/>
</g>
<!-- app -->
<g id="node5" class="node">
<title>app</title>
<path fill="#f3e5f5" stroke="black" d="M304,-108C304,-108 263,-108 263,-108 257,-108 251,-102 251,-96 251,-96 251,-84 251,-84 251,-78 257,-72 263,-72 263,-72 304,-72 304,-72 310,-72 316,-78 316,-84 316,-84 316,-96 316,-96 316,-102 310,-108 304,-108"/>
<text text-anchor="middle" x="283.5" y="-86.3" font-family="sans-serif" font-size="14.00">aly.app</text>
</g>
<!-- aly&#45;&gt;app -->
<g id="edge3" class="edge">
<title>aly&#45;&gt;app</title>
<path fill="none" stroke="black" d="M205.7,-143.88C218.91,-134.89 235.29,-123.76 249.61,-114.03"/>
<polygon fill="black" stroke="black" points="251.9,-116.71 258.21,-108.19 247.97,-110.92 251.9,-116.71"/>
</g>
<!-- models -->
<g id="node3" class="node">
<title>models</title>
<path fill="#c8e6c9" stroke="black" d="M125,-36C125,-36 12,-36 12,-36 6,-36 0,-30 0,-24 0,-24 0,-12 0,-12 0,-6 6,0 12,0 12,0 125,0 125,0 131,0 137,-6 137,-12 137,-12 137,-24 137,-24 137,-30 131,-36 125,-36"/>
<text text-anchor="middle" x="68.5" y="-14.3" font-family="sans-serif" font-size="14.00">aly.config.models</text>
</g>
<!-- config&#45;&gt;models -->
<g id="edge4" class="edge">
<title>config&#45;&gt;models</title>
<path fill="none" stroke="black" d="M68.5,-71.7C68.5,-63.98 68.5,-54.71 68.5,-46.11"/>
<polygon fill="black" stroke="black" points="72,-46.1 68.5,-36.1 65,-46.1 72,-46.1"/>
</g>
</g>
</svg>
