<?xml version="1.0" encoding="UTF-8" standalone="no"?>
<!DOCTYPE svg PUBLIC "-//W3C//DTD SVG 1.1//EN"
 "http://www.w3.org/Graphics/SVG/1.1/DTD/svg11.dtd">
<!-- Generated by graphviz version 2.43.0 (0)
 -->
<!-- Title: constraints Pages: 1 -->
<svg width="278pt" height="158pt"
 viewBox="0.00 0.00 278.00 158.00" xmlns="http://www.w3.org/2000/svg" xmlns:xlink="http://www.w3.org/1999/xlink">
<g id="graph0" class="graph" transform="scale(1 1) rotate(0) translate(4 154)">
<title>constraints</title>
<polygon fill="white" stroke="transparent" points="-4,4 -4,-154 274,-154 274,4 -4,4"/>
<!-- constraints -->
<g id="node1" class="node">
<title>constraints</title>
<path fill="#e3f2fd" stroke="black" d="M84,-93C84,-93 12,-93 12,-93 6,-93 0,-87 0,-81 0,-81 0,-69 0,-69 0,-63 6,-57 12,-57 12,-57 84,-57 84,-57 90,-57 96,-63 96,-69 96,-69 96,-81 96,-81 96,-87 90,-93 84,-93"/>
<text text-anchor="middle" x="48" y="-71.3" font-family="sans-serif" font-size="14.00">Constraints</text>
</g>
<!-- timing -->
<g id="node2" class="node">
<title>timing</title>
<path fill="#e8f5e9" stroke="black" d="M251,-150C251,-150 151,-150 151,-150 145,-150 139,-144 139,-138 139,-138 139,-124 139,-124 139,-118 145,-112 151,-112 151,-112 251,-112 251,-112 257,-112 263,-118 263,-124 263,-124 263,-138 263,-138 263,-144 257,-150 251,-150"/>
<text text-anchor="middle" x="201" y="-134.8" font-family="sans-serif" font-size="14.00">Timing</text>
<text text-anchor="middle" x="201" y="-119.8" font-family="sans-serif" font-size="14.00">(clocks, delays)</text>
</g>
<!-- constraints&#45;&gt;timing -->
<g id="edge1" class="edge">
<title>constraints&#45;&gt;timing</title>
<path fill="none" stroke="black" d="M96.36,-92.57C109.86,-97.57 124.75,-103.09 138.93,-108.35"/>
<polygon fill="black" stroke="black" points="138.02,-111.75 148.61,-111.94 140.46,-105.18 138.02,-111.75"/>
</g>
<!-- physical -->
<g id="node3" class="node">
<title>physical</title>
<path fill="#fff3e0" stroke="black" d="M258,-94C258,-94 144,-94 144,-94 138,-94 132,-88 132,-82 132,-82 132,-68 132,-68 132,-62 138,-56 144,-56 144,-56 258,-56 258,-56 264,-56 270,-62 270,-68 270,-68 270,-82 270,-82 270,-88 264,-94 258,-94"/>
<text text-anchor="middle" x="201" y="-78.8" font-family="sans-serif" font-size="14.00">Physical</text>
<text text-anchor="middle" x="201" y="-63.8" font-family="sans-serif" font-size="14.00">(pins, placement)</text>
</g>
<!-- constraints&#45;&gt;physical -->
<g id="edge2" class="edge">
<title>constraints&#45;&gt;physical</title>
<path fill="none" stroke="black" d="M96.36,-75C104.44,-75 113.03,-75 121.66,-75"/>
<polygon fill="black" stroke="black" points="121.79,-78.5 131.79,-75 121.79,-71.5 121.79,-78.5"/>
</g>
<!-- io -->
<g id="node4" class="node">
<title>io</title>
<path fill="#f3e5f5" stroke="black" d="M250,-38C250,-38 152,-38 152,-38 146,-38 140,-32 140,-26 140,-26 140,-12 140,-12 140,-6 146,0 152,0 152,0 250,0 250,0 256,0 262,-6 262,-12 262,-12 262,-26 262,-26 262,-32 256,-38 250,-38"/>
<text text-anchor="middle" x="201" y="-22.8" font-family="sans-serif" font-size="14.00">I/O Standards</text>
<text text-anchor="middle" x="201" y="-7.8" font-family="sans-serif" font-size="14.00">(voltage, drive)</text>
</g>
<!-- constraints&#45;&gt;io -->
<g id="edge3" class="edge">
<title>constraints&#45;&gt;io</title>
<path fill="none" stroke="black" d="M96.36,-57.43C109.86,-52.43 124.75,-46.91 138.93,-41.65"/>
<polygon fill="black" stroke="black" points="140.46,-44.82 148.61,-38.06 138.02,-38.25 140.46,-44.82"/>
</g>
</g>
</svg>
