<?xml version="1.0" encoding="UTF-8" standalone="no"?>
<!DOCTYPE svg PUBLIC "-//W3C//DTD SVG 1.1//EN"
 "http://www.w3.org/Graphics/SVG/1.1/DTD/svg11.dtd">
<!-- Generated by graphviz version 2.43.0 (0)
 -->
<!-- Title: simulators Pages: 1 -->
<svg width="205pt" height="152pt"
 viewBox="0.00 0.00 205.00 152.00" xmlns="http://www.w3.org/2000/svg" xmlns:xlink="http://www.w3.org/1999/xlink">
<g id="graph0" class="graph" transform="scale(1 1) rotate(0) translate(4 148)">
<title>simulators</title>
<polygon fill="white" stroke="transparent" points="-4,4 -4,-148 201,-148 201,4 -4,4"/>
<!-- aly -->
<g id="node1" class="node">
<title>aly</title>
<path fill="#e3f2fd" stroke="black" d="M54,-90C54,-90 12,-90 12,-90 6,-90 0,-84 0,-78 0,-78 0,-66 0,-66 0,-60 6,-54 12,-54 12,-54 54,-54 54,-54 60,-54 66,-60 66,-66 66,-66 66,-78 66,-78 66,-84 60,-90 54,-90"/>
<text text-anchor="middle" x="33" y="-68.3" font-family="sans-serif" font-size="14.00">aly sim</text>
</g>
<!-- xsim -->
<g id="node2" class="node">
<title>xsim</title>
<path fill="#fff3e0" stroke="black" d="M185,-144C185,-144 114,-144 114,-144 108,-144 102,-138 102,-132 102,-132 102,-120 102,-120 102,-114 108,-108 114,-108 114,-108 185,-108 185,-108 191,-108 197,-114 197,-120 197,-120 197,-132 197,-132 197,-138 191,-144 185,-144"/>
<text text-anchor="middle" x="149.5" y="-122.3" font-family="sans-serif" font-size="14.00">Xilinx XSim</text>
</g>
<!-- aly&#45;&gt;xsim -->
<g id="edge1" class="edge">
<title>aly&#45;&gt;xsim</title>
<path fill="none" stroke="black" d="M66.2,-87.19C76.95,-92.26 89.17,-98.02 100.84,-103.52"/>
<polygon fill="black" stroke="black" points="99.51,-106.77 110.05,-107.87 102.5,-100.43 99.51,-106.77"/>
</g>
<!-- verilator -->
<g id="node3" class="node">
<title>verilator</title>
<path fill="#e8f5e9" stroke="black" d="M174.5,-90C174.5,-90 124.5,-90 124.5,-90 118.5,-90 112.5,-84 112.5,-78 112.5,-78 112.5,-66 112.5,-66 112.5,-60 118.5,-54 124.5,-54 124.5,-54 174.5,-54 174.5,-54 180.5,-54 186.5,-60 186.5,-66 186.5,-66 186.5,-78 186.5,-78 186.5,-84 180.5,-90 174.5,-90"/>
<text text-anchor="middle" x="149.5" y="-68.3" font-family="sans-serif" font-size="14.00">Verilator</text>
</g>
<!-- aly&#45;&gt;verilator -->
<g id="edge2" class="edge">
<title>aly&#45;&gt;verilator</title>
<path fill="none" stroke="black" d="M66.2,-72C77.25,-72 89.85,-72 101.81,-72"/>
<polygon fill="black" stroke="black" points="102.11,-75.5 112.11,-72 102.11,-68.5 102.11,-75.5"/>
</g>
<!-- questa -->
<g id="node4" class="node">
<title>questa</title>
<path fill="#f3e5f5" stroke="black" d="M183.5,-36C183.5,-36 115.5,-36 115.5,-36 109.5,-36 103.5,-30 103.5,-24 103.5,-24 103.5,-12 103.5,-12 103.5,-6 109.5,0 115.5,0 115.5,0 183.5,0 183.5,0 189.5,0 195.5,-6 195.5,-12 195.5,-12 195.5,-24 195.5,-24 195.5,-30 189.5,-36 183.5,-36"/>
<text text-anchor="middle" x="149.5" y="-14.3" font-family="sans-serif" font-size="14.00">QuestaSim</text>
</g>
<!-- aly&#45;&gt;questa -->
<g id="edge3" class="edge">
<title>aly&#45;&gt;questa</title>
<path fill="none" stroke="black" d="M66.2,-56.81C76.95,-51.74 89.17,-45.98 100.84,-40.48"/>
<polygon fill="black" stroke="black" points="102.5,-43.57 110.05,-36.13 99.51,-37.23 102.5,-43.57"/>
</g>
</g>
</svg>
