<svg xmlns="http://www.w3.org/2000/svg" xmlns:xlink="http://www.w3.org/1999/xlink" contentStyleType="text/css" height="386px" preserveAspectRatio="none" style="width:762px;height:386px;" version="1.1" viewBox="0 0 762 386" width="762px" zoomAndPan="magnify"><defs/><g><!--cluster Core (Fixed)--><g id="cluster_Core (Fixed)"><path d="M167.5,6 L265.3721,6 A3.75,3.75 0 0 1 267.8721,8.5 L274.8721,28.2969 L750.5,28.2969 A2.5,2.5 0 0 1 753,30.7969 L753,100.5 A2.5,2.5 0 0 1 750.5,103 L167.5,103 A2.5,2.5 0 0 1 165,100.5 L165,8.5 A2.5,2.5 0 0 1 167.5,6 " fill="none" style="stroke:#000000;stroke-width:1.5;"/><line style="stroke:#000000;stroke-width:1.5;" x1="165" x2="274.8721" y1="28.2969" y2="28.2969"/><text fill="#000000" font-family="sans-serif" font-size="14" font-weight="bold" lengthAdjust="spacing" textLength="96.8721" x="169" y="20.9951">Core (Fixed)</text></g><!--cluster Extensible--><g id="cluster_Extensible"><path d="M8.5,136 L91.6953,136 A3.75,3.75 0 0 1 94.1953,138.5 L101.1953,158.2969 L752.5,158.2969 A2.5,2.5 0 0 1 755,160.7969 L755,230.5 A2.5,2.5 0 0 1 752.5,233 L8.5,233 A2.5,2.5 0 0 1 6,230.5 L6,138.5 A2.5,2.5 0 0 1 8.5,136 " fill="none" style="stroke:#000000;stroke-width:1.5;"/><line style="stroke:#000000;stroke-width:1.5;" x1="6" x2="101.1953" y1="158.2969" y2="158.2969"/><text fill="#000000" font-family="sans-serif" font-size="14" font-weight="bold" lengthAdjust="spacing" textLength="82.1953" x="10" y="150.9951">Extensible</text></g><!--cluster External--><g id="cluster_External"><path d="M226.5,282 L293.3984,282 A3.75,3.75 0 0 1 295.8984,284.5 L302.8984,304.2969 L643.5,304.2969 A2.5,2.5 0 0 1 646,306.7969 L646,376.5 A2.5,2.5 0 0 1 643.5,379 L226.5,379 A2.5,2.5 0 0 1 224,376.5 L224,284.5 A2.5,2.5 0 0 1 226.5,282 " fill="none" style="stroke:#000000;stroke-width:1.5;"/><line style="stroke:#000000;stroke-width:1.5;" x1="224" x2="302.8984" y1="304.2969" y2="304.2969"/><text fill="#000000" font-family="sans-serif" font-size="14" font-weight="bold" lengthAdjust="spacing" textLength="65.8984" x="228" y="296.9951">External</text></g><!--entity CLI Framework--><g id="elem_CLI Framework"><rect fill="#F1F1F1" height="46.2969" rx="2.5" ry="2.5" style="stroke:#181818;stroke-width:0.5;" width="144.6719" x="364.5" y="41"/><rect fill="#F1F1F1" height="10" style="stroke:#181818;stroke-width:0.5;" width="15" x="489.1719" y="46"/><rect fill="#F1F1F1" height="2" style="stroke:#181818;stroke-width:0.5;" width="4" x="487.1719" y="48"/><rect fill="#F1F1F1" height="2" style="stroke:#181818;stroke-width:0.5;" width="4" x="487.1719" y="52"/><text fill="#000000" font-family="sans-serif" font-size="14" lengthAdjust="spacing" textLength="104.6719" x="379.5" y="73.9951">CLI Framework</text></g><!--entity Configuration System--><g id="elem_Configuration System"><rect fill="#F1F1F1" height="46.2969" rx="2.5" ry="2.5" style="stroke:#181818;stroke-width:0.5;" width="191.6006" x="545" y="41"/><rect fill="#F1F1F1" height="10" style="stroke:#181818;stroke-width:0.5;" width="15" x="716.6006" y="46"/><rect fill="#F1F1F1" height="2" style="stroke:#181818;stroke-width:0.5;" width="4" x="714.6006" y="48"/><rect fill="#F1F1F1" height="2" style="stroke:#181818;stroke-width:0.5;" width="4" x="714.6006" y="52"/><text fill="#000000" font-family="sans-serif" font-size="14" lengthAdjust="spacing" textLength="151.6006" x="560" y="73.9951">Configuration System</text></g><!--entity Manifest Parser--><g id="elem_Manifest Parser"><rect fill="#F1F1F1" height="46.2969" rx="2.5" ry="2.5" style="stroke:#181818;stroke-width:0.5;" width="148.6367" x="180.5" y="41"/><rect fill="#F1F1F1" height="10" style="stroke:#181818;stroke-width:0.5;" width="15" x="309.1367" y="46"/><rect fill="#F1F1F1" height="2" style="stroke:#181818;stroke-width:0.5;" width="4" x="307.1367" y="48"/><rect fill="#F1F1F1" height="2" style="stroke:#181818;stroke-width:0.5;" width="4" x="307.1367" y="52"/><text fill="#000000" font-family="sans-serif" font-size="14" lengthAdjust="spacing" textLength="108.6367" x="195.5" y="73.9951">Manifest Parser</text></g><!--entity Simulator Backends--><g id="elem_Simulator Backends"><rect fill="#F1F1F1" height="46.2969" rx="2.5" ry="2.5" style="stroke:#181818;stroke-width:0.5;" width="179.6719" x="344" y="171"/><rect fill="#F1F1F1" height="10" style="stroke:#181818;stroke-width:0.5;" width="15" x="503.6719" y="176"/><rect fill="#F1F1F1" height="2" style="stroke:#181818;stroke-width:0.5;" width="4" x="501.6719" y="178"/><rect fill="#F1F1F1" height="2" style="stroke:#181818;stroke-width:0.5;" width="4" x="501.6719" y="182"/><text fill="#000000" font-family="sans-serif" font-size="14" lengthAdjust="spacing" textLength="139.6719" x="359" y="203.9951">Simulator Backends</text></g><!--entity Synthesis Backends--><g id="elem_Synthesis Backends"><rect fill="#F1F1F1" height="46.2969" rx="2.5" ry="2.5" style="stroke:#181818;stroke-width:0.5;" width="179.6035" x="559" y="171"/><rect fill="#F1F1F1" height="10" style="stroke:#181818;stroke-width:0.5;" width="15" x="718.6035" y="176"/><rect fill="#F1F1F1" height="2" style="stroke:#181818;stroke-width:0.5;" width="4" x="716.6035" y="178"/><rect fill="#F1F1F1" height="2" style="stroke:#181818;stroke-width:0.5;" width="4" x="716.6035" y="182"/><text fill="#000000" font-family="sans-serif" font-size="14" lengthAdjust="spacing" textLength="139.6035" x="574" y="203.9951">Synthesis Backends</text></g><!--entity Lint Backends--><g id="elem_Lint Backends"><rect fill="#F1F1F1" height="46.2969" rx="2.5" ry="2.5" style="stroke:#181818;stroke-width:0.5;" width="138.1572" x="171" y="171"/><rect fill="#F1F1F1" height="10" style="stroke:#181818;stroke-width:0.5;" width="15" x="289.1572" y="176"/><rect fill="#F1F1F1" height="2" style="stroke:#181818;stroke-width:0.5;" width="4" x="287.1572" y="178"/><rect fill="#F1F1F1" height="2" style="stroke:#181818;stroke-width:0.5;" width="4" x="287.1572" y="182"/><text fill="#000000" font-family="sans-serif" font-size="14" lengthAdjust="spacing" textLength="98.1572" x="186" y="203.9951">Lint Backends</text></g><!--entity Templates--><g id="elem_Templates"><rect fill="#F1F1F1" height="46.2969" rx="2.5" ry="2.5" style="stroke:#181818;stroke-width:0.5;" width="113.5547" x="22" y="171"/><rect fill="#F1F1F1" height="10" style="stroke:#181818;stroke-width:0.5;" width="15" x="115.5547" y="176"/><rect fill="#F1F1F1" height="2" style="stroke:#181818;stroke-width:0.5;" width="4" x="113.5547" y="178"/><rect fill="#F1F1F1" height="2" style="stroke:#181818;stroke-width:0.5;" width="4" x="113.5547" y="182"/><text fill="#000000" font-family="sans-serif" font-size="14" lengthAdjust="spacing" textLength="73.5547" x="37" y="203.9951">Templates</text></g><!--entity Custom Scripts--><g id="elem_Custom Scripts"><rect fill="#F1F1F1" height="46.2969" rx="2.5" ry="2.5" style="stroke:#181818;stroke-width:0.5;" width="145.9844" x="484" y="317"/><rect fill="#F1F1F1" height="10" style="stroke:#181818;stroke-width:0.5;" width="15" x="609.9844" y="322"/><rect fill="#F1F1F1" height="2" style="stroke:#181818;stroke-width:0.5;" width="4" x="607.9844" y="324"/><rect fill="#F1F1F1" height="2" style="stroke:#181818;stroke-width:0.5;" width="4" x="607.9844" y="328"/><text fill="#000000" font-family="sans-serif" font-size="14" lengthAdjust="spacing" textLength="105.9844" x="499" y="349.9951">Custom Scripts</text></g><!--entity Hooks--><g id="elem_Hooks"><rect fill="#F1F1F1" height="46.2969" rx="2.5" ry="2.5" style="stroke:#181818;stroke-width:0.5;" width="83.0596" x="365.5" y="317"/><rect fill="#F1F1F1" height="10" style="stroke:#181818;stroke-width:0.5;" width="15" x="428.5596" y="322"/><rect fill="#F1F1F1" height="2" style="stroke:#181818;stroke-width:0.5;" width="4" x="426.5596" y="324"/><rect fill="#F1F1F1" height="2" style="stroke:#181818;stroke-width:0.5;" width="4" x="426.5596" y="328"/><text fill="#000000" font-family="sans-serif" font-size="14" lengthAdjust="spacing" textLength="43.0596" x="380.5" y="349.9951">Hooks</text></g><!--entity Plugins--><g id="elem_Plugins"><rect fill="#F1F1F1" height="46.2969" rx="2.5" ry="2.5" style="stroke:#181818;stroke-width:0.5;" width="90.1484" x="240" y="317"/><rect fill="#F1F1F1" height="10" style="stroke:#181818;stroke-width:0.5;" width="15" x="310.1484" y="322"/><rect fill="#F1F1F1" height="2" style="stroke:#181818;stroke-width:0.5;" width="4" x="308.1484" y="324"/><rect fill="#F1F1F1" height="2" style="stroke:#181818;stroke-width:0.5;" width="4" x="308.1484" y="328"/><text fill="#000000" font-family="sans-serif" font-size="14" lengthAdjust="spacing" textLength="50.1484" x="255" y="349.9951">Plugins</text></g><!--link CLI Framework to Simulator Backends--><g id="link_CLI Framework_Simulator Backends"><path d="M436.48,87 C435.93,110.45 435.2104,141.3616 434.6604,164.8516 " fill="none" id="CLI Framework-to-Simulator Backends" style="stroke:#181818;stroke-width:1.0;"/><polygon fill="#181818" points="434.52,170.85,438.7296,161.9461,434.637,165.8514,430.7318,161.7588,434.52,170.85" style="stroke:#181818;stroke-width:1.0;"/></g><!--link CLI Framework to Synthesis Backends--><g id="link_CLI Framework_Synthesis Backends"><path d="M473.96,87.11 C494.09,99.17 519.43,114.38 542,128 C565.63,142.27 587.0246,155.2607 607.7446,167.8707 " fill="none" id="CLI Framework-to-Synthesis Backends" style="stroke:#181818;stroke-width:1.0;"/><polygon fill="#181818" points="612.87,170.99,607.2614,162.8941,608.5988,168.3906,603.1023,169.728,612.87,170.99" style="stroke:#181818;stroke-width:1.0;"/></g><!--link Configuration System to Simulator Backends--><g id="link_Configuration System_Simulator Backends"><path d="M605.42,87 C567.5,110.45 512.924,144.2058 474.914,167.6958 " fill="none" id="Configuration System-to-Simulator Backends" style="stroke:#181818;stroke-width:1.0;"/><polygon fill="#181818" points="469.81,170.85,479.5688,169.5213,474.0633,168.2215,475.3632,162.716,469.81,170.85" style="stroke:#181818;stroke-width:1.0;"/></g><!--link Configuration System to Synthesis Backends--><g id="link_Configuration System_Synthesis Backends"><path d="M642.38,87 C643.84,110.45 645.7753,141.3717 647.2453,164.8617 " fill="none" id="Configuration System-to-Synthesis Backends" style="stroke:#181818;stroke-width:1.0;"/><polygon fill="#181818" points="647.62,170.85,651.0501,161.6177,647.3077,165.8598,643.0657,162.1174,647.62,170.85" style="stroke:#181818;stroke-width:1.0;"/></g><!--link Simulator Backends to Custom Scripts--><g id="link_Simulator Backends_Custom Scripts"><path d="M452.95,217.18 C476,244.17 510.7829,284.8879 533.9329,311.9879 " fill="none" id="Simulator Backends-to-Custom Scripts" style="stroke:#181818;stroke-width:1.0;stroke-dasharray:7.0,7.0;"/><polygon fill="#181818" points="537.83,316.55,535.0257,307.1088,534.5824,312.7483,528.9429,312.305,537.83,316.55" style="stroke:#181818;stroke-width:1.0;"/><text fill="#000000" font-family="sans-serif" font-size="13" lengthAdjust="spacing" textLength="43.0244" x="492" y="262.0669">invoke</text></g><!--link Synthesis Backends to Custom Scripts--><g id="link_Synthesis Backends_Custom Scripts"><path d="M634.83,217.18 C617.59,244.17 591.8798,284.3935 574.5698,311.4935 " fill="none" id="Synthesis Backends-to-Custom Scripts" style="stroke:#181818;stroke-width:1.0;stroke-dasharray:7.0,7.0;"/><polygon fill="#181818" points="571.34,316.55,579.5557,311.1185,574.0315,312.3362,572.8137,306.812,571.34,316.55" style="stroke:#181818;stroke-width:1.0;"/><text fill="#000000" font-family="sans-serif" font-size="13" lengthAdjust="spacing" textLength="43.0244" x="614" y="262.0669">invoke</text></g><!--SRC=[VP11QyCm38Nl_XMYf-sG_e0TUbXOsQ0TXUmsUd0R9HDnv639MylOVvyXNHcfoSqyFNr-Jz8H3pRO7WxssBN1HwvBxtm03PObZP3LoDLLOsEZqxLdVRKzWYHJ8HYeCMP81DiYB4eV4ExMTCBwVW7V1W3UoyqBh1C1ltpezgFakQ4s1gla6QgpAFRZP6kP6XI5dGq9lZS__-XF9qKMEZZyOrVKHsSrXNvC9kHQHanrPlr08Pde6sATI6_O3mc1SljNOEkkBQAexw4w1XhqilhiVNTvxbniYKV6f34KnIgVD6_CHCyVR0uyuy_mJOu2o-NgfZSy0F6dxz3aGFChlm00]--></g></svg>