<svg xmlns="http://www.w3.org/2000/svg" xmlns:xlink="http://www.w3.org/1999/xlink" contentStyleType="text/css" height="446px" preserveAspectRatio="none" style="width:1067px;height:446px;" version="1.1" viewBox="0 0 1067 446" width="1067px" zoomAndPan="magnify"><defs/><g><!--class ProjectConfig--><g id="elem_ProjectConfig"><rect codeLine="4" fill="#F1F1F1" height="227.2656" id="ProjectConfig" rx="2.5" ry="2.5" style="stroke:#181818;stroke-width:0.5;" width="269.2773" x="271" y="7"/><ellipse cx="354.7026" cy="23" fill="#ADD1B2" rx="11" ry="11" style="stroke:#181818;stroke-width:1.0;"/><path d="M357.6714,28.6406 Q357.0933,28.9375 356.4526,29.0781 Q355.812,29.2344 355.1089,29.2344 Q352.6089,29.2344 351.2808,27.5938 Q349.9683,25.9375 349.9683,22.8125 Q349.9683,19.6875 351.2808,18.0313 Q352.6089,16.375 355.1089,16.375 Q355.812,16.375 356.4526,16.5313 Q357.1089,16.6875 357.6714,16.9844 L357.6714,19.7031 Q357.0464,19.125 356.4526,18.8594 Q355.8589,18.5781 355.2339,18.5781 Q353.8901,18.5781 353.2026,19.6563 Q352.5151,20.7188 352.5151,22.8125 Q352.5151,24.9063 353.2026,25.9844 Q353.8901,27.0469 355.2339,27.0469 Q355.8589,27.0469 356.4526,26.7813 Q357.0464,26.5 357.6714,25.9219 L357.6714,28.6406 Z " fill="#000000"/><text fill="#000000" font-family="sans-serif" font-size="14" lengthAdjust="spacing" textLength="93.3721" x="375.2026" y="27.8467">ProjectConfig</text><line style="stroke:#181818;stroke-width:0.5;" x1="272" x2="539.2773" y1="39" y2="39"/><ellipse cx="282" cy="52.6484" fill="none" rx="3" ry="3" style="stroke:#038048;stroke-width:1.0;"/><text fill="#000000" font-family="sans-serif" font-size="14" lengthAdjust="spacing" textLength="133.0137" x="291" y="55.9951">project: ProjectInfo</text><ellipse cx="282" cy="68.9453" fill="none" rx="3" ry="3" style="stroke:#038048;stroke-width:1.0;"/><text fill="#000000" font-family="sans-serif" font-size="14" lengthAdjust="spacing" textLength="157.9922" x="291" y="72.292">features: FeatureFlags</text><ellipse cx="282" cy="85.2422" fill="none" rx="3" ry="3" style="stroke:#038048;stroke-width:1.0;"/><text fill="#000000" font-family="sans-serif" font-size="14" lengthAdjust="spacing" textLength="131.8857" x="291" y="88.5889">paths: PathsConfig</text><ellipse cx="282" cy="101.5391" fill="none" rx="3" ry="3" style="stroke:#038048;stroke-width:1.0;"/><text fill="#000000" font-family="sans-serif" font-size="14" lengthAdjust="spacing" textLength="169.0869" x="291" y="104.8857">defaults: DefaultsConfig</text><ellipse cx="282" cy="117.8359" fill="none" rx="3" ry="3" style="stroke:#038048;stroke-width:1.0;"/><text fill="#000000" font-family="sans-serif" font-size="14" lengthAdjust="spacing" textLength="153.4805" x="291" y="121.1826">simulation: SimConfig</text><ellipse cx="282" cy="134.1328" fill="none" rx="3" ry="3" style="stroke:#038048;stroke-width:1.0;"/><text fill="#000000" font-family="sans-serif" font-size="14" lengthAdjust="spacing" textLength="160.3984" x="291" y="137.4795">synthesis: SynthConfig</text><ellipse cx="282" cy="150.4297" fill="none" rx="3" ry="3" style="stroke:#038048;stroke-width:1.0;"/><text fill="#000000" font-family="sans-serif" font-size="14" lengthAdjust="spacing" textLength="102.2793" x="291" y="153.7764">lint: LintConfig</text><ellipse cx="282" cy="166.7266" fill="none" rx="3" ry="3" style="stroke:#038048;stroke-width:1.0;"/><text fill="#000000" font-family="sans-serif" font-size="14" lengthAdjust="spacing" textLength="211.7637" x="291" y="170.0732">constraints: ConstraintsConfig</text><ellipse cx="282" cy="183.0234" fill="none" rx="3" ry="3" style="stroke:#038048;stroke-width:1.0;"/><text fill="#000000" font-family="sans-serif" font-size="14" lengthAdjust="spacing" textLength="122.2881" x="291" y="186.3701">fpga: FPGAConfig</text><line style="stroke:#181818;stroke-width:1.0;" x1="272" x2="539.2773" y1="193.6719" y2="193.6719"/><ellipse cx="282" cy="207.3203" fill="#84BE84" rx="3" ry="3" style="stroke:#038048;stroke-width:1.0;"/><text fill="#000000" font-family="sans-serif" font-size="14" lengthAdjust="spacing" textLength="175.2119" x="291" y="210.667">load(path): ProjectConfig</text><ellipse cx="282" cy="223.6172" fill="#84BE84" rx="3" ry="3" style="stroke:#038048;stroke-width:1.0;"/><text fill="#000000" font-family="sans-serif" font-size="14" lengthAdjust="spacing" textLength="243.2773" x="291" y="226.9639">validate(): List[ValidationMessage]</text></g><!--class ProjectInfo--><g id="elem_ProjectInfo"><rect codeLine="19" fill="#F1F1F1" height="129.4844" id="ProjectInfo" rx="2.5" ry="2.5" style="stroke:#181818;stroke-width:0.5;" width="118.8867" x="7" y="302.5"/><ellipse cx="27.3719" cy="318.5" fill="#ADD1B2" rx="11" ry="11" style="stroke:#181818;stroke-width:1.0;"/><path d="M30.3406,324.1406 Q29.7625,324.4375 29.1219,324.5781 Q28.4813,324.7344 27.7781,324.7344 Q25.2781,324.7344 23.95,323.0938 Q22.6375,321.4375 22.6375,318.3125 Q22.6375,315.1875 23.95,313.5313 Q25.2781,311.875 27.7781,311.875 Q28.4813,311.875 29.1219,312.0313 Q29.7781,312.1875 30.3406,312.4844 L30.3406,315.2031 Q29.7156,314.625 29.1219,314.3594 Q28.5281,314.0781 27.9031,314.0781 Q26.5594,314.0781 25.8719,315.1563 Q25.1844,316.2188 25.1844,318.3125 Q25.1844,320.4063 25.8719,321.4844 Q26.5594,322.5469 27.9031,322.5469 Q28.5281,322.5469 29.1219,322.2813 Q29.7156,322 30.3406,321.4219 L30.3406,324.1406 Z " fill="#000000"/><text fill="#000000" font-family="sans-serif" font-size="14" lengthAdjust="spacing" textLength="74.9492" x="42.5656" y="323.3467">ProjectInfo</text><line style="stroke:#181818;stroke-width:0.5;" x1="8" x2="124.8867" y1="334.5" y2="334.5"/><ellipse cx="18" cy="348.1484" fill="none" rx="3" ry="3" style="stroke:#038048;stroke-width:1.0;"/><text fill="#000000" font-family="sans-serif" font-size="14" lengthAdjust="spacing" textLength="67.4092" x="27" y="351.4951">name: str</text><ellipse cx="18" cy="364.4453" fill="none" rx="3" ry="3" style="stroke:#038048;stroke-width:1.0;"/><text fill="#000000" font-family="sans-serif" font-size="14" lengthAdjust="spacing" textLength="78.9824" x="27" y="367.792">version: str</text><ellipse cx="18" cy="380.7422" fill="none" rx="3" ry="3" style="stroke:#038048;stroke-width:1.0;"/><text fill="#000000" font-family="sans-serif" font-size="14" lengthAdjust="spacing" textLength="73.8418" x="27" y="384.0889">author: str</text><ellipse cx="18" cy="397.0391" fill="none" rx="3" ry="3" style="stroke:#038048;stroke-width:1.0;"/><text fill="#000000" font-family="sans-serif" font-size="14" lengthAdjust="spacing" textLength="76.5762" x="27" y="400.3857">license: str</text><ellipse cx="18" cy="413.3359" fill="none" rx="3" ry="3" style="stroke:#038048;stroke-width:1.0;"/><text fill="#000000" font-family="sans-serif" font-size="14" lengthAdjust="spacing" textLength="92.8867" x="27" y="416.6826">language: str</text><line style="stroke:#181818;stroke-width:0.5;" x1="8" x2="124.8867" y1="423.9844" y2="423.9844"/></g><!--class FeatureFlags--><g id="elem_FeatureFlags"><rect codeLine="27" fill="#F1F1F1" height="129.4844" id="FeatureFlags" rx="2.5" ry="2.5" style="stroke:#181818;stroke-width:0.5;" width="142.874" x="161" y="302.5"/><ellipse cx="185.0879" cy="318.5" fill="#ADD1B2" rx="11" ry="11" style="stroke:#181818;stroke-width:1.0;"/><path d="M188.0566,324.1406 Q187.4785,324.4375 186.8379,324.5781 Q186.1973,324.7344 185.4941,324.7344 Q182.9941,324.7344 181.666,323.0938 Q180.3535,321.4375 180.3535,318.3125 Q180.3535,315.1875 181.666,313.5313 Q182.9941,311.875 185.4941,311.875 Q186.1973,311.875 186.8379,312.0313 Q187.4941,312.1875 188.0566,312.4844 L188.0566,315.2031 Q187.4316,314.625 186.8379,314.3594 Q186.2441,314.0781 185.6191,314.0781 Q184.2754,314.0781 183.5879,315.1563 Q182.9004,316.2188 182.9004,318.3125 Q182.9004,320.4063 183.5879,321.4844 Q184.2754,322.5469 185.6191,322.5469 Q186.2441,322.5469 186.8379,322.2813 Q187.4316,322 188.0566,321.4219 L188.0566,324.1406 Z " fill="#000000"/><text fill="#000000" font-family="sans-serif" font-size="14" lengthAdjust="spacing" textLength="90.6787" x="201.1074" y="323.3467">FeatureFlags</text><line style="stroke:#181818;stroke-width:0.5;" x1="162" x2="302.874" y1="334.5" y2="334.5"/><ellipse cx="172" cy="348.1484" fill="none" rx="3" ry="3" style="stroke:#038048;stroke-width:1.0;"/><text fill="#000000" font-family="sans-serif" font-size="14" lengthAdjust="spacing" textLength="101.6846" x="181" y="351.4951">firmware: bool</text><ellipse cx="172" cy="364.4453" fill="none" rx="3" ry="3" style="stroke:#038048;stroke-width:1.0;"/><text fill="#000000" font-family="sans-serif" font-size="14" lengthAdjust="spacing" textLength="51.8506" x="181" y="367.792">ip: bool</text><ellipse cx="172" cy="380.7422" fill="none" rx="3" ry="3" style="stroke:#038048;stroke-width:1.0;"/><text fill="#000000" font-family="sans-serif" font-size="14" lengthAdjust="spacing" textLength="116.874" x="181" y="384.0889">constraints: bool</text><ellipse cx="172" cy="397.0391" fill="none" rx="3" ry="3" style="stroke:#038048;stroke-width:1.0;"/><text fill="#000000" font-family="sans-serif" font-size="14" lengthAdjust="spacing" textLength="84.4307" x="181" y="400.3857">formal: bool</text><ellipse cx="172" cy="413.3359" fill="none" rx="3" ry="3" style="stroke:#038048;stroke-width:1.0;"/><text fill="#000000" font-family="sans-serif" font-size="14" lengthAdjust="spacing" textLength="104.0703" x="181" y="416.6826">coverage: bool</text><line style="stroke:#181818;stroke-width:0.5;" x1="162" x2="302.874" y1="423.9844" y2="423.9844"/></g><!--class PathsConfig--><g id="elem_PathsConfig"><rect codeLine="35" fill="#F1F1F1" height="145.7813" id="PathsConfig" rx="2.5" ry="2.5" style="stroke:#181818;stroke-width:0.5;" width="131.5059" x="339.5" y="294"/><ellipse cx="361.6591" cy="310" fill="#ADD1B2" rx="11" ry="11" style="stroke:#181818;stroke-width:1.0;"/><path d="M364.6279,315.6406 Q364.0498,315.9375 363.4091,316.0781 Q362.7685,316.2344 362.0654,316.2344 Q359.5654,316.2344 358.2373,314.5938 Q356.9248,312.9375 356.9248,309.8125 Q356.9248,306.6875 358.2373,305.0313 Q359.5654,303.375 362.0654,303.375 Q362.7685,303.375 363.4091,303.5313 Q364.0654,303.6875 364.6279,303.9844 L364.6279,306.7031 Q364.0029,306.125 363.4091,305.8594 Q362.8154,305.5781 362.1904,305.5781 Q360.8466,305.5781 360.1591,306.6563 Q359.4716,307.7188 359.4716,309.8125 Q359.4716,311.9063 360.1591,312.9844 Q360.8466,314.0469 362.1904,314.0469 Q362.8154,314.0469 363.4091,313.7813 Q364.0029,313.5 364.6279,312.9219 L364.6279,315.6406 Z " fill="#000000"/><text fill="#000000" font-family="sans-serif" font-size="14" lengthAdjust="spacing" textLength="83.5967" x="377.25" y="314.8467">PathsConfig</text><line style="stroke:#181818;stroke-width:0.5;" x1="340.5" x2="470.0059" y1="326" y2="326"/><ellipse cx="350.5" cy="339.6484" fill="none" rx="3" ry="3" style="stroke:#038048;stroke-width:1.0;"/><text fill="#000000" font-family="sans-serif" font-size="14" lengthAdjust="spacing" textLength="42.8408" x="359.5" y="342.9951">rtl: str</text><ellipse cx="350.5" cy="355.9453" fill="none" rx="3" ry="3" style="stroke:#038048;stroke-width:1.0;"/><text fill="#000000" font-family="sans-serif" font-size="14" lengthAdjust="spacing" textLength="97.5352" x="359.5" y="359.292">testbench: str</text><ellipse cx="350.5" cy="372.2422" fill="none" rx="3" ry="3" style="stroke:#038048;stroke-width:1.0;"/><text fill="#000000" font-family="sans-serif" font-size="14" lengthAdjust="spacing" textLength="90.3164" x="359.5" y="375.5889">firmware: str</text><ellipse cx="350.5" cy="388.5391" fill="none" rx="3" ry="3" style="stroke:#038048;stroke-width:1.0;"/><text fill="#000000" font-family="sans-serif" font-size="14" lengthAdjust="spacing" textLength="40.4824" x="359.5" y="391.8857">ip: str</text><ellipse cx="350.5" cy="404.8359" fill="none" rx="3" ry="3" style="stroke:#038048;stroke-width:1.0;"/><text fill="#000000" font-family="sans-serif" font-size="14" lengthAdjust="spacing" textLength="105.5059" x="359.5" y="408.1826">constraints: str</text><ellipse cx="350.5" cy="421.1328" fill="none" rx="3" ry="3" style="stroke:#038048;stroke-width:1.0;"/><text fill="#000000" font-family="sans-serif" font-size="14" lengthAdjust="spacing" textLength="62.1318" x="359.5" y="424.4795">build: str</text><line style="stroke:#181818;stroke-width:0.5;" x1="340.5" x2="470.0059" y1="431.7813" y2="431.7813"/></g><!--class SimConfig--><g id="elem_SimConfig"><rect codeLine="44" fill="#F1F1F1" height="129.4844" id="SimConfig" rx="2.5" ry="2.5" style="stroke:#181818;stroke-width:0.5;" width="236.0957" x="506.5" y="302.5"/><ellipse cx="584.6313" cy="318.5" fill="#ADD1B2" rx="11" ry="11" style="stroke:#181818;stroke-width:1.0;"/><path d="M587.6001,324.1406 Q587.022,324.4375 586.3813,324.5781 Q585.7407,324.7344 585.0376,324.7344 Q582.5376,324.7344 581.2095,323.0938 Q579.897,321.4375 579.897,318.3125 Q579.897,315.1875 581.2095,313.5313 Q582.5376,311.875 585.0376,311.875 Q585.7407,311.875 586.3813,312.0313 Q587.0376,312.1875 587.6001,312.4844 L587.6001,315.2031 Q586.9751,314.625 586.3813,314.3594 Q585.7876,314.0781 585.1626,314.0781 Q583.8188,314.0781 583.1313,315.1563 Q582.4438,316.2188 582.4438,318.3125 Q582.4438,320.4063 583.1313,321.4844 Q583.8188,322.5469 585.1626,322.5469 Q585.7876,322.5469 586.3813,322.2813 Q586.9751,322 587.6001,321.4219 L587.6001,324.1406 Z " fill="#000000"/><text fill="#000000" font-family="sans-serif" font-size="14" lengthAdjust="spacing" textLength="71.333" x="605.1313" y="323.3467">SimConfig</text><line style="stroke:#181818;stroke-width:0.5;" x1="507.5" x2="741.5957" y1="334.5" y2="334.5"/><ellipse cx="517.5" cy="348.1484" fill="none" rx="3" ry="3" style="stroke:#038048;stroke-width:1.0;"/><text fill="#000000" font-family="sans-serif" font-size="14" lengthAdjust="spacing" textLength="110.4756" x="526.5" y="351.4951">default_tool: str</text><ellipse cx="517.5" cy="364.4453" fill="none" rx="3" ry="3" style="stroke:#038048;stroke-width:1.0;"/><text fill="#000000" font-family="sans-serif" font-size="14" lengthAdjust="spacing" textLength="87.6641" x="526.5" y="367.792">build_dir: str</text><ellipse cx="517.5" cy="380.7422" fill="none" rx="3" ry="3" style="stroke:#038048;stroke-width:1.0;"/><text fill="#000000" font-family="sans-serif" font-size="14" lengthAdjust="spacing" textLength="210.0957" x="526.5" y="384.0889">tools: Dict[str, SimToolConfig]</text><ellipse cx="517.5" cy="397.0391" fill="none" rx="3" ry="3" style="stroke:#038048;stroke-width:1.0;"/><text fill="#000000" font-family="sans-serif" font-size="14" lengthAdjust="spacing" textLength="83.2959" x="526.5" y="400.3857">waves: bool</text><ellipse cx="517.5" cy="413.3359" fill="none" rx="3" ry="3" style="stroke:#038048;stroke-width:1.0;"/><text fill="#000000" font-family="sans-serif" font-size="14" lengthAdjust="spacing" textLength="104.0703" x="526.5" y="416.6826">coverage: bool</text><line style="stroke:#181818;stroke-width:0.5;" x1="507.5" x2="741.5957" y1="423.9844" y2="423.9844"/></g><!--class SynthConfig--><g id="elem_SynthConfig"><rect codeLine="52" fill="#F1F1F1" height="129.4844" id="SynthConfig" rx="2.5" ry="2.5" style="stroke:#181818;stroke-width:0.5;" width="282.6963" x="778" y="302.5"/><ellipse cx="872.4351" cy="318.5" fill="#ADD1B2" rx="11" ry="11" style="stroke:#181818;stroke-width:1.0;"/><path d="M875.4038,324.1406 Q874.8257,324.4375 874.1851,324.5781 Q873.5444,324.7344 872.8413,324.7344 Q870.3413,324.7344 869.0132,323.0938 Q867.7007,321.4375 867.7007,318.3125 Q867.7007,315.1875 869.0132,313.5313 Q870.3413,311.875 872.8413,311.875 Q873.5444,311.875 874.1851,312.0313 Q874.8413,312.1875 875.4038,312.4844 L875.4038,315.2031 Q874.7788,314.625 874.1851,314.3594 Q873.5913,314.0781 872.9663,314.0781 Q871.6226,314.0781 870.9351,315.1563 Q870.2476,316.2188 870.2476,318.3125 Q870.2476,320.4063 870.9351,321.4844 Q871.6226,322.5469 872.9663,322.5469 Q873.5913,322.5469 874.1851,322.2813 Q874.7788,322 875.4038,321.4219 L875.4038,324.1406 Z " fill="#000000"/><text fill="#000000" font-family="sans-serif" font-size="14" lengthAdjust="spacing" textLength="85.3262" x="892.9351" y="323.3467">SynthConfig</text><line style="stroke:#181818;stroke-width:0.5;" x1="779" x2="1059.6963" y1="334.5" y2="334.5"/><ellipse cx="789" cy="348.1484" fill="none" rx="3" ry="3" style="stroke:#038048;stroke-width:1.0;"/><text fill="#000000" font-family="sans-serif" font-size="14" lengthAdjust="spacing" textLength="110.4756" x="798" y="351.4951">default_tool: str</text><ellipse cx="789" cy="364.4453" fill="none" rx="3" ry="3" style="stroke:#038048;stroke-width:1.0;"/><text fill="#000000" font-family="sans-serif" font-size="14" lengthAdjust="spacing" textLength="87.6641" x="798" y="367.792">build_dir: str</text><ellipse cx="789" cy="380.7422" fill="none" rx="3" ry="3" style="stroke:#038048;stroke-width:1.0;"/><text fill="#000000" font-family="sans-serif" font-size="14" lengthAdjust="spacing" textLength="137.0469" x="798" y="384.0889">tools: Dict[str, Dict]</text><ellipse cx="789" cy="397.0391" fill="none" rx="3" ry="3" style="stroke:#038048;stroke-width:1.0;"/><text fill="#000000" font-family="sans-serif" font-size="14" lengthAdjust="spacing" textLength="256.6963" x="798" y="400.3857">targets: Dict[str, SynthTargetConfig]</text><ellipse cx="789" cy="413.3359" fill="none" rx="3" ry="3" style="stroke:#038048;stroke-width:1.0;"/><text fill="#000000" font-family="sans-serif" font-size="14" lengthAdjust="spacing" textLength="207.0605" x="798" y="416.6826">libraries: Dict[str, CellLibrary]</text><line style="stroke:#181818;stroke-width:0.5;" x1="779" x2="1059.6963" y1="423.9844" y2="423.9844"/></g><!--reverse link ProjectConfig to ProjectInfo--><g id="link_ProjectConfig_ProjectInfo"><path codeLine="60" d="M260.7828,210.4662 C218.9328,237.7062 183.4,262.58 143.5,294 C137.75,298.53 131.91,303.4 126.16,308.4 " fill="none" id="ProjectConfig-backto-ProjectInfo" style="stroke:#181818;stroke-width:1.0;"/><polygon fill="#181818" points="270.84,203.92,263.6293,203.8407,260.7828,210.4662,267.9935,210.5455,270.84,203.92" style="stroke:#181818;stroke-width:1.0;"/></g><!--reverse link ProjectConfig to FeatureFlags--><g id="link_ProjectConfig_FeatureFlags"><path codeLine="61" d="M318.9075,243.8849 C302.3175,267.3249 292.33,281.44 277.53,302.35 " fill="none" id="ProjectConfig-backto-FeatureFlags" style="stroke:#181818;stroke-width:1.0;"/><polygon fill="#181818" points="325.84,234.09,319.1088,236.6766,318.9075,243.8849,325.6387,241.2983,325.84,234.09" style="stroke:#181818;stroke-width:1.0;"/></g><!--reverse link ProjectConfig to PathsConfig--><g id="link_ProjectConfig_PathsConfig"><path codeLine="62" d="M405.5,246.09 C405.5,266.39 405.5,275.05 405.5,293.81 " fill="none" id="ProjectConfig-backto-PathsConfig" style="stroke:#181818;stroke-width:1.0;"/><polygon fill="#181818" points="405.5,234.09,401.5,240.09,405.5,246.09,409.5,240.09,405.5,234.09" style="stroke:#181818;stroke-width:1.0;"/></g><!--reverse link ProjectConfig to SimConfig--><g id="link_ProjectConfig_SimConfig"><path codeLine="63" d="M514.3552,243.0296 C535.3452,266.4696 548.76,281.44 567.49,302.35 " fill="none" id="ProjectConfig-backto-SimConfig" style="stroke:#181818;stroke-width:1.0;"/><polygon fill="#181818" points="506.35,234.09,507.3727,241.2282,514.3552,243.0296,513.3325,235.8914,506.35,234.09" style="stroke:#181818;stroke-width:1.0;"/></g><!--reverse link ProjectConfig to SynthConfig--><g id="link_ProjectConfig_SynthConfig"><path codeLine="64" d="M551.0464,190.7348 C626.7464,226.7448 710.07,266.38 785.63,302.32 " fill="none" id="ProjectConfig-backto-SynthConfig" style="stroke:#181818;stroke-width:1.0;"/><polygon fill="#181818" points="540.21,185.58,543.9099,191.7695,551.0464,190.7348,547.3465,184.5453,540.21,185.58" style="stroke:#181818;stroke-width:1.0;"/></g><!--SRC=[fLDDRzim3BtxL-ZORlCVy6t8a650DmHeiKjH5BHDErfbAH3f5iMm_pvAiYCvxM70BWdr7ZyUQPAUj3s1Xqcrq3sDtisstpdZl68FbeH2onMTlNeSO3QyTvP_m8IAnAacz7gegiu0aJfuzmixtZaxw57zhfHI7qy9QrRocnrS90O4dZrIe_R9sXiOASK07mK_XB-KBCAB066-B5P1afvc0woTRTIjdahcrV8HIKlSRJ0BocWhocxajm0xPqac8A14xFAZS1bE8uZkmzVF6QphbD91VnKQk6wsyuZiCnZT0-FLTIXBVFyp0IBxEnB1Y0_LdujnXeajmxGozqQ9e9GCFSL-Lm1cFZgVtqPtQAc8C637MOeav5oe_01BfK7xwKKse56jSoP2-bGyDaCweuFp4vYDcuYC1IEKMykVTYdesMITZCGjskwOeIneHOAUrTx8MS5srgQ_QFMy6alPPQSUMUHTH3xskfXbS0YRfpk-5-nJo7GdMChs47rUu1df7xelrl2_PGGhLMVm8_9MOoXq5_5Ifz6j1wznuxj3OsuYyHftS7lC7-fwSy5lsSqLlnDS7FDRDb_iEroUrby0]--></g></svg>