<svg xmlns="http://www.w3.org/2000/svg" xmlns:xlink="http://www.w3.org/1999/xlink" contentStyleType="text/css" height="736px" preserveAspectRatio="none" style="width:351px;height:736px;" version="1.1" viewBox="0 0 351 736" width="351px" zoomAndPan="magnify"><defs/><g><!--class TestbenchManifest--><g id="elem_TestbenchManifest"><rect codeLine="4" fill="#F1F1F1" height="162.0781" id="TestbenchManifest" rx="2.5" ry="2.5" style="stroke:#181818;stroke-width:0.5;" width="258.5039" x="7" y="7"/><ellipse cx="65.6831" cy="23" fill="#ADD1B2" rx="11" ry="11" style="stroke:#181818;stroke-width:1.0;"/><path d="M68.6519,28.6406 Q68.0737,28.9375 67.4331,29.0781 Q66.7925,29.2344 66.0894,29.2344 Q63.5894,29.2344 62.2612,27.5938 Q60.9487,25.9375 60.9487,22.8125 Q60.9487,19.6875 62.2612,18.0313 Q63.5894,16.375 66.0894,16.375 Q66.7925,16.375 67.4331,16.5313 Q68.0894,16.6875 68.6519,16.9844 L68.6519,19.7031 Q68.0269,19.125 67.4331,18.8594 Q66.8394,18.5781 66.2144,18.5781 Q64.8706,18.5781 64.1831,19.6563 Q63.4956,20.7188 63.4956,22.8125 Q63.4956,24.9063 64.1831,25.9844 Q64.8706,27.0469 66.2144,27.0469 Q66.8394,27.0469 67.4331,26.7813 Q68.0269,26.5 68.6519,25.9219 L68.6519,28.6406 Z " fill="#000000"/><text fill="#000000" font-family="sans-serif" font-size="14" lengthAdjust="spacing" textLength="132.6377" x="86.1831" y="27.8467">TestbenchManifest</text><line style="stroke:#181818;stroke-width:0.5;" x1="8" x2="264.5039" y1="39" y2="39"/><ellipse cx="18" cy="52.6484" fill="none" rx="3" ry="3" style="stroke:#038048;stroke-width:1.0;"/><text fill="#000000" font-family="sans-serif" font-size="14" lengthAdjust="spacing" textLength="67.4092" x="27" y="55.9951">name: str</text><ellipse cx="18" cy="68.9453" fill="none" rx="3" ry="3" style="stroke:#038048;stroke-width:1.0;"/><text fill="#000000" font-family="sans-serif" font-size="14" lengthAdjust="spacing" textLength="58.9805" x="27" y="72.292">type: str</text><ellipse cx="18" cy="85.2422" fill="none" rx="3" ry="3" style="stroke:#038048;stroke-width:1.0;"/><text fill="#000000" font-family="sans-serif" font-size="14" lengthAdjust="spacing" textLength="203.1914" x="27" y="88.5889">testbenches: List[Testbench]</text><ellipse cx="18" cy="101.5391" fill="none" rx="3" ry="3" style="stroke:#038048;stroke-width:1.0;"/><text fill="#000000" font-family="sans-serif" font-size="14" lengthAdjust="spacing" textLength="185.6025" x="27" y="104.8857">test_suites: List[TestSuite]</text><ellipse cx="18" cy="117.8359" fill="none" rx="3" ry="3" style="stroke:#038048;stroke-width:1.0;"/><text fill="#000000" font-family="sans-serif" font-size="14" lengthAdjust="spacing" textLength="196.1914" x="27" y="121.1826">packages: List[RTLPackage]</text><line style="stroke:#181818;stroke-width:1.0;" x1="8" x2="264.5039" y1="128.4844" y2="128.4844"/><ellipse cx="18" cy="142.1328" fill="#84BE84" rx="3" ry="3" style="stroke:#038048;stroke-width:1.0;"/><text fill="#000000" font-family="sans-serif" font-size="14" lengthAdjust="spacing" textLength="232.5039" x="27" y="145.4795">get_testbench(name): Testbench</text><ellipse cx="18" cy="158.4297" fill="#84BE84" rx="3" ry="3" style="stroke:#038048;stroke-width:1.0;"/><text fill="#000000" font-family="sans-serif" font-size="14" lengthAdjust="spacing" textLength="189.6426" x="27" y="161.7764">get_suite(name): TestSuite</text></g><!--class Testbench--><g id="elem_Testbench"><rect codeLine="15" fill="#F1F1F1" height="276.1563" id="Testbench" rx="2.5" ry="2.5" style="stroke:#181818;stroke-width:0.5;" width="242.624" x="24" y="453"/><ellipse cx="104.6162" cy="469" fill="#ADD1B2" rx="11" ry="11" style="stroke:#181818;stroke-width:1.0;"/><path d="M107.585,474.6406 Q107.0068,474.9375 106.3662,475.0781 Q105.7256,475.2344 105.0225,475.2344 Q102.5225,475.2344 101.1943,473.5938 Q99.8818,471.9375 99.8818,468.8125 Q99.8818,465.6875 101.1943,464.0313 Q102.5225,462.375 105.0225,462.375 Q105.7256,462.375 106.3662,462.5313 Q107.0225,462.6875 107.585,462.9844 L107.585,465.7031 Q106.96,465.125 106.3662,464.8594 Q105.7725,464.5781 105.1475,464.5781 Q103.8037,464.5781 103.1162,465.6563 Q102.4287,466.7188 102.4287,468.8125 Q102.4287,470.9063 103.1162,471.9844 Q103.8037,473.0469 105.1475,473.0469 Q105.7725,473.0469 106.3662,472.7813 Q106.96,472.5 107.585,471.9219 L107.585,474.6406 Z " fill="#000000"/><text fill="#000000" font-family="sans-serif" font-size="14" lengthAdjust="spacing" textLength="72.8916" x="125.1162" y="473.8467">Testbench</text><line style="stroke:#181818;stroke-width:0.5;" x1="25" x2="265.624" y1="485" y2="485"/><ellipse cx="35" cy="498.6484" fill="none" rx="3" ry="3" style="stroke:#038048;stroke-width:1.0;"/><text fill="#000000" font-family="sans-serif" font-size="14" lengthAdjust="spacing" textLength="67.4092" x="44" y="501.9951">name: str</text><ellipse cx="35" cy="514.9453" fill="none" rx="3" ry="3" style="stroke:#038048;stroke-width:1.0;"/><text fill="#000000" font-family="sans-serif" font-size="14" lengthAdjust="spacing" textLength="105.5469" x="44" y="518.292">description: str</text><ellipse cx="35" cy="531.2422" fill="none" rx="3" ry="3" style="stroke:#038048;stroke-width:1.0;"/><text fill="#000000" font-family="sans-serif" font-size="14" lengthAdjust="spacing" textLength="50.6475" x="44" y="534.5889">top: str</text><ellipse cx="35" cy="547.5391" fill="none" rx="3" ry="3" style="stroke:#038048;stroke-width:1.0;"/><text fill="#000000" font-family="sans-serif" font-size="14" lengthAdjust="spacing" textLength="91.7178" x="44" y="550.8857">files: List[str]</text><ellipse cx="35" cy="563.8359" fill="none" rx="3" ry="3" style="stroke:#038048;stroke-width:1.0;"/><text fill="#000000" font-family="sans-serif" font-size="14" lengthAdjust="spacing" textLength="121.1191" x="44" y="567.1826">includes: List[str]</text><ellipse cx="35" cy="580.1328" fill="none" rx="3" ry="3" style="stroke:#038048;stroke-width:1.0;"/><text fill="#000000" font-family="sans-serif" font-size="14" lengthAdjust="spacing" textLength="145.0244" x="44" y="583.4795">defines: Dict[str, str]</text><ellipse cx="35" cy="596.4297" fill="none" rx="3" ry="3" style="stroke:#038048;stroke-width:1.0;"/><text fill="#000000" font-family="sans-serif" font-size="14" lengthAdjust="spacing" textLength="170.1602" x="44" y="599.7764">dependencies: List[Dict]</text><ellipse cx="35" cy="612.7266" fill="none" rx="3" ry="3" style="stroke:#038048;stroke-width:1.0;"/><text fill="#000000" font-family="sans-serif" font-size="14" lengthAdjust="spacing" textLength="161.4922" x="44" y="616.0732">default_timeout: int|str</text><ellipse cx="35" cy="629.0234" fill="none" rx="3" ry="3" style="stroke:#038048;stroke-width:1.0;"/><text fill="#000000" font-family="sans-serif" font-size="14" lengthAdjust="spacing" textLength="153.3848" x="44" y="632.3701">plusargs: Dict[str, str]</text><ellipse cx="35" cy="645.3203" fill="none" rx="3" ry="3" style="stroke:#038048;stroke-width:1.0;"/><text fill="#000000" font-family="sans-serif" font-size="14" lengthAdjust="spacing" textLength="93.3516" x="44" y="648.667">tags: List[str]</text><line style="stroke:#181818;stroke-width:1.0;" x1="25" x2="265.624" y1="655.9688" y2="655.9688"/><ellipse cx="35" cy="669.6172" fill="#84BE84" rx="3" ry="3" style="stroke:#038048;stroke-width:1.0;"/><text fill="#000000" font-family="sans-serif" font-size="14" lengthAdjust="spacing" textLength="173.5029" x="44" y="672.9639">resolve_files(): List[Path]</text><ellipse cx="35" cy="685.9141" fill="#84BE84" rx="3" ry="3" style="stroke:#038048;stroke-width:1.0;"/><text fill="#000000" font-family="sans-serif" font-size="14" lengthAdjust="spacing" textLength="169.1484" x="44" y="689.2607">get_rtl_deps(): List[Dict]</text><ellipse cx="35" cy="702.2109" fill="#84BE84" rx="3" ry="3" style="stroke:#038048;stroke-width:1.0;"/><text fill="#000000" font-family="sans-serif" font-size="14" lengthAdjust="spacing" textLength="216.624" x="44" y="705.5576">get_firmware_deps(): List[Dict]</text><ellipse cx="35" cy="718.5078" fill="#84BE84" rx="3" ry="3" style="stroke:#038048;stroke-width:1.0;"/><text fill="#000000" font-family="sans-serif" font-size="14" lengthAdjust="spacing" textLength="213.3633" x="44" y="721.8545">get_package_deps(): List[Dict]</text></g><!--class TestSuite--><g id="elem_TestSuite"><rect codeLine="33" fill="#F1F1F1" height="145.7813" id="TestSuite" rx="2.5" ry="2.5" style="stroke:#181818;stroke-width:0.5;" width="174.8389" x="170" y="230"/><ellipse cx="220.3193" cy="246" fill="#ADD1B2" rx="11" ry="11" style="stroke:#181818;stroke-width:1.0;"/><path d="M223.2881,251.6406 Q222.71,251.9375 222.0693,252.0781 Q221.4287,252.2344 220.7256,252.2344 Q218.2256,252.2344 216.8975,250.5938 Q215.585,248.9375 215.585,245.8125 Q215.585,242.6875 216.8975,241.0313 Q218.2256,239.375 220.7256,239.375 Q221.4287,239.375 222.0693,239.5313 Q222.7256,239.6875 223.2881,239.9844 L223.2881,242.7031 Q222.6631,242.125 222.0693,241.8594 Q221.4756,241.5781 220.8506,241.5781 Q219.5068,241.5781 218.8193,242.6563 Q218.1318,243.7188 218.1318,245.8125 Q218.1318,247.9063 218.8193,248.9844 Q219.5068,250.0469 220.8506,250.0469 Q221.4756,250.0469 222.0693,249.7813 Q222.6631,249.5 223.2881,248.9219 L223.2881,251.6406 Z " fill="#000000"/><text fill="#000000" font-family="sans-serif" font-size="14" lengthAdjust="spacing" textLength="65.7002" x="240.8193" y="250.8467">TestSuite</text><line style="stroke:#181818;stroke-width:0.5;" x1="171" x2="343.8389" y1="262" y2="262"/><ellipse cx="181" cy="275.6484" fill="none" rx="3" ry="3" style="stroke:#038048;stroke-width:1.0;"/><text fill="#000000" font-family="sans-serif" font-size="14" lengthAdjust="spacing" textLength="67.4092" x="190" y="278.9951">name: str</text><ellipse cx="181" cy="291.9453" fill="none" rx="3" ry="3" style="stroke:#038048;stroke-width:1.0;"/><text fill="#000000" font-family="sans-serif" font-size="14" lengthAdjust="spacing" textLength="105.5469" x="190" y="295.292">description: str</text><ellipse cx="181" cy="308.2422" fill="none" rx="3" ry="3" style="stroke:#038048;stroke-width:1.0;"/><text fill="#000000" font-family="sans-serif" font-size="14" lengthAdjust="spacing" textLength="148.8389" x="190" y="311.5889">testbenches: List[str]</text><ellipse cx="181" cy="324.5391" fill="none" rx="3" ry="3" style="stroke:#038048;stroke-width:1.0;"/><text fill="#000000" font-family="sans-serif" font-size="14" lengthAdjust="spacing" textLength="79.502" x="190" y="327.8857">parallel: int</text><ellipse cx="181" cy="340.8359" fill="none" rx="3" ry="3" style="stroke:#038048;stroke-width:1.0;"/><text fill="#000000" font-family="sans-serif" font-size="14" lengthAdjust="spacing" textLength="81.9766" x="190" y="344.1826">timeout: int</text><ellipse cx="181" cy="357.1328" fill="none" rx="3" ry="3" style="stroke:#038048;stroke-width:1.0;"/><text fill="#000000" font-family="sans-serif" font-size="14" lengthAdjust="spacing" textLength="122.0352" x="190" y="360.4795">stop_on_fail: bool</text><line style="stroke:#181818;stroke-width:0.5;" x1="171" x2="343.8389" y1="367.7813" y2="367.7813"/></g><!--reverse link TestbenchManifest to Testbench--><g id="link_TestbenchManifest_Testbench"><path codeLine="42" d="M138.1555,181.2181 C139.5255,257.5081 141.4,361.83 143.04,452.84 " fill="none" id="TestbenchManifest-backto-Testbench" style="stroke:#181818;stroke-width:1.0;"/><polygon fill="#181818" points="137.94,169.22,134.0484,175.2909,138.1555,181.2181,142.0471,175.1472,137.94,169.22" style="stroke:#181818;stroke-width:1.0;"/><text fill="#000000" font-family="sans-serif" font-size="13" lengthAdjust="spacing" textLength="8.271" x="129.7462" y="189.191">1</text><text fill="#000000" font-family="sans-serif" font-size="13" lengthAdjust="spacing" textLength="6.5" x="136.7654" y="441.9405">*</text></g><!--reverse link TestbenchManifest to TestSuite--><g id="link_TestbenchManifest_TestSuite"><path codeLine="43" d="M187.9966,179.6543 C199.3166,199.5843 205.46,210.39 216.54,229.9 " fill="none" id="TestbenchManifest-backto-TestSuite" style="stroke:#181818;stroke-width:1.0;"/><polygon fill="#181818" points="182.07,169.22,181.5552,176.4127,187.9966,179.6543,188.5114,172.4616,182.07,169.22" style="stroke:#181818;stroke-width:1.0;"/><text fill="#000000" font-family="sans-serif" font-size="13" lengthAdjust="spacing" textLength="8.271" x="177.8065" y="189.191">1</text><text fill="#000000" font-family="sans-serif" font-size="13" lengthAdjust="spacing" textLength="6.5" x="206.2452" y="219.0501">*</text></g><!--link TestSuite to Testbench--><g id="link_TestSuite_Testbench"><path codeLine="44" d="M229.24,376.17 C220.07,399.59 211.758,420.8032 201.368,447.3332 " fill="none" id="TestSuite-to-Testbench" style="stroke:#181818;stroke-width:1.0;"/><polygon fill="#181818" points="199.18,452.92,206.1865,445.9984,201.0033,448.2643,198.7374,443.0811,199.18,452.92" style="stroke:#181818;stroke-width:1.0;"/><text fill="#000000" font-family="sans-serif" font-size="13" lengthAdjust="spacing" textLength="69.418" x="216.5" y="419.0669">references</text></g><!--SRC=[bPF1JiCm38RlVOfefstG0zSUk80u3JJ1RWXLMUiMQsbInIu80UzEadPfeHE8e-qloV_R3XrGjzBAHknbSQYjwNHvPPInWgtKv4gWEQ58bL39Jl6DqNmd6n3ae9J0OfKaXP94OWV4Uz35ywtKMBb0l2T2Y3Fjy4mGsn3nMpkDZcU0Ch51uiTuorC4SkgGlm4FFj43hLClwrYztsssVIQKqpH0DN0UdrfwGQjir1kHyCwq7Dv9FcSEJpehWGgBBQFH4uEc7OCALHJgShq1r8NgoddUDHorJrzZ4TBdOb9hGPTE2SPpdee7_QHonWPCnvb0pHz72QtgIDhwzBKiwvyoXWPQ8ADU80yEbgi1saeUnkIxPrdbJjXO7YNvSeMsUNLRzHip3FCKycq8OIx_6C9iow9blznAWGfTwk59sqA2t0npe_DAeiFsnYWlPhxjYuk5MAUfMAmNaztwc-kNRBILffUJJSk4XGhSPoo0lW00]--></g></svg>