<svg xmlns="http://www.w3.org/2000/svg" xmlns:xlink="http://www.w3.org/1999/xlink" contentStyleType="text/css" height="512px" preserveAspectRatio="none" style="width:434px;height:512px;" version="1.1" viewBox="0 0 434 512" width="434px" zoomAndPan="magnify"><defs/><g><ellipse cx="208.2041" cy="20" fill="#222222" rx="10" ry="10" style="stroke:#222222;stroke-width:1.0;"/><rect fill="#F1F1F1" height="33.9688" rx="12.5" ry="12.5" style="stroke:#181818;stroke-width:0.5;" width="135.1484" x="140.6299" y="50"/><text fill="#000000" font-family="sans-serif" font-size="12" lengthAdjust="spacing" textLength="115.1484" x="150.6299" y="71.1387">Source Files (.c, .S)</text><rect fill="#F1F1F1" height="33.9688" rx="12.5" ry="12.5" style="stroke:#181818;stroke-width:0.5;" width="108.3125" x="154.0479" y="103.9688"/><text fill="#000000" font-family="sans-serif" font-size="12" lengthAdjust="spacing" textLength="88.3125" x="164.0479" y="125.1074">Compile (GCC)</text><rect fill="#F1F1F1" height="33.9688" rx="12.5" ry="12.5" style="stroke:#181818;stroke-width:0.5;" width="114.4355" x="150.9863" y="157.9375"/><text fill="#000000" font-family="sans-serif" font-size="12" lengthAdjust="spacing" textLength="94.4355" x="160.9863" y="179.0762">Object Files (.o)</text><rect fill="#F1F1F1" height="33.9688" rx="12.5" ry="12.5" style="stroke:#181818;stroke-width:0.5;" width="106.0566" x="155.1758" y="211.9063"/><text fill="#000000" font-family="sans-serif" font-size="12" lengthAdjust="spacing" textLength="86.0566" x="165.1758" y="233.0449">Link (linker.ld)</text><rect fill="#F1F1F1" height="33.9688" rx="12.5" ry="12.5" style="stroke:#181818;stroke-width:0.5;" width="83.5449" x="166.4316" y="265.875"/><text fill="#000000" font-family="sans-serif" font-size="12" lengthAdjust="spacing" textLength="63.5449" x="176.4316" y="287.0137">ELF Binary</text><rect fill="#555555" height="6" rx="2.5" ry="2.5" style="stroke:#555555;stroke-width:1.0;" width="412.4082" x="11" y="319.8438"/><rect fill="#F1F1F1" height="33.9688" rx="12.5" ry="12.5" style="stroke:#181818;stroke-width:0.5;" width="66.9512" x="36.5791" y="345.8438"/><text fill="#000000" font-family="sans-serif" font-size="12" lengthAdjust="spacing" textLength="46.9512" x="46.5791" y="366.9824">objcopy</text><rect fill="#F1F1F1" height="33.9688" rx="12.5" ry="12.5" style="stroke:#181818;stroke-width:0.5;" width="94.1094" x="23" y="399.8125"/><text fill="#000000" font-family="sans-serif" font-size="12" lengthAdjust="spacing" textLength="74.1094" x="33" y="420.9512">Binary (.bin)</text><rect fill="#F1F1F1" height="33.9688" rx="12.5" ry="12.5" style="stroke:#181818;stroke-width:0.5;" width="66.9512" x="150.7783" y="345.8438"/><text fill="#000000" font-family="sans-serif" font-size="12" lengthAdjust="spacing" textLength="46.9512" x="160.7783" y="366.9824">objcopy</text><rect fill="#F1F1F1" height="33.9688" rx="12.5" ry="12.5" style="stroke:#181818;stroke-width:0.5;" width="114.2891" x="127.1094" y="399.8125"/><text fill="#000000" font-family="sans-serif" font-size="12" lengthAdjust="spacing" textLength="94.2891" x="137.1094" y="420.9512">Intel HEX (.hex)</text><rect fill="#F1F1F1" height="33.9688" rx="12.5" ry="12.5" style="stroke:#181818;stroke-width:0.5;" width="104.5918" x="288.1074" y="345.8438"/><text fill="#000000" font-family="sans-serif" font-size="12" lengthAdjust="spacing" textLength="84.5918" x="298.1074" y="366.9824">Custom Script</text><rect fill="#F1F1F1" height="33.9688" rx="12.5" ry="12.5" style="stroke:#181818;stroke-width:0.5;" width="142.0098" x="269.3984" y="399.8125"/><text fill="#000000" font-family="sans-serif" font-size="12" lengthAdjust="spacing" textLength="122.0098" x="279.3984" y="420.9512">Verilog MEM (.mem)</text><rect fill="#555555" height="6" rx="2.5" ry="2.5" style="stroke:#555555;stroke-width:1.0;" width="412.4082" x="11" y="453.7813"/><ellipse cx="208.2041" cy="490.7813" fill="none" rx="11" ry="11" style="stroke:#222222;stroke-width:1.0;"/><ellipse cx="208.2041" cy="490.7813" fill="#222222" rx="6" ry="6" style="stroke:#222222;stroke-width:1.0;"/><line style="stroke:#181818;stroke-width:1.0;" x1="208.2041" x2="208.2041" y1="30" y2="50"/><polygon fill="#181818" points="204.2041,40,208.2041,50,212.2041,40,208.2041,44" style="stroke:#181818;stroke-width:1.0;"/><line style="stroke:#181818;stroke-width:1.0;" x1="208.2041" x2="208.2041" y1="83.9688" y2="103.9688"/><polygon fill="#181818" points="204.2041,93.9688,208.2041,103.9688,212.2041,93.9688,208.2041,97.9688" style="stroke:#181818;stroke-width:1.0;"/><line style="stroke:#181818;stroke-width:1.0;" x1="208.2041" x2="208.2041" y1="137.9375" y2="157.9375"/><polygon fill="#181818" points="204.2041,147.9375,208.2041,157.9375,212.2041,147.9375,208.2041,151.9375" style="stroke:#181818;stroke-width:1.0;"/><line style="stroke:#181818;stroke-width:1.0;" x1="208.2041" x2="208.2041" y1="191.9063" y2="211.9063"/><polygon fill="#181818" points="204.2041,201.9063,208.2041,211.9063,212.2041,201.9063,208.2041,205.9063" style="stroke:#181818;stroke-width:1.0;"/><line style="stroke:#181818;stroke-width:1.0;" x1="208.2041" x2="208.2041" y1="245.875" y2="265.875"/><polygon fill="#181818" points="204.2041,255.875,208.2041,265.875,212.2041,255.875,208.2041,259.875" style="stroke:#181818;stroke-width:1.0;"/><line style="stroke:#181818;stroke-width:1.0;" x1="70.0547" x2="70.0547" y1="379.8125" y2="399.8125"/><polygon fill="#181818" points="66.0547,389.8125,70.0547,399.8125,74.0547,389.8125,70.0547,393.8125" style="stroke:#181818;stroke-width:1.0;"/><line style="stroke:#181818;stroke-width:1.0;" x1="184.2539" x2="184.2539" y1="379.8125" y2="399.8125"/><polygon fill="#181818" points="180.2539,389.8125,184.2539,399.8125,188.2539,389.8125,184.2539,393.8125" style="stroke:#181818;stroke-width:1.0;"/><line style="stroke:#181818;stroke-width:1.0;" x1="340.4033" x2="340.4033" y1="379.8125" y2="399.8125"/><polygon fill="#181818" points="336.4033,389.8125,340.4033,399.8125,344.4033,389.8125,340.4033,393.8125" style="stroke:#181818;stroke-width:1.0;"/><line style="stroke:#181818;stroke-width:1.0;" x1="70.0547" x2="70.0547" y1="325.8438" y2="345.8438"/><polygon fill="#181818" points="66.0547,335.8438,70.0547,345.8438,74.0547,335.8438,70.0547,339.8438" style="stroke:#181818;stroke-width:1.0;"/><line style="stroke:#181818;stroke-width:1.0;" x1="184.2539" x2="184.2539" y1="325.8438" y2="345.8438"/><polygon fill="#181818" points="180.2539,335.8438,184.2539,345.8438,188.2539,335.8438,184.2539,339.8438" style="stroke:#181818;stroke-width:1.0;"/><line style="stroke:#181818;stroke-width:1.0;" x1="340.4033" x2="340.4033" y1="325.8438" y2="345.8438"/><polygon fill="#181818" points="336.4033,335.8438,340.4033,345.8438,344.4033,335.8438,340.4033,339.8438" style="stroke:#181818;stroke-width:1.0;"/><line style="stroke:#181818;stroke-width:1.0;" x1="70.0547" x2="70.0547" y1="433.7813" y2="453.7813"/><polygon fill="#181818" points="66.0547,443.7813,70.0547,453.7813,74.0547,443.7813,70.0547,447.7813" style="stroke:#181818;stroke-width:1.0;"/><line style="stroke:#181818;stroke-width:1.0;" x1="184.2539" x2="184.2539" y1="433.7813" y2="453.7813"/><polygon fill="#181818" points="180.2539,443.7813,184.2539,453.7813,188.2539,443.7813,184.2539,447.7813" style="stroke:#181818;stroke-width:1.0;"/><line style="stroke:#181818;stroke-width:1.0;" x1="340.4033" x2="340.4033" y1="433.7813" y2="453.7813"/><polygon fill="#181818" points="336.4033,443.7813,340.4033,453.7813,344.4033,443.7813,340.4033,447.7813" style="stroke:#181818;stroke-width:1.0;"/><line style="stroke:#181818;stroke-width:1.0;" x1="208.2041" x2="208.2041" y1="299.8438" y2="319.8438"/><polygon fill="#181818" points="204.2041,309.8438,208.2041,319.8438,212.2041,309.8438,208.2041,313.8438" style="stroke:#181818;stroke-width:1.0;"/><line style="stroke:#181818;stroke-width:1.0;" x1="208.2041" x2="208.2041" y1="459.7813" y2="479.7813"/><polygon fill="#181818" points="204.2041,469.7813,208.2041,479.7813,212.2041,469.7813,208.2041,473.7813" style="stroke:#181818;stroke-width:1.0;"/><!--SRC=[PO_1JiCm38RlUGeVEmdw0DsDgWMaZHqg8QvfwfQiYHqvgGHlZpka7U1YsV___PQTLq_9YeqmMhSkmXjDBGSMA68fguLKJBvJ4yvs2wLdAcys8cI57ZEAdut9nKenpS2RE8JU1ynGrUu1wk5mD4tBCQa6rNFRxlDblA8hTuvtxUHfXIfeHQd3j4lTgOSdJrQ-ZyRCBAi1Q7YyEawgQFzhweRHamPs1EnYFVq5NwbWW9VkGzbF_Fh7jbik765mubEv9TxriS0BdBkpPY96pI1DS3j3_-Nq0m00]--></g></svg>