<svg xmlns="http://www.w3.org/2000/svg" xmlns:xlink="http://www.w3.org/1999/xlink" contentStyleType="text/css" height="928px" preserveAspectRatio="none" style="width:234px;height:928px;" version="1.1" viewBox="0 0 234 928" width="234px" zoomAndPan="magnify"><defs/><g><ellipse cx="117.1025" cy="20" fill="#222222" rx="10" ry="10" style="stroke:#222222;stroke-width:1.0;"/><rect fill="#F1F1F1" height="33.9688" rx="12.5" ry="12.5" style="stroke:#181818;stroke-width:0.5;" width="169.0273" x="32.5889" y="50"/><text fill="#000000" font-family="sans-serif" font-size="12" lengthAdjust="spacing" textLength="149.0273" x="42.5889" y="71.1387">Load testbench manifest</text><rect fill="#F1F1F1" height="33.9688" rx="12.5" ry="12.5" style="stroke:#181818;stroke-width:0.5;" width="180.8926" x="26.6563" y="103.9688"/><text fill="#000000" font-family="sans-serif" font-size="12" lengthAdjust="spacing" textLength="160.8926" x="36.6563" y="125.1074">Resolve RTL dependencies</text><rect fill="#F1F1F1" height="33.9688" rx="12.5" ry="12.5" style="stroke:#181818;stroke-width:0.5;" width="212.2051" x="11" y="157.9375"/><text fill="#000000" font-family="sans-serif" font-size="12" lengthAdjust="spacing" textLength="192.2051" x="21" y="179.0762">Resolve firmware dependencies</text><rect fill="#F1F1F1" height="33.9688" rx="12.5" ry="12.5" style="stroke:#181818;stroke-width:0.5;" width="137.0938" x="48.5557" y="211.9063"/><text fill="#000000" font-family="sans-serif" font-size="12" lengthAdjust="spacing" textLength="117.0938" x="58.5557" y="233.0449">Compile all sources</text><rect fill="#F1F1F1" height="33.9688" rx="12.5" ry="12.5" style="stroke:#181818;stroke-width:0.5;" width="99.9102" x="67.1475" y="314.2773"/><text fill="#000000" font-family="sans-serif" font-size="12" lengthAdjust="spacing" textLength="79.9102" x="77.1475" y="335.416">Report errors</text><ellipse cx="117.1025" cy="387.7617" fill="none" rx="11" ry="11" style="stroke:#222222;stroke-width:1.0;"/><ellipse cx="117.1025" cy="387.7617" fill="#222222" rx="6" ry="6" style="stroke:#222222;stroke-width:1.0;"/><polygon fill="#F1F1F1" points="71.4832,265.875,162.7219,265.875,174.7219,277.875,162.7219,289.875,71.4832,289.875,59.4832,277.875,71.4832,265.875" style="stroke:#181818;stroke-width:0.5;"/><text fill="#000000" font-family="sans-serif" font-size="11" lengthAdjust="spacing" textLength="13.7017" x="121.1025" y="300.0854">no</text><text fill="#000000" font-family="sans-serif" font-size="11" lengthAdjust="spacing" textLength="91.2388" x="71.4832" y="281.6831">Compilation OK?</text><rect fill="#F1F1F1" height="33.9688" rx="12.5" ry="12.5" style="stroke:#181818;stroke-width:0.5;" width="121.2266" x="56.4893" y="440.7617"/><text fill="#000000" font-family="sans-serif" font-size="12" lengthAdjust="spacing" textLength="101.2266" x="66.4893" y="461.9004">Elaborate design</text><rect fill="#F1F1F1" height="33.9688" rx="12.5" ry="12.5" style="stroke:#181818;stroke-width:0.5;" width="109.918" x="62.1436" y="494.7305"/><text fill="#000000" font-family="sans-serif" font-size="12" lengthAdjust="spacing" textLength="89.918" x="72.1436" y="515.8691">Run simulation</text><rect fill="#F1F1F1" height="33.9688" rx="12.5" ry="12.5" style="stroke:#181818;stroke-width:0.5;" width="141.8984" x="46.1533" y="597.1016"/><text fill="#000000" font-family="sans-serif" font-size="12" lengthAdjust="spacing" textLength="121.8984" x="56.1533" y="618.2402">Dump waveform file</text><polygon fill="#F1F1F1" points="59.0679,548.6992,175.1372,548.6992,187.1372,560.6992,175.1372,572.6992,59.0679,572.6992,47.0679,560.6992,59.0679,548.6992" style="stroke:#181818;stroke-width:0.5;"/><text fill="#000000" font-family="sans-serif" font-size="11" lengthAdjust="spacing" textLength="19.0083" x="121.1025" y="582.9097">yes</text><text fill="#000000" font-family="sans-serif" font-size="11" lengthAdjust="spacing" textLength="116.0693" x="59.0679" y="564.5073">Waveforms enabled?</text><polygon fill="#F1F1F1" points="117.1025,651.0703,129.1025,663.0703,117.1025,675.0703,105.1025,663.0703,117.1025,651.0703" style="stroke:#181818;stroke-width:0.5;"/><rect fill="#F1F1F1" height="33.9688" rx="12.5" ry="12.5" style="stroke:#181818;stroke-width:0.5;" width="159.4707" x="37.3672" y="743.4727"/><text fill="#000000" font-family="sans-serif" font-size="12" lengthAdjust="spacing" textLength="139.4707" x="47.3672" y="764.6113">Open waveform viewer</text><polygon fill="#F1F1F1" points="80.3911,695.0703,153.814,695.0703,165.814,707.0703,153.814,719.0703,80.3911,719.0703,68.3911,707.0703,80.3911,695.0703" style="stroke:#181818;stroke-width:0.5;"/><text fill="#000000" font-family="sans-serif" font-size="11" lengthAdjust="spacing" textLength="19.0083" x="121.1025" y="729.2808">yes</text><text fill="#000000" font-family="sans-serif" font-size="11" lengthAdjust="spacing" textLength="73.4229" x="80.3911" y="710.8784">GUI enabled?</text><polygon fill="#F1F1F1" points="117.1025,797.4414,129.1025,809.4414,117.1025,821.4414,105.1025,809.4414,117.1025,797.4414" style="stroke:#181818;stroke-width:0.5;"/><rect fill="#F1F1F1" height="33.9688" rx="12.5" ry="12.5" style="stroke:#181818;stroke-width:0.5;" width="104.5977" x="64.8037" y="841.4414"/><text fill="#000000" font-family="sans-serif" font-size="12" lengthAdjust="spacing" textLength="84.5977" x="74.8037" y="862.5801">Report results</text><ellipse cx="117.1025" cy="906.4102" fill="none" rx="11" ry="11" style="stroke:#222222;stroke-width:1.0;"/><ellipse cx="117.1025" cy="906.4102" fill="#222222" rx="6" ry="6" style="stroke:#222222;stroke-width:1.0;"/><line style="stroke:#181818;stroke-width:1.0;" x1="117.1025" x2="117.1025" y1="30" y2="50"/><polygon fill="#181818" points="113.1025,40,117.1025,50,121.1025,40,117.1025,44" style="stroke:#181818;stroke-width:1.0;"/><line style="stroke:#181818;stroke-width:1.0;" x1="117.1025" x2="117.1025" y1="83.9688" y2="103.9688"/><polygon fill="#181818" points="113.1025,93.9688,117.1025,103.9688,121.1025,93.9688,117.1025,97.9688" style="stroke:#181818;stroke-width:1.0;"/><line style="stroke:#181818;stroke-width:1.0;" x1="117.1025" x2="117.1025" y1="137.9375" y2="157.9375"/><polygon fill="#181818" points="113.1025,147.9375,117.1025,157.9375,121.1025,147.9375,117.1025,151.9375" style="stroke:#181818;stroke-width:1.0;"/><line style="stroke:#181818;stroke-width:1.0;" x1="117.1025" x2="117.1025" y1="191.9063" y2="211.9063"/><polygon fill="#181818" points="113.1025,201.9063,117.1025,211.9063,121.1025,201.9063,117.1025,205.9063" style="stroke:#181818;stroke-width:1.0;"/><line style="stroke:#181818;stroke-width:1.0;" x1="117.1025" x2="117.1025" y1="348.2461" y2="376.7617"/><polygon fill="#181818" points="113.1025,366.7617,117.1025,376.7617,121.1025,366.7617,117.1025,370.7617" style="stroke:#181818;stroke-width:1.0;"/><line style="stroke:#181818;stroke-width:1.0;" x1="117.1025" x2="117.1025" y1="289.875" y2="314.2773"/><polygon fill="#181818" points="113.1025,304.2773,117.1025,314.2773,121.1025,304.2773,117.1025,308.2773" style="stroke:#181818;stroke-width:1.0;"/><line style="stroke:#181818;stroke-width:1.0;" x1="174.7219" x2="186.7219" y1="277.875" y2="277.875"/><polygon fill="#181818" points="182.7219,346.7617,186.7219,356.7617,190.7219,346.7617,186.7219,350.7617" style="stroke:#181818;stroke-width:1.0;"/><line style="stroke:#181818;stroke-width:1.0;" x1="186.7219" x2="186.7219" y1="277.875" y2="420.7617"/><line style="stroke:#181818;stroke-width:1.0;" x1="186.7219" x2="117.1025" y1="420.7617" y2="420.7617"/><line style="stroke:#181818;stroke-width:1.0;" x1="117.1025" x2="117.1025" y1="420.7617" y2="440.7617"/><polygon fill="#181818" points="113.1025,430.7617,117.1025,440.7617,121.1025,430.7617,117.1025,434.7617" style="stroke:#181818;stroke-width:1.0;"/><line style="stroke:#181818;stroke-width:1.0;" x1="117.1025" x2="117.1025" y1="245.875" y2="265.875"/><polygon fill="#181818" points="113.1025,255.875,117.1025,265.875,121.1025,255.875,117.1025,259.875" style="stroke:#181818;stroke-width:1.0;"/><line style="stroke:#181818;stroke-width:1.0;" x1="117.1025" x2="117.1025" y1="474.7305" y2="494.7305"/><polygon fill="#181818" points="113.1025,484.7305,117.1025,494.7305,121.1025,484.7305,117.1025,488.7305" style="stroke:#181818;stroke-width:1.0;"/><line style="stroke:#181818;stroke-width:1.0;" x1="117.1025" x2="117.1025" y1="572.6992" y2="597.1016"/><polygon fill="#181818" points="113.1025,587.1016,117.1025,597.1016,121.1025,587.1016,117.1025,591.1016" style="stroke:#181818;stroke-width:1.0;"/><line style="stroke:#181818;stroke-width:1.0;" x1="187.1372" x2="199.1372" y1="560.6992" y2="560.6992"/><polygon fill="#181818" points="195.1372,604.0859,199.1372,614.0859,203.1372,604.0859,199.1372,608.0859" style="stroke:#181818;stroke-width:1.0;"/><line style="stroke:#181818;stroke-width:1.0;" x1="199.1372" x2="199.1372" y1="560.6992" y2="663.0703"/><line style="stroke:#181818;stroke-width:1.0;" x1="199.1372" x2="129.1025" y1="663.0703" y2="663.0703"/><polygon fill="#181818" points="139.1025,659.0703,129.1025,663.0703,139.1025,667.0703,135.1025,663.0703" style="stroke:#181818;stroke-width:1.0;"/><line style="stroke:#181818;stroke-width:1.0;" x1="117.1025" x2="117.1025" y1="631.0703" y2="651.0703"/><polygon fill="#181818" points="113.1025,641.0703,117.1025,651.0703,121.1025,641.0703,117.1025,645.0703" style="stroke:#181818;stroke-width:1.0;"/><line style="stroke:#181818;stroke-width:1.0;" x1="117.1025" x2="117.1025" y1="528.6992" y2="548.6992"/><polygon fill="#181818" points="113.1025,538.6992,117.1025,548.6992,121.1025,538.6992,117.1025,542.6992" style="stroke:#181818;stroke-width:1.0;"/><line style="stroke:#181818;stroke-width:1.0;" x1="117.1025" x2="117.1025" y1="719.0703" y2="743.4727"/><polygon fill="#181818" points="113.1025,733.4727,117.1025,743.4727,121.1025,733.4727,117.1025,737.4727" style="stroke:#181818;stroke-width:1.0;"/><line style="stroke:#181818;stroke-width:1.0;" x1="165.814" x2="206.8379" y1="707.0703" y2="707.0703"/><polygon fill="#181818" points="202.8379,750.457,206.8379,760.457,210.8379,750.457,206.8379,754.457" style="stroke:#181818;stroke-width:1.0;"/><line style="stroke:#181818;stroke-width:1.0;" x1="206.8379" x2="206.8379" y1="707.0703" y2="809.4414"/><line style="stroke:#181818;stroke-width:1.0;" x1="206.8379" x2="129.1025" y1="809.4414" y2="809.4414"/><polygon fill="#181818" points="139.1025,805.4414,129.1025,809.4414,139.1025,813.4414,135.1025,809.4414" style="stroke:#181818;stroke-width:1.0;"/><line style="stroke:#181818;stroke-width:1.0;" x1="117.1025" x2="117.1025" y1="777.4414" y2="797.4414"/><polygon fill="#181818" points="113.1025,787.4414,117.1025,797.4414,121.1025,787.4414,117.1025,791.4414" style="stroke:#181818;stroke-width:1.0;"/><line style="stroke:#181818;stroke-width:1.0;" x1="117.1025" x2="117.1025" y1="675.0703" y2="695.0703"/><polygon fill="#181818" points="113.1025,685.0703,117.1025,695.0703,121.1025,685.0703,117.1025,689.0703" style="stroke:#181818;stroke-width:1.0;"/><line style="stroke:#181818;stroke-width:1.0;" x1="117.1025" x2="117.1025" y1="821.4414" y2="841.4414"/><polygon fill="#181818" points="113.1025,831.4414,117.1025,841.4414,121.1025,831.4414,117.1025,835.4414" style="stroke:#181818;stroke-width:1.0;"/><line style="stroke:#181818;stroke-width:1.0;" x1="117.1025" x2="117.1025" y1="875.4102" y2="895.4102"/><polygon fill="#181818" points="113.1025,885.4102,117.1025,895.4102,121.1025,885.4102,117.1025,889.4102" style="stroke:#181818;stroke-width:1.0;"/><!--SRC=[TL2vJWD13EtdArmc1J-G51JX428YKWIYzcQzoIWpzihsPiNVurKE41Ab_Iu_sp5pZueL6jmTzoe3joifek2AR04HUx8RgwKEX-9Fmlw6bS22T6UakKl97DNJOYtOWfDvGxmxG4NENKpBjDYIIJaHRD_NOTGJjy78PB-WBciT8_GllfBQvqA0fO39eBjfct87ipE2deLXyte_1pyGmunbdW0WZ7jH1r8L3KcipALFuJsTl7Wis8YYJu6MzpoTCZ1OhiFPyvBoYIVgHAi1CJQ5sblG5zavwM6eFOmNNXGfjBp6J0xF7o__QpTHzaTxoZIItjJN3aeMhuyIKuDl]--></g></svg>