<svg xmlns="http://www.w3.org/2000/svg" xmlns:xlink="http://www.w3.org/1999/xlink" contentStyleType="text/css" height="479px" preserveAspectRatio="none" style="width:398px;height:479px;" version="1.1" viewBox="0 0 398 479" width="398px" zoomAndPan="magnify"><defs/><g><!--class RTLManifest--><g id="elem_RTLManifest"><rect codeLine="4" fill="#F1F1F1" height="227.2656" id="RTLManifest" rx="2.5" ry="2.5" style="stroke:#181818;stroke-width:0.5;" width="269.2773" x="77.5" y="7"/><ellipse cx="164.9761" cy="23" fill="#ADD1B2" rx="11" ry="11" style="stroke:#181818;stroke-width:1.0;"/><path d="M167.9448,28.6406 Q167.3667,28.9375 166.7261,29.0781 Q166.0854,29.2344 165.3823,29.2344 Q162.8823,29.2344 161.5542,27.5938 Q160.2417,25.9375 160.2417,22.8125 Q160.2417,19.6875 161.5542,18.0313 Q162.8823,16.375 165.3823,16.375 Q166.0854,16.375 166.7261,16.5313 Q167.3823,16.6875 167.9448,16.9844 L167.9448,19.7031 Q167.3198,19.125 166.7261,18.8594 Q166.1323,18.5781 165.5073,18.5781 Q164.1636,18.5781 163.4761,19.6563 Q162.7886,20.7188 162.7886,22.8125 Q162.7886,24.9063 163.4761,25.9844 Q164.1636,27.0469 165.5073,27.0469 Q166.1323,27.0469 166.7261,26.7813 Q167.3198,26.5 167.9448,25.9219 L167.9448,28.6406 Z " fill="#000000"/><text fill="#000000" font-family="sans-serif" font-size="14" lengthAdjust="spacing" textLength="85.8252" x="185.4761" y="27.8467">RTLManifest</text><line style="stroke:#181818;stroke-width:0.5;" x1="78.5" x2="345.7773" y1="39" y2="39"/><ellipse cx="88.5" cy="52.6484" fill="none" rx="3" ry="3" style="stroke:#038048;stroke-width:1.0;"/><text fill="#000000" font-family="sans-serif" font-size="14" lengthAdjust="spacing" textLength="67.4092" x="97.5" y="55.9951">name: str</text><ellipse cx="88.5" cy="68.9453" fill="none" rx="3" ry="3" style="stroke:#038048;stroke-width:1.0;"/><text fill="#000000" font-family="sans-serif" font-size="14" lengthAdjust="spacing" textLength="58.9805" x="97.5" y="72.292">type: str</text><ellipse cx="88.5" cy="85.2422" fill="none" rx="3" ry="3" style="stroke:#038048;stroke-width:1.0;"/><text fill="#000000" font-family="sans-serif" font-size="14" lengthAdjust="spacing" textLength="78.9824" x="97.5" y="88.5889">version: str</text><ellipse cx="88.5" cy="101.5391" fill="none" rx="3" ry="3" style="stroke:#038048;stroke-width:1.0;"/><text fill="#000000" font-family="sans-serif" font-size="14" lengthAdjust="spacing" textLength="92.8867" x="97.5" y="104.8857">language: str</text><ellipse cx="88.5" cy="117.8359" fill="none" rx="3" ry="3" style="stroke:#038048;stroke-width:1.0;"/><text fill="#000000" font-family="sans-serif" font-size="14" lengthAdjust="spacing" textLength="181.3096" x="97.5" y="121.1826">modules: List[RTLModule]</text><ellipse cx="88.5" cy="134.1328" fill="none" rx="3" ry="3" style="stroke:#038048;stroke-width:1.0;"/><text fill="#000000" font-family="sans-serif" font-size="14" lengthAdjust="spacing" textLength="196.1914" x="97.5" y="137.4795">packages: List[RTLPackage]</text><ellipse cx="88.5" cy="150.4297" fill="none" rx="3" ry="3" style="stroke:#038048;stroke-width:1.0;"/><text fill="#000000" font-family="sans-serif" font-size="14" lengthAdjust="spacing" textLength="121.1191" x="97.5" y="153.7764">includes: List[str]</text><ellipse cx="88.5" cy="166.7266" fill="none" rx="3" ry="3" style="stroke:#038048;stroke-width:1.0;"/><text fill="#000000" font-family="sans-serif" font-size="14" lengthAdjust="spacing" textLength="145.0244" x="97.5" y="170.0732">defines: Dict[str, str]</text><line style="stroke:#181818;stroke-width:1.0;" x1="78.5" x2="345.7773" y1="177.375" y2="177.375"/><ellipse cx="88.5" cy="191.0234" fill="#84BE84" rx="3" ry="3" style="stroke:#038048;stroke-width:1.0;"/><text fill="#000000" font-family="sans-serif" font-size="14" lengthAdjust="spacing" textLength="219.2354" x="97.5" y="194.3701">get_module(name): RTLModule</text><ellipse cx="88.5" cy="207.3203" fill="#84BE84" rx="3" ry="3" style="stroke:#038048;stroke-width:1.0;"/><text fill="#000000" font-family="sans-serif" font-size="14" lengthAdjust="spacing" textLength="168.834" x="97.5" y="210.667">get_all_files(): List[Path]</text><ellipse cx="88.5" cy="223.6172" fill="#84BE84" rx="3" ry="3" style="stroke:#038048;stroke-width:1.0;"/><text fill="#000000" font-family="sans-serif" font-size="14" lengthAdjust="spacing" textLength="243.2773" x="97.5" y="226.9639">validate(): List[ValidationMessage]</text></g><!--class RTLModule--><g id="elem_RTLModule"><rect codeLine="19" fill="#F1F1F1" height="178.375" id="RTLModule" rx="2.5" ry="2.5" style="stroke:#181818;stroke-width:0.5;" width="199.5029" x="7" y="294"/><ellipse cx="64.0083" cy="310" fill="#ADD1B2" rx="11" ry="11" style="stroke:#181818;stroke-width:1.0;"/><path d="M66.9771,315.6406 Q66.3989,315.9375 65.7583,316.0781 Q65.1177,316.2344 64.4146,316.2344 Q61.9146,316.2344 60.5864,314.5938 Q59.2739,312.9375 59.2739,309.8125 Q59.2739,306.6875 60.5864,305.0313 Q61.9146,303.375 64.4146,303.375 Q65.1177,303.375 65.7583,303.5313 Q66.4146,303.6875 66.9771,303.9844 L66.9771,306.7031 Q66.3521,306.125 65.7583,305.8594 Q65.1646,305.5781 64.5396,305.5781 Q63.1958,305.5781 62.5083,306.6563 Q61.8208,307.7188 61.8208,309.8125 Q61.8208,311.9063 62.5083,312.9844 Q63.1958,314.0469 64.5396,314.0469 Q65.1646,314.0469 65.7583,313.7813 Q66.3521,313.5 66.9771,312.9219 L66.9771,315.6406 Z " fill="#000000"/><text fill="#000000" font-family="sans-serif" font-size="14" lengthAdjust="spacing" textLength="76.9863" x="84.5083" y="314.8467">RTLModule</text><line style="stroke:#181818;stroke-width:0.5;" x1="8" x2="205.5029" y1="326" y2="326"/><ellipse cx="18" cy="339.6484" fill="none" rx="3" ry="3" style="stroke:#038048;stroke-width:1.0;"/><text fill="#000000" font-family="sans-serif" font-size="14" lengthAdjust="spacing" textLength="67.4092" x="27" y="342.9951">name: str</text><ellipse cx="18" cy="355.9453" fill="none" rx="3" ry="3" style="stroke:#038048;stroke-width:1.0;"/><text fill="#000000" font-family="sans-serif" font-size="14" lengthAdjust="spacing" textLength="73.8418" x="27" y="359.292">author: str</text><ellipse cx="18" cy="372.2422" fill="none" rx="3" ry="3" style="stroke:#038048;stroke-width:1.0;"/><text fill="#000000" font-family="sans-serif" font-size="14" lengthAdjust="spacing" textLength="50.6475" x="27" y="375.5889">top: str</text><ellipse cx="18" cy="388.5391" fill="none" rx="3" ry="3" style="stroke:#038048;stroke-width:1.0;"/><text fill="#000000" font-family="sans-serif" font-size="14" lengthAdjust="spacing" textLength="78.9824" x="27" y="391.8857">version: str</text><ellipse cx="18" cy="404.8359" fill="none" rx="3" ry="3" style="stroke:#038048;stroke-width:1.0;"/><text fill="#000000" font-family="sans-serif" font-size="14" lengthAdjust="spacing" textLength="92.8867" x="27" y="408.1826">language: str</text><ellipse cx="18" cy="421.1328" fill="none" rx="3" ry="3" style="stroke:#038048;stroke-width:1.0;"/><text fill="#000000" font-family="sans-serif" font-size="14" lengthAdjust="spacing" textLength="91.7178" x="27" y="424.4795">files: List[str]</text><ellipse cx="18" cy="437.4297" fill="none" rx="3" ry="3" style="stroke:#038048;stroke-width:1.0;"/><text fill="#000000" font-family="sans-serif" font-size="14" lengthAdjust="spacing" textLength="170.1602" x="27" y="440.7764">dependencies: List[Dict]</text><line style="stroke:#181818;stroke-width:1.0;" x1="8" x2="205.5029" y1="448.0781" y2="448.0781"/><ellipse cx="18" cy="461.7266" fill="#84BE84" rx="3" ry="3" style="stroke:#038048;stroke-width:1.0;"/><text fill="#000000" font-family="sans-serif" font-size="14" lengthAdjust="spacing" textLength="173.5029" x="27" y="465.0732">resolve_files(): List[Path]</text></g><!--class RTLPackage--><g id="elem_RTLPackage"><rect codeLine="31" fill="#F1F1F1" height="113.1875" id="RTLPackage" rx="2.5" ry="2.5" style="stroke:#181818;stroke-width:0.5;" width="148.8623" x="242.5" y="326.5"/><ellipse cx="271.8451" cy="342.5" fill="#ADD1B2" rx="11" ry="11" style="stroke:#181818;stroke-width:1.0;"/><path d="M274.8138,348.1406 Q274.2357,348.4375 273.5951,348.5781 Q272.9544,348.7344 272.2513,348.7344 Q269.7513,348.7344 268.4232,347.0938 Q267.1107,345.4375 267.1107,342.3125 Q267.1107,339.1875 268.4232,337.5313 Q269.7513,335.875 272.2513,335.875 Q272.9544,335.875 273.5951,336.0313 Q274.2513,336.1875 274.8138,336.4844 L274.8138,339.2031 Q274.1888,338.625 273.5951,338.3594 Q273.0013,338.0781 272.3763,338.0781 Q271.0326,338.0781 270.3451,339.1563 Q269.6576,340.2188 269.6576,342.3125 Q269.6576,344.4063 270.3451,345.4844 Q271.0326,346.5469 272.3763,346.5469 Q273.0013,346.5469 273.5951,346.2813 Q274.1888,346 274.8138,345.4219 L274.8138,348.1406 Z " fill="#000000"/><text fill="#000000" font-family="sans-serif" font-size="14" lengthAdjust="spacing" textLength="84.9844" x="289.0329" y="347.3467">RTLPackage</text><line style="stroke:#181818;stroke-width:0.5;" x1="243.5" x2="390.3623" y1="358.5" y2="358.5"/><ellipse cx="253.5" cy="372.1484" fill="none" rx="3" ry="3" style="stroke:#038048;stroke-width:1.0;"/><text fill="#000000" font-family="sans-serif" font-size="14" lengthAdjust="spacing" textLength="59.5342" x="262.5" y="375.4951">path: str</text><ellipse cx="253.5" cy="388.4453" fill="none" rx="3" ry="3" style="stroke:#038048;stroke-width:1.0;"/><text fill="#000000" font-family="sans-serif" font-size="14" lengthAdjust="spacing" textLength="67.4092" x="262.5" y="391.792">name: str</text><ellipse cx="253.5" cy="404.7422" fill="none" rx="3" ry="3" style="stroke:#038048;stroke-width:1.0;"/><text fill="#000000" font-family="sans-serif" font-size="14" lengthAdjust="spacing" textLength="122.8623" x="262.5" y="408.0889">modules: List[str]</text><line style="stroke:#181818;stroke-width:1.0;" x1="243.5" x2="390.3623" y1="415.3906" y2="415.3906"/><ellipse cx="253.5" cy="429.0391" fill="#84BE84" rx="3" ry="3" style="stroke:#038048;stroke-width:1.0;"/><text fill="#000000" font-family="sans-serif" font-size="14" lengthAdjust="spacing" textLength="94.9648" x="262.5" y="432.3857">to_dict(): Dict</text></g><!--reverse link RTLManifest to RTLModule--><g id="link_RTLManifest_RTLModule"><path codeLine="39" d="M162.0725,245.3694 C154.0325,265.3094 150.26,274.68 142.54,293.82 " fill="none" id="RTLManifest-backto-RTLModule" style="stroke:#181818;stroke-width:1.0;"/><polygon fill="#181818" points="166.56,234.24,160.6065,238.3089,162.0725,245.3694,168.0261,241.3005,166.56,234.24" style="stroke:#181818;stroke-width:1.0;"/><text fill="#000000" font-family="sans-serif" font-size="13" lengthAdjust="spacing" textLength="8.271" x="155.238" y="254.4482">1</text><text fill="#000000" font-family="sans-serif" font-size="13" lengthAdjust="spacing" textLength="6.5" x="139.276" y="282.8706">*</text></g><!--reverse link RTLManifest to RTLPackage--><g id="link_RTLManifest_RTLPackage"><path codeLine="40" d="M261.9255,245.3701 C274.7855,277.2801 283.74,299.47 294.58,326.39 " fill="none" id="RTLManifest-backto-RTLPackage" style="stroke:#181818;stroke-width:1.0;"/><polygon fill="#181818" points="257.44,234.24,255.9727,241.3002,261.9255,245.3701,263.3928,238.3099,257.44,234.24" style="stroke:#181818;stroke-width:1.0;"/><text fill="#000000" font-family="sans-serif" font-size="13" lengthAdjust="spacing" textLength="8.271" x="252.224" y="254.4482">1</text><text fill="#000000" font-family="sans-serif" font-size="13" lengthAdjust="spacing" textLength="6.5" x="285.3639" y="315.2393">*</text></g><!--SRC=[bL91JiCm4Bpd5QkSsa8EN7i5SMfHXH0NXAebtgHMNJloRYeXnD-ndP2wK25nzCnePtRMlDUsGuy7UCDwtthNMtNhZFCW7Yq7YgmKFAaKDTWRkNTM7l10m45KCNdT54Lja1aUdrPhjBeX5lWe0E3A1k4IM7nwoNkNlOxaMJjx0WpQjiSsanoSwWtn4bQQvIMEJy1h8hkGEgWpTZCW0wrjRNerqM7aW8Srj8tmdQuJV0tVN5KbHKko7PndCVzy2PFpnACnsqQ7RBFvQB11sGqEHpHQeT14FGz0M7PDp2dXPzvP6dsnCUnbvtpMeEl-LM2A-Bk1ZgmYM-k9Yrta5NXYPuvqSSKy-jZucBqB_CdxV9FpK_veNDnMXGJHA2Q95lbVAczAM5GLb8ioEyKVYZ7M5m00]--></g></svg>