<svg xmlns="http://www.w3.org/2000/svg" xmlns:xlink="http://www.w3.org/1999/xlink" contentStyleType="text/css" height="381px" preserveAspectRatio="none" style="width:492px;height:381px;" version="1.1" viewBox="0 0 492 381" width="492px" zoomAndPan="magnify"><defs/><g><!--cluster TB--><g id="cluster_TB"><rect fill="none" height="97" rx="2.5" ry="2.5" style="stroke:#181818;stroke-width:1.0;" width="138" x="190" y="7"/><text fill="#000000" font-family="sans-serif" font-size="14" font-weight="bold" lengthAdjust="spacing" textLength="81.8193" x="218.0903" y="21.9951">Testbench</text></g><!--cluster RTL--><g id="cluster_RTL"><rect fill="none" height="222" rx="2.5" ry="2.5" style="stroke:#181818;stroke-width:1.0;" width="161" x="7" y="153"/><text fill="#000000" font-family="sans-serif" font-size="14" font-weight="bold" lengthAdjust="spacing" textLength="145.1338" x="14.9331" y="167.9951">RTL Dependencies</text></g><!--cluster FW--><g id="cluster_FW"><rect fill="none" height="97" rx="2.5" ry="2.5" style="stroke:#181818;stroke-width:1.0;" width="134" x="192" y="153"/><text fill="#000000" font-family="sans-serif" font-size="14" font-weight="bold" lengthAdjust="spacing" textLength="74.6348" x="221.6826" y="167.9951">Firmware</text></g><!--cluster PKG--><g id="cluster_PKG"><rect fill="none" height="97" rx="2.5" ry="2.5" style="stroke:#181818;stroke-width:1.0;" width="136" x="350" y="153"/><text fill="#000000" font-family="sans-serif" font-size="14" font-weight="bold" lengthAdjust="spacing" textLength="74.6143" x="380.6929" y="167.9951">Packages</text></g><!--entity tb--><g id="elem_tb"><rect fill="#F1F1F1" height="46.2969" rx="2.5" ry="2.5" style="stroke:#181818;stroke-width:0.5;" width="106.8623" x="205.5" y="42"/><rect fill="#F1F1F1" height="10" style="stroke:#181818;stroke-width:0.5;" width="15" x="292.3623" y="47"/><rect fill="#F1F1F1" height="2" style="stroke:#181818;stroke-width:0.5;" width="4" x="290.3623" y="49"/><rect fill="#F1F1F1" height="2" style="stroke:#181818;stroke-width:0.5;" width="4" x="290.3623" y="53"/><text fill="#000000" font-family="sans-serif" font-size="14" lengthAdjust="spacing" textLength="66.8623" x="220.5" y="74.9951">tb_cpu.sv</text></g><!--entity cpu--><g id="elem_cpu"><rect fill="#F1F1F1" height="46.2969" rx="2.5" ry="2.5" style="stroke:#181818;stroke-width:0.5;" width="103.0889" x="48.5" y="188"/><rect fill="#F1F1F1" height="10" style="stroke:#181818;stroke-width:0.5;" width="15" x="131.5889" y="193"/><rect fill="#F1F1F1" height="2" style="stroke:#181818;stroke-width:0.5;" width="4" x="129.5889" y="195"/><rect fill="#F1F1F1" height="2" style="stroke:#181818;stroke-width:0.5;" width="4" x="129.5889" y="199"/><text fill="#000000" font-family="sans-serif" font-size="14" lengthAdjust="spacing" textLength="63.0889" x="63.5" y="220.9951">cpu_core</text></g><!--entity alu--><g id="elem_alu"><rect fill="#F1F1F1" height="46.2969" rx="2.5" ry="2.5" style="stroke:#181818;stroke-width:0.5;" width="61.3418" x="69.5" y="313"/><rect fill="#F1F1F1" height="10" style="stroke:#181818;stroke-width:0.5;" width="15" x="110.8418" y="318"/><rect fill="#F1F1F1" height="2" style="stroke:#181818;stroke-width:0.5;" width="4" x="108.8418" y="320"/><rect fill="#F1F1F1" height="2" style="stroke:#181818;stroke-width:0.5;" width="4" x="108.8418" y="324"/><text fill="#000000" font-family="sans-serif" font-size="14" lengthAdjust="spacing" textLength="21.3418" x="84.5" y="345.9951">alu</text></g><!--entity boot--><g id="elem_boot"><rect fill="#F1F1F1" height="46.2969" rx="2.5" ry="2.5" style="stroke:#181818;stroke-width:0.5;" width="101.7285" x="208" y="188"/><rect fill="#F1F1F1" height="10" style="stroke:#181818;stroke-width:0.5;" width="15" x="289.7285" y="193"/><rect fill="#F1F1F1" height="2" style="stroke:#181818;stroke-width:0.5;" width="4" x="287.7285" y="195"/><rect fill="#F1F1F1" height="2" style="stroke:#181818;stroke-width:0.5;" width="4" x="287.7285" y="199"/><text fill="#000000" font-family="sans-serif" font-size="14" lengthAdjust="spacing" textLength="61.7285" x="223" y="220.9951">boot.hex</text></g><!--entity uvm--><g id="elem_uvm"><rect fill="#F1F1F1" height="46.2969" rx="2.5" ry="2.5" style="stroke:#181818;stroke-width:0.5;" width="103.5127" x="366" y="188"/><rect fill="#F1F1F1" height="10" style="stroke:#181818;stroke-width:0.5;" width="15" x="449.5127" y="193"/><rect fill="#F1F1F1" height="2" style="stroke:#181818;stroke-width:0.5;" width="4" x="447.5127" y="195"/><rect fill="#F1F1F1" height="2" style="stroke:#181818;stroke-width:0.5;" width="4" x="447.5127" y="199"/><text fill="#000000" font-family="sans-serif" font-size="14" lengthAdjust="spacing" textLength="63.5127" x="381" y="220.9951">core_pkg</text></g><!--link tb to cpu--><g id="link_tb_cpu"><path d="M233.68,88.23 C222.68,97.94 209.66,109.49 198,120 C172.61,142.89 148.2254,165.3266 128.4554,183.6066 " fill="none" id="tb-to-cpu" style="stroke:#181818;stroke-width:1.0;"/><polygon fill="#181818" points="124.05,187.68,133.3737,184.5069,127.7212,184.2855,127.9425,178.633,124.05,187.68" style="stroke:#181818;stroke-width:1.0;"/><text fill="#000000" font-family="sans-serif" font-size="13" lengthAdjust="spacing" textLength="51.8286" x="199" y="133.0669">rtl_deps</text></g><!--link tb to boot--><g id="link_tb_boot"><path d="M259,88.18 C259,115.17 259,154.45 259,181.55 " fill="none" id="tb-to-boot" style="stroke:#181818;stroke-width:1.0;"/><polygon fill="#181818" points="259,187.55,263,178.55,259,182.55,255,178.55,259,187.55" style="stroke:#181818;stroke-width:1.0;"/><text fill="#000000" font-family="sans-serif" font-size="13" lengthAdjust="spacing" textLength="52.9839" x="260" y="133.0669">fw_deps</text></g><!--link tb to uvm--><g id="link_tb_uvm"><path d="M284.8,88.15 C296,97.85 309.22,109.41 321,120 C346.45,142.88 370.7673,165.5115 390.2973,183.8615 " fill="none" id="tb-to-uvm" style="stroke:#181818;stroke-width:1.0;"/><polygon fill="#181818" points="394.67,187.97,390.85,178.8922,391.0261,184.5463,385.372,184.7224,394.67,187.97" style="stroke:#181818;stroke-width:1.0;"/><text fill="#000000" font-family="sans-serif" font-size="13" lengthAdjust="spacing" textLength="61.8071" x="338" y="133.0669">pkg_deps</text></g><!--link cpu to alu--><g id="link_cpu_alu"><path d="M100,234.27 C100,256.57 100,284.66 100,306.89 " fill="none" id="cpu-to-alu" style="stroke:#181818;stroke-width:1.0;"/><polygon fill="#181818" points="100,312.89,104,303.89,100,307.89,96,303.89,100,312.89" style="stroke:#181818;stroke-width:1.0;"/><text fill="#000000" font-family="sans-serif" font-size="13" lengthAdjust="spacing" textLength="50.1084" x="101" y="279.0669">internal</text></g><!--SRC=[PP3DJiCm3CVlVGfhz-u1E700L0uWDA5A72idTRkggHCbxeQ4U7USC93MdQBy_XzsakQ90qPSmA2Tn-XNxX-zyn4a8YULYALA_wwU1boTD9xb3HU2fAOwKPo6gefa1Nbq1BkMaXXYUzm19cWVuAi20EkNu5aBOIUcis7TfrCnYAc-h_BlxIiyKI3kjMIYL5mPRdkqfBC-KZ7ePIEZMukYvsP2CyNbZ9TWyt5JRBoN_P4-Yvulc_n1lml7osQ7b-VRpNIhBinZCQod9UV5G5tVvptX3gAuhgUG_cWUedWuNr5DAjIUNvgZ6Uk354yi51dT3m00]--></g></svg>