<svg xmlns="http://www.w3.org/2000/svg" xmlns:xlink="http://www.w3.org/1999/xlink" contentStyleType="text/css" height="415px" preserveAspectRatio="none" style="width:524px;height:415px;" version="1.1" viewBox="0 0 524 415" width="524px" zoomAndPan="magnify"><defs/><g><!--class IPManifest--><g id="elem_IPManifest"><rect codeLine="4" fill="#F1F1F1" height="276.1563" id="IPManifest" rx="2.5" ry="2.5" style="stroke:#181818;stroke-width:0.5;" width="346.8516" x="69.5" y="7"/><ellipse cx="202.5171" cy="23" fill="#ADD1B2" rx="11" ry="11" style="stroke:#181818;stroke-width:1.0;"/><path d="M205.4858,28.6406 Q204.9077,28.9375 204.2671,29.0781 Q203.6265,29.2344 202.9233,29.2344 Q200.4233,29.2344 199.0952,27.5938 Q197.7827,25.9375 197.7827,22.8125 Q197.7827,19.6875 199.0952,18.0313 Q200.4233,16.375 202.9233,16.375 Q203.6265,16.375 204.2671,16.5313 Q204.9233,16.6875 205.4858,16.9844 L205.4858,19.7031 Q204.8608,19.125 204.2671,18.8594 Q203.6733,18.5781 203.0483,18.5781 Q201.7046,18.5781 201.0171,19.6563 Q200.3296,20.7188 200.3296,22.8125 Q200.3296,24.9063 201.0171,25.9844 Q201.7046,27.0469 203.0483,27.0469 Q203.6733,27.0469 204.2671,26.7813 Q204.8608,26.5 205.4858,25.9219 L205.4858,28.6406 Z " fill="#000000"/><text fill="#000000" font-family="sans-serif" font-size="14" lengthAdjust="spacing" textLength="72.3174" x="223.0171" y="27.8467">IPManifest</text><line style="stroke:#181818;stroke-width:0.5;" x1="70.5" x2="415.3516" y1="39" y2="39"/><ellipse cx="80.5" cy="52.6484" fill="none" rx="3" ry="3" style="stroke:#038048;stroke-width:1.0;"/><text fill="#000000" font-family="sans-serif" font-size="14" lengthAdjust="spacing" textLength="67.4092" x="89.5" y="55.9951">name: str</text><ellipse cx="80.5" cy="68.9453" fill="none" rx="3" ry="3" style="stroke:#038048;stroke-width:1.0;"/><text fill="#000000" font-family="sans-serif" font-size="14" lengthAdjust="spacing" textLength="58.9805" x="89.5" y="72.292">type: str</text><ellipse cx="80.5" cy="85.2422" fill="none" rx="3" ry="3" style="stroke:#038048;stroke-width:1.0;"/><text fill="#000000" font-family="sans-serif" font-size="14" lengthAdjust="spacing" textLength="78.9824" x="89.5" y="88.5889">version: str</text><ellipse cx="80.5" cy="101.5391" fill="none" rx="3" ry="3" style="stroke:#038048;stroke-width:1.0;"/><text fill="#000000" font-family="sans-serif" font-size="14" lengthAdjust="spacing" textLength="76.6855" x="89.5" y="104.8857">vendor: str</text><ellipse cx="80.5" cy="117.8359" fill="none" rx="3" ry="3" style="stroke:#038048;stroke-width:1.0;"/><text fill="#000000" font-family="sans-serif" font-size="14" lengthAdjust="spacing" textLength="76.5762" x="89.5" y="121.1826">license: str</text><ellipse cx="80.5" cy="134.1328" fill="none" rx="3" ry="3" style="stroke:#038048;stroke-width:1.0;"/><text fill="#000000" font-family="sans-serif" font-size="14" lengthAdjust="spacing" textLength="92.8867" x="89.5" y="137.4795">language: str</text><ellipse cx="80.5" cy="150.4297" fill="none" rx="3" ry="3" style="stroke:#038048;stroke-width:1.0;"/><text fill="#000000" font-family="sans-serif" font-size="14" lengthAdjust="spacing" textLength="91.7178" x="89.5" y="153.7764">files: List[str]</text><ellipse cx="80.5" cy="166.7266" fill="none" rx="3" ry="3" style="stroke:#038048;stroke-width:1.0;"/><text fill="#000000" font-family="sans-serif" font-size="14" lengthAdjust="spacing" textLength="149.707" x="89.5" y="170.0732">binaries: Dict[str, str]</text><ellipse cx="80.5" cy="183.0234" fill="none" rx="3" ry="3" style="stroke:#038048;stroke-width:1.0;"/><text fill="#000000" font-family="sans-serif" font-size="14" lengthAdjust="spacing" textLength="183.3262" x="89.5" y="186.3701">parameters: Dict[str, Any]</text><ellipse cx="80.5" cy="199.3203" fill="none" rx="3" ry="3" style="stroke:#038048;stroke-width:1.0;"/><text fill="#000000" font-family="sans-serif" font-size="14" lengthAdjust="spacing" textLength="142.1533" x="89.5" y="202.667">interfaces: List[Dict]</text><line style="stroke:#181818;stroke-width:1.0;" x1="70.5" x2="415.3516" y1="209.9688" y2="209.9688"/><ellipse cx="80.5" cy="223.6172" fill="#84BE84" rx="3" ry="3" style="stroke:#038048;stroke-width:1.0;"/><text fill="#000000" font-family="sans-serif" font-size="14" lengthAdjust="spacing" textLength="167.6104" x="89.5" y="226.9639">get_rtl_files(): List[Path]</text><ellipse cx="80.5" cy="239.9141" fill="#84BE84" rx="3" ry="3" style="stroke:#038048;stroke-width:1.0;"/><text fill="#000000" font-family="sans-serif" font-size="14" lengthAdjust="spacing" textLength="205.3174" x="89.5" y="243.2607">has_simulation_model(): bool</text><ellipse cx="80.5" cy="256.2109" fill="#84BE84" rx="3" ry="3" style="stroke:#038048;stroke-width:1.0;"/><text fill="#000000" font-family="sans-serif" font-size="14" lengthAdjust="spacing" textLength="219.3447" x="89.5" y="259.5576">get_rtl_manifest(): RTLManifest</text><ellipse cx="80.5" cy="272.5078" fill="#84BE84" rx="3" ry="3" style="stroke:#038048;stroke-width:1.0;"/><text fill="#000000" font-family="sans-serif" font-size="14" lengthAdjust="spacing" textLength="320.8516" x="89.5" y="275.8545">get_testbench_manifest(): TestbenchManifest</text></g><!--class RTLManifest--><g id="elem_RTLManifest"><rect fill="#F1F1F1" height="48" id="RTLManifest" rx="2.5" ry="2.5" style="stroke:#181818;stroke-width:0.5;" width="117.8252" x="7" y="360"/><ellipse cx="22" cy="376" fill="#ADD1B2" rx="11" ry="11" style="stroke:#181818;stroke-width:1.0;"/><path d="M24.9688,381.6406 Q24.3906,381.9375 23.75,382.0781 Q23.1094,382.2344 22.4063,382.2344 Q19.9063,382.2344 18.5781,380.5938 Q17.2656,378.9375 17.2656,375.8125 Q17.2656,372.6875 18.5781,371.0313 Q19.9063,369.375 22.4063,369.375 Q23.1094,369.375 23.75,369.5313 Q24.4063,369.6875 24.9688,369.9844 L24.9688,372.7031 Q24.3438,372.125 23.75,371.8594 Q23.1563,371.5781 22.5313,371.5781 Q21.1875,371.5781 20.5,372.6563 Q19.8125,373.7188 19.8125,375.8125 Q19.8125,377.9063 20.5,378.9844 Q21.1875,380.0469 22.5313,380.0469 Q23.1563,380.0469 23.75,379.7813 Q24.3438,379.5 24.9688,378.9219 L24.9688,381.6406 Z " fill="#000000"/><text fill="#000000" font-family="sans-serif" font-size="14" lengthAdjust="spacing" textLength="85.8252" x="36" y="380.8467">RTLManifest</text><line style="stroke:#181818;stroke-width:0.5;" x1="8" x2="123.8252" y1="392" y2="392"/><line style="stroke:#181818;stroke-width:0.5;" x1="8" x2="123.8252" y1="400" y2="400"/></g><!--class TestbenchManifest--><g id="elem_TestbenchManifest"><rect fill="#F1F1F1" height="48" id="TestbenchManifest" rx="2.5" ry="2.5" style="stroke:#181818;stroke-width:0.5;" width="164.6377" x="160.5" y="360"/><ellipse cx="175.5" cy="376" fill="#ADD1B2" rx="11" ry="11" style="stroke:#181818;stroke-width:1.0;"/><path d="M178.4688,381.6406 Q177.8906,381.9375 177.25,382.0781 Q176.6094,382.2344 175.9063,382.2344 Q173.4063,382.2344 172.0781,380.5938 Q170.7656,378.9375 170.7656,375.8125 Q170.7656,372.6875 172.0781,371.0313 Q173.4063,369.375 175.9063,369.375 Q176.6094,369.375 177.25,369.5313 Q177.9063,369.6875 178.4688,369.9844 L178.4688,372.7031 Q177.8438,372.125 177.25,371.8594 Q176.6563,371.5781 176.0313,371.5781 Q174.6875,371.5781 174,372.6563 Q173.3125,373.7188 173.3125,375.8125 Q173.3125,377.9063 174,378.9844 Q174.6875,380.0469 176.0313,380.0469 Q176.6563,380.0469 177.25,379.7813 Q177.8438,379.5 178.4688,378.9219 L178.4688,381.6406 Z " fill="#000000"/><text fill="#000000" font-family="sans-serif" font-size="14" lengthAdjust="spacing" textLength="132.6377" x="189.5" y="380.8467">TestbenchManifest</text><line style="stroke:#181818;stroke-width:0.5;" x1="161.5" x2="324.1377" y1="392" y2="392"/><line style="stroke:#181818;stroke-width:0.5;" x1="161.5" x2="324.1377" y1="400" y2="400"/></g><!--class FirmwareManifest--><g id="elem_FirmwareManifest"><rect fill="#F1F1F1" height="48" id="FirmwareManifest" rx="2.5" ry="2.5" style="stroke:#181818;stroke-width:0.5;" width="157.4805" x="360.5" y="360"/><ellipse cx="375.5" cy="376" fill="#ADD1B2" rx="11" ry="11" style="stroke:#181818;stroke-width:1.0;"/><path d="M378.4688,381.6406 Q377.8906,381.9375 377.25,382.0781 Q376.6094,382.2344 375.9063,382.2344 Q373.4063,382.2344 372.0781,380.5938 Q370.7656,378.9375 370.7656,375.8125 Q370.7656,372.6875 372.0781,371.0313 Q373.4063,369.375 375.9063,369.375 Q376.6094,369.375 377.25,369.5313 Q377.9063,369.6875 378.4688,369.9844 L378.4688,372.7031 Q377.8438,372.125 377.25,371.8594 Q376.6563,371.5781 376.0313,371.5781 Q374.6875,371.5781 374,372.6563 Q373.3125,373.7188 373.3125,375.8125 Q373.3125,377.9063 374,378.9844 Q374.6875,380.0469 376.0313,380.0469 Q376.6563,380.0469 377.25,379.7813 Q377.8438,379.5 378.4688,378.9219 L378.4688,381.6406 Z " fill="#000000"/><text fill="#000000" font-family="sans-serif" font-size="14" lengthAdjust="spacing" textLength="125.4805" x="389.5" y="380.8467">FirmwareManifest</text><line style="stroke:#181818;stroke-width:0.5;" x1="361.5" x2="516.9805" y1="392" y2="392"/><line style="stroke:#181818;stroke-width:0.5;" x1="361.5" x2="516.9805" y1="400" y2="400"/></g><!--link IPManifest to RTLManifest--><g id="link_IPManifest_RTLManifest"><path codeLine="22" d="M140.55,283.18 C118.38,312.86 101.0006,336.1429 86.9806,354.9129 " fill="none" id="IPManifest-to-RTLManifest" style="stroke:#181818;stroke-width:1.0;stroke-dasharray:7.0,7.0;"/><polygon fill="#181818" points="83.39,359.72,91.9806,354.9031,86.3821,355.7141,85.5711,350.1157,83.39,359.72" style="stroke:#181818;stroke-width:1.0;"/><text fill="#000000" font-family="sans-serif" font-size="13" lengthAdjust="spacing" textLength="80.7104" x="115" y="326.0669">may contain</text></g><!--link IPManifest to TestbenchManifest--><g id="link_IPManifest_TestbenchManifest"><path codeLine="23" d="M243,283.18 C243,312.86 243,334.95 243,353.72 " fill="none" id="IPManifest-to-TestbenchManifest" style="stroke:#181818;stroke-width:1.0;stroke-dasharray:7.0,7.0;"/><polygon fill="#181818" points="243,359.72,247,350.72,243,354.72,239,350.72,243,359.72" style="stroke:#181818;stroke-width:1.0;"/><text fill="#000000" font-family="sans-serif" font-size="13" lengthAdjust="spacing" textLength="80.7104" x="244" y="326.0669">may contain</text></g><!--link IPManifest to FirmwareManifest--><g id="link_IPManifest_FirmwareManifest"><path codeLine="24" d="M356.45,283.18 C381,312.86 400.3966,336.326 415.9166,355.096 " fill="none" id="IPManifest-to-FirmwareManifest" style="stroke:#181818;stroke-width:1.0;stroke-dasharray:7.0,7.0;"/><polygon fill="#181818" points="419.74,359.72,417.0876,350.235,416.5538,355.8666,410.9222,355.3329,419.74,359.72" style="stroke:#181818;stroke-width:1.0;"/><text fill="#000000" font-family="sans-serif" font-size="13" lengthAdjust="spacing" textLength="80.7104" x="392" y="326.0669">may contain</text></g><!--SRC=[VP91ImCn48Nl-olcg6Zx0teGH2a8LOhq9hBCPhExGvD9oSmgHVplPjDstQfuVEzzUM4caItn3YDwgD1isnXwhk-22n4q8akAB6iX8rNR1dkdoy3wXDw296WcDb9J5CQX23oi7v6fiQBmKG305ITk0Q8nAztl9khDHg70KuFh4B-r8sDP9YSSSjjZEt4QSbOMi2BHb-IzPhCYnaY3Vqyc-zSmXdaKg-dkQNpB-qDCdA86pTWwC3cQpJBGMYsZkZBVV75vfDQetQ6WGoc5VEzGqt2b3xLr0rQ5uCuA_75JG_YyMPqMDpAQH6NPT6VavkIE_6THJDO-dzzCss017lTWqfCXyK_mLzd_-9AYVq-Vuc_w2m00]--></g></svg>