<svg xmlns="http://www.w3.org/2000/svg" xmlns:xlink="http://www.w3.org/1999/xlink" contentStyleType="text/css" height="985px" preserveAspectRatio="none" style="width:347px;height:985px;" version="1.1" viewBox="0 0 347 985" width="347px" zoomAndPan="magnify"><defs/><g><ellipse cx="112.7549" cy="20" fill="#222222" rx="10" ry="10" style="stroke:#222222;stroke-width:1.0;"/><rect fill="#F1F1F1" height="33.9688" rx="12.5" ry="12.5" style="stroke:#181818;stroke-width:0.5;" width="131.5273" x="46.9912" y="50"/><text fill="#000000" font-family="sans-serif" font-size="12" lengthAdjust="spacing" textLength="111.5273" x="56.9912" y="71.1387">Load RTL manifest</text><rect fill="#F1F1F1" height="33.9688" rx="12.5" ry="12.5" style="stroke:#181818;stroke-width:0.5;" width="149.8379" x="37.8359" y="103.9688"/><text fill="#000000" font-family="sans-serif" font-size="12" lengthAdjust="spacing" textLength="129.8379" x="47.8359" y="125.1074">Load synthesis config</text><rect fill="#F1F1F1" height="33.9688" rx="12.5" ry="12.5" style="stroke:#181818;stroke-width:0.5;" width="203.5098" x="11" y="157.9375"/><text fill="#000000" font-family="sans-serif" font-size="12" lengthAdjust="spacing" textLength="183.5098" x="21" y="179.0762">Resolve module dependencies</text><rect fill="#F1F1F1" height="33.9688" rx="12.5" ry="12.5" style="stroke:#181818;stroke-width:0.5;" width="133.3438" x="46.083" y="211.9063"/><text fill="#000000" font-family="sans-serif" font-size="12" lengthAdjust="spacing" textLength="113.3438" x="56.083" y="233.0449">Collect source files</text><path d="M219.5566,262.7266 L219.5566,278.8594 L199.5566,282.8594 L219.5566,286.8594 L219.5566,302.9922 A0,0 0 0 0 219.5566,302.9922 L335.3271,302.9922 A0,0 0 0 0 335.3271,302.9922 L335.3271,272.7266 L325.3271,262.7266 L219.5566,262.7266 A0,0 0 0 0 219.5566,262.7266 " fill="#FEFFDD" style="stroke:#181818;stroke-width:0.5;"/><path d="M325.3271,262.7266 L325.3271,272.7266 L335.3271,272.7266 L325.3271,262.7266 " fill="#FEFFDD" style="stroke:#181818;stroke-width:0.5;"/><text fill="#000000" font-family="sans-serif" font-size="13" lengthAdjust="spacing" textLength="94.7705" x="225.5566" y="279.7935">TCL for Vivado</text><text fill="#000000" font-family="sans-serif" font-size="13" lengthAdjust="spacing" textLength="79.4663" x="225.5566" y="294.9263">YS for Yosys</text><rect fill="#F1F1F1" height="33.9688" rx="12.5" ry="12.5" style="stroke:#181818;stroke-width:0.5;" width="173.6035" x="25.9531" y="265.875"/><text fill="#000000" font-family="sans-serif" font-size="12" lengthAdjust="spacing" textLength="153.6035" x="35.9531" y="287.0137">Generate synthesis script</text><rect fill="#F1F1F1" height="33.9688" rx="12.5" ry="12.5" style="stroke:#181818;stroke-width:0.5;" width="103.8535" x="60.8281" y="322.9922"/><text fill="#000000" font-family="sans-serif" font-size="12" lengthAdjust="spacing" textLength="83.8535" x="70.8281" y="344.1309">Run synthesis</text><rect fill="#F1F1F1" height="33.9688" rx="12.5" ry="12.5" style="stroke:#181818;stroke-width:0.5;" width="99.9102" x="62.7998" y="425.3633"/><text fill="#000000" font-family="sans-serif" font-size="12" lengthAdjust="spacing" textLength="79.9102" x="72.7998" y="446.502">Report errors</text><ellipse cx="112.7549" cy="498.8477" fill="none" rx="11" ry="11" style="stroke:#222222;stroke-width:1.0;"/><ellipse cx="112.7549" cy="498.8477" fill="#222222" rx="6" ry="6" style="stroke:#222222;stroke-width:1.0;"/><polygon fill="#F1F1F1" points="73.6345,376.9609,151.8752,376.9609,163.8752,388.9609,151.8752,400.9609,73.6345,400.9609,61.6345,388.9609,73.6345,376.9609" style="stroke:#181818;stroke-width:0.5;"/><text fill="#000000" font-family="sans-serif" font-size="11" lengthAdjust="spacing" textLength="13.7017" x="116.7549" y="411.1714">no</text><text fill="#000000" font-family="sans-serif" font-size="11" lengthAdjust="spacing" textLength="78.2407" x="73.6345" y="392.769">Synthesis OK?</text><rect fill="#F1F1F1" height="33.9688" rx="12.5" ry="12.5" style="stroke:#181818;stroke-width:0.5;" width="104.2637" x="60.623" y="600.25"/><text fill="#000000" font-family="sans-serif" font-size="12" lengthAdjust="spacing" textLength="84.2637" x="70.623" y="621.3887">Place &amp; Route</text><rect fill="#F1F1F1" height="33.9688" rx="12.5" ry="12.5" style="stroke:#181818;stroke-width:0.5;" width="121.8359" x="51.8369" y="702.6211"/><text fill="#000000" font-family="sans-serif" font-size="12" lengthAdjust="spacing" textLength="101.8359" x="61.8369" y="723.7598">Report violations</text><polygon fill="#F1F1F1" points="78.439,654.2188,147.0708,654.2188,159.0708,666.2188,147.0708,678.2188,78.439,678.2188,66.439,666.2188,78.439,654.2188" style="stroke:#181818;stroke-width:0.5;"/><text fill="#000000" font-family="sans-serif" font-size="11" lengthAdjust="spacing" textLength="13.7017" x="116.7549" y="688.4292">no</text><text fill="#000000" font-family="sans-serif" font-size="11" lengthAdjust="spacing" textLength="68.6318" x="78.439" y="670.0269">Timing met?</text><polygon fill="#F1F1F1" points="112.7549,756.5898,124.7549,768.5898,112.7549,780.5898,100.7549,768.5898,112.7549,756.5898" style="stroke:#181818;stroke-width:0.5;"/><rect fill="#F1F1F1" height="33.9688" rx="12.5" ry="12.5" style="stroke:#181818;stroke-width:0.5;" width="137.832" x="43.8389" y="800.5898"/><text fill="#000000" font-family="sans-serif" font-size="12" lengthAdjust="spacing" textLength="117.832" x="53.8389" y="821.7285">Generate bitstream</text><polygon fill="#F1F1F1" points="66.1633,551.8477,159.3464,551.8477,171.3464,563.8477,159.3464,575.8477,66.1633,575.8477,54.1633,563.8477,66.1633,551.8477" style="stroke:#181818;stroke-width:0.5;"/><text fill="#000000" font-family="sans-serif" font-size="11" lengthAdjust="spacing" textLength="19.0083" x="116.7549" y="586.0581">yes</text><text fill="#000000" font-family="sans-serif" font-size="11" lengthAdjust="spacing" textLength="93.1831" x="66.1633" y="567.6558">Implementation?</text><polygon fill="#F1F1F1" points="112.7549,854.5586,124.7549,866.5586,112.7549,878.5586,100.7549,866.5586,112.7549,854.5586" style="stroke:#181818;stroke-width:0.5;"/><rect fill="#F1F1F1" height="33.9688" rx="12.5" ry="12.5" style="stroke:#181818;stroke-width:0.5;" width="123.0254" x="51.2422" y="898.5586"/><text fill="#000000" font-family="sans-serif" font-size="12" lengthAdjust="spacing" textLength="103.0254" x="61.2422" y="919.6973">Generate reports</text><ellipse cx="112.7549" cy="963.5273" fill="none" rx="11" ry="11" style="stroke:#222222;stroke-width:1.0;"/><ellipse cx="112.7549" cy="963.5273" fill="#222222" rx="6" ry="6" style="stroke:#222222;stroke-width:1.0;"/><line style="stroke:#181818;stroke-width:1.0;" x1="112.7549" x2="112.7549" y1="30" y2="50"/><polygon fill="#181818" points="108.7549,40,112.7549,50,116.7549,40,112.7549,44" style="stroke:#181818;stroke-width:1.0;"/><line style="stroke:#181818;stroke-width:1.0;" x1="112.7549" x2="112.7549" y1="83.9688" y2="103.9688"/><polygon fill="#181818" points="108.7549,93.9688,112.7549,103.9688,116.7549,93.9688,112.7549,97.9688" style="stroke:#181818;stroke-width:1.0;"/><line style="stroke:#181818;stroke-width:1.0;" x1="112.7549" x2="112.7549" y1="137.9375" y2="157.9375"/><polygon fill="#181818" points="108.7549,147.9375,112.7549,157.9375,116.7549,147.9375,112.7549,151.9375" style="stroke:#181818;stroke-width:1.0;"/><line style="stroke:#181818;stroke-width:1.0;" x1="112.7549" x2="112.7549" y1="191.9063" y2="211.9063"/><polygon fill="#181818" points="108.7549,201.9063,112.7549,211.9063,116.7549,201.9063,112.7549,205.9063" style="stroke:#181818;stroke-width:1.0;"/><line style="stroke:#181818;stroke-width:1.0;" x1="112.7549" x2="112.7549" y1="245.875" y2="265.875"/><polygon fill="#181818" points="108.7549,255.875,112.7549,265.875,116.7549,255.875,112.7549,259.875" style="stroke:#181818;stroke-width:1.0;"/><line style="stroke:#181818;stroke-width:1.0;" x1="112.7549" x2="112.7549" y1="299.8438" y2="322.9922"/><polygon fill="#181818" points="108.7549,312.9922,112.7549,322.9922,116.7549,312.9922,112.7549,316.9922" style="stroke:#181818;stroke-width:1.0;"/><line style="stroke:#181818;stroke-width:1.0;" x1="112.7549" x2="112.7549" y1="459.332" y2="487.8477"/><polygon fill="#181818" points="108.7549,477.8477,112.7549,487.8477,116.7549,477.8477,112.7549,481.8477" style="stroke:#181818;stroke-width:1.0;"/><line style="stroke:#181818;stroke-width:1.0;" x1="112.7549" x2="112.7549" y1="400.9609" y2="425.3633"/><polygon fill="#181818" points="108.7549,415.3633,112.7549,425.3633,116.7549,415.3633,112.7549,419.3633" style="stroke:#181818;stroke-width:1.0;"/><line style="stroke:#181818;stroke-width:1.0;" x1="163.8752" x2="175.8752" y1="388.9609" y2="388.9609"/><polygon fill="#181818" points="171.8752,457.8477,175.8752,467.8477,179.8752,457.8477,175.8752,461.8477" style="stroke:#181818;stroke-width:1.0;"/><line style="stroke:#181818;stroke-width:1.0;" x1="175.8752" x2="175.8752" y1="388.9609" y2="531.8477"/><line style="stroke:#181818;stroke-width:1.0;" x1="175.8752" x2="112.7549" y1="531.8477" y2="531.8477"/><line style="stroke:#181818;stroke-width:1.0;" x1="112.7549" x2="112.7549" y1="531.8477" y2="551.8477"/><polygon fill="#181818" points="108.7549,541.8477,112.7549,551.8477,116.7549,541.8477,112.7549,545.8477" style="stroke:#181818;stroke-width:1.0;"/><line style="stroke:#181818;stroke-width:1.0;" x1="112.7549" x2="112.7549" y1="356.9609" y2="376.9609"/><polygon fill="#181818" points="108.7549,366.9609,112.7549,376.9609,116.7549,366.9609,112.7549,370.9609" style="stroke:#181818;stroke-width:1.0;"/><line style="stroke:#181818;stroke-width:1.0;" x1="112.7549" x2="112.7549" y1="678.2188" y2="702.6211"/><polygon fill="#181818" points="108.7549,692.6211,112.7549,702.6211,116.7549,692.6211,112.7549,696.6211" style="stroke:#181818;stroke-width:1.0;"/><line style="stroke:#181818;stroke-width:1.0;" x1="159.0708" x2="183.6729" y1="666.2188" y2="666.2188"/><polygon fill="#181818" points="179.6729,709.6055,183.6729,719.6055,187.6729,709.6055,183.6729,713.6055" style="stroke:#181818;stroke-width:1.0;"/><line style="stroke:#181818;stroke-width:1.0;" x1="183.6729" x2="183.6729" y1="666.2188" y2="768.5898"/><line style="stroke:#181818;stroke-width:1.0;" x1="183.6729" x2="124.7549" y1="768.5898" y2="768.5898"/><polygon fill="#181818" points="134.7549,764.5898,124.7549,768.5898,134.7549,772.5898,130.7549,768.5898" style="stroke:#181818;stroke-width:1.0;"/><line style="stroke:#181818;stroke-width:1.0;" x1="112.7549" x2="112.7549" y1="736.5898" y2="756.5898"/><polygon fill="#181818" points="108.7549,746.5898,112.7549,756.5898,116.7549,746.5898,112.7549,750.5898" style="stroke:#181818;stroke-width:1.0;"/><line style="stroke:#181818;stroke-width:1.0;" x1="112.7549" x2="112.7549" y1="634.2188" y2="654.2188"/><polygon fill="#181818" points="108.7549,644.2188,112.7549,654.2188,116.7549,644.2188,112.7549,648.2188" style="stroke:#181818;stroke-width:1.0;"/><line style="stroke:#181818;stroke-width:1.0;" x1="112.7549" x2="112.7549" y1="780.5898" y2="800.5898"/><polygon fill="#181818" points="108.7549,790.5898,112.7549,800.5898,116.7549,790.5898,112.7549,794.5898" style="stroke:#181818;stroke-width:1.0;"/><line style="stroke:#181818;stroke-width:1.0;" x1="112.7549" x2="112.7549" y1="575.8477" y2="600.25"/><polygon fill="#181818" points="108.7549,590.25,112.7549,600.25,116.7549,590.25,112.7549,594.25" style="stroke:#181818;stroke-width:1.0;"/><line style="stroke:#181818;stroke-width:1.0;" x1="171.3464" x2="205.6729" y1="563.8477" y2="563.8477"/><polygon fill="#181818" points="201.6729,709.6055,205.6729,719.6055,209.6729,709.6055,205.6729,713.6055" style="stroke:#181818;stroke-width:1.0;"/><line style="stroke:#181818;stroke-width:1.0;" x1="205.6729" x2="205.6729" y1="563.8477" y2="866.5586"/><line style="stroke:#181818;stroke-width:1.0;" x1="205.6729" x2="124.7549" y1="866.5586" y2="866.5586"/><polygon fill="#181818" points="134.7549,862.5586,124.7549,866.5586,134.7549,870.5586,130.7549,866.5586" style="stroke:#181818;stroke-width:1.0;"/><line style="stroke:#181818;stroke-width:1.0;" x1="112.7549" x2="112.7549" y1="834.5586" y2="854.5586"/><polygon fill="#181818" points="108.7549,844.5586,112.7549,854.5586,116.7549,844.5586,112.7549,848.5586" style="stroke:#181818;stroke-width:1.0;"/><line style="stroke:#181818;stroke-width:1.0;" x1="112.7549" x2="112.7549" y1="878.5586" y2="898.5586"/><polygon fill="#181818" points="108.7549,888.5586,112.7549,898.5586,116.7549,888.5586,112.7549,892.5586" style="stroke:#181818;stroke-width:1.0;"/><line style="stroke:#181818;stroke-width:1.0;" x1="112.7549" x2="112.7549" y1="932.5273" y2="952.5273"/><polygon fill="#181818" points="108.7549,942.5273,112.7549,952.5273,116.7549,942.5273,112.7549,946.5273" style="stroke:#181818;stroke-width:1.0;"/><!--SRC=[NP31QW9138Rl-nGv5Jtq1VJGWz1IAcrPfI3qCkvcDJYJB4bMyEsRLQkbjva_oVV_YHs8-wIfm3OrXvtAmEr2iYYu9hOe8NjbjwuMkpHaVnRszrGGB9eU3PMwgZ9FwjLiAQc5Uhs4afWwD9zVDJknxz78e17kQ1TwZIRvY52a7J86lKTkaHj2Yse4oTWuc0pQ87IKHxcQlI2Z9iS_H6kK-d1Y2Lbfj_SPh1TBw6AJBpgcLhvvipf_Ds8d2qezy1qGMEfWihe1FzwUfX1lXWdBj0A02DkBEg2gQ0o4P2vz5Od7xSVnrz9dB76nv2Hy0vpGBeJFd6AF1wXbS0pBqCQnDHNY7HJq_vv_R8ya-OozM5zTnuRRERRavegfp7z3tMjwfiJicFa7]--></g></svg>