<svg xmlns="http://www.w3.org/2000/svg" xmlns:xlink="http://www.w3.org/1999/xlink" contentStyleType="text/css" height="365px" preserveAspectRatio="none" style="width:821px;height:365px;" version="1.1" viewBox="0 0 821 365" width="821px" zoomAndPan="magnify"><defs/><g><!--class SimulatorBackend--><g id="elem_SimulatorBackend"><rect codeLine="4" fill="#F1F1F1" height="113.1875" id="SimulatorBackend" rx="2.5" ry="2.5" style="stroke:#181818;stroke-width:0.5;" width="245.7344" x="288" y="7"/><ellipse cx="342.6533" cy="23" fill="#B4A7E5" rx="11" ry="11" style="stroke:#181818;stroke-width:1.0;"/><path d="M338.5752,18.7656 L338.5752,16.6094 L345.9658,16.6094 L345.9658,18.7656 L343.4971,18.7656 L343.4971,26.8438 L345.9658,26.8438 L345.9658,29 L338.5752,29 L338.5752,26.8438 L341.0439,26.8438 L341.0439,18.7656 L338.5752,18.7656 Z " fill="#000000"/><text fill="#000000" font-family="sans-serif" font-size="14" font-style="italic" lengthAdjust="spacing" textLength="127.9277" x="363.1533" y="27.8467">SimulatorBackend</text><line style="stroke:#181818;stroke-width:0.5;" x1="289" x2="532.7344" y1="39" y2="39"/><line style="stroke:#181818;stroke-width:0.5;" x1="289" x2="532.7344" y1="47" y2="47"/><ellipse cx="299" cy="60.6484" fill="#84BE84" rx="3" ry="3" style="stroke:#038048;stroke-width:1.0;"/><text fill="#000000" font-family="sans-serif" font-size="14" lengthAdjust="spacing" textLength="219.7344" x="308" y="63.9951">compile(sources, options): bool</text><ellipse cx="299" cy="76.9453" fill="#84BE84" rx="3" ry="3" style="stroke:#038048;stroke-width:1.0;"/><text fill="#000000" font-family="sans-serif" font-size="14" lengthAdjust="spacing" textLength="200.375" x="308" y="80.292">elaborate(top, options): bool</text><ellipse cx="299" cy="93.2422" fill="#84BE84" rx="3" ry="3" style="stroke:#038048;stroke-width:1.0;"/><text fill="#000000" font-family="sans-serif" font-size="14" lengthAdjust="spacing" textLength="202.2207" x="308" y="96.5889">simulate(options): SimResult</text><ellipse cx="299" cy="109.5391" fill="#84BE84" rx="3" ry="3" style="stroke:#038048;stroke-width:1.0;"/><text fill="#000000" font-family="sans-serif" font-size="14" lengthAdjust="spacing" textLength="105.1299" x="308" y="112.8857">cleanup(): void</text></g><!--class XSimBackend--><g id="elem_XSimBackend"><rect codeLine="11" fill="#F1F1F1" height="178.375" id="XSimBackend" rx="2.5" ry="2.5" style="stroke:#181818;stroke-width:0.5;" width="245.7344" x="7" y="180"/><ellipse cx="77.4341" cy="196" fill="#ADD1B2" rx="11" ry="11" style="stroke:#181818;stroke-width:1.0;"/><path d="M80.4028,201.6406 Q79.8247,201.9375 79.1841,202.0781 Q78.5435,202.2344 77.8403,202.2344 Q75.3403,202.2344 74.0122,200.5938 Q72.6997,198.9375 72.6997,195.8125 Q72.6997,192.6875 74.0122,191.0313 Q75.3403,189.375 77.8403,189.375 Q78.5435,189.375 79.1841,189.5313 Q79.8403,189.6875 80.4028,189.9844 L80.4028,192.7031 Q79.7778,192.125 79.1841,191.8594 Q78.5903,191.5781 77.9653,191.5781 Q76.6216,191.5781 75.9341,192.6563 Q75.2466,193.7188 75.2466,195.8125 Q75.2466,197.9063 75.9341,198.9844 Q76.6216,200.0469 77.9653,200.0469 Q78.5903,200.0469 79.1841,199.7813 Q79.7778,199.5 80.4028,198.9219 L80.4028,201.6406 Z " fill="#000000"/><text fill="#000000" font-family="sans-serif" font-size="14" lengthAdjust="spacing" textLength="96.3662" x="97.9341" y="200.8467">XSimBackend</text><line style="stroke:#181818;stroke-width:0.5;" x1="8" x2="251.7344" y1="212" y2="212"/><rect fill="none" height="6" style="stroke:#C82930;stroke-width:1.0;" width="6" x="15" y="222.6484"/><text fill="#000000" font-family="sans-serif" font-size="14" lengthAdjust="spacing" textLength="123.3408" x="27" y="228.9951">config: SimConfig</text><rect fill="none" height="6" style="stroke:#C82930;stroke-width:1.0;" width="6" x="15" y="238.9453"/><text fill="#000000" font-family="sans-serif" font-size="14" lengthAdjust="spacing" textLength="100.5088" x="27" y="245.292">build_dir: Path</text><line style="stroke:#181818;stroke-width:1.0;" x1="8" x2="251.7344" y1="252.5938" y2="252.5938"/><ellipse cx="18" cy="266.2422" fill="#84BE84" rx="3" ry="3" style="stroke:#038048;stroke-width:1.0;"/><text fill="#000000" font-family="sans-serif" font-size="14" lengthAdjust="spacing" textLength="219.7344" x="27" y="269.5889">compile(sources, options): bool</text><ellipse cx="18" cy="282.5391" fill="#84BE84" rx="3" ry="3" style="stroke:#038048;stroke-width:1.0;"/><text fill="#000000" font-family="sans-serif" font-size="14" lengthAdjust="spacing" textLength="200.375" x="27" y="285.8857">elaborate(top, options): bool</text><ellipse cx="18" cy="298.8359" fill="#84BE84" rx="3" ry="3" style="stroke:#038048;stroke-width:1.0;"/><text fill="#000000" font-family="sans-serif" font-size="14" lengthAdjust="spacing" textLength="202.2207" x="27" y="302.1826">simulate(options): SimResult</text><rect fill="#F24D5C" height="6" style="stroke:#C82930;stroke-width:1.0;" width="6" x="15" y="312.1328"/><text fill="#000000" font-family="sans-serif" font-size="14" lengthAdjust="spacing" textLength="147.0273" x="27" y="318.4795">run_xvlog(files): bool</text><rect fill="#F24D5C" height="6" style="stroke:#C82930;stroke-width:1.0;" width="6" x="15" y="328.4297"/><text fill="#000000" font-family="sans-serif" font-size="14" lengthAdjust="spacing" textLength="141.6953" x="27" y="334.7764">run_xelab(top): bool</text><rect fill="#F24D5C" height="6" style="stroke:#C82930;stroke-width:1.0;" width="6" x="15" y="344.7266"/><text fill="#000000" font-family="sans-serif" font-size="14" lengthAdjust="spacing" textLength="217.8545" x="27" y="351.0732">run_xsim(snapshot): SimResult</text></g><!--class VerilatorBackend--><g id="elem_VerilatorBackend"><rect codeLine="23" fill="#F1F1F1" height="162.0781" id="VerilatorBackend" rx="2.5" ry="2.5" style="stroke:#181818;stroke-width:0.5;" width="245.7344" x="288" y="188"/><ellipse cx="346.3789" cy="204" fill="#ADD1B2" rx="11" ry="11" style="stroke:#181818;stroke-width:1.0;"/><path d="M349.3477,209.6406 Q348.7695,209.9375 348.1289,210.0781 Q347.4883,210.2344 346.7852,210.2344 Q344.2852,210.2344 342.957,208.5938 Q341.6445,206.9375 341.6445,203.8125 Q341.6445,200.6875 342.957,199.0313 Q344.2852,197.375 346.7852,197.375 Q347.4883,197.375 348.1289,197.5313 Q348.7852,197.6875 349.3477,197.9844 L349.3477,200.7031 Q348.7227,200.125 348.1289,199.8594 Q347.5352,199.5781 346.9102,199.5781 Q345.5664,199.5781 344.8789,200.6563 Q344.1914,201.7188 344.1914,203.8125 Q344.1914,205.9063 344.8789,206.9844 Q345.5664,208.0469 346.9102,208.0469 Q347.5352,208.0469 348.1289,207.7813 Q348.7227,207.5 349.3477,206.9219 L349.3477,209.6406 Z " fill="#000000"/><text fill="#000000" font-family="sans-serif" font-size="14" lengthAdjust="spacing" textLength="120.4766" x="366.8789" y="208.8467">VerilatorBackend</text><line style="stroke:#181818;stroke-width:0.5;" x1="289" x2="532.7344" y1="220" y2="220"/><rect fill="none" height="6" style="stroke:#C82930;stroke-width:1.0;" width="6" x="296" y="230.6484"/><text fill="#000000" font-family="sans-serif" font-size="14" lengthAdjust="spacing" textLength="123.3408" x="308" y="236.9951">config: SimConfig</text><rect fill="none" height="6" style="stroke:#C82930;stroke-width:1.0;" width="6" x="296" y="246.9453"/><text fill="#000000" font-family="sans-serif" font-size="14" lengthAdjust="spacing" textLength="100.5088" x="308" y="253.292">build_dir: Path</text><line style="stroke:#181818;stroke-width:1.0;" x1="289" x2="532.7344" y1="260.5938" y2="260.5938"/><ellipse cx="299" cy="274.2422" fill="#84BE84" rx="3" ry="3" style="stroke:#038048;stroke-width:1.0;"/><text fill="#000000" font-family="sans-serif" font-size="14" lengthAdjust="spacing" textLength="219.7344" x="308" y="277.5889">compile(sources, options): bool</text><ellipse cx="299" cy="290.5391" fill="#84BE84" rx="3" ry="3" style="stroke:#038048;stroke-width:1.0;"/><text fill="#000000" font-family="sans-serif" font-size="14" lengthAdjust="spacing" textLength="200.375" x="308" y="293.8857">elaborate(top, options): bool</text><ellipse cx="299" cy="306.8359" fill="#84BE84" rx="3" ry="3" style="stroke:#038048;stroke-width:1.0;"/><text fill="#000000" font-family="sans-serif" font-size="14" lengthAdjust="spacing" textLength="202.2207" x="308" y="310.1826">simulate(options): SimResult</text><rect fill="#F24D5C" height="6" style="stroke:#C82930;stroke-width:1.0;" width="6" x="296" y="320.1328"/><text fill="#000000" font-family="sans-serif" font-size="14" lengthAdjust="spacing" textLength="180.4004" x="308" y="326.4795">generate_makefile(): void</text><rect fill="#F24D5C" height="6" style="stroke:#C82930;stroke-width:1.0;" width="6" x="296" y="336.4297"/><text fill="#000000" font-family="sans-serif" font-size="14" lengthAdjust="spacing" textLength="168.9639" x="308" y="342.7764">build_executable(): bool</text></g><!--class QuestaBackend--><g id="elem_QuestaBackend"><rect codeLine="34" fill="#F1F1F1" height="162.0781" id="QuestaBackend" rx="2.5" ry="2.5" style="stroke:#181818;stroke-width:0.5;" width="245.7344" x="569" y="188"/><ellipse cx="632.5024" cy="204" fill="#ADD1B2" rx="11" ry="11" style="stroke:#181818;stroke-width:1.0;"/><path d="M635.4712,209.6406 Q634.8931,209.9375 634.2524,210.0781 Q633.6118,210.2344 632.9087,210.2344 Q630.4087,210.2344 629.0806,208.5938 Q627.7681,206.9375 627.7681,203.8125 Q627.7681,200.6875 629.0806,199.0313 Q630.4087,197.375 632.9087,197.375 Q633.6118,197.375 634.2524,197.5313 Q634.9087,197.6875 635.4712,197.9844 L635.4712,200.7031 Q634.8462,200.125 634.2524,199.8594 Q633.6587,199.5781 633.0337,199.5781 Q631.6899,199.5781 631.0024,200.6563 Q630.3149,201.7188 630.3149,203.8125 Q630.3149,205.9063 631.0024,206.9844 Q631.6899,208.0469 633.0337,208.0469 Q633.6587,208.0469 634.2524,207.7813 Q634.8462,207.5 635.4712,206.9219 L635.4712,209.6406 Z " fill="#000000"/><text fill="#000000" font-family="sans-serif" font-size="14" lengthAdjust="spacing" textLength="110.2295" x="653.0024" y="208.8467">QuestaBackend</text><line style="stroke:#181818;stroke-width:0.5;" x1="570" x2="813.7344" y1="220" y2="220"/><rect fill="none" height="6" style="stroke:#C82930;stroke-width:1.0;" width="6" x="577" y="230.6484"/><text fill="#000000" font-family="sans-serif" font-size="14" lengthAdjust="spacing" textLength="123.3408" x="589" y="236.9951">config: SimConfig</text><rect fill="none" height="6" style="stroke:#C82930;stroke-width:1.0;" width="6" x="577" y="246.9453"/><text fill="#000000" font-family="sans-serif" font-size="14" lengthAdjust="spacing" textLength="100.5088" x="589" y="253.292">build_dir: Path</text><line style="stroke:#181818;stroke-width:1.0;" x1="570" x2="813.7344" y1="260.5938" y2="260.5938"/><ellipse cx="580" cy="274.2422" fill="#84BE84" rx="3" ry="3" style="stroke:#038048;stroke-width:1.0;"/><text fill="#000000" font-family="sans-serif" font-size="14" lengthAdjust="spacing" textLength="219.7344" x="589" y="277.5889">compile(sources, options): bool</text><ellipse cx="580" cy="290.5391" fill="#84BE84" rx="3" ry="3" style="stroke:#038048;stroke-width:1.0;"/><text fill="#000000" font-family="sans-serif" font-size="14" lengthAdjust="spacing" textLength="200.375" x="589" y="293.8857">elaborate(top, options): bool</text><ellipse cx="580" cy="306.8359" fill="#84BE84" rx="3" ry="3" style="stroke:#038048;stroke-width:1.0;"/><text fill="#000000" font-family="sans-serif" font-size="14" lengthAdjust="spacing" textLength="202.2207" x="589" y="310.1826">simulate(options): SimResult</text><rect fill="#F24D5C" height="6" style="stroke:#C82930;stroke-width:1.0;" width="6" x="577" y="320.1328"/><text fill="#000000" font-family="sans-serif" font-size="14" lengthAdjust="spacing" textLength="138.7422" x="589" y="326.4795">run_vlog(files): bool</text><rect fill="#F24D5C" height="6" style="stroke:#C82930;stroke-width:1.0;" width="6" x="577" y="336.4297"/><text fill="#000000" font-family="sans-serif" font-size="14" lengthAdjust="spacing" textLength="176.9414" x="589" y="342.7764">run_vsim(top): SimResult</text></g><!--reverse link SimulatorBackend to XSimBackend--><g id="link_SimulatorBackend_XSimBackend"><path codeLine="45" d="M319.6383,130.6634 C294.1183,149.1334 279.64,159.63 251.59,179.94 " fill="none" id="SimulatorBackend-backto-XSimBackend" style="stroke:#181818;stroke-width:1.0;stroke-dasharray:7.0,7.0;"/><polygon fill="none" points="334.22,120.11,316.1205,125.8029,323.1561,135.524,334.22,120.11" style="stroke:#181818;stroke-width:1.0;"/></g><!--reverse link SimulatorBackend to VerilatorBackend--><g id="link_SimulatorBackend_VerilatorBackend"><path codeLine="46" d="M411,138.11 C411,158.94 411,165.04 411,187.66 " fill="none" id="SimulatorBackend-backto-VerilatorBackend" style="stroke:#181818;stroke-width:1.0;stroke-dasharray:7.0,7.0;"/><polygon fill="none" points="411,120.11,405,138.11,417,138.11,411,120.11" style="stroke:#181818;stroke-width:1.0;"/></g><!--reverse link SimulatorBackend to QuestaBackend--><g id="link_SimulatorBackend_QuestaBackend"><path codeLine="47" d="M502.3593,130.6667 C531.2093,151.5567 550.02,165.18 581.33,187.85 " fill="none" id="SimulatorBackend-backto-QuestaBackend" style="stroke:#181818;stroke-width:1.0;stroke-dasharray:7.0,7.0;"/><polygon fill="none" points="487.78,120.11,498.8404,135.5265,505.8782,125.807,487.78,120.11" style="stroke:#181818;stroke-width:1.0;"/></g><!--SRC=[rLFBJiCm4BpxAtmCWlG3AavKueXuI8XRj74sgLN76tdNKINWtt4IAMq8lIAuMJlZsTqPcm_MTn2WrIMOGnCe-cf7ZeAM09uJX5uKpwmAQuXExidB0xIeEP5onc1hfQmN33KOr2-sZGw4mbqIHL_fTwMrlZRKTjPXnXI3GRxHr8abprTRNHAvaOCEIWeWc0brFp9u4iViXAL-pyXfhgcDG_2nonBGawtKfrB60RD-Ixp5HBaXNzjc5DYDnx5QHkkgeh9Xgnz1zcCj_yKDyX1zSUmTDLcTkftVdQ2XnQ2-0f9onXuwtfCiL6SFNbDMwsZ-gX4DUXmKYXOEE7WnXteQ3uzeea0vWQFslErJH1RuDvbVZhmVafqINuIw-cct7vlD-KE_mFZ-32xG5lvz0G00]--></g></svg>