<svg xmlns="http://www.w3.org/2000/svg" xmlns:xlink="http://www.w3.org/1999/xlink" contentStyleType="text/css" height="804px" preserveAspectRatio="none" style="width:338px;height:804px;" version="1.1" viewBox="0 0 338 804" width="338px" zoomAndPan="magnify"><defs/><g><ellipse cx="153.4421" cy="20" fill="#222222" rx="10" ry="10" style="stroke:#222222;stroke-width:1.0;"/><path d="M231.2253,54.418 L231.2253,62.9844 L211.2253,66.9844 L231.2253,70.9844 L231.2253,79.5508 A0,0 0 0 0 231.2253,79.5508 L296.1892,79.5508 A0,0 0 0 0 296.1892,79.5508 L296.1892,64.418 L286.1892,54.418 L231.2253,54.418 A0,0 0 0 0 231.2253,54.418 " fill="#FEFFDD" style="stroke:#181818;stroke-width:0.5;"/><path d="M286.1892,54.418 L286.1892,64.418 L296.1892,64.418 L286.1892,54.418 " fill="#FEFFDD" style="stroke:#181818;stroke-width:0.5;"/><text fill="#000000" font-family="sans-serif" font-size="13" lengthAdjust="spacing" textLength="43.9639" x="237.2253" y="71.4849">aly init</text><rect fill="#F1F1F1" height="33.9688" rx="12.5" ry="12.5" style="stroke:#181818;stroke-width:0.5;" width="115.5664" x="95.6589" y="50"/><text fill="#000000" font-family="sans-serif" font-size="12" lengthAdjust="spacing" textLength="95.5664" x="105.6589" y="71.1387">Initialize Project</text><rect fill="#F1F1F1" height="33.9688" rx="12.5" ry="12.5" style="stroke:#181818;stroke-width:0.5;" width="112.9238" x="96.9802" y="103.9688"/><text fill="#000000" font-family="sans-serif" font-size="12" lengthAdjust="spacing" textLength="92.9238" x="106.9802" y="125.1074">Write RTL Code</text><rect fill="#F1F1F1" height="33.9688" rx="12.5" ry="12.5" style="stroke:#181818;stroke-width:0.5;" width="141.3301" x="82.7771" y="157.9375"/><text fill="#000000" font-family="sans-serif" font-size="12" lengthAdjust="spacing" textLength="121.3301" x="92.7771" y="179.0762">Create RTL Manifest</text><rect fill="#F1F1F1" height="33.9688" rx="12.5" ry="12.5" style="stroke:#181818;stroke-width:0.5;" width="118.5137" x="94.1853" y="211.9063"/><text fill="#000000" font-family="sans-serif" font-size="12" lengthAdjust="spacing" textLength="98.5137" x="104.1853" y="233.0449">Write Testbench</text><rect fill="#F1F1F1" height="33.9688" rx="12.5" ry="12.5" style="stroke:#181818;stroke-width:0.5;" width="134.5391" x="86.1726" y="265.875"/><text fill="#000000" font-family="sans-serif" font-size="12" lengthAdjust="spacing" textLength="114.5391" x="96.1726" y="287.0137">Create TB Manifest</text><path d="M214.9714,324.2617 L214.9714,332.8281 L194.9714,336.8281 L214.9714,340.8281 L214.9714,349.3945 A0,0 0 0 0 214.9714,349.3945 L279.9353,349.3945 A0,0 0 0 0 279.9353,349.3945 L279.9353,334.2617 L269.9353,324.2617 L214.9714,324.2617 A0,0 0 0 0 214.9714,324.2617 " fill="#FEFFDD" style="stroke:#181818;stroke-width:0.5;"/><path d="M269.9353,324.2617 L269.9353,334.2617 L279.9353,334.2617 L269.9353,324.2617 " fill="#FEFFDD" style="stroke:#181818;stroke-width:0.5;"/><text fill="#000000" font-family="sans-serif" font-size="13" lengthAdjust="spacing" textLength="43.9639" x="220.9714" y="341.3286">aly lint</text><rect fill="#F1F1F1" height="33.9688" rx="12.5" ry="12.5" style="stroke:#181818;stroke-width:0.5;" width="83.0586" x="111.9128" y="319.8438"/><text fill="#000000" font-family="sans-serif" font-size="12" lengthAdjust="spacing" textLength="63.0586" x="121.9128" y="340.9824">Lint Check</text><polygon fill="#F1F1F1" points="130.6042,373.8125,176.28,373.8125,188.28,385.8125,176.28,397.8125,130.6042,397.8125,118.6042,385.8125,130.6042,373.8125" style="stroke:#181818;stroke-width:0.5;"/><text fill="#000000" font-family="sans-serif" font-size="11" lengthAdjust="spacing" textLength="45.6758" x="130.6042" y="389.6206">Lint OK?</text><text fill="#000000" font-family="sans-serif" font-size="11" lengthAdjust="spacing" textLength="19.0083" x="99.5959" y="383.2183">yes</text><text fill="#000000" font-family="sans-serif" font-size="11" lengthAdjust="spacing" textLength="13.7017" x="188.28" y="383.2183">no</text><path d="M117.2068,412.2305 L117.2068,420.7969 L97.2068,424.7969 L117.2068,428.7969 L117.2068,437.3633 A0,0 0 0 0 117.2068,437.3633 L184.6589,437.3633 A0,0 0 0 0 184.6589,437.3633 L184.6589,422.2305 L174.6589,412.2305 L117.2068,412.2305 A0,0 0 0 0 117.2068,412.2305 " fill="#FEFFDD" style="stroke:#181818;stroke-width:0.5;"/><path d="M174.6589,412.2305 L174.6589,422.2305 L184.6589,422.2305 L174.6589,412.2305 " fill="#FEFFDD" style="stroke:#181818;stroke-width:0.5;"/><text fill="#000000" font-family="sans-serif" font-size="13" lengthAdjust="spacing" textLength="46.4521" x="123.2068" y="429.2974">aly sim</text><rect fill="#F1F1F1" height="33.9688" rx="12.5" ry="12.5" style="stroke:#181818;stroke-width:0.5;" width="73.0215" x="24.1853" y="407.8125"/><text fill="#000000" font-family="sans-serif" font-size="12" lengthAdjust="spacing" textLength="53.0215" x="34.1853" y="428.9512">Simulate</text><rect fill="#F1F1F1" height="33.9688" rx="12.5" ry="12.5" style="stroke:#181818;stroke-width:0.5;" width="78.4355" x="206.9705" y="407.8125"/><text fill="#000000" font-family="sans-serif" font-size="12" lengthAdjust="spacing" textLength="58.4355" x="216.9705" y="428.9512">Fix Issues</text><rect fill="#F1F1F1" height="33.9688" rx="12.5" ry="12.5" style="stroke:#181818;stroke-width:0.5;" width="83.0586" x="204.6589" y="461.7813"/><text fill="#000000" font-family="sans-serif" font-size="12" lengthAdjust="spacing" textLength="63.0586" x="214.6589" y="482.9199">Lint Check</text><polygon fill="#F1F1F1" points="153.4421,501.75,165.4421,513.75,153.4421,525.75,141.4421,513.75,153.4421,501.75" style="stroke:#181818;stroke-width:0.5;"/><polygon fill="#F1F1F1" points="124.3362,545.75,182.5481,545.75,194.5481,557.75,182.5481,569.75,124.3362,569.75,112.3362,557.75,124.3362,545.75" style="stroke:#181818;stroke-width:0.5;"/><text fill="#000000" font-family="sans-serif" font-size="11" lengthAdjust="spacing" textLength="58.2119" x="124.3362" y="561.5581">Sim PASS?</text><text fill="#000000" font-family="sans-serif" font-size="11" lengthAdjust="spacing" textLength="19.0083" x="93.3279" y="555.1558">yes</text><text fill="#000000" font-family="sans-serif" font-size="11" lengthAdjust="spacing" textLength="13.7017" x="194.5481" y="555.1558">no</text><path d="M116.2852,584.168 L116.2852,592.7344 L96.2852,596.7344 L116.2852,600.7344 L116.2852,609.3008 A0,0 0 0 0 116.2852,609.3008 L196.731,609.3008 A0,0 0 0 0 196.731,609.3008 L196.731,594.168 L186.731,584.168 L116.2852,584.168 A0,0 0 0 0 116.2852,584.168 " fill="#FEFFDD" style="stroke:#181818;stroke-width:0.5;"/><path d="M186.731,584.168 L186.731,594.168 L196.731,594.168 L186.731,584.168 " fill="#FEFFDD" style="stroke:#181818;stroke-width:0.5;"/><text fill="#000000" font-family="sans-serif" font-size="13" lengthAdjust="spacing" textLength="59.4458" x="122.2852" y="601.2349">aly synth</text><rect fill="#F1F1F1" height="33.9688" rx="12.5" ry="12.5" style="stroke:#181818;stroke-width:0.5;" width="85.2852" x="11" y="579.75"/><text fill="#000000" font-family="sans-serif" font-size="12" lengthAdjust="spacing" textLength="65.2852" x="21" y="600.8887">Synthesize</text><rect fill="#F1F1F1" height="33.9688" rx="12.5" ry="12.5" style="stroke:#181818;stroke-width:0.5;" width="59.4629" x="223.5103" y="579.75"/><text fill="#000000" font-family="sans-serif" font-size="12" lengthAdjust="spacing" textLength="39.4629" x="233.5103" y="600.8887">Debug</text><rect fill="#F1F1F1" height="33.9688" rx="12.5" ry="12.5" style="stroke:#181818;stroke-width:0.5;" width="73.0215" x="216.731" y="633.7188"/><text fill="#000000" font-family="sans-serif" font-size="12" lengthAdjust="spacing" textLength="53.0215" x="226.731" y="654.8574">Simulate</text><polygon fill="#F1F1F1" points="153.4421,673.6875,165.4421,685.6875,153.4421,697.6875,141.4421,685.6875,153.4421,673.6875" style="stroke:#181818;stroke-width:0.5;"/><path d="M226.7253,722.1055 L226.7253,730.6719 L206.7253,734.6719 L226.7253,738.6719 L226.7253,747.2383 A0,0 0 0 0 226.7253,747.2383 L326.906,747.2383 A0,0 0 0 0 326.906,747.2383 L326.906,732.1055 L316.906,722.1055 L226.7253,722.1055 A0,0 0 0 0 226.7253,722.1055 " fill="#FEFFDD" style="stroke:#181818;stroke-width:0.5;"/><path d="M316.906,722.1055 L316.906,732.1055 L326.906,732.1055 L316.906,722.1055 " fill="#FEFFDD" style="stroke:#181818;stroke-width:0.5;"/><text fill="#000000" font-family="sans-serif" font-size="13" lengthAdjust="spacing" textLength="79.1807" x="232.7253" y="739.1724">aly program</text><rect fill="#F1F1F1" height="33.9688" rx="12.5" ry="12.5" style="stroke:#181818;stroke-width:0.5;" width="106.5664" x="100.1589" y="717.6875"/><text fill="#000000" font-family="sans-serif" font-size="12" lengthAdjust="spacing" textLength="86.5664" x="110.1589" y="738.8262">Program FPGA</text><ellipse cx="153.4421" cy="782.6563" fill="none" rx="11" ry="11" style="stroke:#222222;stroke-width:1.0;"/><ellipse cx="153.4421" cy="782.6563" fill="#222222" rx="6" ry="6" style="stroke:#222222;stroke-width:1.0;"/><line style="stroke:#181818;stroke-width:1.0;" x1="153.4421" x2="153.4421" y1="30" y2="50"/><polygon fill="#181818" points="149.4421,40,153.4421,50,157.4421,40,153.4421,44" style="stroke:#181818;stroke-width:1.0;"/><line style="stroke:#181818;stroke-width:1.0;" x1="153.4421" x2="153.4421" y1="83.9688" y2="103.9688"/><polygon fill="#181818" points="149.4421,93.9688,153.4421,103.9688,157.4421,93.9688,153.4421,97.9688" style="stroke:#181818;stroke-width:1.0;"/><line style="stroke:#181818;stroke-width:1.0;" x1="153.4421" x2="153.4421" y1="137.9375" y2="157.9375"/><polygon fill="#181818" points="149.4421,147.9375,153.4421,157.9375,157.4421,147.9375,153.4421,151.9375" style="stroke:#181818;stroke-width:1.0;"/><line style="stroke:#181818;stroke-width:1.0;" x1="153.4421" x2="153.4421" y1="191.9063" y2="211.9063"/><polygon fill="#181818" points="149.4421,201.9063,153.4421,211.9063,157.4421,201.9063,153.4421,205.9063" style="stroke:#181818;stroke-width:1.0;"/><line style="stroke:#181818;stroke-width:1.0;" x1="153.4421" x2="153.4421" y1="245.875" y2="265.875"/><polygon fill="#181818" points="149.4421,255.875,153.4421,265.875,157.4421,255.875,153.4421,259.875" style="stroke:#181818;stroke-width:1.0;"/><line style="stroke:#181818;stroke-width:1.0;" x1="153.4421" x2="153.4421" y1="299.8438" y2="319.8438"/><polygon fill="#181818" points="149.4421,309.8438,153.4421,319.8438,157.4421,309.8438,153.4421,313.8438" style="stroke:#181818;stroke-width:1.0;"/><line style="stroke:#181818;stroke-width:1.0;" x1="246.1882" x2="246.1882" y1="441.7813" y2="461.7813"/><polygon fill="#181818" points="242.1882,451.7813,246.1882,461.7813,250.1882,451.7813,246.1882,455.7813" style="stroke:#181818;stroke-width:1.0;"/><line style="stroke:#181818;stroke-width:1.0;" x1="118.6042" x2="60.696" y1="385.8125" y2="385.8125"/><line style="stroke:#181818;stroke-width:1.0;" x1="60.696" x2="60.696" y1="385.8125" y2="407.8125"/><polygon fill="#181818" points="56.696,397.8125,60.696,407.8125,64.696,397.8125,60.696,401.8125" style="stroke:#181818;stroke-width:1.0;"/><line style="stroke:#181818;stroke-width:1.0;" x1="188.28" x2="246.1882" y1="385.8125" y2="385.8125"/><line style="stroke:#181818;stroke-width:1.0;" x1="246.1882" x2="246.1882" y1="385.8125" y2="407.8125"/><polygon fill="#181818" points="242.1882,397.8125,246.1882,407.8125,250.1882,397.8125,246.1882,401.8125" style="stroke:#181818;stroke-width:1.0;"/><line style="stroke:#181818;stroke-width:1.0;" x1="60.696" x2="60.696" y1="441.7813" y2="513.75"/><line style="stroke:#181818;stroke-width:1.0;" x1="60.696" x2="141.4421" y1="513.75" y2="513.75"/><polygon fill="#181818" points="131.4421,509.75,141.4421,513.75,131.4421,517.75,135.4421,513.75" style="stroke:#181818;stroke-width:1.0;"/><line style="stroke:#181818;stroke-width:1.0;" x1="246.1882" x2="246.1882" y1="495.75" y2="513.75"/><line style="stroke:#181818;stroke-width:1.0;" x1="246.1882" x2="165.4421" y1="513.75" y2="513.75"/><polygon fill="#181818" points="175.4421,509.75,165.4421,513.75,175.4421,517.75,171.4421,513.75" style="stroke:#181818;stroke-width:1.0;"/><line style="stroke:#181818;stroke-width:1.0;" x1="153.4421" x2="153.4421" y1="353.8125" y2="373.8125"/><polygon fill="#181818" points="149.4421,363.8125,153.4421,373.8125,157.4421,363.8125,153.4421,367.8125" style="stroke:#181818;stroke-width:1.0;"/><line style="stroke:#181818;stroke-width:1.0;" x1="253.2417" x2="253.2417" y1="613.7188" y2="633.7188"/><polygon fill="#181818" points="249.2417,623.7188,253.2417,633.7188,257.2417,623.7188,253.2417,627.7188" style="stroke:#181818;stroke-width:1.0;"/><line style="stroke:#181818;stroke-width:1.0;" x1="112.3362" x2="53.6426" y1="557.75" y2="557.75"/><line style="stroke:#181818;stroke-width:1.0;" x1="53.6426" x2="53.6426" y1="557.75" y2="579.75"/><polygon fill="#181818" points="49.6426,569.75,53.6426,579.75,57.6426,569.75,53.6426,573.75" style="stroke:#181818;stroke-width:1.0;"/><line style="stroke:#181818;stroke-width:1.0;" x1="194.5481" x2="253.2417" y1="557.75" y2="557.75"/><line style="stroke:#181818;stroke-width:1.0;" x1="253.2417" x2="253.2417" y1="557.75" y2="579.75"/><polygon fill="#181818" points="249.2417,569.75,253.2417,579.75,257.2417,569.75,253.2417,573.75" style="stroke:#181818;stroke-width:1.0;"/><line style="stroke:#181818;stroke-width:1.0;" x1="53.6426" x2="53.6426" y1="613.7188" y2="685.6875"/><line style="stroke:#181818;stroke-width:1.0;" x1="53.6426" x2="141.4421" y1="685.6875" y2="685.6875"/><polygon fill="#181818" points="131.4421,681.6875,141.4421,685.6875,131.4421,689.6875,135.4421,685.6875" style="stroke:#181818;stroke-width:1.0;"/><line style="stroke:#181818;stroke-width:1.0;" x1="253.2417" x2="253.2417" y1="667.6875" y2="685.6875"/><line style="stroke:#181818;stroke-width:1.0;" x1="253.2417" x2="165.4421" y1="685.6875" y2="685.6875"/><polygon fill="#181818" points="175.4421,681.6875,165.4421,685.6875,175.4421,689.6875,171.4421,685.6875" style="stroke:#181818;stroke-width:1.0;"/><line style="stroke:#181818;stroke-width:1.0;" x1="153.4421" x2="153.4421" y1="525.75" y2="545.75"/><polygon fill="#181818" points="149.4421,535.75,153.4421,545.75,157.4421,535.75,153.4421,539.75" style="stroke:#181818;stroke-width:1.0;"/><line style="stroke:#181818;stroke-width:1.0;" x1="153.4421" x2="153.4421" y1="697.6875" y2="717.6875"/><polygon fill="#181818" points="149.4421,707.6875,153.4421,717.6875,157.4421,707.6875,153.4421,711.6875" style="stroke:#181818;stroke-width:1.0;"/><line style="stroke:#181818;stroke-width:1.0;" x1="153.4421" x2="153.4421" y1="751.6563" y2="771.6563"/><polygon fill="#181818" points="149.4421,761.6563,153.4421,771.6563,157.4421,761.6563,153.4421,765.6563" style="stroke:#181818;stroke-width:1.0;"/><!--SRC=[RP71JiCm38RlUGeVkmClq1xGA1gQDg2YapXdhTkQfiuKfnBbwN7709LnzFz_zf_OqXEVRB0376tLjy6FNEVU-G0nM1QraAEH7wh6neukRZp79piWY48tWe4QOoJQ44swPOfa7NqW5C6_OHKpmpuY16gxc89r4v0ongIlWLH_EUmXzpLc9iq3seloQ9aQ56t-vWvQ7P6hxXSyt2suFN64lCEgluvqwXb33IHdwdbtkuBO8KCoeQmCG5hIC3gTccdnjrjeCEW48M5_XZVq3bkH4MN65yd8zRoEEKf7Gh4ko-kiYLKGNTA_QRExpBl7uzXcosTUWb9TSpiVPrCyhAy_VlfozJp-z0a0]--></g></svg>