<svg xmlns="http://www.w3.org/2000/svg" xmlns:xlink="http://www.w3.org/1999/xlink" contentStyleType="text/css" height="527px" preserveAspectRatio="none" style="width:889px;height:527px;" version="1.1" viewBox="0 0 889 527" width="889px" zoomAndPan="magnify"><defs/><g><!--cluster Project--><g id="cluster_Project"><path d="M290.5,6 L347.5684,6 A3.75,3.75 0 0 1 350.0684,8.5 L357.0684,28.2969 L439.5,28.2969 A2.5,2.5 0 0 1 442,30.7969 L442,100.5 A2.5,2.5 0 0 1 439.5,103 L290.5,103 A2.5,2.5 0 0 1 288,100.5 L288,8.5 A2.5,2.5 0 0 1 290.5,6 " fill="none" style="stroke:#000000;stroke-width:1.5;"/><line style="stroke:#000000;stroke-width:1.5;" x1="288" x2="357.0684" y1="28.2969" y2="28.2969"/><text fill="#000000" font-family="sans-serif" font-size="14" font-weight="bold" lengthAdjust="spacing" textLength="56.0684" x="292" y="20.9951">Project</text></g><!--cluster RTL--><g id="cluster_RTL"><path d="M8.5,298 L38.751,298 A3.75,3.75 0 0 1 41.251,300.5 L48.251,320.2969 L195.5,320.2969 A2.5,2.5 0 0 1 198,322.7969 L198,517.5 A2.5,2.5 0 0 1 195.5,520 L8.5,520 A2.5,2.5 0 0 1 6,517.5 L6,300.5 A2.5,2.5 0 0 1 8.5,298 " fill="none" style="stroke:#000000;stroke-width:1.5;"/><line style="stroke:#000000;stroke-width:1.5;" x1="6" x2="48.251" y1="320.2969" y2="320.2969"/><text fill="#000000" font-family="sans-serif" font-size="14" font-weight="bold" lengthAdjust="spacing" textLength="29.251" x="10" y="312.9951">RTL</text></g><!--cluster Testbench--><g id="cluster_Testbench"><path d="M224.5,152 L307.3193,152 A3.75,3.75 0 0 1 309.8193,154.5 L316.8193,174.2969 L506.5,174.2969 A2.5,2.5 0 0 1 509,176.7969 L509,392.5 A2.5,2.5 0 0 1 506.5,395 L224.5,395 A2.5,2.5 0 0 1 222,392.5 L222,154.5 A2.5,2.5 0 0 1 224.5,152 " fill="none" style="stroke:#000000;stroke-width:1.5;"/><line style="stroke:#000000;stroke-width:1.5;" x1="222" x2="316.8193" y1="174.2969" y2="174.2969"/><text fill="#000000" font-family="sans-serif" font-size="14" font-weight="bold" lengthAdjust="spacing" textLength="81.8193" x="226" y="166.9951">Testbench</text></g><!--cluster Firmware--><g id="cluster_Firmware"><path d="M535.5,298 L611.1348,298 A3.75,3.75 0 0 1 613.6348,300.5 L620.6348,320.2969 L724.5,320.2969 A2.5,2.5 0 0 1 727,322.7969 L727,517.5 A2.5,2.5 0 0 1 724.5,520 L535.5,520 A2.5,2.5 0 0 1 533,517.5 L533,300.5 A2.5,2.5 0 0 1 535.5,298 " fill="none" style="stroke:#000000;stroke-width:1.5;"/><line style="stroke:#000000;stroke-width:1.5;" x1="533" x2="620.6348" y1="320.2969" y2="320.2969"/><text fill="#000000" font-family="sans-serif" font-size="14" font-weight="bold" lengthAdjust="spacing" textLength="74.6348" x="537" y="312.9951">Firmware</text></g><!--cluster IP--><g id="cluster_IP"><path d="M684.5,6 L700.9697,6 A3.75,3.75 0 0 1 703.4697,8.5 L710.4697,28.2969 L879.5,28.2969 A2.5,2.5 0 0 1 882,30.7969 L882,246.5 A2.5,2.5 0 0 1 879.5,249 L684.5,249 A2.5,2.5 0 0 1 682,246.5 L682,8.5 A2.5,2.5 0 0 1 684.5,6 " fill="none" style="stroke:#000000;stroke-width:1.5;"/><line style="stroke:#000000;stroke-width:1.5;" x1="682" x2="710.4697" y1="28.2969" y2="28.2969"/><text fill="#000000" font-family="sans-serif" font-size="14" font-weight="bold" lengthAdjust="spacing" textLength="15.4697" x="686" y="20.9951">IP</text></g><!--entity config--><g id="elem_config"><rect fill="#F1F1F1" height="46.2969" rx="2.5" ry="2.5" style="stroke:#181818;stroke-width:0.5;" width="121.6826" x="304" y="41"/><rect fill="#F1F1F1" height="10" style="stroke:#181818;stroke-width:0.5;" width="15" x="405.6826" y="46"/><rect fill="#F1F1F1" height="2" style="stroke:#181818;stroke-width:0.5;" width="4" x="403.6826" y="48"/><rect fill="#F1F1F1" height="2" style="stroke:#181818;stroke-width:0.5;" width="4" x="403.6826" y="52"/><text fill="#000000" font-family="sans-serif" font-size="14" lengthAdjust="spacing" textLength="81.6826" x="319" y="73.9951">config.yaml</text></g><!--entity rtl--><g id="elem_rtl"><rect fill="#F1F1F1" height="46.2969" rx="2.5" ry="2.5" style="stroke:#181818;stroke-width:0.5;" width="159.998" x="22" y="333"/><rect fill="#F1F1F1" height="10" style="stroke:#181818;stroke-width:0.5;" width="15" x="161.998" y="338"/><rect fill="#F1F1F1" height="2" style="stroke:#181818;stroke-width:0.5;" width="4" x="159.998" y="340"/><rect fill="#F1F1F1" height="2" style="stroke:#181818;stroke-width:0.5;" width="4" x="159.998" y="344"/><text fill="#000000" font-family="sans-serif" font-size="14" lengthAdjust="spacing" textLength="119.998" x="37" y="365.9951">rtl/manifest.yaml</text></g><!--entity rtlmod--><g id="elem_rtlmod"><rect fill="#F1F1F1" height="46.2969" rx="2.5" ry="2.5" style="stroke:#181818;stroke-width:0.5;" width="116.9863" x="58.5" y="458"/><rect fill="#F1F1F1" height="10" style="stroke:#181818;stroke-width:0.5;" width="15" x="155.4863" y="463"/><rect fill="#F1F1F1" height="2" style="stroke:#181818;stroke-width:0.5;" width="4" x="153.4863" y="465"/><rect fill="#F1F1F1" height="2" style="stroke:#181818;stroke-width:0.5;" width="4" x="153.4863" y="469"/><text fill="#000000" font-family="sans-serif" font-size="14" lengthAdjust="spacing" textLength="76.9863" x="73.5" y="490.9951">RTLModule</text></g><!--entity tb--><g id="elem_tb"><rect fill="#F1F1F1" height="46.2969" rx="2.5" ry="2.5" style="stroke:#181818;stroke-width:0.5;" width="159.2393" x="285.5" y="187"/><rect fill="#F1F1F1" height="10" style="stroke:#181818;stroke-width:0.5;" width="15" x="424.7393" y="192"/><rect fill="#F1F1F1" height="2" style="stroke:#181818;stroke-width:0.5;" width="4" x="422.7393" y="194"/><rect fill="#F1F1F1" height="2" style="stroke:#181818;stroke-width:0.5;" width="4" x="422.7393" y="198"/><text fill="#000000" font-family="sans-serif" font-size="14" lengthAdjust="spacing" textLength="119.2393" x="300.5" y="219.9951">tb/manifest.yaml</text></g><!--entity tbmod--><g id="elem_tbmod"><rect fill="#F1F1F1" height="46.2969" rx="2.5" ry="2.5" style="stroke:#181818;stroke-width:0.5;" width="112.8916" x="238.5" y="333"/><rect fill="#F1F1F1" height="10" style="stroke:#181818;stroke-width:0.5;" width="15" x="331.3916" y="338"/><rect fill="#F1F1F1" height="2" style="stroke:#181818;stroke-width:0.5;" width="4" x="329.3916" y="340"/><rect fill="#F1F1F1" height="2" style="stroke:#181818;stroke-width:0.5;" width="4" x="329.3916" y="344"/><text fill="#000000" font-family="sans-serif" font-size="14" lengthAdjust="spacing" textLength="72.8916" x="253.5" y="365.9951">Testbench</text></g><!--entity suite--><g id="elem_suite"><rect fill="#F1F1F1" height="46.2969" rx="2.5" ry="2.5" style="stroke:#181818;stroke-width:0.5;" width="105.7002" x="387" y="333"/><rect fill="#F1F1F1" height="10" style="stroke:#181818;stroke-width:0.5;" width="15" x="472.7002" y="338"/><rect fill="#F1F1F1" height="2" style="stroke:#181818;stroke-width:0.5;" width="4" x="470.7002" y="340"/><rect fill="#F1F1F1" height="2" style="stroke:#181818;stroke-width:0.5;" width="4" x="470.7002" y="344"/><text fill="#000000" font-family="sans-serif" font-size="14" lengthAdjust="spacing" textLength="65.7002" x="402" y="365.9951">TestSuite</text></g><!--entity fw--><g id="elem_fw"><rect fill="#F1F1F1" height="46.2969" rx="2.5" ry="2.5" style="stroke:#181818;stroke-width:0.5;" width="161.2422" x="549.5" y="333"/><rect fill="#F1F1F1" height="10" style="stroke:#181818;stroke-width:0.5;" width="15" x="690.7422" y="338"/><rect fill="#F1F1F1" height="2" style="stroke:#181818;stroke-width:0.5;" width="4" x="688.7422" y="340"/><rect fill="#F1F1F1" height="2" style="stroke:#181818;stroke-width:0.5;" width="4" x="688.7422" y="344"/><text fill="#000000" font-family="sans-serif" font-size="14" lengthAdjust="spacing" textLength="121.2422" x="564.5" y="365.9951">fw/manifest.yaml</text></g><!--entity fwbuild--><g id="elem_fwbuild"><rect fill="#F1F1F1" height="46.2969" rx="2.5" ry="2.5" style="stroke:#181818;stroke-width:0.5;" width="140.8779" x="554.5" y="458"/><rect fill="#F1F1F1" height="10" style="stroke:#181818;stroke-width:0.5;" width="15" x="675.3779" y="463"/><rect fill="#F1F1F1" height="2" style="stroke:#181818;stroke-width:0.5;" width="4" x="673.3779" y="465"/><rect fill="#F1F1F1" height="2" style="stroke:#181818;stroke-width:0.5;" width="4" x="673.3779" y="469"/><text fill="#000000" font-family="sans-serif" font-size="14" lengthAdjust="spacing" textLength="100.8779" x="569.5" y="490.9951">FirmwareBuild</text></g><!--entity ip--><g id="elem_ip"><rect fill="#F1F1F1" height="46.2969" rx="2.5" ry="2.5" style="stroke:#181818;stroke-width:0.5;" width="169.3564" x="697.5" y="41"/><rect fill="#F1F1F1" height="10" style="stroke:#181818;stroke-width:0.5;" width="15" x="846.8564" y="46"/><rect fill="#F1F1F1" height="2" style="stroke:#181818;stroke-width:0.5;" width="4" x="844.8564" y="48"/><rect fill="#F1F1F1" height="2" style="stroke:#181818;stroke-width:0.5;" width="4" x="844.8564" y="52"/><text fill="#000000" font-family="sans-serif" font-size="14" lengthAdjust="spacing" textLength="129.3564" x="712.5" y="73.9951">ip/*/manifest.yaml</text></g><!--entity ipmod--><g id="elem_ipmod"><rect fill="#F1F1F1" height="46.2969" rx="2.5" ry="2.5" style="stroke:#181818;stroke-width:0.5;" width="112.3174" x="726" y="187"/><rect fill="#F1F1F1" height="10" style="stroke:#181818;stroke-width:0.5;" width="15" x="818.3174" y="192"/><rect fill="#F1F1F1" height="2" style="stroke:#181818;stroke-width:0.5;" width="4" x="816.3174" y="194"/><rect fill="#F1F1F1" height="2" style="stroke:#181818;stroke-width:0.5;" width="4" x="816.3174" y="198"/><text fill="#000000" font-family="sans-serif" font-size="14" lengthAdjust="spacing" textLength="72.3174" x="741" y="219.9951">IPManifest</text></g><!--link config to rtl--><g id="link_config_rtl"><path d="M303.57,71.84 C255.23,80.5 189.77,100.04 151,144 C103,198.44 99.3491,284.7224 100.5491,326.8424 " fill="none" id="config-to-rtl" style="stroke:#181818;stroke-width:1.0;"/><polygon fill="#181818" points="100.72,332.84,104.4621,323.7297,100.5776,327.842,96.4653,323.9576,100.72,332.84" style="stroke:#181818;stroke-width:1.0;"/><text fill="#000000" font-family="sans-serif" font-size="13" lengthAdjust="spacing" textLength="69.418" x="152" y="214.5669">references</text></g><!--link config to tb--><g id="link_config_tb"><path d="M365,87.18 C365,114.17 365,153.45 365,180.55 " fill="none" id="config-to-tb" style="stroke:#181818;stroke-width:1.0;"/><polygon fill="#181818" points="365,186.55,369,177.55,365,181.55,361,177.55,365,186.55" style="stroke:#181818;stroke-width:1.0;"/><text fill="#000000" font-family="sans-serif" font-size="13" lengthAdjust="spacing" textLength="69.418" x="366" y="132.0669">references</text></g><!--link config to fw--><g id="link_config_fw"><path d="M421.3,87.08 C450.02,100.39 484.07,119.53 509,144 C566.87,200.79 603.8532,285.4772 619.7932,327.0772 " fill="none" id="config-to-fw" style="stroke:#181818;stroke-width:1.0;"/><polygon fill="#181818" points="621.94,332.68,622.4549,322.8446,620.151,328.011,614.9846,325.7071,621.94,332.68" style="stroke:#181818;stroke-width:1.0;"/><text fill="#000000" font-family="sans-serif" font-size="13" lengthAdjust="spacing" textLength="69.418" x="587" y="214.5669">references</text></g><!--link rtl to rtlmod--><g id="link_rtl_rtlmod"><path d="M104.72,379.27 C107.43,401.57 110.8639,429.7041 113.5739,451.9341 " fill="none" id="rtl-to-rtlmod" style="stroke:#181818;stroke-width:1.0;"/><polygon fill="#181818" points="114.3,457.89,117.1815,448.4721,113.6949,452.9267,109.2403,449.4402,114.3,457.89" style="stroke:#181818;stroke-width:1.0;"/><text fill="#000000" font-family="sans-serif" font-size="13" lengthAdjust="spacing" textLength="47.4487" x="112" y="424.0669">defines</text></g><!--link tb to tbmod--><g id="link_tb_tbmod"><path d="M351.61,233.03 C345.92,242.7 339.38,254.28 334,265 C322.62,287.68 313.5437,308.8934 306.0437,327.3034 " fill="none" id="tb-to-tbmod" style="stroke:#181818;stroke-width:1.0;"/><polygon fill="#181818" points="303.78,332.86,310.8799,326.0342,305.6664,328.2295,303.4711,323.016,303.78,332.86" style="stroke:#181818;stroke-width:1.0;"/><text fill="#000000" font-family="sans-serif" font-size="13" lengthAdjust="spacing" textLength="47.4487" x="335" y="278.0669">defines</text></g><!--link tb to suite--><g id="link_tb_suite"><path d="M376.55,233.18 C390.61,260.17 411.4176,300.129 425.5376,327.229 " fill="none" id="tb-to-suite" style="stroke:#181818;stroke-width:1.0;"/><polygon fill="#181818" points="428.31,332.55,427.6987,322.7201,425.9996,328.1158,420.604,326.4167,428.31,332.55" style="stroke:#181818;stroke-width:1.0;"/><text fill="#000000" font-family="sans-serif" font-size="13" lengthAdjust="spacing" textLength="44.8145" x="401" y="278.0669">groups</text></g><!--link fw to fwbuild--><g id="link_fw_fwbuild"><path d="M629.09,379.27 C628.19,401.57 627.0427,429.6649 626.1427,451.8949 " fill="none" id="fw-to-fwbuild" style="stroke:#181818;stroke-width:1.0;"/><polygon fill="#181818" points="625.9,457.89,630.2608,449.0592,626.1023,452.8941,622.2673,448.7356,625.9,457.89" style="stroke:#181818;stroke-width:1.0;"/><text fill="#000000" font-family="sans-serif" font-size="13" lengthAdjust="spacing" textLength="47.4487" x="628" y="424.0669">defines</text></g><!--link ip to ipmod--><g id="link_ip_ipmod"><path d="M782,87.18 C782,114.17 782,153.45 782,180.55 " fill="none" id="ip-to-ipmod" style="stroke:#181818;stroke-width:1.0;"/><polygon fill="#181818" points="782,186.55,786,177.55,782,181.55,778,177.55,782,186.55" style="stroke:#181818;stroke-width:1.0;"/><text fill="#000000" font-family="sans-serif" font-size="13" lengthAdjust="spacing" textLength="47.4487" x="783" y="132.0669">defines</text></g><!--link tbmod to rtlmod--><g id="link_tbmod_rtlmod"><path d="M262.77,379.27 C230.51,401.57 186.1066,432.2498 153.9266,454.4798 " fill="none" id="tbmod-to-rtlmod" style="stroke:#181818;stroke-width:1.0;"/><polygon fill="#181818" points="148.99,457.89,158.6684,456.0657,153.1039,455.0481,154.1215,449.4836,148.99,457.89" style="stroke:#181818;stroke-width:1.0;"/><text fill="#000000" font-family="sans-serif" font-size="13" lengthAdjust="spacing" textLength="76.0894" x="217" y="424.0669">depends on</text></g><!--link tbmod to fwbuild--><g id="link_tbmod_fwbuild"><path d="M326.86,379.05 C339.83,387.35 355.23,396.37 370,403 C430.02,429.93 496.2519,449.2338 548.4319,462.3838 " fill="none" id="tbmod-to-fwbuild" style="stroke:#181818;stroke-width:1.0;"/><polygon fill="#181818" points="554.25,463.85,546.5004,457.7719,549.4016,462.6281,544.5454,465.5294,554.25,463.85" style="stroke:#181818;stroke-width:1.0;"/><text fill="#000000" font-family="sans-serif" font-size="13" lengthAdjust="spacing" textLength="79.5552" x="432" y="424.0669">may include</text></g><!--SRC=[TP8zQyCm48Pt_OeZOo7Dtg532u50KqoRhNIGhLEgH5z8CYQK_lUUPIknYxl9xtDwZZivdfNrF703DM_En-1QAvwTTW5Iu3OIGfjOl5O9bBpLQUjiUkK68LBHEc9GaZ5F1dv4M5N1dR19A_Xc0F3HE2lLyVx2ZVu47c7uPZ-J6s-7br8TajuORfN4c6vtACsK2lTEj1fBQfoOcGvqhKRRV1LVgXTqgSxiMZo6lQpaxwrAGvVOdsPDjYgOZbPJUiXkeOViCYkrJwtIOWHrVvuPTrLnAR-vMx0fd-cksezeJCVvXvt2UltOBmKU8A14Uhi6uvIb-byakpbYlMVqKHE2zFRA4Y79u5gCyxOexlyb7nbf1tkUULAkV0PvWadC1ksVnXwjYE3iXDwCXbz0sKQt0dy1]--></g></svg>