<svg xmlns="http://www.w3.org/2000/svg" xmlns:xlink="http://www.w3.org/1999/xlink" contentStyleType="text/css" height="669px" preserveAspectRatio="none" style="width:491px;height:669px;" version="1.1" viewBox="0 0 491 669" width="491px" zoomAndPan="magnify"><defs/><g><!--class FirmwareManifest--><g id="elem_FirmwareManifest"><rect codeLine="4" fill="#F1F1F1" height="145.7813" id="FirmwareManifest" rx="2.5" ry="2.5" style="stroke:#181818;stroke-width:0.5;" width="251.0869" x="128.5" y="7"/><ellipse cx="187.0532" cy="23" fill="#ADD1B2" rx="11" ry="11" style="stroke:#181818;stroke-width:1.0;"/><path d="M190.022,28.6406 Q189.4438,28.9375 188.8032,29.0781 Q188.1626,29.2344 187.4595,29.2344 Q184.9595,29.2344 183.6313,27.5938 Q182.3188,25.9375 182.3188,22.8125 Q182.3188,19.6875 183.6313,18.0313 Q184.9595,16.375 187.4595,16.375 Q188.1626,16.375 188.8032,16.5313 Q189.4595,16.6875 190.022,16.9844 L190.022,19.7031 Q189.397,19.125 188.8032,18.8594 Q188.2095,18.5781 187.5845,18.5781 Q186.2407,18.5781 185.5532,19.6563 Q184.8657,20.7188 184.8657,22.8125 Q184.8657,24.9063 185.5532,25.9844 Q186.2407,27.0469 187.5845,27.0469 Q188.2095,27.0469 188.8032,26.7813 Q189.397,26.5 190.022,25.9219 L190.022,28.6406 Z " fill="#000000"/><text fill="#000000" font-family="sans-serif" font-size="14" lengthAdjust="spacing" textLength="125.4805" x="207.5532" y="27.8467">FirmwareManifest</text><line style="stroke:#181818;stroke-width:0.5;" x1="129.5" x2="378.5869" y1="39" y2="39"/><ellipse cx="139.5" cy="52.6484" fill="none" rx="3" ry="3" style="stroke:#038048;stroke-width:1.0;"/><text fill="#000000" font-family="sans-serif" font-size="14" lengthAdjust="spacing" textLength="67.4092" x="148.5" y="55.9951">name: str</text><ellipse cx="139.5" cy="68.9453" fill="none" rx="3" ry="3" style="stroke:#038048;stroke-width:1.0;"/><text fill="#000000" font-family="sans-serif" font-size="14" lengthAdjust="spacing" textLength="58.9805" x="148.5" y="72.292">type: str</text><ellipse cx="139.5" cy="85.2422" fill="none" rx="3" ry="3" style="stroke:#038048;stroke-width:1.0;"/><text fill="#000000" font-family="sans-serif" font-size="14" lengthAdjust="spacing" textLength="92.1279" x="148.5" y="88.5889">toolchain: str</text><ellipse cx="139.5" cy="101.5391" fill="none" rx="3" ry="3" style="stroke:#038048;stroke-width:1.0;"/><text fill="#000000" font-family="sans-serif" font-size="14" lengthAdjust="spacing" textLength="187.1611" x="148.5" y="104.8857">builds: List[FirmwareBuild]</text><line style="stroke:#181818;stroke-width:1.0;" x1="129.5" x2="378.5869" y1="112.1875" y2="112.1875"/><ellipse cx="139.5" cy="125.8359" fill="#84BE84" rx="3" ry="3" style="stroke:#038048;stroke-width:1.0;"/><text fill="#000000" font-family="sans-serif" font-size="14" lengthAdjust="spacing" textLength="225.0869" x="148.5" y="129.1826">get_build(name): FirmwareBuild</text><ellipse cx="139.5" cy="142.1328" fill="#84BE84" rx="3" ry="3" style="stroke:#038048;stroke-width:1.0;"/><text fill="#000000" font-family="sans-serif" font-size="14" lengthAdjust="spacing" textLength="192.4385" x="148.5" y="145.4795">get_build_names(): List[str]</text></g><!--class FirmwareBuild--><g id="elem_FirmwareBuild"><rect codeLine="14" fill="#F1F1F1" height="276.1563" id="FirmwareBuild" rx="2.5" ry="2.5" style="stroke:#181818;stroke-width:0.5;" width="225.2744" x="141.5" y="213"/><ellipse cx="199.4482" cy="229" fill="#ADD1B2" rx="11" ry="11" style="stroke:#181818;stroke-width:1.0;"/><path d="M202.417,234.6406 Q201.8389,234.9375 201.1982,235.0781 Q200.5576,235.2344 199.8545,235.2344 Q197.3545,235.2344 196.0264,233.5938 Q194.7139,231.9375 194.7139,228.8125 Q194.7139,225.6875 196.0264,224.0313 Q197.3545,222.375 199.8545,222.375 Q200.5576,222.375 201.1982,222.5313 Q201.8545,222.6875 202.417,222.9844 L202.417,225.7031 Q201.792,225.125 201.1982,224.8594 Q200.6045,224.5781 199.9795,224.5781 Q198.6357,224.5781 197.9482,225.6563 Q197.2607,226.7188 197.2607,228.8125 Q197.2607,230.9063 197.9482,231.9844 Q198.6357,233.0469 199.9795,233.0469 Q200.6045,233.0469 201.1982,232.7813 Q201.792,232.5 202.417,231.9219 L202.417,234.6406 Z " fill="#000000"/><text fill="#000000" font-family="sans-serif" font-size="14" lengthAdjust="spacing" textLength="100.8779" x="219.9482" y="233.8467">FirmwareBuild</text><line style="stroke:#181818;stroke-width:0.5;" x1="142.5" x2="365.7744" y1="245" y2="245"/><ellipse cx="152.5" cy="258.6484" fill="none" rx="3" ry="3" style="stroke:#038048;stroke-width:1.0;"/><text fill="#000000" font-family="sans-serif" font-size="14" lengthAdjust="spacing" textLength="67.4092" x="161.5" y="261.9951">name: str</text><ellipse cx="152.5" cy="274.9453" fill="none" rx="3" ry="3" style="stroke:#038048;stroke-width:1.0;"/><text fill="#000000" font-family="sans-serif" font-size="14" lengthAdjust="spacing" textLength="73.8418" x="161.5" y="278.292">author: str</text><ellipse cx="152.5" cy="291.2422" fill="none" rx="3" ry="3" style="stroke:#038048;stroke-width:1.0;"/><text fill="#000000" font-family="sans-serif" font-size="14" lengthAdjust="spacing" textLength="78.9824" x="161.5" y="294.5889">version: str</text><ellipse cx="152.5" cy="307.5391" fill="none" rx="3" ry="3" style="stroke:#038048;stroke-width:1.0;"/><text fill="#000000" font-family="sans-serif" font-size="14" lengthAdjust="spacing" textLength="135.5771" x="161.5" y="310.8857">languages: List[str]</text><ellipse cx="152.5" cy="323.8359" fill="none" rx="3" ry="3" style="stroke:#038048;stroke-width:1.0;"/><text fill="#000000" font-family="sans-serif" font-size="14" lengthAdjust="spacing" textLength="117.1953" x="161.5" y="327.1826">sources: List[str]</text><ellipse cx="152.5" cy="340.1328" fill="none" rx="3" ry="3" style="stroke:#038048;stroke-width:1.0;"/><text fill="#000000" font-family="sans-serif" font-size="14" lengthAdjust="spacing" textLength="121.1191" x="161.5" y="343.4795">includes: List[str]</text><ellipse cx="152.5" cy="356.4297" fill="none" rx="3" ry="3" style="stroke:#038048;stroke-width:1.0;"/><text fill="#000000" font-family="sans-serif" font-size="14" lengthAdjust="spacing" textLength="112.8477" x="161.5" y="359.7764">linker_script: str</text><ellipse cx="152.5" cy="372.7266" fill="none" rx="3" ry="3" style="stroke:#038048;stroke-width:1.0;"/><text fill="#000000" font-family="sans-serif" font-size="14" lengthAdjust="spacing" textLength="92.1279" x="161.5" y="376.0732">toolchain: str</text><ellipse cx="152.5" cy="389.0234" fill="none" rx="3" ry="3" style="stroke:#038048;stroke-width:1.0;"/><text fill="#000000" font-family="sans-serif" font-size="14" lengthAdjust="spacing" textLength="145.0244" x="161.5" y="392.3701">defines: Dict[str, str]</text><ellipse cx="152.5" cy="405.3203" fill="none" rx="3" ry="3" style="stroke:#038048;stroke-width:1.0;"/><text fill="#000000" font-family="sans-serif" font-size="14" lengthAdjust="spacing" textLength="145.1816" x="161.5" y="408.667">flags: FirmwareFlags</text><ellipse cx="152.5" cy="421.6172" fill="none" rx="3" ry="3" style="stroke:#038048;stroke-width:1.0;"/><text fill="#000000" font-family="sans-serif" font-size="14" lengthAdjust="spacing" textLength="180.749" x="161.5" y="424.9639">outputs: List[OutputSpec]</text><ellipse cx="152.5" cy="437.9141" fill="none" rx="3" ry="3" style="stroke:#038048;stroke-width:1.0;"/><text fill="#000000" font-family="sans-serif" font-size="14" lengthAdjust="spacing" textLength="164.8623" x="161.5" y="441.2607">mem: List[MemFormat]</text><line style="stroke:#181818;stroke-width:1.0;" x1="142.5" x2="365.7744" y1="448.5625" y2="448.5625"/><ellipse cx="152.5" cy="462.2109" fill="#84BE84" rx="3" ry="3" style="stroke:#038048;stroke-width:1.0;"/><text fill="#000000" font-family="sans-serif" font-size="14" lengthAdjust="spacing" textLength="173.5029" x="161.5" y="465.5576">resolve_files(): List[Path]</text><ellipse cx="152.5" cy="478.5078" fill="#84BE84" rx="3" ry="3" style="stroke:#038048;stroke-width:1.0;"/><text fill="#000000" font-family="sans-serif" font-size="14" lengthAdjust="spacing" textLength="199.2744" x="161.5" y="481.8545">get_source_files(): List[Path]</text></g><!--class FirmwareFlags--><g id="elem_FirmwareFlags"><rect codeLine="32" fill="#F1F1F1" height="113.1875" id="FirmwareFlags" rx="2.5" ry="2.5" style="stroke:#181818;stroke-width:0.5;" width="150.0791" x="7" y="549"/><ellipse cx="29.0392" cy="565" fill="#ADD1B2" rx="11" ry="11" style="stroke:#181818;stroke-width:1.0;"/><path d="M32.0079,570.6406 Q31.4298,570.9375 30.7892,571.0781 Q30.1485,571.2344 29.4454,571.2344 Q26.9454,571.2344 25.6173,569.5938 Q24.3048,567.9375 24.3048,564.8125 Q24.3048,561.6875 25.6173,560.0313 Q26.9454,558.375 29.4454,558.375 Q30.1485,558.375 30.7892,558.5313 Q31.4454,558.6875 32.0079,558.9844 L32.0079,561.7031 Q31.3829,561.125 30.7892,560.8594 Q30.1954,560.5781 29.5704,560.5781 Q28.2267,560.5781 27.5392,561.6563 Q26.8517,562.7188 26.8517,564.8125 Q26.8517,566.9063 27.5392,567.9844 Q28.2267,569.0469 29.5704,569.0469 Q30.1954,569.0469 30.7892,568.7813 Q31.3829,568.5 32.0079,567.9219 L32.0079,570.6406 Z " fill="#000000"/><text fill="#000000" font-family="sans-serif" font-size="14" lengthAdjust="spacing" textLength="102.4365" x="44.6034" y="569.8467">FirmwareFlags</text><line style="stroke:#181818;stroke-width:0.5;" x1="8" x2="156.0791" y1="581" y2="581"/><ellipse cx="18" cy="594.6484" fill="none" rx="3" ry="3" style="stroke:#038048;stroke-width:1.0;"/><text fill="#000000" font-family="sans-serif" font-size="14" lengthAdjust="spacing" textLength="124.0791" x="27" y="597.9951">common: List[str]</text><ellipse cx="18" cy="610.9453" fill="none" rx="3" ry="3" style="stroke:#038048;stroke-width:1.0;"/><text fill="#000000" font-family="sans-serif" font-size="14" lengthAdjust="spacing" textLength="70.7998" x="27" y="614.292">c: List[str]</text><ellipse cx="18" cy="627.2422" fill="none" rx="3" ry="3" style="stroke:#038048;stroke-width:1.0;"/><text fill="#000000" font-family="sans-serif" font-size="14" lengthAdjust="spacing" textLength="92.6133" x="27" y="630.5889">asm: List[str]</text><ellipse cx="18" cy="643.5391" fill="none" rx="3" ry="3" style="stroke:#038048;stroke-width:1.0;"/><text fill="#000000" font-family="sans-serif" font-size="14" lengthAdjust="spacing" textLength="75.8789" x="27" y="646.8857">ld: List[str]</text><line style="stroke:#181818;stroke-width:0.5;" x1="8" x2="156.0791" y1="654.1875" y2="654.1875"/></g><!--class OutputSpec--><g id="elem_OutputSpec"><rect codeLine="39" fill="#F1F1F1" height="96.8906" id="OutputSpec" rx="2.5" ry="2.5" style="stroke:#181818;stroke-width:0.5;" width="124.3486" x="192" y="557"/><ellipse cx="211.3352" cy="573" fill="#ADD1B2" rx="11" ry="11" style="stroke:#181818;stroke-width:1.0;"/><path d="M214.304,578.6406 Q213.7258,578.9375 213.0852,579.0781 Q212.4446,579.2344 211.7415,579.2344 Q209.2415,579.2344 207.9133,577.5938 Q206.6008,575.9375 206.6008,572.8125 Q206.6008,569.6875 207.9133,568.0313 Q209.2415,566.375 211.7415,566.375 Q212.4446,566.375 213.0852,566.5313 Q213.7415,566.6875 214.304,566.9844 L214.304,569.7031 Q213.679,569.125 213.0852,568.8594 Q212.4915,568.5781 211.8665,568.5781 Q210.5227,568.5781 209.8352,569.6563 Q209.1477,570.7188 209.1477,572.8125 Q209.1477,574.9063 209.8352,575.9844 Q210.5227,577.0469 211.8665,577.0469 Q212.4915,577.0469 213.0852,576.7813 Q213.679,576.5 214.304,575.9219 L214.304,578.6406 Z " fill="#000000"/><text fill="#000000" font-family="sans-serif" font-size="14" lengthAdjust="spacing" textLength="82.7148" x="226.2986" y="577.8467">OutputSpec</text><line style="stroke:#181818;stroke-width:0.5;" x1="193" x2="315.3486" y1="589" y2="589"/><ellipse cx="203" cy="602.6484" fill="none" rx="3" ry="3" style="stroke:#038048;stroke-width:1.0;"/><text fill="#000000" font-family="sans-serif" font-size="14" lengthAdjust="spacing" textLength="74.6621" x="212" y="605.9951">format: str</text><ellipse cx="203" cy="618.9453" fill="none" rx="3" ry="3" style="stroke:#038048;stroke-width:1.0;"/><text fill="#000000" font-family="sans-serif" font-size="14" lengthAdjust="spacing" textLength="98.3486" x="212" y="622.292">required: bool</text><ellipse cx="203" cy="635.2422" fill="none" rx="3" ry="3" style="stroke:#038048;stroke-width:1.0;"/><text fill="#000000" font-family="sans-serif" font-size="14" lengthAdjust="spacing" textLength="79.8711" x="212" y="638.5889">plusarg: str</text><line style="stroke:#181818;stroke-width:0.5;" x1="193" x2="315.3486" y1="645.8906" y2="645.8906"/></g><!--class MemFormat--><g id="elem_MemFormat"><rect codeLine="45" fill="#F1F1F1" height="113.1875" id="MemFormat" rx="2.5" ry="2.5" style="stroke:#181818;stroke-width:0.5;" width="133.666" x="351" y="549"/><ellipse cx="373.7651" cy="565" fill="#ADD1B2" rx="11" ry="11" style="stroke:#181818;stroke-width:1.0;"/><path d="M376.7339,570.6406 Q376.1558,570.9375 375.5151,571.0781 Q374.8745,571.2344 374.1714,571.2344 Q371.6714,571.2344 370.3433,569.5938 Q369.0308,567.9375 369.0308,564.8125 Q369.0308,561.6875 370.3433,560.0313 Q371.6714,558.375 374.1714,558.375 Q374.8745,558.375 375.5151,558.5313 Q376.1714,558.6875 376.7339,558.9844 L376.7339,561.7031 Q376.1089,561.125 375.5151,560.8594 Q374.9214,560.5781 374.2964,560.5781 Q372.9526,560.5781 372.2651,561.6563 Q371.5776,562.7188 371.5776,564.8125 Q371.5776,566.9063 372.2651,567.9844 Q372.9526,569.0469 374.2964,569.0469 Q374.9214,569.0469 375.5151,568.7813 Q376.1089,568.5 376.7339,567.9219 L376.7339,570.6406 Z " fill="#000000"/><text fill="#000000" font-family="sans-serif" font-size="14" lengthAdjust="spacing" textLength="84.4102" x="389.4907" y="569.8467">MemFormat</text><line style="stroke:#181818;stroke-width:0.5;" x1="352" x2="483.666" y1="581" y2="581"/><ellipse cx="362" cy="594.6484" fill="none" rx="3" ry="3" style="stroke:#038048;stroke-width:1.0;"/><text fill="#000000" font-family="sans-serif" font-size="14" lengthAdjust="spacing" textLength="67.4092" x="371" y="597.9951">name: str</text><ellipse cx="362" cy="610.9453" fill="none" rx="3" ry="3" style="stroke:#038048;stroke-width:1.0;"/><text fill="#000000" font-family="sans-serif" font-size="14" lengthAdjust="spacing" textLength="74.6621" x="371" y="614.292">format: str</text><ellipse cx="362" cy="627.2422" fill="none" rx="3" ry="3" style="stroke:#038048;stroke-width:1.0;"/><text fill="#000000" font-family="sans-serif" font-size="14" lengthAdjust="spacing" textLength="107.666" x="371" y="630.5889">word_width: int</text><ellipse cx="362" cy="643.5391" fill="none" rx="3" ry="3" style="stroke:#038048;stroke-width:1.0;"/><text fill="#000000" font-family="sans-serif" font-size="14" lengthAdjust="spacing" textLength="103.5576" x="371" y="646.8857">byte_order: str</text><line style="stroke:#181818;stroke-width:0.5;" x1="352" x2="483.666" y1="654.1875" y2="654.1875"/></g><!--reverse link FirmwareManifest to FirmwareBuild--><g id="link_FirmwareManifest_FirmwareBuild"><path codeLine="52" d="M254,165.09 C254,183.61 254,192.15 254,212.79 " fill="none" id="FirmwareManifest-backto-FirmwareBuild" style="stroke:#181818;stroke-width:1.0;"/><polygon fill="#181818" points="254,153.09,250,159.09,254,165.09,258,159.09,254,153.09" style="stroke:#181818;stroke-width:1.0;"/><text fill="#000000" font-family="sans-serif" font-size="13" lengthAdjust="spacing" textLength="8.271" x="245.6275" y="172.8549">1</text><text fill="#000000" font-family="sans-serif" font-size="13" lengthAdjust="spacing" textLength="6.5" x="247.8421" y="201.8877">*</text></g><!--reverse link FirmwareBuild to FirmwareFlags--><g id="link_FirmwareBuild_FirmwareFlags"><path codeLine="53" d="M153.6961,499.2489 C139.3561,520.3089 132.05,531.02 119.89,548.88 " fill="none" id="FirmwareBuild-backto-FirmwareFlags" style="stroke:#181818;stroke-width:1.0;"/><polygon fill="#181818" points="160.45,489.33,153.7667,492.0382,153.6961,499.2489,160.3794,496.5408,160.45,489.33" style="stroke:#181818;stroke-width:1.0;"/><text fill="#000000" font-family="sans-serif" font-size="13" lengthAdjust="spacing" textLength="8.271" x="147.1151" y="509.3713">1</text><text fill="#000000" font-family="sans-serif" font-size="13" lengthAdjust="spacing" textLength="8.271" x="116.032" y="538.1289">1</text></g><!--reverse link FirmwareBuild to OutputSpec--><g id="link_FirmwareBuild_OutputSpec"><path codeLine="54" d="M254,501.33 C254,525.62 254,537.36 254,556.92 " fill="none" id="FirmwareBuild-backto-OutputSpec" style="stroke:#181818;stroke-width:1.0;"/><polygon fill="#181818" points="254,489.33,250,495.33,254,501.33,258,495.33,254,489.33" style="stroke:#181818;stroke-width:1.0;"/><text fill="#000000" font-family="sans-serif" font-size="13" lengthAdjust="spacing" textLength="8.271" x="245.7812" y="509.3713">1</text><text fill="#000000" font-family="sans-serif" font-size="13" lengthAdjust="spacing" textLength="6.5" x="247.5705" y="545.7679">*</text></g><!--reverse link FirmwareBuild to MemFormat--><g id="link_FirmwareBuild_MemFormat"><path codeLine="55" d="M349.7335,499.3955 C363.4035,520.4555 370.28,531.02 381.87,548.88 " fill="none" id="FirmwareBuild-backto-MemFormat" style="stroke:#181818;stroke-width:1.0;"/><polygon fill="#181818" points="343.2,489.33,343.1116,496.5406,349.7335,499.3955,349.8219,492.1849,343.2,489.33" style="stroke:#181818;stroke-width:1.0;"/><text fill="#000000" font-family="sans-serif" font-size="13" lengthAdjust="spacing" textLength="8.271" x="339.8593" y="509.3713">1</text><text fill="#000000" font-family="sans-serif" font-size="13" lengthAdjust="spacing" textLength="6.5" x="371.1519" y="538.1289">*</text></g><!--SRC=[VLDDRzim3BtxLmW-jTryw3N7RSXfNGViE0I68jCE4Nsu9DMW6FRV9okfxTXPZtnyV2IVA3wYxpLff_RQ73iAqJTVWmsaXBJdb08l1O-i1beThMo3bn_QWU94gXW8sw8mLZEhBP8xfR8dxR455lMdK4fzyeczKIoK8tdhvr48rXmq-WdQHxGDRzHtPFdzBlbb07T3lgeogmEfC_DkaB_Vg2lcDQKUA7ntVz5CZNR5t-NGkUxcn3hA8T0Klm8nXjd4LlikwWvutc18S8XarZ1wOsEpnYtw8r3DXh2N3prARu5-4FY69WjyLgDAQtN7an_R8So94AMFyjxrEKU_UZ3dCWVkada2jmtajCpz9k1WNw5kqSwi_Adbi1lDFgzxaxAoEuzriTi4vmO_hzqmIq2pMpdMt7pJQRTBXpRlC_b7y1AH85NlaxaPwcraJTsPCogDNjoyZANiAL1Jdx2HmqPX-ZpvdDy4weG3ZTAhVr8-bkgXgbJvK2xk-FewHzvZkNZV__2ItkJ51wHnpNy0]--></g></svg>