<svg xmlns="http://www.w3.org/2000/svg" xmlns:xlink="http://www.w3.org/1999/xlink" contentStyleType="text/css" height="837px" preserveAspectRatio="none" style="width:683px;height:837px;" version="1.1" viewBox="0 0 683 837" width="683px" zoomAndPan="magnify"><defs/><g><ellipse cx="341.6504" cy="20" fill="#222222" rx="10" ry="10" style="stroke:#222222;stroke-width:1.0;"/><rect fill="#F1F1F1" height="33.9688" rx="12.5" ry="12.5" style="stroke:#181818;stroke-width:0.5;" width="144.5352" x="269.3828" y="50"/><text fill="#000000" font-family="sans-serif" font-size="12" lengthAdjust="spacing" textLength="124.5352" x="279.3828" y="71.1387">Parse CLI arguments</text><rect fill="#F1F1F1" height="33.9688" rx="12.5" ry="12.5" style="stroke:#181818;stroke-width:0.5;" width="135.2598" x="274.0205" y="103.9688"/><text fill="#000000" font-family="sans-serif" font-size="12" lengthAdjust="spacing" textLength="115.2598" x="284.0205" y="125.1074">Load project config</text><rect fill="#F1F1F1" height="33.9688" rx="12.5" ry="12.5" style="stroke:#181818;stroke-width:0.5;" width="85.7188" x="298.791" y="206.3398"/><text fill="#000000" font-family="sans-serif" font-size="12" lengthAdjust="spacing" textLength="65.7188" x="308.791" y="227.4785">Show error</text><ellipse cx="341.6504" cy="279.8242" fill="none" rx="11" ry="11" style="stroke:#222222;stroke-width:1.0;"/><ellipse cx="341.6504" cy="279.8242" fill="#222222" rx="6" ry="6" style="stroke:#222222;stroke-width:1.0;"/><polygon fill="#F1F1F1" points="306.1636,157.9375,377.1372,157.9375,389.1372,169.9375,377.1372,181.9375,306.1636,181.9375,294.1636,169.9375,306.1636,157.9375" style="stroke:#181818;stroke-width:0.5;"/><text fill="#000000" font-family="sans-serif" font-size="11" lengthAdjust="spacing" textLength="13.7017" x="345.6504" y="192.1479">no</text><text fill="#000000" font-family="sans-serif" font-size="11" lengthAdjust="spacing" textLength="70.9736" x="306.1636" y="173.7456">Config valid?</text><rect fill="#F1F1F1" height="33.9688" rx="12.5" ry="12.5" style="stroke:#181818;stroke-width:0.5;" width="111.6113" x="285.8447" y="332.8242"/><text fill="#000000" font-family="sans-serif" font-size="12" lengthAdjust="spacing" textLength="91.6113" x="295.8447" y="353.9629">Load manifests</text><polygon fill="#F1F1F1" points="313.3823,386.793,369.9185,386.793,381.9185,398.793,369.9185,410.793,313.3823,410.793,301.3823,398.793,313.3823,386.793" style="stroke:#181818;stroke-width:0.5;"/><text fill="#000000" font-family="sans-serif" font-size="11" lengthAdjust="spacing" textLength="56.5361" x="313.3823" y="402.6011">Command</text><rect fill="#F1F1F1" height="33.9688" rx="12.5" ry="12.5" style="stroke:#181818;stroke-width:0.5;" width="180.8926" x="11" y="446.4023"/><text fill="#000000" font-family="sans-serif" font-size="12" lengthAdjust="spacing" textLength="160.8926" x="21" y="467.541">Resolve RTL dependencies</text><rect fill="#F1F1F1" height="33.9688" rx="12.5" ry="12.5" style="stroke:#181818;stroke-width:0.5;" width="172.3203" x="15.2861" y="500.3711"/><text fill="#000000" font-family="sans-serif" font-size="12" lengthAdjust="spacing" textLength="152.3203" x="25.2861" y="521.5098">Select simulator backend</text><rect fill="#F1F1F1" height="33.9688" rx="12.5" ry="12.5" style="stroke:#181818;stroke-width:0.5;" width="119.2578" x="41.8174" y="554.3398"/><text fill="#000000" font-family="sans-serif" font-size="12" lengthAdjust="spacing" textLength="99.2578" x="51.8174" y="575.4785">Compile sources</text><rect fill="#F1F1F1" height="33.9688" rx="12.5" ry="12.5" style="stroke:#181818;stroke-width:0.5;" width="121.2266" x="40.833" y="608.3086"/><text fill="#000000" font-family="sans-serif" font-size="12" lengthAdjust="spacing" textLength="101.2266" x="50.833" y="629.4473">Elaborate design</text><rect fill="#F1F1F1" height="33.9688" rx="12.5" ry="12.5" style="stroke:#181818;stroke-width:0.5;" width="109.918" x="46.4873" y="662.2773"/><text fill="#000000" font-family="sans-serif" font-size="12" lengthAdjust="spacing" textLength="89.918" x="56.4873" y="683.416">Run simulation</text><rect fill="#F1F1F1" height="33.9688" rx="12.5" ry="12.5" style="stroke:#181818;stroke-width:0.5;" width="157.8359" x="202.2236" y="446.4023"/><text fill="#000000" font-family="sans-serif" font-size="12" lengthAdjust="spacing" textLength="137.8359" x="212.2236" y="467.541">Select synthesis target</text><rect fill="#F1F1F1" height="33.9688" rx="12.5" ry="12.5" style="stroke:#181818;stroke-width:0.5;" width="149.041" x="206.6211" y="500.3711"/><text fill="#000000" font-family="sans-serif" font-size="12" lengthAdjust="spacing" textLength="129.041" x="216.6211" y="521.5098">Select synth backend</text><rect fill="#F1F1F1" height="33.9688" rx="12.5" ry="12.5" style="stroke:#181818;stroke-width:0.5;" width="158.498" x="201.8926" y="554.3398"/><text fill="#000000" font-family="sans-serif" font-size="12" lengthAdjust="spacing" textLength="138.498" x="211.8926" y="575.4785">Generate TCL/YS script</text><rect fill="#F1F1F1" height="33.9688" rx="12.5" ry="12.5" style="stroke:#181818;stroke-width:0.5;" width="103.8535" x="229.2148" y="608.3086"/><text fill="#000000" font-family="sans-serif" font-size="12" lengthAdjust="spacing" textLength="83.8535" x="239.2148" y="629.4473">Run synthesis</text><rect fill="#F1F1F1" height="33.9688" rx="12.5" ry="12.5" style="stroke:#181818;stroke-width:0.5;" width="123.0254" x="219.6289" y="662.2773"/><text fill="#000000" font-family="sans-serif" font-size="12" lengthAdjust="spacing" textLength="103.0254" x="229.6289" y="683.416">Generate reports</text><rect fill="#F1F1F1" height="33.9688" rx="12.5" ry="12.5" style="stroke:#181818;stroke-width:0.5;" width="133.3438" x="380.3906" y="446.4023"/><text fill="#000000" font-family="sans-serif" font-size="12" lengthAdjust="spacing" textLength="113.3438" x="390.3906" y="467.541">Collect source files</text><rect fill="#F1F1F1" height="33.9688" rx="12.5" ry="12.5" style="stroke:#181818;stroke-width:0.5;" width="78.6582" x="407.7334" y="500.3711"/><text fill="#000000" font-family="sans-serif" font-size="12" lengthAdjust="spacing" textLength="58.6582" x="417.7334" y="521.5098">Run linter</text><rect fill="#F1F1F1" height="33.9688" rx="12.5" ry="12.5" style="stroke:#181818;stroke-width:0.5;" width="96.5527" x="398.7861" y="554.3398"/><text fill="#000000" font-family="sans-serif" font-size="12" lengthAdjust="spacing" textLength="76.5527" x="408.7861" y="575.4785">Parse output</text><rect fill="#F1F1F1" height="33.9688" rx="12.5" ry="12.5" style="stroke:#181818;stroke-width:0.5;" width="107.2051" x="393.46" y="608.3086"/><text fill="#000000" font-family="sans-serif" font-size="12" lengthAdjust="spacing" textLength="87.2051" x="403.46" y="629.4473">Format results</text><rect fill="#F1F1F1" height="33.9688" rx="12.5" ry="12.5" style="stroke:#181818;stroke-width:0.5;" width="148.5664" x="523.7344" y="446.4023"/><text fill="#000000" font-family="sans-serif" font-size="12" lengthAdjust="spacing" textLength="128.5664" x="533.7344" y="467.541">Load toolchain config</text><rect fill="#F1F1F1" height="33.9688" rx="12.5" ry="12.5" style="stroke:#181818;stroke-width:0.5;" width="119.2578" x="538.3887" y="500.3711"/><text fill="#000000" font-family="sans-serif" font-size="12" lengthAdjust="spacing" textLength="99.2578" x="548.3887" y="521.5098">Compile sources</text><rect fill="#F1F1F1" height="33.9688" rx="12.5" ry="12.5" style="stroke:#181818;stroke-width:0.5;" width="91.6191" x="552.208" y="554.3398"/><text fill="#000000" font-family="sans-serif" font-size="12" lengthAdjust="spacing" textLength="71.6191" x="562.208" y="575.4785">Link objects</text><rect fill="#F1F1F1" height="33.9688" rx="12.5" ry="12.5" style="stroke:#181818;stroke-width:0.5;" width="125.6914" x="535.1719" y="608.3086"/><text fill="#000000" font-family="sans-serif" font-size="12" lengthAdjust="spacing" textLength="105.6914" x="545.1719" y="629.4473">Generate outputs</text><polygon fill="#F1F1F1" points="341.6504,706.2461,341.6504,706.2461,353.6504,718.2461,341.6504,730.2461,341.6504,730.2461,329.6504,718.2461,341.6504,706.2461" style="stroke:#181818;stroke-width:0.5;"/><rect fill="#F1F1F1" height="33.9688" rx="12.5" ry="12.5" style="stroke:#181818;stroke-width:0.5;" width="108.5117" x="287.3945" y="750.2461"/><text fill="#000000" font-family="sans-serif" font-size="12" lengthAdjust="spacing" textLength="88.5117" x="297.3945" y="771.3848">Display results</text><ellipse cx="341.6504" cy="815.2148" fill="none" rx="11" ry="11" style="stroke:#222222;stroke-width:1.0;"/><ellipse cx="341.6504" cy="815.2148" fill="#222222" rx="6" ry="6" style="stroke:#222222;stroke-width:1.0;"/><line style="stroke:#181818;stroke-width:1.0;" x1="341.6504" x2="341.6504" y1="30" y2="50"/><polygon fill="#181818" points="337.6504,40,341.6504,50,345.6504,40,341.6504,44" style="stroke:#181818;stroke-width:1.0;"/><line style="stroke:#181818;stroke-width:1.0;" x1="341.6504" x2="341.6504" y1="83.9688" y2="103.9688"/><polygon fill="#181818" points="337.6504,93.9688,341.6504,103.9688,345.6504,93.9688,341.6504,97.9688" style="stroke:#181818;stroke-width:1.0;"/><line style="stroke:#181818;stroke-width:1.0;" x1="341.6504" x2="341.6504" y1="240.3086" y2="268.8242"/><polygon fill="#181818" points="337.6504,258.8242,341.6504,268.8242,345.6504,258.8242,341.6504,262.8242" style="stroke:#181818;stroke-width:1.0;"/><line style="stroke:#181818;stroke-width:1.0;" x1="341.6504" x2="341.6504" y1="181.9375" y2="206.3398"/><polygon fill="#181818" points="337.6504,196.3398,341.6504,206.3398,345.6504,196.3398,341.6504,200.3398" style="stroke:#181818;stroke-width:1.0;"/><line style="stroke:#181818;stroke-width:1.0;" x1="389.1372" x2="401.1372" y1="169.9375" y2="169.9375"/><polygon fill="#181818" points="397.1372,238.8242,401.1372,248.8242,405.1372,238.8242,401.1372,242.8242" style="stroke:#181818;stroke-width:1.0;"/><line style="stroke:#181818;stroke-width:1.0;" x1="401.1372" x2="401.1372" y1="169.9375" y2="312.8242"/><line style="stroke:#181818;stroke-width:1.0;" x1="401.1372" x2="341.6504" y1="312.8242" y2="312.8242"/><line style="stroke:#181818;stroke-width:1.0;" x1="341.6504" x2="341.6504" y1="312.8242" y2="332.8242"/><polygon fill="#181818" points="337.6504,322.8242,341.6504,332.8242,345.6504,322.8242,341.6504,326.8242" style="stroke:#181818;stroke-width:1.0;"/><line style="stroke:#181818;stroke-width:1.0;" x1="341.6504" x2="341.6504" y1="137.9375" y2="157.9375"/><polygon fill="#181818" points="337.6504,147.9375,341.6504,157.9375,345.6504,147.9375,341.6504,151.9375" style="stroke:#181818;stroke-width:1.0;"/><line style="stroke:#181818;stroke-width:1.0;" x1="101.4463" x2="101.4463" y1="480.3711" y2="500.3711"/><polygon fill="#181818" points="97.4463,490.3711,101.4463,500.3711,105.4463,490.3711,101.4463,494.3711" style="stroke:#181818;stroke-width:1.0;"/><line style="stroke:#181818;stroke-width:1.0;" x1="101.4463" x2="101.4463" y1="534.3398" y2="554.3398"/><polygon fill="#181818" points="97.4463,544.3398,101.4463,554.3398,105.4463,544.3398,101.4463,548.3398" style="stroke:#181818;stroke-width:1.0;"/><line style="stroke:#181818;stroke-width:1.0;" x1="101.4463" x2="101.4463" y1="588.3086" y2="608.3086"/><polygon fill="#181818" points="97.4463,598.3086,101.4463,608.3086,105.4463,598.3086,101.4463,602.3086" style="stroke:#181818;stroke-width:1.0;"/><line style="stroke:#181818;stroke-width:1.0;" x1="101.4463" x2="101.4463" y1="642.2773" y2="662.2773"/><polygon fill="#181818" points="97.4463,652.2773,101.4463,662.2773,105.4463,652.2773,101.4463,656.2773" style="stroke:#181818;stroke-width:1.0;"/><line style="stroke:#181818;stroke-width:1.0;" x1="281.1416" x2="281.1416" y1="480.3711" y2="500.3711"/><polygon fill="#181818" points="277.1416,490.3711,281.1416,500.3711,285.1416,490.3711,281.1416,494.3711" style="stroke:#181818;stroke-width:1.0;"/><line style="stroke:#181818;stroke-width:1.0;" x1="281.1416" x2="281.1416" y1="534.3398" y2="554.3398"/><polygon fill="#181818" points="277.1416,544.3398,281.1416,554.3398,285.1416,544.3398,281.1416,548.3398" style="stroke:#181818;stroke-width:1.0;"/><line style="stroke:#181818;stroke-width:1.0;" x1="281.1416" x2="281.1416" y1="588.3086" y2="608.3086"/><polygon fill="#181818" points="277.1416,598.3086,281.1416,608.3086,285.1416,598.3086,281.1416,602.3086" style="stroke:#181818;stroke-width:1.0;"/><line style="stroke:#181818;stroke-width:1.0;" x1="281.1416" x2="281.1416" y1="642.2773" y2="662.2773"/><polygon fill="#181818" points="277.1416,652.2773,281.1416,662.2773,285.1416,652.2773,281.1416,656.2773" style="stroke:#181818;stroke-width:1.0;"/><line style="stroke:#181818;stroke-width:1.0;" x1="447.0625" x2="447.0625" y1="480.3711" y2="500.3711"/><polygon fill="#181818" points="443.0625,490.3711,447.0625,500.3711,451.0625,490.3711,447.0625,494.3711" style="stroke:#181818;stroke-width:1.0;"/><line style="stroke:#181818;stroke-width:1.0;" x1="447.0625" x2="447.0625" y1="534.3398" y2="554.3398"/><polygon fill="#181818" points="443.0625,544.3398,447.0625,554.3398,451.0625,544.3398,447.0625,548.3398" style="stroke:#181818;stroke-width:1.0;"/><line style="stroke:#181818;stroke-width:1.0;" x1="447.0625" x2="447.0625" y1="588.3086" y2="608.3086"/><polygon fill="#181818" points="443.0625,598.3086,447.0625,608.3086,451.0625,598.3086,447.0625,602.3086" style="stroke:#181818;stroke-width:1.0;"/><line style="stroke:#181818;stroke-width:1.0;" x1="598.0176" x2="598.0176" y1="480.3711" y2="500.3711"/><polygon fill="#181818" points="594.0176,490.3711,598.0176,500.3711,602.0176,490.3711,598.0176,494.3711" style="stroke:#181818;stroke-width:1.0;"/><line style="stroke:#181818;stroke-width:1.0;" x1="598.0176" x2="598.0176" y1="534.3398" y2="554.3398"/><polygon fill="#181818" points="594.0176,544.3398,598.0176,554.3398,602.0176,544.3398,598.0176,548.3398" style="stroke:#181818;stroke-width:1.0;"/><line style="stroke:#181818;stroke-width:1.0;" x1="598.0176" x2="598.0176" y1="588.3086" y2="608.3086"/><polygon fill="#181818" points="594.0176,598.3086,598.0176,608.3086,602.0176,598.3086,598.0176,602.3086" style="stroke:#181818;stroke-width:1.0;"/><line style="stroke:#181818;stroke-width:1.0;" x1="301.3823" x2="101.4463" y1="398.793" y2="398.793"/><line style="stroke:#181818;stroke-width:1.0;" x1="101.4463" x2="101.4463" y1="398.793" y2="446.4023"/><polygon fill="#181818" points="97.4463,436.4023,101.4463,446.4023,105.4463,436.4023,101.4463,440.4023" style="stroke:#181818;stroke-width:1.0;"/><text fill="#000000" font-family="sans-serif" font-size="11" lengthAdjust="spacing" textLength="47.3516" x="101.4463" y="426.4058">simulate</text><line style="stroke:#181818;stroke-width:1.0;" x1="381.9185" x2="598.0176" y1="398.793" y2="398.793"/><line style="stroke:#181818;stroke-width:1.0;" x1="598.0176" x2="598.0176" y1="398.793" y2="446.4023"/><polygon fill="#181818" points="594.0176,436.4023,598.0176,446.4023,602.0176,436.4023,598.0176,440.4023" style="stroke:#181818;stroke-width:1.0;"/><text fill="#000000" font-family="sans-serif" font-size="11" lengthAdjust="spacing" textLength="49.1938" x="598.0176" y="426.4058">firmware</text><line style="stroke:#181818;stroke-width:1.0;" x1="281.1416" x2="281.1416" y1="398.793" y2="446.4023"/><polygon fill="#181818" points="277.1416,436.4023,281.1416,446.4023,285.1416,436.4023,281.1416,440.4023" style="stroke:#181818;stroke-width:1.0;"/><text fill="#000000" font-family="sans-serif" font-size="11" lengthAdjust="spacing" textLength="30.4971" x="281.1416" y="421.4058">synth</text><line style="stroke:#181818;stroke-width:1.0;" x1="447.0625" x2="447.0625" y1="398.793" y2="446.4023"/><polygon fill="#181818" points="443.0625,436.4023,447.0625,446.4023,451.0625,436.4023,447.0625,440.4023" style="stroke:#181818;stroke-width:1.0;"/><text fill="#000000" font-family="sans-serif" font-size="11" lengthAdjust="spacing" textLength="17.397" x="447.0625" y="421.4058">lint</text><line style="stroke:#181818;stroke-width:1.0;" x1="101.4463" x2="101.4463" y1="696.2461" y2="718.2461"/><line style="stroke:#181818;stroke-width:1.0;" x1="101.4463" x2="329.6504" y1="718.2461" y2="718.2461"/><polygon fill="#181818" points="319.6504,714.2461,329.6504,718.2461,319.6504,722.2461,323.6504,718.2461" style="stroke:#181818;stroke-width:1.0;"/><line style="stroke:#181818;stroke-width:1.0;" x1="598.0176" x2="598.0176" y1="642.2773" y2="718.2461"/><line style="stroke:#181818;stroke-width:1.0;" x1="598.0176" x2="353.6504" y1="718.2461" y2="718.2461"/><polygon fill="#181818" points="363.6504,714.2461,353.6504,718.2461,363.6504,722.2461,359.6504,718.2461" style="stroke:#181818;stroke-width:1.0;"/><line style="stroke:#181818;stroke-width:1.0;" x1="281.1416" x2="281.1416" y1="696.2461" y2="718.2461"/><polygon fill="#181818" points="277.1416,708.2461,281.1416,718.2461,285.1416,708.2461,281.1416,712.2461" style="stroke:#181818;stroke-width:1.0;"/><line style="stroke:#181818;stroke-width:1.0;" x1="447.0625" x2="447.0625" y1="642.2773" y2="718.2461"/><polygon fill="#181818" points="443.0625,708.2461,447.0625,718.2461,451.0625,708.2461,447.0625,712.2461" style="stroke:#181818;stroke-width:1.0;"/><line style="stroke:#181818;stroke-width:1.0;" x1="341.6504" x2="341.6504" y1="366.793" y2="386.793"/><polygon fill="#181818" points="337.6504,376.793,341.6504,386.793,345.6504,376.793,341.6504,380.793" style="stroke:#181818;stroke-width:1.0;"/><line style="stroke:#181818;stroke-width:1.0;" x1="341.6504" x2="341.6504" y1="730.2461" y2="750.2461"/><polygon fill="#181818" points="337.6504,740.2461,341.6504,750.2461,345.6504,740.2461,341.6504,744.2461" style="stroke:#181818;stroke-width:1.0;"/><line style="stroke:#181818;stroke-width:1.0;" x1="341.6504" x2="341.6504" y1="784.2148" y2="804.2148"/><polygon fill="#181818" points="337.6504,794.2148,341.6504,804.2148,345.6504,794.2148,341.6504,798.2148" style="stroke:#181818;stroke-width:1.0;"/><!--SRC=[TPB1Rjim38RlUWeUuyEmUtpO8Lk70SOmfBtioDYqhKOM1L9kqBSV5Jdfsc57KUJtap-fPnyJ2Yvmmluy2QznE71WWImOrRuePgVth856N4D-u9X_uaAWblH9IVped6QKxFQ_K9JWqFq0b6bTh5vRj-yO1qZ2pzHdw3cEVcgTyoFi3jS7l63mmvS6yamHTf4R1m3xnvalG28iRNbhvkGe3aMk8XUCVYGj6aulFlTp8IuM7XhNetMoKx-i0JDLuf6Kmml1yQcpQPB1AFQUjArw54g3MudPK6ondFfhuEI3JSshzBUIRm5FBCOtdFefrkXnZJUAPujjhRp6F3Vlb4h4wXJClObo-y_d-nQ-KwIhsDEX-_px4RGNd_9VcZVUXtIXn59Sgeq47tEppHIgrdKc66q-VSELFAhURulbDQTr4tnWMJ0RM-qcxkpHotAnmwdywvOoS-XdzF6- -l_QsVbu1ZwLE_auGvMsgBbHTsrNyDLh2lZwraIvaJy0]--></g></svg>