<svg xmlns="http://www.w3.org/2000/svg" xmlns:xlink="http://www.w3.org/1999/xlink" contentStyleType="text/css" height="725px" preserveAspectRatio="none" style="width:291px;height:725px;" version="1.1" viewBox="0 0 291 725" width="291px" zoomAndPan="magnify"><defs/><g><ellipse cx="152.3354" cy="20" fill="#222222" rx="10" ry="10" style="stroke:#222222;stroke-width:1.0;"/><rect fill="#F1F1F1" height="33.9688" rx="12.5" ry="12.5" style="stroke:#181818;stroke-width:0.5;" width="131.5273" x="86.5718" y="50"/><text fill="#000000" font-family="sans-serif" font-size="12" lengthAdjust="spacing" textLength="111.5273" x="96.5718" y="71.1387">Load RTL manifest</text><rect fill="#F1F1F1" height="33.9688" rx="12.5" ry="12.5" style="stroke:#181818;stroke-width:0.5;" width="133.3438" x="85.6636" y="103.9688"/><text fill="#000000" font-family="sans-serif" font-size="12" lengthAdjust="spacing" textLength="113.3438" x="95.6636" y="125.1074">Collect source files</text><rect fill="#F1F1F1" height="33.9688" rx="12.5" ry="12.5" style="stroke:#181818;stroke-width:0.5;" width="172.7949" x="65.938" y="206.3398"/><text fill="#000000" font-family="sans-serif" font-size="12" lengthAdjust="spacing" textLength="152.7949" x="75.938" y="227.4785">Filter to specified module</text><polygon fill="#F1F1F1" points="114.8748,157.9375,189.7961,157.9375,201.7961,169.9375,189.7961,181.9375,114.8748,181.9375,102.8748,169.9375,114.8748,157.9375" style="stroke:#181818;stroke-width:0.5;"/><text fill="#000000" font-family="sans-serif" font-size="11" lengthAdjust="spacing" textLength="19.0083" x="156.3354" y="192.1479">yes</text><text fill="#000000" font-family="sans-serif" font-size="11" lengthAdjust="spacing" textLength="74.9214" x="114.8748" y="173.7456">Module filter?</text><polygon fill="#F1F1F1" points="152.3354,260.3086,164.3354,272.3086,152.3354,284.3086,140.3354,272.3086,152.3354,260.3086" style="stroke:#181818;stroke-width:0.5;"/><rect fill="#F1F1F1" height="33.9688" rx="12.5" ry="12.5" style="stroke:#181818;stroke-width:0.5;" width="103.8652" x="100.4028" y="304.3086"/><text fill="#000000" font-family="sans-serif" font-size="12" lengthAdjust="spacing" textLength="83.8652" x="110.4028" y="325.4473">Apply waivers</text><rect fill="#F1F1F1" height="33.9688" rx="12.5" ry="12.5" style="stroke:#181818;stroke-width:0.5;" width="78.6582" x="113.0063" y="358.2773"/><text fill="#000000" font-family="sans-serif" font-size="12" lengthAdjust="spacing" textLength="58.6582" x="123.0063" y="379.416">Run linter</text><rect fill="#F1F1F1" height="33.9688" rx="12.5" ry="12.5" style="stroke:#181818;stroke-width:0.5;" width="96.5527" x="104.0591" y="412.2461"/><text fill="#000000" font-family="sans-serif" font-size="12" lengthAdjust="spacing" textLength="76.5527" x="114.0591" y="433.3848">Parse output</text><rect fill="#F1F1F1" height="33.9688" rx="12.5" ry="12.5" style="stroke:#181818;stroke-width:0.5;" width="107.2051" x="98.7329" y="466.2148"/><text fill="#000000" font-family="sans-serif" font-size="12" lengthAdjust="spacing" textLength="87.2051" x="108.7329" y="487.3535">Format results</text><polygon fill="#F1F1F1" points="115.4146,520.1836,189.2563,520.1836,201.2563,532.1836,189.2563,544.1836,115.4146,544.1836,103.4146,532.1836,115.4146,520.1836" style="stroke:#181818;stroke-width:0.5;"/><text fill="#000000" font-family="sans-serif" font-size="11" lengthAdjust="spacing" textLength="73.8418" x="115.4146" y="535.9917">Errors found?</text><text fill="#000000" font-family="sans-serif" font-size="11" lengthAdjust="spacing" textLength="19.0083" x="84.4063" y="529.5894">yes</text><text fill="#000000" font-family="sans-serif" font-size="11" lengthAdjust="spacing" textLength="13.7017" x="201.2563" y="529.5894">no</text><rect fill="#F1F1F1" height="33.9688" rx="12.5" ry="12.5" style="stroke:#181818;stroke-width:0.5;" width="99.9102" x="30.0898" y="554.1836"/><text fill="#000000" font-family="sans-serif" font-size="12" lengthAdjust="spacing" textLength="79.9102" x="40.0898" y="575.3223">Report errors</text><rect fill="#F1F1F1" height="33.9688" rx="12.5" ry="12.5" style="stroke:#181818;stroke-width:0.5;" width="138.0898" x="11" y="608.1523"/><text fill="#000000" font-family="sans-serif" font-size="12" lengthAdjust="spacing" textLength="118.0898" x="21" y="629.291">Exit with error code</text><rect fill="#F1F1F1" height="33.9688" rx="12.5" ry="12.5" style="stroke:#181818;stroke-width:0.5;" width="111.0723" x="169.0898" y="554.1836"/><text fill="#000000" font-family="sans-serif" font-size="12" lengthAdjust="spacing" textLength="91.0723" x="179.0898" y="575.3223">Report success</text><polygon fill="#F1F1F1" points="152.3354,648.1211,164.3354,660.1211,152.3354,672.1211,140.3354,660.1211,152.3354,648.1211" style="stroke:#181818;stroke-width:0.5;"/><ellipse cx="152.3354" cy="703.1211" fill="none" rx="11" ry="11" style="stroke:#222222;stroke-width:1.0;"/><ellipse cx="152.3354" cy="703.1211" fill="#222222" rx="6" ry="6" style="stroke:#222222;stroke-width:1.0;"/><line style="stroke:#181818;stroke-width:1.0;" x1="152.3354" x2="152.3354" y1="30" y2="50"/><polygon fill="#181818" points="148.3354,40,152.3354,50,156.3354,40,152.3354,44" style="stroke:#181818;stroke-width:1.0;"/><line style="stroke:#181818;stroke-width:1.0;" x1="152.3354" x2="152.3354" y1="83.9688" y2="103.9688"/><polygon fill="#181818" points="148.3354,93.9688,152.3354,103.9688,156.3354,93.9688,152.3354,97.9688" style="stroke:#181818;stroke-width:1.0;"/><line style="stroke:#181818;stroke-width:1.0;" x1="152.3354" x2="152.3354" y1="181.9375" y2="206.3398"/><polygon fill="#181818" points="148.3354,196.3398,152.3354,206.3398,156.3354,196.3398,152.3354,200.3398" style="stroke:#181818;stroke-width:1.0;"/><line style="stroke:#181818;stroke-width:1.0;" x1="201.7961" x2="248.7329" y1="169.9375" y2="169.9375"/><polygon fill="#181818" points="244.7329,213.3242,248.7329,223.3242,252.7329,213.3242,248.7329,217.3242" style="stroke:#181818;stroke-width:1.0;"/><line style="stroke:#181818;stroke-width:1.0;" x1="248.7329" x2="248.7329" y1="169.9375" y2="272.3086"/><line style="stroke:#181818;stroke-width:1.0;" x1="248.7329" x2="164.3354" y1="272.3086" y2="272.3086"/><polygon fill="#181818" points="174.3354,268.3086,164.3354,272.3086,174.3354,276.3086,170.3354,272.3086" style="stroke:#181818;stroke-width:1.0;"/><line style="stroke:#181818;stroke-width:1.0;" x1="152.3354" x2="152.3354" y1="240.3086" y2="260.3086"/><polygon fill="#181818" points="148.3354,250.3086,152.3354,260.3086,156.3354,250.3086,152.3354,254.3086" style="stroke:#181818;stroke-width:1.0;"/><line style="stroke:#181818;stroke-width:1.0;" x1="152.3354" x2="152.3354" y1="137.9375" y2="157.9375"/><polygon fill="#181818" points="148.3354,147.9375,152.3354,157.9375,156.3354,147.9375,152.3354,151.9375" style="stroke:#181818;stroke-width:1.0;"/><line style="stroke:#181818;stroke-width:1.0;" x1="152.3354" x2="152.3354" y1="284.3086" y2="304.3086"/><polygon fill="#181818" points="148.3354,294.3086,152.3354,304.3086,156.3354,294.3086,152.3354,298.3086" style="stroke:#181818;stroke-width:1.0;"/><line style="stroke:#181818;stroke-width:1.0;" x1="152.3354" x2="152.3354" y1="338.2773" y2="358.2773"/><polygon fill="#181818" points="148.3354,348.2773,152.3354,358.2773,156.3354,348.2773,152.3354,352.2773" style="stroke:#181818;stroke-width:1.0;"/><line style="stroke:#181818;stroke-width:1.0;" x1="152.3354" x2="152.3354" y1="392.2461" y2="412.2461"/><polygon fill="#181818" points="148.3354,402.2461,152.3354,412.2461,156.3354,402.2461,152.3354,406.2461" style="stroke:#181818;stroke-width:1.0;"/><line style="stroke:#181818;stroke-width:1.0;" x1="152.3354" x2="152.3354" y1="446.2148" y2="466.2148"/><polygon fill="#181818" points="148.3354,456.2148,152.3354,466.2148,156.3354,456.2148,152.3354,460.2148" style="stroke:#181818;stroke-width:1.0;"/><line style="stroke:#181818;stroke-width:1.0;" x1="80.0449" x2="80.0449" y1="588.1523" y2="608.1523"/><polygon fill="#181818" points="76.0449,598.1523,80.0449,608.1523,84.0449,598.1523,80.0449,602.1523" style="stroke:#181818;stroke-width:1.0;"/><line style="stroke:#181818;stroke-width:1.0;" x1="103.4146" x2="80.0449" y1="532.1836" y2="532.1836"/><line style="stroke:#181818;stroke-width:1.0;" x1="80.0449" x2="80.0449" y1="532.1836" y2="554.1836"/><polygon fill="#181818" points="76.0449,544.1836,80.0449,554.1836,84.0449,544.1836,80.0449,548.1836" style="stroke:#181818;stroke-width:1.0;"/><line style="stroke:#181818;stroke-width:1.0;" x1="201.2563" x2="224.626" y1="532.1836" y2="532.1836"/><line style="stroke:#181818;stroke-width:1.0;" x1="224.626" x2="224.626" y1="532.1836" y2="554.1836"/><polygon fill="#181818" points="220.626,544.1836,224.626,554.1836,228.626,544.1836,224.626,548.1836" style="stroke:#181818;stroke-width:1.0;"/><line style="stroke:#181818;stroke-width:1.0;" x1="80.0449" x2="80.0449" y1="642.1211" y2="660.1211"/><line style="stroke:#181818;stroke-width:1.0;" x1="80.0449" x2="140.3354" y1="660.1211" y2="660.1211"/><polygon fill="#181818" points="130.3354,656.1211,140.3354,660.1211,130.3354,664.1211,134.3354,660.1211" style="stroke:#181818;stroke-width:1.0;"/><line style="stroke:#181818;stroke-width:1.0;" x1="224.626" x2="224.626" y1="588.1523" y2="660.1211"/><line style="stroke:#181818;stroke-width:1.0;" x1="224.626" x2="164.3354" y1="660.1211" y2="660.1211"/><polygon fill="#181818" points="174.3354,656.1211,164.3354,660.1211,174.3354,664.1211,170.3354,660.1211" style="stroke:#181818;stroke-width:1.0;"/><line style="stroke:#181818;stroke-width:1.0;" x1="152.3354" x2="152.3354" y1="500.1836" y2="520.1836"/><polygon fill="#181818" points="148.3354,510.1836,152.3354,520.1836,156.3354,510.1836,152.3354,514.1836" style="stroke:#181818;stroke-width:1.0;"/><line style="stroke:#181818;stroke-width:1.0;" x1="152.3354" x2="152.3354" y1="672.1211" y2="692.1211"/><polygon fill="#181818" points="148.3354,682.1211,152.3354,692.1211,156.3354,682.1211,152.3354,686.1211" style="stroke:#181818;stroke-width:1.0;"/><!--SRC=[POz1JWCn34NtEOMNxO8Bp2mGGfrLGTM82vZ4eL4pSMGxbDwUpA0Y8PR-_jz-No-fL1HSu1tzvKEubV3CcGLCi6XVKJ6dlwv04LksYOkzuaAWtVIW92awfuPYRZWo1fZVZh1WIP7KHZVqavcyWN8JJn1J9XsTIn5sBnnQtYGZUTo3dQd0xaQwTm0mJ9iEng2LV8g90YnRP7HKmlftUAert-2AwPEadntcLY2dqdDzEA4e0JUhRIMPM1Oq4D9Uuyvm465HY6lx_mWpLHO3sapZ9Xs-ai4rsVb71SzXvSdzqwxmdvWsxqdrJgl6zHi0]--></g></svg>