<svg xmlns="http://www.w3.org/2000/svg" xmlns:xlink="http://www.w3.org/1999/xlink" contentStyleType="text/css" height="607px" preserveAspectRatio="none" style="width:187px;height:607px;" version="1.1" viewBox="0 0 187 607" width="187px" zoomAndPan="magnify"><defs/><g><ellipse cx="88.3623" cy="20" fill="#222222" rx="10" ry="10" style="stroke:#222222;stroke-width:1.0;"/><rect fill="#F1F1F1" height="33.9688" rx="12.5" ry="12.5" style="stroke:#181818;stroke-width:0.5;" width="109.5195" x="33.6025" y="50"/><text fill="#000000" font-family="sans-serif" font-size="12" lengthAdjust="spacing" textLength="89.5195" x="43.6025" y="71.1387">Parse manifest</text><rect fill="#F1F1F1" height="33.9688" rx="12.5" ry="12.5" style="stroke:#181818;stroke-width:0.5;" width="154.7246" x="11" y="103.9688"/><text fill="#000000" font-family="sans-serif" font-size="12" lengthAdjust="spacing" textLength="134.7246" x="21" y="125.1074">Resolve dependencies</text><rect fill="#F1F1F1" height="33.9688" rx="12.5" ry="12.5" style="stroke:#181818;stroke-width:0.5;" width="145.4258" x="15.6494" y="157.9375"/><text fill="#000000" font-family="sans-serif" font-size="12" lengthAdjust="spacing" textLength="125.4258" x="25.6494" y="179.0762">Compile RTL sources</text><rect fill="#F1F1F1" height="33.9688" rx="12.5" ry="12.5" style="stroke:#181818;stroke-width:0.5;" width="132.7461" x="21.9893" y="211.9063"/><text fill="#000000" font-family="sans-serif" font-size="12" lengthAdjust="spacing" textLength="112.7461" x="31.9893" y="233.0449">Compile testbench</text><rect fill="#F1F1F1" height="33.9688" rx="12.5" ry="12.5" style="stroke:#181818;stroke-width:0.5;" width="121.2266" x="27.749" y="265.875"/><text fill="#000000" font-family="sans-serif" font-size="12" lengthAdjust="spacing" textLength="101.2266" x="37.749" y="287.0137">Elaborate design</text><rect fill="#F1F1F1" height="33.9688" rx="12.5" ry="12.5" style="stroke:#181818;stroke-width:0.5;" width="109.918" x="33.4033" y="319.8438"/><text fill="#000000" font-family="sans-serif" font-size="12" lengthAdjust="spacing" textLength="89.918" x="43.4033" y="340.9824">Run simulation</text><rect fill="#F1F1F1" height="33.9688" rx="12.5" ry="12.5" style="stroke:#181818;stroke-width:0.5;" width="126.0605" x="25.332" y="422.2148"/><text fill="#000000" font-family="sans-serif" font-size="12" lengthAdjust="spacing" textLength="106.0605" x="35.332" y="443.3535">Dump waveforms</text><polygon fill="#F1F1F1" points="43.2478,373.8125,133.4768,373.8125,145.4768,385.8125,133.4768,397.8125,43.2478,397.8125,31.2478,385.8125,43.2478,373.8125" style="stroke:#181818;stroke-width:0.5;"/><text fill="#000000" font-family="sans-serif" font-size="11" lengthAdjust="spacing" textLength="19.0083" x="92.3623" y="408.0229">yes</text><text fill="#000000" font-family="sans-serif" font-size="11" lengthAdjust="spacing" textLength="90.229" x="43.2478" y="389.6206">Waves enabled?</text><polygon fill="#F1F1F1" points="88.3623,476.1836,100.3623,488.1836,88.3623,500.1836,76.3623,488.1836,88.3623,476.1836" style="stroke:#181818;stroke-width:0.5;"/><rect fill="#F1F1F1" height="33.9688" rx="12.5" ry="12.5" style="stroke:#181818;stroke-width:0.5;" width="104.5977" x="36.0635" y="520.1836"/><text fill="#000000" font-family="sans-serif" font-size="12" lengthAdjust="spacing" textLength="84.5977" x="46.0635" y="541.3223">Report results</text><ellipse cx="88.3623" cy="585.1523" fill="none" rx="11" ry="11" style="stroke:#222222;stroke-width:1.0;"/><ellipse cx="88.3623" cy="585.1523" fill="#222222" rx="6" ry="6" style="stroke:#222222;stroke-width:1.0;"/><line style="stroke:#181818;stroke-width:1.0;" x1="88.3623" x2="88.3623" y1="30" y2="50"/><polygon fill="#181818" points="84.3623,40,88.3623,50,92.3623,40,88.3623,44" style="stroke:#181818;stroke-width:1.0;"/><line style="stroke:#181818;stroke-width:1.0;" x1="88.3623" x2="88.3623" y1="83.9688" y2="103.9688"/><polygon fill="#181818" points="84.3623,93.9688,88.3623,103.9688,92.3623,93.9688,88.3623,97.9688" style="stroke:#181818;stroke-width:1.0;"/><line style="stroke:#181818;stroke-width:1.0;" x1="88.3623" x2="88.3623" y1="137.9375" y2="157.9375"/><polygon fill="#181818" points="84.3623,147.9375,88.3623,157.9375,92.3623,147.9375,88.3623,151.9375" style="stroke:#181818;stroke-width:1.0;"/><line style="stroke:#181818;stroke-width:1.0;" x1="88.3623" x2="88.3623" y1="191.9063" y2="211.9063"/><polygon fill="#181818" points="84.3623,201.9063,88.3623,211.9063,92.3623,201.9063,88.3623,205.9063" style="stroke:#181818;stroke-width:1.0;"/><line style="stroke:#181818;stroke-width:1.0;" x1="88.3623" x2="88.3623" y1="245.875" y2="265.875"/><polygon fill="#181818" points="84.3623,255.875,88.3623,265.875,92.3623,255.875,88.3623,259.875" style="stroke:#181818;stroke-width:1.0;"/><line style="stroke:#181818;stroke-width:1.0;" x1="88.3623" x2="88.3623" y1="299.8438" y2="319.8438"/><polygon fill="#181818" points="84.3623,309.8438,88.3623,319.8438,92.3623,309.8438,88.3623,313.8438" style="stroke:#181818;stroke-width:1.0;"/><line style="stroke:#181818;stroke-width:1.0;" x1="88.3623" x2="88.3623" y1="397.8125" y2="422.2148"/><polygon fill="#181818" points="84.3623,412.2148,88.3623,422.2148,92.3623,412.2148,88.3623,416.2148" style="stroke:#181818;stroke-width:1.0;"/><line style="stroke:#181818;stroke-width:1.0;" x1="145.4768" x2="161.3926" y1="385.8125" y2="385.8125"/><polygon fill="#181818" points="157.3926,429.1992,161.3926,439.1992,165.3926,429.1992,161.3926,433.1992" style="stroke:#181818;stroke-width:1.0;"/><line style="stroke:#181818;stroke-width:1.0;" x1="161.3926" x2="161.3926" y1="385.8125" y2="488.1836"/><line style="stroke:#181818;stroke-width:1.0;" x1="161.3926" x2="100.3623" y1="488.1836" y2="488.1836"/><polygon fill="#181818" points="110.3623,484.1836,100.3623,488.1836,110.3623,492.1836,106.3623,488.1836" style="stroke:#181818;stroke-width:1.0;"/><line style="stroke:#181818;stroke-width:1.0;" x1="88.3623" x2="88.3623" y1="456.1836" y2="476.1836"/><polygon fill="#181818" points="84.3623,466.1836,88.3623,476.1836,92.3623,466.1836,88.3623,470.1836" style="stroke:#181818;stroke-width:1.0;"/><line style="stroke:#181818;stroke-width:1.0;" x1="88.3623" x2="88.3623" y1="353.8125" y2="373.8125"/><polygon fill="#181818" points="84.3623,363.8125,88.3623,373.8125,92.3623,363.8125,88.3623,367.8125" style="stroke:#181818;stroke-width:1.0;"/><line style="stroke:#181818;stroke-width:1.0;" x1="88.3623" x2="88.3623" y1="500.1836" y2="520.1836"/><polygon fill="#181818" points="84.3623,510.1836,88.3623,520.1836,92.3623,510.1836,88.3623,514.1836" style="stroke:#181818;stroke-width:1.0;"/><line style="stroke:#181818;stroke-width:1.0;" x1="88.3623" x2="88.3623" y1="554.1523" y2="574.1523"/><polygon fill="#181818" points="84.3623,564.1523,88.3623,574.1523,92.3623,564.1523,88.3623,568.1523" style="stroke:#181818;stroke-width:1.0;"/><!--SRC=[LOynRWD124NxEGMbNVW2coA5OrTH55cHKhExZ3to38o0SPJRXsqYkNsy3n-x5-wes636vNvL6RmUfOg2AxB5YDYJ_LihPHpLpyB-WOt0GZeOQSafcQDwcZvHZQ0XbqpcBscwa4bzK6GxyKgy5BB0HsczL8BBrpkO35sUg4Ts3lSMx5Hn5aNVLbYvyhPpC5Xfew8N2P1AXjqtFiY06ETAw-iU_4OCkr-oVGAOtaRhy1DA5crnAhfihQDU5tLGidWikBdqFm00]--></g></svg>