<svg xmlns="http://www.w3.org/2000/svg" xmlns:xlink="http://www.w3.org/1999/xlink" contentStyleType="text/css" height="170px" preserveAspectRatio="none" style="width:848px;height:170px;" version="1.1" viewBox="0 0 848 170" width="848px" zoomAndPan="magnify"><defs/><g><!--class sim--><g id="elem_sim"><rect codeLine="4" fill="#F1F1F1" height="48" id="sim" rx="2.5" ry="2.5" style="stroke:#181818;stroke-width:0.5;" width="159.9277" x="161" y="7"/><ellipse cx="176" cy="23" fill="#B4A7E5" rx="11" ry="11" style="stroke:#181818;stroke-width:1.0;"/><path d="M171.9219,18.7656 L171.9219,16.6094 L179.3125,16.6094 L179.3125,18.7656 L176.8438,18.7656 L176.8438,26.8438 L179.3125,26.8438 L179.3125,29 L171.9219,29 L171.9219,26.8438 L174.3906,26.8438 L174.3906,18.7656 L171.9219,18.7656 Z " fill="#000000"/><text fill="#000000" font-family="sans-serif" font-size="14" font-style="italic" lengthAdjust="spacing" textLength="127.9277" x="190" y="27.8467">SimulatorBackend</text><line style="stroke:#181818;stroke-width:0.5;" x1="162" x2="319.9277" y1="39" y2="39"/><line style="stroke:#181818;stroke-width:0.5;" x1="162" x2="319.9277" y1="47" y2="47"/></g><!--class synth--><g id="elem_synth"><rect codeLine="5" fill="#F1F1F1" height="48" id="synth" rx="2.5" ry="2.5" style="stroke:#181818;stroke-width:0.5;" width="132.7686" x="622.5" y="7"/><ellipse cx="637.5" cy="23" fill="#B4A7E5" rx="11" ry="11" style="stroke:#181818;stroke-width:1.0;"/><path d="M633.4219,18.7656 L633.4219,16.6094 L640.8125,16.6094 L640.8125,18.7656 L638.3438,18.7656 L638.3438,26.8438 L640.8125,26.8438 L640.8125,29 L633.4219,29 L633.4219,26.8438 L635.8906,26.8438 L635.8906,18.7656 L633.4219,18.7656 Z " fill="#000000"/><text fill="#000000" font-family="sans-serif" font-size="14" font-style="italic" lengthAdjust="spacing" textLength="100.7686" x="651.5" y="27.8467">SynthBackend</text><line style="stroke:#181818;stroke-width:0.5;" x1="623.5" x2="754.2686" y1="39" y2="39"/><line style="stroke:#181818;stroke-width:0.5;" x1="623.5" x2="754.2686" y1="47" y2="47"/></g><!--class XSimBackend--><g id="elem_XSimBackend"><rect codeLine="7" fill="#F1F1F1" height="48" id="XSimBackend" rx="2.5" ry="2.5" style="stroke:#181818;stroke-width:0.5;" width="128.3662" x="7" y="115"/><ellipse cx="22" cy="131" fill="#ADD1B2" rx="11" ry="11" style="stroke:#181818;stroke-width:1.0;"/><path d="M24.9688,136.6406 Q24.3906,136.9375 23.75,137.0781 Q23.1094,137.2344 22.4063,137.2344 Q19.9063,137.2344 18.5781,135.5938 Q17.2656,133.9375 17.2656,130.8125 Q17.2656,127.6875 18.5781,126.0313 Q19.9063,124.375 22.4063,124.375 Q23.1094,124.375 23.75,124.5313 Q24.4063,124.6875 24.9688,124.9844 L24.9688,127.7031 Q24.3438,127.125 23.75,126.8594 Q23.1563,126.5781 22.5313,126.5781 Q21.1875,126.5781 20.5,127.6563 Q19.8125,128.7188 19.8125,130.8125 Q19.8125,132.9063 20.5,133.9844 Q21.1875,135.0469 22.5313,135.0469 Q23.1563,135.0469 23.75,134.7813 Q24.3438,134.5 24.9688,133.9219 L24.9688,136.6406 Z " fill="#000000"/><text fill="#000000" font-family="sans-serif" font-size="14" lengthAdjust="spacing" textLength="96.3662" x="36" y="135.8467">XSimBackend</text><line style="stroke:#181818;stroke-width:0.5;" x1="8" x2="134.3662" y1="147" y2="147"/><line style="stroke:#181818;stroke-width:0.5;" x1="8" x2="134.3662" y1="155" y2="155"/></g><!--class QuestaBackend--><g id="elem_QuestaBackend"><rect codeLine="8" fill="#F1F1F1" height="48" id="QuestaBackend" rx="2.5" ry="2.5" style="stroke:#181818;stroke-width:0.5;" width="142.2295" x="170" y="115"/><ellipse cx="185" cy="131" fill="#ADD1B2" rx="11" ry="11" style="stroke:#181818;stroke-width:1.0;"/><path d="M187.9688,136.6406 Q187.3906,136.9375 186.75,137.0781 Q186.1094,137.2344 185.4063,137.2344 Q182.9063,137.2344 181.5781,135.5938 Q180.2656,133.9375 180.2656,130.8125 Q180.2656,127.6875 181.5781,126.0313 Q182.9063,124.375 185.4063,124.375 Q186.1094,124.375 186.75,124.5313 Q187.4063,124.6875 187.9688,124.9844 L187.9688,127.7031 Q187.3438,127.125 186.75,126.8594 Q186.1563,126.5781 185.5313,126.5781 Q184.1875,126.5781 183.5,127.6563 Q182.8125,128.7188 182.8125,130.8125 Q182.8125,132.9063 183.5,133.9844 Q184.1875,135.0469 185.5313,135.0469 Q186.1563,135.0469 186.75,134.7813 Q187.3438,134.5 187.9688,133.9219 L187.9688,136.6406 Z " fill="#000000"/><text fill="#000000" font-family="sans-serif" font-size="14" lengthAdjust="spacing" textLength="110.2295" x="199" y="135.8467">QuestaBackend</text><line style="stroke:#181818;stroke-width:0.5;" x1="171" x2="311.2295" y1="147" y2="147"/><line style="stroke:#181818;stroke-width:0.5;" x1="171" x2="311.2295" y1="155" y2="155"/></g><!--class VerilatorBackend--><g id="elem_VerilatorBackend"><rect codeLine="9" fill="#F1F1F1" height="48" id="VerilatorBackend" rx="2.5" ry="2.5" style="stroke:#181818;stroke-width:0.5;" width="152.4766" x="347" y="115"/><ellipse cx="362" cy="131" fill="#ADD1B2" rx="11" ry="11" style="stroke:#181818;stroke-width:1.0;"/><path d="M364.9688,136.6406 Q364.3906,136.9375 363.75,137.0781 Q363.1094,137.2344 362.4063,137.2344 Q359.9063,137.2344 358.5781,135.5938 Q357.2656,133.9375 357.2656,130.8125 Q357.2656,127.6875 358.5781,126.0313 Q359.9063,124.375 362.4063,124.375 Q363.1094,124.375 363.75,124.5313 Q364.4063,124.6875 364.9688,124.9844 L364.9688,127.7031 Q364.3438,127.125 363.75,126.8594 Q363.1563,126.5781 362.5313,126.5781 Q361.1875,126.5781 360.5,127.6563 Q359.8125,128.7188 359.8125,130.8125 Q359.8125,132.9063 360.5,133.9844 Q361.1875,135.0469 362.5313,135.0469 Q363.1563,135.0469 363.75,134.7813 Q364.3438,134.5 364.9688,133.9219 L364.9688,136.6406 Z " fill="#000000"/><text fill="#000000" font-family="sans-serif" font-size="14" lengthAdjust="spacing" textLength="120.4766" x="376" y="135.8467">VerilatorBackend</text><line style="stroke:#181818;stroke-width:0.5;" x1="348" x2="498.4766" y1="147" y2="147"/><line style="stroke:#181818;stroke-width:0.5;" x1="348" x2="498.4766" y1="155" y2="155"/></g><!--class VivadoBackend--><g id="elem_VivadoBackend"><rect codeLine="11" fill="#F1F1F1" height="48" id="VivadoBackend" rx="2.5" ry="2.5" style="stroke:#181818;stroke-width:0.5;" width="140.1445" x="534" y="115"/><ellipse cx="549" cy="131" fill="#ADD1B2" rx="11" ry="11" style="stroke:#181818;stroke-width:1.0;"/><path d="M551.9688,136.6406 Q551.3906,136.9375 550.75,137.0781 Q550.1094,137.2344 549.4063,137.2344 Q546.9063,137.2344 545.5781,135.5938 Q544.2656,133.9375 544.2656,130.8125 Q544.2656,127.6875 545.5781,126.0313 Q546.9063,124.375 549.4063,124.375 Q550.1094,124.375 550.75,124.5313 Q551.4063,124.6875 551.9688,124.9844 L551.9688,127.7031 Q551.3438,127.125 550.75,126.8594 Q550.1563,126.5781 549.5313,126.5781 Q548.1875,126.5781 547.5,127.6563 Q546.8125,128.7188 546.8125,130.8125 Q546.8125,132.9063 547.5,133.9844 Q548.1875,135.0469 549.5313,135.0469 Q550.1563,135.0469 550.75,134.7813 Q551.3438,134.5 551.9688,133.9219 L551.9688,136.6406 Z " fill="#000000"/><text fill="#000000" font-family="sans-serif" font-size="14" lengthAdjust="spacing" textLength="108.1445" x="563" y="135.8467">VivadoBackend</text><line style="stroke:#181818;stroke-width:0.5;" x1="535" x2="673.1445" y1="147" y2="147"/><line style="stroke:#181818;stroke-width:0.5;" x1="535" x2="673.1445" y1="155" y2="155"/></g><!--class YosysBackend--><g id="elem_YosysBackend"><rect codeLine="12" fill="#F1F1F1" height="48" id="YosysBackend" rx="2.5" ry="2.5" style="stroke:#181818;stroke-width:0.5;" width="132.3516" x="709" y="115"/><ellipse cx="724" cy="131" fill="#ADD1B2" rx="11" ry="11" style="stroke:#181818;stroke-width:1.0;"/><path d="M726.9688,136.6406 Q726.3906,136.9375 725.75,137.0781 Q725.1094,137.2344 724.4063,137.2344 Q721.9063,137.2344 720.5781,135.5938 Q719.2656,133.9375 719.2656,130.8125 Q719.2656,127.6875 720.5781,126.0313 Q721.9063,124.375 724.4063,124.375 Q725.1094,124.375 725.75,124.5313 Q726.4063,124.6875 726.9688,124.9844 L726.9688,127.7031 Q726.3438,127.125 725.75,126.8594 Q725.1563,126.5781 724.5313,126.5781 Q723.1875,126.5781 722.5,127.6563 Q721.8125,128.7188 721.8125,130.8125 Q721.8125,132.9063 722.5,133.9844 Q723.1875,135.0469 724.5313,135.0469 Q725.1563,135.0469 725.75,134.7813 Q726.3438,134.5 726.9688,133.9219 L726.9688,136.6406 Z " fill="#000000"/><text fill="#000000" font-family="sans-serif" font-size="14" lengthAdjust="spacing" textLength="100.3516" x="738" y="135.8467">YosysBackend</text><line style="stroke:#181818;stroke-width:0.5;" x1="710" x2="840.3516" y1="147" y2="147"/><line style="stroke:#181818;stroke-width:0.5;" x1="710" x2="840.3516" y1="155" y2="155"/></g><!--reverse link sim to XSimBackend--><g id="link_sim_XSimBackend"><path codeLine="14" d="M188.8373,64.526 C160.4273,82.246 136.58,97.11 108.11,114.86 " fill="none" id="sim-backto-XSimBackend" style="stroke:#181818;stroke-width:1.0;stroke-dasharray:7.0,7.0;"/><polygon fill="none" points="204.11,55,185.662,59.4351,192.0126,69.6169,204.11,55" style="stroke:#181818;stroke-width:1.0;"/></g><!--reverse link sim to QuestaBackend--><g id="link_sim_QuestaBackend"><path codeLine="15" d="M241,73 C241,90.66 241,96.94 241,114.68 " fill="none" id="sim-backto-QuestaBackend" style="stroke:#181818;stroke-width:1.0;stroke-dasharray:7.0,7.0;"/><polygon fill="none" points="241,55,235,73,247,73,241,55" style="stroke:#181818;stroke-width:1.0;"/></g><!--reverse link sim to VerilatorBackend--><g id="link_sim_VerilatorBackend"><path codeLine="16" d="M296.0436,64.0601 C326.4636,81.7801 352.79,97.11 383.27,114.86 " fill="none" id="sim-backto-VerilatorBackend" style="stroke:#181818;stroke-width:1.0;stroke-dasharray:7.0,7.0;"/><polygon fill="none" points="280.49,55,293.0235,69.2447,299.0636,58.8756,280.49,55" style="stroke:#181818;stroke-width:1.0;"/></g><!--reverse link synth to VivadoBackend--><g id="link_synth_VivadoBackend"><path codeLine="18" d="M659.3,69.0432 C645.14,86.7032 636.92,96.94 622.7,114.68 " fill="none" id="synth-backto-VivadoBackend" style="stroke:#181818;stroke-width:1.0;stroke-dasharray:7.0,7.0;"/><polygon fill="none" points="670.56,55,654.6189,65.2899,663.9811,72.7966,670.56,55" style="stroke:#181818;stroke-width:1.0;"/></g><!--reverse link synth to YosysBackend--><g id="link_synth_YosysBackend"><path codeLine="19" d="M719.0017,68.9773 C733.3317,86.6373 741.69,96.94 756.08,114.68 " fill="none" id="synth-backto-YosysBackend" style="stroke:#181818;stroke-width:1.0;stroke-dasharray:7.0,7.0;"/><polygon fill="none" points="707.66,55,714.3426,72.7579,723.6608,65.1967,707.66,55" style="stroke:#181818;stroke-width:1.0;"/></g><!--SRC=[POv12i8m44NtESNWtfx0bO9BGOIYox6PQcWoaSnKA7XuezJGuFQ_F_-D38uVc3305RlXbkB8TXTzJA09MJ8YLYEbPQd7qUi-iXum44WkhOMIwurnh9Hwx0XM9nT6ZnhJDgyIsnMWWBXGTIRMUyK_WJ6THn4uvuaPpibn956iipQRbvxVTUkUQ6FTlKIPfFJoCx1vDKqbAc7jAl6_xllp32ld0Yp5Rm00]--></g></svg>