<svg xmlns="http://www.w3.org/2000/svg" xmlns:xlink="http://www.w3.org/1999/xlink" contentStyleType="text/css" height="762px" preserveAspectRatio="none" style="width:602px;height:762px;" version="1.1" viewBox="0 0 602 762" width="602px" zoomAndPan="magnify"><defs/><g><!--class ProjectConfig--><g id="elem_ProjectConfig"><rect codeLine="4" fill="#F1F1F1" height="178.375" id="ProjectConfig" rx="2.5" ry="2.5" style="stroke:#181818;stroke-width:0.5;" width="320.8477" x="274.5" y="7"/><ellipse cx="383.9878" cy="23" fill="#ADD1B2" rx="11" ry="11" style="stroke:#181818;stroke-width:1.0;"/><path d="M386.9565,28.6406 Q386.3784,28.9375 385.7378,29.0781 Q385.0972,29.2344 384.394,29.2344 Q381.894,29.2344 380.5659,27.5938 Q379.2534,25.9375 379.2534,22.8125 Q379.2534,19.6875 380.5659,18.0313 Q381.894,16.375 384.394,16.375 Q385.0972,16.375 385.7378,16.5313 Q386.394,16.6875 386.9565,16.9844 L386.9565,19.7031 Q386.3315,19.125 385.7378,18.8594 Q385.144,18.5781 384.519,18.5781 Q383.1753,18.5781 382.4878,19.6563 Q381.8003,20.7188 381.8003,22.8125 Q381.8003,24.9063 382.4878,25.9844 Q383.1753,27.0469 384.519,27.0469 Q385.144,27.0469 385.7378,26.7813 Q386.3315,26.5 386.9565,25.9219 L386.9565,28.6406 Z " fill="#000000"/><text fill="#000000" font-family="sans-serif" font-size="14" lengthAdjust="spacing" textLength="93.3721" x="404.4878" y="27.8467">ProjectConfig</text><line style="stroke:#181818;stroke-width:0.5;" x1="275.5" x2="594.3477" y1="39" y2="39"/><rect fill="none" height="6" style="stroke:#C82930;stroke-width:1.0;" width="6" x="282.5" y="49.6484"/><text fill="#000000" font-family="sans-serif" font-size="14" lengthAdjust="spacing" textLength="234.7939" x="294.5" y="55.9951">_units: Dict[str, Dict[str, UnitRef]]</text><rect fill="none" height="6" style="stroke:#C82930;stroke-width:1.0;" width="6" x="282.5" y="65.9453"/><text fill="#000000" font-family="sans-serif" font-size="14" lengthAdjust="spacing" textLength="294.8477" x="294.5" y="72.292">_components: Dict[str, Dict[str, Manifest]]</text><line style="stroke:#181818;stroke-width:1.0;" x1="275.5" x2="594.3477" y1="79.5938" y2="79.5938"/><ellipse cx="285.5" cy="93.2422" fill="#84BE84" rx="3" ry="3" style="stroke:#038048;stroke-width:1.0;"/><text fill="#000000" font-family="sans-serif" font-size="14" lengthAdjust="spacing" textLength="216.1523" x="294.5" y="96.5889">get_rtl_module(name): UnitRef</text><ellipse cx="285.5" cy="109.5391" fill="#84BE84" rx="3" ry="3" style="stroke:#038048;stroke-width:1.0;"/><text fill="#000000" font-family="sans-serif" font-size="14" lengthAdjust="spacing" textLength="211.3809" x="294.5" y="112.8857">get_testbench(name): UnitRef</text><ellipse cx="285.5" cy="125.8359" fill="#84BE84" rx="3" ry="3" style="stroke:#038048;stroke-width:1.0;"/><text fill="#000000" font-family="sans-serif" font-size="14" lengthAdjust="spacing" textLength="245.5879" x="294.5" y="129.1826">get_firmware_build(name): UnitRef</text><ellipse cx="285.5" cy="142.1328" fill="#84BE84" rx="3" ry="3" style="stroke:#038048;stroke-width:1.0;"/><text fill="#000000" font-family="sans-serif" font-size="14" lengthAdjust="spacing" textLength="235.0264" x="294.5" y="145.4795">get_package_unit(name): UnitRef</text><ellipse cx="285.5" cy="158.4297" fill="#84BE84" rx="3" ry="3" style="stroke:#038048;stroke-width:1.0;"/><text fill="#000000" font-family="sans-serif" font-size="14" lengthAdjust="spacing" textLength="248.2129" x="294.5" y="161.7764">resolve_rtl_deps(unit): List[UnitRef]</text><ellipse cx="285.5" cy="174.7266" fill="#84BE84" rx="3" ry="3" style="stroke:#038048;stroke-width:1.0;"/><text fill="#000000" font-family="sans-serif" font-size="14" lengthAdjust="spacing" textLength="279.6787" x="294.5" y="178.0732">resolve_package_deps(tb): List[UnitRef]</text></g><!--class UnitRef--><g id="elem_UnitRef"><rect codeLine="16" fill="#F1F1F1" height="145.7813" id="UnitRef" rx="2.5" ry="2.5" style="stroke:#181818;stroke-width:0.5;" width="161.7139" x="214" y="262"/><ellipse cx="264.7227" cy="278" fill="#ADD1B2" rx="11" ry="11" style="stroke:#181818;stroke-width:1.0;"/><path d="M267.6914,283.6406 Q267.1133,283.9375 266.4727,284.0781 Q265.832,284.2344 265.1289,284.2344 Q262.6289,284.2344 261.3008,282.5938 Q259.9883,280.9375 259.9883,277.8125 Q259.9883,274.6875 261.3008,273.0313 Q262.6289,271.375 265.1289,271.375 Q265.832,271.375 266.4727,271.5313 Q267.1289,271.6875 267.6914,271.9844 L267.6914,274.7031 Q267.0664,274.125 266.4727,273.8594 Q265.8789,273.5781 265.2539,273.5781 Q263.9102,273.5781 263.2227,274.6563 Q262.5352,275.7188 262.5352,277.8125 Q262.5352,279.9063 263.2227,280.9844 Q263.9102,282.0469 265.2539,282.0469 Q265.8789,282.0469 266.4727,281.7813 Q267.0664,281.5 267.6914,280.9219 L267.6914,283.6406 Z " fill="#000000"/><text fill="#000000" font-family="sans-serif" font-size="14" lengthAdjust="spacing" textLength="51.7686" x="285.2227" y="282.8467">UnitRef</text><line style="stroke:#181818;stroke-width:0.5;" x1="215" x2="374.7139" y1="294" y2="294"/><ellipse cx="225" cy="307.6484" fill="none" rx="3" ry="3" style="stroke:#038048;stroke-width:1.0;"/><text fill="#000000" font-family="sans-serif" font-size="14" lengthAdjust="spacing" textLength="57.4629" x="234" y="310.9951">kind: str</text><ellipse cx="225" cy="323.9453" fill="none" rx="3" ry="3" style="stroke:#038048;stroke-width:1.0;"/><text fill="#000000" font-family="sans-serif" font-size="14" lengthAdjust="spacing" textLength="67.4092" x="234" y="327.292">name: str</text><ellipse cx="225" cy="340.2422" fill="none" rx="3" ry="3" style="stroke:#038048;stroke-width:1.0;"/><text fill="#000000" font-family="sans-serif" font-size="14" lengthAdjust="spacing" textLength="127.2852" x="234" y="343.5889">manifest_type: str</text><ellipse cx="225" cy="356.5391" fill="none" rx="3" ry="3" style="stroke:#038048;stroke-width:1.0;"/><text fill="#000000" font-family="sans-serif" font-size="14" lengthAdjust="spacing" textLength="135.7139" x="234" y="359.8857">manifest_name: str</text><ellipse cx="225" cy="372.8359" fill="none" rx="3" ry="3" style="stroke:#038048;stroke-width:1.0;"/><text fill="#000000" font-family="sans-serif" font-size="14" lengthAdjust="spacing" textLength="97.207" x="234" y="376.1826">manifest: Any</text><ellipse cx="225" cy="389.1328" fill="none" rx="3" ry="3" style="stroke:#038048;stroke-width:1.0;"/><text fill="#000000" font-family="sans-serif" font-size="14" lengthAdjust="spacing" textLength="57.2441" x="234" y="392.4795">obj: Any</text><line style="stroke:#181818;stroke-width:0.5;" x1="215" x2="374.7139" y1="399.7813" y2="399.7813"/></g><!--class RTLManifest--><g id="elem_RTLManifest"><rect codeLine="25" fill="#F1F1F1" height="80.5938" id="RTLManifest" rx="2.5" ry="2.5" style="stroke:#181818;stroke-width:0.5;" width="222.1914" x="363" y="493"/><ellipse cx="426.9331" cy="509" fill="#ADD1B2" rx="11" ry="11" style="stroke:#181818;stroke-width:1.0;"/><path d="M429.9019,514.6406 Q429.3237,514.9375 428.6831,515.0781 Q428.0425,515.2344 427.3394,515.2344 Q424.8394,515.2344 423.5112,513.5938 Q422.1987,511.9375 422.1987,508.8125 Q422.1987,505.6875 423.5112,504.0313 Q424.8394,502.375 427.3394,502.375 Q428.0425,502.375 428.6831,502.5313 Q429.3394,502.6875 429.9019,502.9844 L429.9019,505.7031 Q429.2769,505.125 428.6831,504.8594 Q428.0894,504.5781 427.4644,504.5781 Q426.1206,504.5781 425.4331,505.6563 Q424.7456,506.7188 424.7456,508.8125 Q424.7456,510.9063 425.4331,511.9844 Q426.1206,513.0469 427.4644,513.0469 Q428.0894,513.0469 428.6831,512.7813 Q429.2769,512.5 429.9019,511.9219 L429.9019,514.6406 Z " fill="#000000"/><text fill="#000000" font-family="sans-serif" font-size="14" lengthAdjust="spacing" textLength="85.8252" x="447.4331" y="513.8467">RTLManifest</text><line style="stroke:#181818;stroke-width:0.5;" x1="364" x2="584.1914" y1="525" y2="525"/><ellipse cx="374" cy="538.6484" fill="none" rx="3" ry="3" style="stroke:#038048;stroke-width:1.0;"/><text fill="#000000" font-family="sans-serif" font-size="14" lengthAdjust="spacing" textLength="181.3096" x="383" y="541.9951">modules: List[RTLModule]</text><ellipse cx="374" cy="554.9453" fill="none" rx="3" ry="3" style="stroke:#038048;stroke-width:1.0;"/><text fill="#000000" font-family="sans-serif" font-size="14" lengthAdjust="spacing" textLength="196.1914" x="383" y="558.292">packages: List[RTLPackage]</text><line style="stroke:#181818;stroke-width:0.5;" x1="364" x2="584.1914" y1="565.5938" y2="565.5938"/></g><!--class RTLModule--><g id="elem_RTLModule"><rect codeLine="30" fill="#F1F1F1" height="96.8906" id="RTLModule" rx="2.5" ry="2.5" style="stroke:#181818;stroke-width:0.5;" width="196.1602" x="7" y="659"/><ellipse cx="62.3369" cy="675" fill="#ADD1B2" rx="11" ry="11" style="stroke:#181818;stroke-width:1.0;"/><path d="M65.3057,680.6406 Q64.7275,680.9375 64.0869,681.0781 Q63.4463,681.2344 62.7432,681.2344 Q60.2432,681.2344 58.915,679.5938 Q57.6025,677.9375 57.6025,674.8125 Q57.6025,671.6875 58.915,670.0313 Q60.2432,668.375 62.7432,668.375 Q63.4463,668.375 64.0869,668.5313 Q64.7432,668.6875 65.3057,668.9844 L65.3057,671.7031 Q64.6807,671.125 64.0869,670.8594 Q63.4932,670.5781 62.8682,670.5781 Q61.5244,670.5781 60.8369,671.6563 Q60.1494,672.7188 60.1494,674.8125 Q60.1494,676.9063 60.8369,677.9844 Q61.5244,679.0469 62.8682,679.0469 Q63.4932,679.0469 64.0869,678.7813 Q64.6807,678.5 65.3057,677.9219 L65.3057,680.6406 Z " fill="#000000"/><text fill="#000000" font-family="sans-serif" font-size="14" lengthAdjust="spacing" textLength="76.9863" x="82.8369" y="679.8467">RTLModule</text><line style="stroke:#181818;stroke-width:0.5;" x1="8" x2="202.1602" y1="691" y2="691"/><ellipse cx="18" cy="704.6484" fill="none" rx="3" ry="3" style="stroke:#038048;stroke-width:1.0;"/><text fill="#000000" font-family="sans-serif" font-size="14" lengthAdjust="spacing" textLength="67.4092" x="27" y="707.9951">name: str</text><ellipse cx="18" cy="720.9453" fill="none" rx="3" ry="3" style="stroke:#038048;stroke-width:1.0;"/><text fill="#000000" font-family="sans-serif" font-size="14" lengthAdjust="spacing" textLength="91.7178" x="27" y="724.292">files: List[str]</text><ellipse cx="18" cy="737.2422" fill="none" rx="3" ry="3" style="stroke:#038048;stroke-width:1.0;"/><text fill="#000000" font-family="sans-serif" font-size="14" lengthAdjust="spacing" textLength="170.1602" x="27" y="740.5889">dependencies: List[Dict]</text><line style="stroke:#181818;stroke-width:0.5;" x1="8" x2="202.1602" y1="747.8906" y2="747.8906"/></g><!--class Testbench--><g id="elem_Testbench"><rect codeLine="36" fill="#F1F1F1" height="96.8906" id="Testbench" rx="2.5" ry="2.5" style="stroke:#181818;stroke-width:0.5;" width="196.1602" x="132" y="485"/><ellipse cx="189.3843" cy="501" fill="#ADD1B2" rx="11" ry="11" style="stroke:#181818;stroke-width:1.0;"/><path d="M192.353,506.6406 Q191.7749,506.9375 191.1343,507.0781 Q190.4937,507.2344 189.7905,507.2344 Q187.2905,507.2344 185.9624,505.5938 Q184.6499,503.9375 184.6499,500.8125 Q184.6499,497.6875 185.9624,496.0313 Q187.2905,494.375 189.7905,494.375 Q190.4937,494.375 191.1343,494.5313 Q191.7905,494.6875 192.353,494.9844 L192.353,497.7031 Q191.728,497.125 191.1343,496.8594 Q190.5405,496.5781 189.9155,496.5781 Q188.5718,496.5781 187.8843,497.6563 Q187.1968,498.7188 187.1968,500.8125 Q187.1968,502.9063 187.8843,503.9844 Q188.5718,505.0469 189.9155,505.0469 Q190.5405,505.0469 191.1343,504.7813 Q191.728,504.5 192.353,503.9219 L192.353,506.6406 Z " fill="#000000"/><text fill="#000000" font-family="sans-serif" font-size="14" lengthAdjust="spacing" textLength="72.8916" x="209.8843" y="505.8467">Testbench</text><line style="stroke:#181818;stroke-width:0.5;" x1="133" x2="327.1602" y1="517" y2="517"/><ellipse cx="143" cy="530.6484" fill="none" rx="3" ry="3" style="stroke:#038048;stroke-width:1.0;"/><text fill="#000000" font-family="sans-serif" font-size="14" lengthAdjust="spacing" textLength="67.4092" x="152" y="533.9951">name: str</text><ellipse cx="143" cy="546.9453" fill="none" rx="3" ry="3" style="stroke:#038048;stroke-width:1.0;"/><text fill="#000000" font-family="sans-serif" font-size="14" lengthAdjust="spacing" textLength="91.7178" x="152" y="550.292">files: List[str]</text><ellipse cx="143" cy="563.2422" fill="none" rx="3" ry="3" style="stroke:#038048;stroke-width:1.0;"/><text fill="#000000" font-family="sans-serif" font-size="14" lengthAdjust="spacing" textLength="170.1602" x="152" y="566.5889">dependencies: List[Dict]</text><line style="stroke:#181818;stroke-width:0.5;" x1="133" x2="327.1602" y1="573.8906" y2="573.8906"/></g><!--reverse link ProjectConfig to UnitRef--><g id="link_ProjectConfig_UnitRef"><path codeLine="42" d="M376.7659,195.5815 C361.8359,220.8515 351.85,237.75 337.57,261.93 " fill="none" id="ProjectConfig-backto-UnitRef" style="stroke:#181818;stroke-width:1.0;"/><polygon fill="#181818" points="382.87,185.25,376.3741,188.3811,376.7659,195.5815,383.2618,192.4505,382.87,185.25" style="stroke:#181818;stroke-width:1.0;"/><text fill="#000000" font-family="sans-serif" font-size="13" lengthAdjust="spacing" textLength="55.0278" x="366" y="228.0669">contains</text><text fill="#000000" font-family="sans-serif" font-size="13" lengthAdjust="spacing" textLength="8.271" x="370.2393" y="205.319">1</text><text fill="#000000" font-family="sans-serif" font-size="13" lengthAdjust="spacing" textLength="6.5" x="335.6912" y="250.7062">*</text></g><!--reverse link ProjectConfig to RTLManifest--><g id="link_ProjectConfig_RTLManifest"><path codeLine="43" d="M446.2255,197.1499 C453.6955,265.9399 462.44,351.98 469,438 C470.37,456.02 471.49,476 472.32,492.93 " fill="none" id="ProjectConfig-backto-RTLManifest" style="stroke:#181818;stroke-width:1.0;"/><polygon fill="#181818" points="444.93,185.22,441.6011,191.6168,446.2255,197.1499,449.5544,190.7531,444.93,185.22" style="stroke:#181818;stroke-width:1.0;"/><text fill="#000000" font-family="sans-serif" font-size="13" lengthAdjust="spacing" textLength="61.5469" x="467" y="339.5669">discovers</text><text fill="#000000" font-family="sans-serif" font-size="13" lengthAdjust="spacing" textLength="8.271" x="437.4578" y="205.5884">1</text><text fill="#000000" font-family="sans-serif" font-size="13" lengthAdjust="spacing" textLength="6.5" x="465.5704" y="482.0799">*</text></g><!--reverse link RTLManifest to RTLModule--><g id="link_RTLManifest_RTLModule"><path codeLine="44" d="M378.0034,579.2495 C322.5634,605.0895 260.92,633.82 203.06,660.79 " fill="none" id="RTLManifest-backto-RTLModule" style="stroke:#181818;stroke-width:1.0;"/><polygon fill="#181818" points="388.88,574.18,381.7519,573.0892,378.0034,579.2495,385.1315,580.3403,388.88,574.18" style="stroke:#181818;stroke-width:1.0;"/><text fill="#000000" font-family="sans-serif" font-size="13" lengthAdjust="spacing" textLength="47.4487" x="301" y="625.0669">defines</text><text fill="#000000" font-family="sans-serif" font-size="13" lengthAdjust="spacing" textLength="8.271" x="367.2396" y="593.6657">1</text><text fill="#000000" font-family="sans-serif" font-size="13" lengthAdjust="spacing" textLength="6.5" x="211.1268" y="653.5467">*</text></g><!--link UnitRef to RTLModule--><g id="link_UnitRef_RTLModule"><path codeLine="45" d="M213.77,372.96 C169.65,397.8 119.1,435.14 94,485 C66.47,539.68 75.8663,606.0741 88.0863,652.9441 " fill="none" id="UnitRef-to-RTLModule" style="stroke:#181818;stroke-width:1.0;"/><polygon fill="#181818" points="89.6,658.75,91.2,649.032,88.3386,653.9117,83.4588,651.0503,89.6,658.75" style="stroke:#181818;stroke-width:1.0;"/><text fill="#000000" font-family="sans-serif" font-size="13" lengthAdjust="spacing" textLength="19.8174" x="95" y="538.0669">obj</text></g><!--link UnitRef to RTLManifest--><g id="link_UnitRef_RTLManifest"><path codeLine="46" d="M362.68,408.25 C371.89,418.21 381.21,428.33 390,438 C406.25,455.86 420.062,471.3282 435.082,488.2882 " fill="none" id="UnitRef-to-RTLManifest" style="stroke:#181818;stroke-width:1.0;"/><polygon fill="#181818" points="439.06,492.78,436.0876,483.3904,435.745,489.0369,430.0986,488.6943,439.06,492.78" style="stroke:#181818;stroke-width:1.0;"/><text fill="#000000" font-family="sans-serif" font-size="13" lengthAdjust="spacing" textLength="56.9258" x="404" y="451.0669">manifest</text></g><!--link UnitRef to Testbench--><g id="link_UnitRef_Testbench"><path codeLine="47" d="M239.76,408.06 C234.56,417.72 230.08,427.82 227,438 C222.53,452.77 221.4382,463.4381 222.2282,478.6181 " fill="none" id="UnitRef-to-Testbench" style="stroke:#181818;stroke-width:1.0;"/><polygon fill="#181818" points="222.54,484.61,226.0668,475.4143,222.2801,479.6168,218.0777,475.8301,222.54,484.61" style="stroke:#181818;stroke-width:1.0;"/><text fill="#000000" font-family="sans-serif" font-size="13" lengthAdjust="spacing" textLength="157.0347" x="228" y="451.0669">obj (for testbench units)</text></g><!--SRC=[hPCzJyCm48Rt_0ehKrl8m9e12HKn5LHLPQggo77EmMrYHpwdg4ByTnmdpWTjcLYY-ExnVRpdmwEG5TMq92bbnrohMcPBLIXDZAOIhGka2R2dCk2qBioBakQDba3GGX625Zm8M44HoLgh0p2pL9ABd7m5X90egQKm69DdmSmEZRuV_RrRrmRuVj-IJ9MLaZRf3VoLIi41JST7pVSk1vDeKoIboke2Pj9MDezzv9umzbeAadtS0hZGvQVjE4bhKMItgCeAHNDmFLrZDA0gJk0Aog32MGDQPYNGx7ot4z97TBH9BzXlhsrdQLMziqF9Oc9LSQUcak5KTZ8bvbnTCr-dO_8apywYqaDxw7DljYklVPU_LHkxQXk_CxIzTJsDlElMif-6T5UwWDEYk1Y2MriRrae4ChD35BslUHkZe5i_vVy9EdtEuKD85b54maNO3oCcp6u35HB_WCVgnIGJoDG9D0PZ-s- -bIPkTav8mC0dZAB7YT_Ewi8tvFApdI23IEuwcV5cutkZMzVv3m00]--></g></svg>