<svg xmlns="http://www.w3.org/2000/svg" xmlns:xlink="http://www.w3.org/1999/xlink" contentStyleType="text/css" height="1171px" preserveAspectRatio="none" style="width:398px;height:1171px;" version="1.1" viewBox="0 0 398 1171" width="398px" zoomAndPan="magnify"><defs/><g><ellipse cx="106.0298" cy="20" fill="#222222" rx="10" ry="10" style="stroke:#222222;stroke-width:1.0;"/><rect fill="#F1F1F1" height="33.9688" rx="12.5" ry="12.5" style="stroke:#181818;stroke-width:0.5;" width="107.4805" x="52.2896" y="50"/><text fill="#000000" font-family="sans-serif" font-size="12" lengthAdjust="spacing" textLength="87.4805" x="62.2896" y="71.1387">Load YAML file</text><rect fill="#F1F1F1" height="33.9688" rx="12.5" ry="12.5" style="stroke:#181818;stroke-width:0.5;" width="148.0859" x="31.9868" y="103.9688"/><text fill="#000000" font-family="sans-serif" font-size="12" lengthAdjust="spacing" textLength="128.0859" x="41.9868" y="125.1074">Parse YAML structure</text><rect fill="#F1F1F1" height="33.9688" rx="12.5" ry="12.5" style="stroke:#181818;stroke-width:0.5;" width="137.8438" x="37.1079" y="206.3398"/><text fill="#000000" font-family="sans-serif" font-size="12" lengthAdjust="spacing" textLength="117.8438" x="47.1079" y="227.4785">Return syntax error</text><ellipse cx="106.0298" cy="279.8242" fill="none" rx="11" ry="11" style="stroke:#222222;stroke-width:1.0;"/><ellipse cx="106.0298" cy="279.8242" fill="#222222" rx="6" ry="6" style="stroke:#222222;stroke-width:1.0;"/><polygon fill="#F1F1F1" points="72.7505,157.9375,139.3091,157.9375,151.3091,169.9375,139.3091,181.9375,72.7505,181.9375,60.7505,169.9375,72.7505,157.9375" style="stroke:#181818;stroke-width:0.5;"/><text fill="#000000" font-family="sans-serif" font-size="11" lengthAdjust="spacing" textLength="13.7017" x="110.0298" y="192.1479">no</text><text fill="#000000" font-family="sans-serif" font-size="11" lengthAdjust="spacing" textLength="66.5586" x="72.7505" y="173.7456">Valid YAML?</text><rect fill="#F1F1F1" height="33.9688" rx="12.5" ry="12.5" style="stroke:#181818;stroke-width:0.5;" width="159.8691" x="26.0952" y="332.8242"/><text fill="#000000" font-family="sans-serif" font-size="12" lengthAdjust="spacing" textLength="139.8691" x="36.0952" y="353.9629">Validate required fields</text><rect fill="#F1F1F1" height="33.9688" rx="12.5" ry="12.5" style="stroke:#181818;stroke-width:0.5;" width="173.5156" x="19.272" y="435.1953"/><text fill="#000000" font-family="sans-serif" font-size="12" lengthAdjust="spacing" textLength="153.5156" x="29.272" y="456.334">Return missing field error</text><ellipse cx="106.0298" cy="508.6797" fill="none" rx="11" ry="11" style="stroke:#222222;stroke-width:1.0;"/><ellipse cx="106.0298" cy="508.6797" fill="#222222" rx="6" ry="6" style="stroke:#222222;stroke-width:1.0;"/><polygon fill="#F1F1F1" points="32,386.793,180.0596,386.793,192.0596,398.793,180.0596,410.793,32,410.793,20,398.793,32,386.793" style="stroke:#181818;stroke-width:0.5;"/><text fill="#000000" font-family="sans-serif" font-size="11" lengthAdjust="spacing" textLength="13.7017" x="110.0298" y="421.0034">no</text><text fill="#000000" font-family="sans-serif" font-size="11" lengthAdjust="spacing" textLength="148.0596" x="32" y="402.6011">All required fields present?</text><rect fill="#F1F1F1" height="33.9688" rx="12.5" ry="12.5" style="stroke:#181818;stroke-width:0.5;" width="135.8691" x="38.0952" y="561.6797"/><text fill="#000000" font-family="sans-serif" font-size="12" lengthAdjust="spacing" textLength="115.8691" x="48.0952" y="582.8184">Validate field types</text><rect fill="#F1F1F1" height="33.9688" rx="12.5" ry="12.5" style="stroke:#181818;stroke-width:0.5;" width="124.5313" x="43.7642" y="664.0508"/><text fill="#000000" font-family="sans-serif" font-size="12" lengthAdjust="spacing" textLength="104.5313" x="53.7642" y="685.1895">Return type error</text><ellipse cx="106.0298" cy="737.5352" fill="none" rx="11" ry="11" style="stroke:#222222;stroke-width:1.0;"/><ellipse cx="106.0298" cy="737.5352" fill="#222222" rx="6" ry="6" style="stroke:#222222;stroke-width:1.0;"/><polygon fill="#F1F1F1" points="58.168,615.6484,153.8916,615.6484,165.8916,627.6484,153.8916,639.6484,58.168,639.6484,46.168,627.6484,58.168,615.6484" style="stroke:#181818;stroke-width:0.5;"/><text fill="#000000" font-family="sans-serif" font-size="11" lengthAdjust="spacing" textLength="13.7017" x="110.0298" y="649.8589">no</text><text fill="#000000" font-family="sans-serif" font-size="11" lengthAdjust="spacing" textLength="95.7236" x="58.168" y="631.4565">All types correct?</text><path d="M212.4741,780.5352 L212.4741,804.2344 L192.4741,808.2344 L212.4741,812.2344 L212.4741,835.9336 A0,0 0 0 0 212.4741,835.9336 L386.0527,835.9336 A0,0 0 0 0 386.0527,835.9336 L386.0527,790.5352 L376.0527,780.5352 L212.4741,780.5352 A0,0 0 0 0 212.4741,780.5352 " fill="#FEFFDD" style="stroke:#181818;stroke-width:0.5;"/><path d="M376.0527,780.5352 L376.0527,790.5352 L386.0527,790.5352 L376.0527,780.5352 " fill="#FEFFDD" style="stroke:#181818;stroke-width:0.5;"/><text fill="#000000" font-family="sans-serif" font-size="13" lengthAdjust="spacing" textLength="136.646" x="218.4741" y="797.6021">- Dependencies exist</text><text fill="#000000" font-family="sans-serif" font-size="13" lengthAdjust="spacing" textLength="132.6914" x="218.4741" y="812.7349">- File paths are valid</text><text fill="#000000" font-family="sans-serif" font-size="13" lengthAdjust="spacing" textLength="152.5786" x="218.4741" y="827.8677">- Module names unique</text><rect fill="#F1F1F1" height="33.9688" rx="12.5" ry="12.5" style="stroke:#181818;stroke-width:0.5;" width="172.8887" x="19.5854" y="791.25"/><text fill="#000000" font-family="sans-serif" font-size="12" lengthAdjust="spacing" textLength="152.8887" x="29.5854" y="812.3887">Validate cross-references</text><rect fill="#F1F1F1" height="33.9688" rx="12.5" ry="12.5" style="stroke:#181818;stroke-width:0.5;" width="155.5508" x="28.2544" y="904.3359"/><text fill="#000000" font-family="sans-serif" font-size="12" lengthAdjust="spacing" textLength="135.5508" x="38.2544" y="925.4746">Return reference error</text><ellipse cx="106.0298" cy="977.8203" fill="none" rx="11" ry="11" style="stroke:#222222;stroke-width:1.0;"/><ellipse cx="106.0298" cy="977.8203" fill="#222222" rx="6" ry="6" style="stroke:#222222;stroke-width:1.0;"/><polygon fill="#F1F1F1" points="57.2603,855.9336,154.7993,855.9336,166.7993,867.9336,154.7993,879.9336,57.2603,879.9336,45.2603,867.9336,57.2603,855.9336" style="stroke:#181818;stroke-width:0.5;"/><text fill="#000000" font-family="sans-serif" font-size="11" lengthAdjust="spacing" textLength="13.7017" x="110.0298" y="890.144">no</text><text fill="#000000" font-family="sans-serif" font-size="11" lengthAdjust="spacing" textLength="97.5391" x="57.2603" y="871.7417">References valid?</text><rect fill="#F1F1F1" height="33.9688" rx="12.5" ry="12.5" style="stroke:#181818;stroke-width:0.5;" width="157.291" x="27.3843" y="1030.8203"/><text fill="#000000" font-family="sans-serif" font-size="12" lengthAdjust="spacing" textLength="137.291" x="37.3843" y="1051.959">Create manifest object</text><rect fill="#F1F1F1" height="33.9688" rx="12.5" ry="12.5" style="stroke:#181818;stroke-width:0.5;" width="111.3242" x="50.3677" y="1084.7891"/><text fill="#000000" font-family="sans-serif" font-size="12" lengthAdjust="spacing" textLength="91.3242" x="60.3677" y="1105.9277">Return success</text><ellipse cx="106.0298" cy="1149.7578" fill="none" rx="11" ry="11" style="stroke:#222222;stroke-width:1.0;"/><ellipse cx="106.0298" cy="1149.7578" fill="#222222" rx="6" ry="6" style="stroke:#222222;stroke-width:1.0;"/><line style="stroke:#181818;stroke-width:1.0;" x1="106.0298" x2="106.0298" y1="30" y2="50"/><polygon fill="#181818" points="102.0298,40,106.0298,50,110.0298,40,106.0298,44" style="stroke:#181818;stroke-width:1.0;"/><line style="stroke:#181818;stroke-width:1.0;" x1="106.0298" x2="106.0298" y1="83.9688" y2="103.9688"/><polygon fill="#181818" points="102.0298,93.9688,106.0298,103.9688,110.0298,93.9688,106.0298,97.9688" style="stroke:#181818;stroke-width:1.0;"/><line style="stroke:#181818;stroke-width:1.0;" x1="106.0298" x2="106.0298" y1="240.3086" y2="268.8242"/><polygon fill="#181818" points="102.0298,258.8242,106.0298,268.8242,110.0298,258.8242,106.0298,262.8242" style="stroke:#181818;stroke-width:1.0;"/><line style="stroke:#181818;stroke-width:1.0;" x1="106.0298" x2="106.0298" y1="181.9375" y2="206.3398"/><polygon fill="#181818" points="102.0298,196.3398,106.0298,206.3398,110.0298,196.3398,106.0298,200.3398" style="stroke:#181818;stroke-width:1.0;"/><line style="stroke:#181818;stroke-width:1.0;" x1="151.3091" x2="184.9517" y1="169.9375" y2="169.9375"/><polygon fill="#181818" points="180.9517,238.8242,184.9517,248.8242,188.9517,238.8242,184.9517,242.8242" style="stroke:#181818;stroke-width:1.0;"/><line style="stroke:#181818;stroke-width:1.0;" x1="184.9517" x2="184.9517" y1="169.9375" y2="312.8242"/><line style="stroke:#181818;stroke-width:1.0;" x1="184.9517" x2="106.0298" y1="312.8242" y2="312.8242"/><line style="stroke:#181818;stroke-width:1.0;" x1="106.0298" x2="106.0298" y1="312.8242" y2="332.8242"/><polygon fill="#181818" points="102.0298,322.8242,106.0298,332.8242,110.0298,322.8242,106.0298,326.8242" style="stroke:#181818;stroke-width:1.0;"/><line style="stroke:#181818;stroke-width:1.0;" x1="106.0298" x2="106.0298" y1="137.9375" y2="157.9375"/><polygon fill="#181818" points="102.0298,147.9375,106.0298,157.9375,110.0298,147.9375,106.0298,151.9375" style="stroke:#181818;stroke-width:1.0;"/><line style="stroke:#181818;stroke-width:1.0;" x1="106.0298" x2="106.0298" y1="469.1641" y2="497.6797"/><polygon fill="#181818" points="102.0298,487.6797,106.0298,497.6797,110.0298,487.6797,106.0298,491.6797" style="stroke:#181818;stroke-width:1.0;"/><line style="stroke:#181818;stroke-width:1.0;" x1="106.0298" x2="106.0298" y1="410.793" y2="435.1953"/><polygon fill="#181818" points="102.0298,425.1953,106.0298,435.1953,110.0298,425.1953,106.0298,429.1953" style="stroke:#181818;stroke-width:1.0;"/><line style="stroke:#181818;stroke-width:1.0;" x1="192.0596" x2="204.0596" y1="398.793" y2="398.793"/><polygon fill="#181818" points="200.0596,467.6797,204.0596,477.6797,208.0596,467.6797,204.0596,471.6797" style="stroke:#181818;stroke-width:1.0;"/><line style="stroke:#181818;stroke-width:1.0;" x1="204.0596" x2="204.0596" y1="398.793" y2="541.6797"/><line style="stroke:#181818;stroke-width:1.0;" x1="204.0596" x2="106.0298" y1="541.6797" y2="541.6797"/><line style="stroke:#181818;stroke-width:1.0;" x1="106.0298" x2="106.0298" y1="541.6797" y2="561.6797"/><polygon fill="#181818" points="102.0298,551.6797,106.0298,561.6797,110.0298,551.6797,106.0298,555.6797" style="stroke:#181818;stroke-width:1.0;"/><line style="stroke:#181818;stroke-width:1.0;" x1="106.0298" x2="106.0298" y1="366.793" y2="386.793"/><polygon fill="#181818" points="102.0298,376.793,106.0298,386.793,110.0298,376.793,106.0298,380.793" style="stroke:#181818;stroke-width:1.0;"/><line style="stroke:#181818;stroke-width:1.0;" x1="106.0298" x2="106.0298" y1="698.0195" y2="726.5352"/><polygon fill="#181818" points="102.0298,716.5352,106.0298,726.5352,110.0298,716.5352,106.0298,720.5352" style="stroke:#181818;stroke-width:1.0;"/><line style="stroke:#181818;stroke-width:1.0;" x1="106.0298" x2="106.0298" y1="639.6484" y2="664.0508"/><polygon fill="#181818" points="102.0298,654.0508,106.0298,664.0508,110.0298,654.0508,106.0298,658.0508" style="stroke:#181818;stroke-width:1.0;"/><line style="stroke:#181818;stroke-width:1.0;" x1="165.8916" x2="178.2954" y1="627.6484" y2="627.6484"/><polygon fill="#181818" points="174.2954,696.5352,178.2954,706.5352,182.2954,696.5352,178.2954,700.5352" style="stroke:#181818;stroke-width:1.0;"/><line style="stroke:#181818;stroke-width:1.0;" x1="178.2954" x2="178.2954" y1="627.6484" y2="770.5352"/><line style="stroke:#181818;stroke-width:1.0;" x1="178.2954" x2="106.0298" y1="770.5352" y2="770.5352"/><line style="stroke:#181818;stroke-width:1.0;" x1="106.0298" x2="106.0298" y1="770.5352" y2="791.25"/><polygon fill="#181818" points="102.0298,781.25,106.0298,791.25,110.0298,781.25,106.0298,785.25" style="stroke:#181818;stroke-width:1.0;"/><line style="stroke:#181818;stroke-width:1.0;" x1="106.0298" x2="106.0298" y1="595.6484" y2="615.6484"/><polygon fill="#181818" points="102.0298,605.6484,106.0298,615.6484,110.0298,605.6484,106.0298,609.6484" style="stroke:#181818;stroke-width:1.0;"/><line style="stroke:#181818;stroke-width:1.0;" x1="106.0298" x2="106.0298" y1="938.3047" y2="966.8203"/><polygon fill="#181818" points="102.0298,956.8203,106.0298,966.8203,110.0298,956.8203,106.0298,960.8203" style="stroke:#181818;stroke-width:1.0;"/><line style="stroke:#181818;stroke-width:1.0;" x1="106.0298" x2="106.0298" y1="879.9336" y2="904.3359"/><polygon fill="#181818" points="102.0298,894.3359,106.0298,904.3359,110.0298,894.3359,106.0298,898.3359" style="stroke:#181818;stroke-width:1.0;"/><line style="stroke:#181818;stroke-width:1.0;" x1="166.7993" x2="193.8052" y1="867.9336" y2="867.9336"/><polygon fill="#181818" points="189.8052,936.8203,193.8052,946.8203,197.8052,936.8203,193.8052,940.8203" style="stroke:#181818;stroke-width:1.0;"/><line style="stroke:#181818;stroke-width:1.0;" x1="193.8052" x2="193.8052" y1="867.9336" y2="1010.8203"/><line style="stroke:#181818;stroke-width:1.0;" x1="193.8052" x2="106.0298" y1="1010.8203" y2="1010.8203"/><line style="stroke:#181818;stroke-width:1.0;" x1="106.0298" x2="106.0298" y1="1010.8203" y2="1030.8203"/><polygon fill="#181818" points="102.0298,1020.8203,106.0298,1030.8203,110.0298,1020.8203,106.0298,1024.8203" style="stroke:#181818;stroke-width:1.0;"/><line style="stroke:#181818;stroke-width:1.0;" x1="106.0298" x2="106.0298" y1="825.2188" y2="855.9336"/><polygon fill="#181818" points="102.0298,845.9336,106.0298,855.9336,110.0298,845.9336,106.0298,849.9336" style="stroke:#181818;stroke-width:1.0;"/><line style="stroke:#181818;stroke-width:1.0;" x1="106.0298" x2="106.0298" y1="1064.7891" y2="1084.7891"/><polygon fill="#181818" points="102.0298,1074.7891,106.0298,1084.7891,110.0298,1074.7891,106.0298,1078.7891" style="stroke:#181818;stroke-width:1.0;"/><line style="stroke:#181818;stroke-width:1.0;" x1="106.0298" x2="106.0298" y1="1118.7578" y2="1138.7578"/><polygon fill="#181818" points="102.0298,1128.7578,106.0298,1138.7578,110.0298,1128.7578,106.0298,1132.7578" style="stroke:#181818;stroke-width:1.0;"/><!--SRC=[XP71Ri9034Jl-nK-me4V28SAKN622d6erEEoSM1BuWssjuA_hvUWgAeKSOndnY-pbakathFluEZ3vSGfKxrERM9GzYGc8QcJqLLZutEhcqJwuJi4CTD2a6FZdAXdTTKs-Hg-LhijDB75fNFLthFWC1Bb73HpcSS6Pf- -ZOFxRGvwHe8PfRa3WEg0vYEGEwc_0J8dNXP1DFKEgIx8wf7tYi1upP6nDYYsjJpNhzhslm8zerYfALuNHIAT1lTBxE3IUuz_aOzl28aPmoIec5xk3vn45emDsY52WL0gRUFfh2MrW7ViBMLYD2JUeZpd6tjywBsU1Uo8y5Cs3iekrTaqili9P8hNZ0KCPVFGuJ3oXjnKXV6_fdgi6KkBpbDiK1JIyTjUPEd6u-PW46jLKhy0]--></g></svg>