<svg xmlns="http://www.w3.org/2000/svg" xmlns:xlink="http://www.w3.org/1999/xlink" contentStyleType="text/css" height="522px" preserveAspectRatio="none" style="width:232px;height:522px;" version="1.1" viewBox="0 0 232 522" width="232px" zoomAndPan="magnify"><defs/><g><ellipse cx="109.5703" cy="20" fill="#222222" rx="10" ry="10" style="stroke:#222222;stroke-width:1.0;"/><rect fill="#F1F1F1" height="33.9688" rx="12.5" ry="12.5" style="stroke:#181818;stroke-width:0.5;" width="125.7441" x="46.6982" y="50"/><text fill="#000000" font-family="sans-serif" font-size="12" lengthAdjust="spacing" textLength="105.7441" x="56.6982" y="71.1387">Scan ip/ directory</text><rect fill="#F1F1F1" height="33.9688" rx="12.5" ry="12.5" style="stroke:#181818;stroke-width:0.5;" width="105.3594" x="56.8906" y="208.0815"/><text fill="#000000" font-family="sans-serif" font-size="12" lengthAdjust="spacing" textLength="85.3594" x="66.8906" y="229.2202">Load manifest</text><rect fill="#F1F1F1" height="33.9688" rx="12.5" ry="12.5" style="stroke:#181818;stroke-width:0.5;" width="125.6504" x="46.7451" y="262.0503"/><text fill="#000000" font-family="sans-serif" font-size="12" lengthAdjust="spacing" textLength="105.6504" x="56.7451" y="283.189">Validate manifest</text><rect fill="#F1F1F1" height="33.9688" rx="12.5" ry="12.5" style="stroke:#181818;stroke-width:0.5;" width="84.5352" x="67.3027" y="316.019"/><text fill="#000000" font-family="sans-serif" font-size="12" lengthAdjust="spacing" textLength="64.5352" x="77.3027" y="337.1577">Register IP</text><polygon fill="#F1F1F1" points="49.5054,159.6792,169.6353,159.6792,181.6353,171.6792,169.6353,183.6792,49.5054,183.6792,37.5054,171.6792,49.5054,159.6792" style="stroke:#181818;stroke-width:0.5;"/><text fill="#000000" font-family="sans-serif" font-size="11" lengthAdjust="spacing" textLength="19.0083" x="113.5703" y="193.8896">yes</text><text fill="#000000" font-family="sans-serif" font-size="11" lengthAdjust="spacing" textLength="120.1299" x="49.5054" y="175.4873">manifest.yaml exists?</text><polygon fill="#F1F1F1" points="109.5703,369.9878,121.5703,381.9878,109.5703,393.9878,97.5703,381.9878,109.5703,369.9878" style="stroke:#181818;stroke-width:0.5;"/><polygon fill="#F1F1F1" points="49.4517,103.9688,169.689,103.9688,181.689,115.9688,169.689,127.9688,49.4517,127.9688,37.4517,115.9688,49.4517,103.9688" style="stroke:#181818;stroke-width:0.5;"/><text fill="#000000" font-family="sans-serif" font-size="11" lengthAdjust="spacing" textLength="28.7354" x="113.5703" y="138.1792">more</text><text fill="#000000" font-family="sans-serif" font-size="11" lengthAdjust="spacing" textLength="120.2373" x="49.4517" y="119.7769">For each subdirectory</text><text fill="#000000" font-family="sans-serif" font-size="11" lengthAdjust="spacing" textLength="27.4517" x="10" y="113.3745">done</text><rect fill="#F1F1F1" height="33.9688" rx="12.5" ry="12.5" style="stroke:#181818;stroke-width:0.5;" width="125.2344" x="46.9531" y="435.9878"/><text fill="#000000" font-family="sans-serif" font-size="12" lengthAdjust="spacing" textLength="105.2344" x="56.9531" y="457.1265">Return IP registry</text><ellipse cx="109.5703" cy="500.9565" fill="none" rx="11" ry="11" style="stroke:#222222;stroke-width:1.0;"/><ellipse cx="109.5703" cy="500.9565" fill="#222222" rx="6" ry="6" style="stroke:#222222;stroke-width:1.0;"/><line style="stroke:#181818;stroke-width:1.0;" x1="109.5703" x2="109.5703" y1="30" y2="50"/><polygon fill="#181818" points="105.5703,40,109.5703,50,113.5703,40,109.5703,44" style="stroke:#181818;stroke-width:1.0;"/><line style="stroke:#181818;stroke-width:1.0;" x1="109.5703" x2="109.5703" y1="242.0503" y2="262.0503"/><polygon fill="#181818" points="105.5703,252.0503,109.5703,262.0503,113.5703,252.0503,109.5703,256.0503" style="stroke:#181818;stroke-width:1.0;"/><line style="stroke:#181818;stroke-width:1.0;" x1="109.5703" x2="109.5703" y1="296.019" y2="316.019"/><polygon fill="#181818" points="105.5703,306.019,109.5703,316.019,113.5703,306.019,109.5703,310.019" style="stroke:#181818;stroke-width:1.0;"/><line style="stroke:#181818;stroke-width:1.0;" x1="109.5703" x2="109.5703" y1="183.6792" y2="208.0815"/><polygon fill="#181818" points="105.5703,198.0815,109.5703,208.0815,113.5703,198.0815,109.5703,202.0815" style="stroke:#181818;stroke-width:1.0;"/><line style="stroke:#181818;stroke-width:1.0;" x1="181.6353" x2="193.6353" y1="171.6792" y2="171.6792"/><polygon fill="#181818" points="189.6353,269.0347,193.6353,279.0347,197.6353,269.0347,193.6353,273.0347" style="stroke:#181818;stroke-width:1.0;"/><line style="stroke:#181818;stroke-width:1.0;" x1="193.6353" x2="193.6353" y1="171.6792" y2="381.9878"/><line style="stroke:#181818;stroke-width:1.0;" x1="193.6353" x2="121.5703" y1="381.9878" y2="381.9878"/><polygon fill="#181818" points="131.5703,377.9878,121.5703,381.9878,131.5703,385.9878,127.5703,381.9878" style="stroke:#181818;stroke-width:1.0;"/><line style="stroke:#181818;stroke-width:1.0;" x1="109.5703" x2="109.5703" y1="349.9878" y2="369.9878"/><polygon fill="#181818" points="105.5703,359.9878,109.5703,369.9878,113.5703,359.9878,109.5703,363.9878" style="stroke:#181818;stroke-width:1.0;"/><line style="stroke:#181818;stroke-width:1.0;" x1="109.5703" x2="109.5703" y1="127.9688" y2="159.6792"/><polygon fill="#181818" points="105.5703,149.6792,109.5703,159.6792,113.5703,149.6792,109.5703,153.6792" style="stroke:#181818;stroke-width:1.0;"/><line style="stroke:#181818;stroke-width:1.0;" x1="109.5703" x2="109.5703" y1="393.9878" y2="403.9878"/><line style="stroke:#181818;stroke-width:1.0;" x1="109.5703" x2="206.3955" y1="403.9878" y2="403.9878"/><polygon fill="#181818" points="202.3955,270.6323,206.3955,260.6323,210.3955,270.6323,206.3955,266.6323" style="stroke:#181818;stroke-width:1.0;"/><line style="stroke:#181818;stroke-width:1.0;" x1="206.3955" x2="206.3955" y1="115.9688" y2="403.9878"/><line style="stroke:#181818;stroke-width:1.0;" x1="206.3955" x2="181.689" y1="115.9688" y2="115.9688"/><polygon fill="#181818" points="191.689,111.9688,181.689,115.9688,191.689,119.9688,187.689,115.9688" style="stroke:#181818;stroke-width:1.0;"/><line style="stroke:#181818;stroke-width:1.0;" x1="37.4517" x2="24.7451" y1="115.9688" y2="115.9688"/><polygon fill="#181818" points="20.7451,256.6323,24.7451,266.6323,28.7451,256.6323,24.7451,260.6323" style="stroke:#181818;stroke-width:1.0;"/><line style="stroke:#181818;stroke-width:1.0;" x1="24.7451" x2="24.7451" y1="115.9688" y2="415.9878"/><line style="stroke:#181818;stroke-width:1.0;" x1="24.7451" x2="109.5703" y1="415.9878" y2="415.9878"/><line style="stroke:#181818;stroke-width:1.0;" x1="109.5703" x2="109.5703" y1="415.9878" y2="435.9878"/><polygon fill="#181818" points="105.5703,425.9878,109.5703,435.9878,113.5703,425.9878,109.5703,429.9878" style="stroke:#181818;stroke-width:1.0;"/><line style="stroke:#181818;stroke-width:1.0;" x1="109.5703" x2="109.5703" y1="83.9688" y2="103.9688"/><polygon fill="#181818" points="105.5703,93.9688,109.5703,103.9688,113.5703,93.9688,109.5703,97.9688" style="stroke:#181818;stroke-width:1.0;"/><line style="stroke:#181818;stroke-width:1.0;" x1="109.5703" x2="109.5703" y1="469.9565" y2="489.9565"/><polygon fill="#181818" points="105.5703,479.9565,109.5703,489.9565,113.5703,479.9565,109.5703,483.9565" style="stroke:#181818;stroke-width:1.0;"/><!--SRC=[POynQyD038Nt-nKQxQ7jdWmT2e52AQM1x8fFZaNEEYF99FxtLKoIfHe4qllqUB8pouIA8nonEv-qpf8_QgaAhYWM4eadUrAPUfoBxwhuDuu45j2BaNAVaZcgfys-Gm6UtY2pKkTLbsrAbu4BGRCBOy9k09kFJxa5DcZ6gjGc0E0-1XJkoVnrmR40NTdStblmWGIQXMm5epPV5JCywErZUy326Pt-Axzq2YzI-FnPToGveaU_1ynL8aKApcULe43NYziJvdNw0m00]--></g></svg>