<svg xmlns="http://www.w3.org/2000/svg" xmlns:xlink="http://www.w3.org/1999/xlink" contentStyleType="text/css" height="418px" preserveAspectRatio="none" style="width:1198px;height:418px;" version="1.1" viewBox="0 0 1198 418" width="1198px" zoomAndPan="magnify"><defs/><g><!--cluster CLI Layer--><g id="cluster_CLI Layer"><path d="M428.5,6 L502.6719,6 A3.75,3.75 0 0 1 505.1719,8.5 L512.1719,28.2969 L613.5,28.2969 A2.5,2.5 0 0 1 616,30.7969 L616,186.5 A2.5,2.5 0 0 1 613.5,189 L428.5,189 A2.5,2.5 0 0 1 426,186.5 L426,8.5 A2.5,2.5 0 0 1 428.5,6 " fill="none" style="stroke:#000000;stroke-width:1.5;"/><line style="stroke:#000000;stroke-width:1.5;" x1="426" x2="512.1719" y1="28.2969" y2="28.2969"/><text fill="#000000" font-family="sans-serif" font-size="14" font-weight="bold" lengthAdjust="spacing" textLength="73.1719" x="430" y="20.9951">CLI Layer</text></g><!--cluster Core--><g id="cluster_Core"><path d="M8.5,213 L45.792,213 A3.75,3.75 0 0 1 48.292,215.5 L55.292,235.2969 L497.5,235.2969 A2.5,2.5 0 0 1 500,237.7969 L500,297.5 A2.5,2.5 0 0 1 497.5,300 L8.5,300 A2.5,2.5 0 0 1 6,297.5 L6,215.5 A2.5,2.5 0 0 1 8.5,213 " fill="none" style="stroke:#000000;stroke-width:1.5;"/><line style="stroke:#000000;stroke-width:1.5;" x1="6" x2="55.292" y1="235.2969" y2="235.2969"/><text fill="#000000" font-family="sans-serif" font-size="14" font-weight="bold" lengthAdjust="spacing" textLength="36.292" x="10" y="227.9951">Core</text></g><!--cluster Backends--><g id="cluster_Backends"><path d="M526.5,213 L603.0439,213 A3.75,3.75 0 0 1 605.5439,215.5 L612.5439,235.2969 L1095.5,235.2969 A2.5,2.5 0 0 1 1098,237.7969 L1098,297.5 A2.5,2.5 0 0 1 1095.5,300 L526.5,300 A2.5,2.5 0 0 1 524,297.5 L524,215.5 A2.5,2.5 0 0 1 526.5,213 " fill="none" style="stroke:#000000;stroke-width:1.5;"/><line style="stroke:#000000;stroke-width:1.5;" x1="524" x2="612.5439" y1="235.2969" y2="235.2969"/><text fill="#000000" font-family="sans-serif" font-size="14" font-weight="bold" lengthAdjust="spacing" textLength="75.5439" x="528" y="227.9951">Backends</text></g><!--cluster External Tools--><g id="cluster_External Tools"><path d="M576.5,324 L690.1904,324 A3.75,3.75 0 0 1 692.6904,326.5 L699.6904,346.2969 L1188.5,346.2969 A2.5,2.5 0 0 1 1191,348.7969 L1191,408.5 A2.5,2.5 0 0 1 1188.5,411 L576.5,411 A2.5,2.5 0 0 1 574,408.5 L574,326.5 A2.5,2.5 0 0 1 576.5,324 " fill="none" style="stroke:#000000;stroke-width:1.5;"/><line style="stroke:#000000;stroke-width:1.5;" x1="574" x2="699.6904" y1="346.2969" y2="346.2969"/><text fill="#000000" font-family="sans-serif" font-size="14" font-weight="bold" lengthAdjust="spacing" textLength="112.6904" x="578" y="338.9951">External Tools</text></g><!--entity cli--><g id="elem_cli"><rect fill="#F1F1F1" height="36.2969" rx="2.5" ry="2.5" style="stroke:#181818;stroke-width:0.5;" width="86.2471" x="478" y="41"/><text fill="#000000" font-family="sans-serif" font-size="14" lengthAdjust="spacing" textLength="66.2471" x="488" y="63.9951">Typer CLI</text></g><!--entity handlers--><g id="elem_handlers"><rect fill="#F1F1F1" height="36.2969" rx="2.5" ry="2.5" style="stroke:#181818;stroke-width:0.5;" width="158.8242" x="441.5" y="137"/><text fill="#000000" font-family="sans-serif" font-size="14" lengthAdjust="spacing" textLength="138.8242" x="451.5" y="159.9951">Command Handlers</text></g><!--entity config--><g id="elem_config"><rect fill="#F1F1F1" height="36.2969" rx="2.5" ry="2.5" style="stroke:#181818;stroke-width:0.5;" width="114.9443" x="368.5" y="248"/><text fill="#000000" font-family="sans-serif" font-size="14" lengthAdjust="spacing" textLength="94.9443" x="378.5" y="270.9951">Configuration</text></g><!--entity manifest--><g id="elem_manifest"><rect fill="#F1F1F1" height="36.2969" rx="2.5" ry="2.5" style="stroke:#181818;stroke-width:0.5;" width="136.4023" x="197" y="248"/><text fill="#000000" font-family="sans-serif" font-size="14" lengthAdjust="spacing" textLength="116.4023" x="207" y="270.9951">Manifest System</text></g><!--entity templates--><g id="elem_templates"><rect fill="#F1F1F1" height="36.2969" rx="2.5" ry="2.5" style="stroke:#181818;stroke-width:0.5;" width="138.6924" x="22.5" y="248"/><text fill="#000000" font-family="sans-serif" font-size="14" lengthAdjust="spacing" textLength="118.6924" x="32.5" y="270.9951">Template Engine</text></g><!--entity sim--><g id="elem_sim"><rect fill="#F1F1F1" height="36.2969" rx="2.5" ry="2.5" style="stroke:#181818;stroke-width:0.5;" width="159.6719" x="922" y="248"/><text fill="#000000" font-family="sans-serif" font-size="14" lengthAdjust="spacing" textLength="139.6719" x="932" y="270.9951">Simulator Backends</text></g><!--entity synth--><g id="elem_synth"><rect fill="#F1F1F1" height="36.2969" rx="2.5" ry="2.5" style="stroke:#181818;stroke-width:0.5;" width="159.6035" x="727" y="248"/><text fill="#000000" font-family="sans-serif" font-size="14" lengthAdjust="spacing" textLength="139.6035" x="737" y="270.9951">Synthesis Backends</text></g><!--entity fw--><g id="elem_fw"><rect fill="#F1F1F1" height="36.2969" rx="2.5" ry="2.5" style="stroke:#181818;stroke-width:0.5;" width="150.5459" x="540.5" y="248"/><text fill="#000000" font-family="sans-serif" font-size="14" lengthAdjust="spacing" textLength="130.5459" x="550.5" y="270.9951">Firmware Backend</text></g><!--entity vivado--><g id="elem_vivado"><rect fill="#F1F1F1" height="36.2969" rx="2.5" ry="2.5" style="stroke:#181818;stroke-width:0.5;" width="67.7832" x="675" y="359"/><text fill="#000000" font-family="sans-serif" font-size="14" lengthAdjust="spacing" textLength="47.7832" x="685" y="381.9951">Vivado</text></g><!--entity yosys--><g id="elem_yosys"><rect fill="#F1F1F1" height="36.2969" rx="2.5" ry="2.5" style="stroke:#181818;stroke-width:0.5;" width="59.9902" x="778" y="359"/><text fill="#000000" font-family="sans-serif" font-size="14" lengthAdjust="spacing" textLength="39.9902" x="788" y="381.9951">Yosys</text></g><!--entity verilator--><g id="elem_verilator"><rect fill="#F1F1F1" height="36.2969" rx="2.5" ry="2.5" style="stroke:#181818;stroke-width:0.5;" width="80.1152" x="1095" y="359"/><text fill="#000000" font-family="sans-serif" font-size="14" lengthAdjust="spacing" textLength="60.1152" x="1105" y="381.9951">Verilator</text></g><!--entity xsim--><g id="elem_xsim"><rect fill="#F1F1F1" height="36.2969" rx="2.5" ry="2.5" style="stroke:#181818;stroke-width:0.5;" width="56.0049" x="1004" y="359"/><text fill="#000000" font-family="sans-serif" font-size="14" lengthAdjust="spacing" textLength="36.0049" x="1014" y="381.9951">XSim</text></g><!--entity questa--><g id="elem_questa"><rect fill="#F1F1F1" height="36.2969" rx="2.5" ry="2.5" style="stroke:#181818;stroke-width:0.5;" width="96.2822" x="873" y="359"/><text fill="#000000" font-family="sans-serif" font-size="14" lengthAdjust="spacing" textLength="76.2822" x="883" y="381.9951">QuestaSim</text></g><!--entity gcc--><g id="elem_gcc"><rect fill="#F1F1F1" height="36.2969" rx="2.5" ry="2.5" style="stroke:#181818;stroke-width:0.5;" width="50.3994" x="590" y="359"/><text fill="#000000" font-family="sans-serif" font-size="14" lengthAdjust="spacing" textLength="30.3994" x="600" y="381.9951">GCC</text></g><!--link cli to handlers--><g id="link_cli_handlers"><path d="M521,77.24 C521,94.2 521,113.95 521,130.87 " fill="none" id="cli-to-handlers" style="stroke:#181818;stroke-width:1.0;"/><polygon fill="#181818" points="521,136.87,525,127.87,521,131.87,517,127.87,521,136.87" style="stroke:#181818;stroke-width:1.0;"/></g><!--link handlers to config--><g id="link_handlers_config"><path d="M506.16,173.03 C488.41,193.39 462.8332,222.7477 444.9932,243.2077 " fill="none" id="handlers-to-config" style="stroke:#181818;stroke-width:1.0;"/><polygon fill="#181818" points="441.05,247.73,449.9797,243.5753,444.336,243.9614,443.9499,238.3178,441.05,247.73" style="stroke:#181818;stroke-width:1.0;"/></g><!--link handlers to manifest--><g id="link_handlers_manifest"><path d="M441.59,173.11 C412.33,180.9 379.42,191.45 351,205 C326.84,216.52 306.7645,230.8535 290.0545,244.1535 " fill="none" id="handlers-to-manifest" style="stroke:#181818;stroke-width:1.0;"/><polygon fill="#181818" points="285.36,247.89,294.8928,245.4149,289.2721,244.7762,289.9108,239.1556,285.36,247.89" style="stroke:#181818;stroke-width:1.0;"/></g><!--link handlers to templates--><g id="link_handlers_templates"><path d="M441.24,157.32 C370.44,160.83 265.3,171.86 180,205 C154.15,215.04 133.0151,230.11 116.1051,244.01 " fill="none" id="handlers-to-templates" style="stroke:#181818;stroke-width:1.0;"/><polygon fill="#181818" points="111.47,247.82,120.9626,245.195,115.3326,244.645,115.8826,239.0149,111.47,247.82" style="stroke:#181818;stroke-width:1.0;"/></g><!--link handlers to sim--><g id="link_handlers_sim"><path d="M600.86,156.39 C680.15,159.03 804.11,169.26 905,205 C933,214.92 956.6725,230.2334 975.4625,244.1834 " fill="none" id="handlers-to-sim" style="stroke:#181818;stroke-width:1.0;"/><polygon fill="#181818" points="980.28,247.76,975.4382,239.1835,976.2654,244.7795,970.6694,245.6068,980.28,247.76" style="stroke:#181818;stroke-width:1.0;"/></g><!--link handlers to synth--><g id="link_handlers_synth"><path d="M600.92,171.36 C634.99,179.29 674.7,190.41 709,205 C735.99,216.48 759.3573,231.1441 778.5773,244.4541 " fill="none" id="handlers-to-synth" style="stroke:#181818;stroke-width:1.0;"/><polygon fill="#181818" points="783.51,247.87,778.3882,239.4576,779.3994,245.0234,773.8337,246.0346,783.51,247.87" style="stroke:#181818;stroke-width:1.0;"/></g><!--link handlers to fw--><g id="link_handlers_fw"><path d="M535.84,173.03 C553.59,193.39 579.1668,222.7477 597.0068,243.2077 " fill="none" id="handlers-to-fw" style="stroke:#181818;stroke-width:1.0;"/><polygon fill="#181818" points="600.95,247.73,598.0501,238.3178,597.664,243.9614,592.0203,243.5753,600.95,247.73" style="stroke:#181818;stroke-width:1.0;"/></g><!--link sim to xsim--><g id="link_sim_xsim"><path d="M1006.69,284.03 C1012.29,304.39 1020.0155,332.4857 1025.6555,352.9457 " fill="none" id="sim-to-xsim" style="stroke:#181818;stroke-width:1.0;"/><polygon fill="#181818" points="1027.25,358.73,1028.7144,348.9906,1025.9213,353.9098,1021.0021,351.1166,1027.25,358.73" style="stroke:#181818;stroke-width:1.0;"/></g><!--link sim to verilator--><g id="link_sim_verilator"><path d="M1032.01,284.06 C1046.47,292.85 1063.73,304.18 1078,316 C1093.82,329.11 1105.8117,341.7634 1116.7917,354.3834 " fill="none" id="sim-to-verilator" style="stroke:#181818;stroke-width:1.0;"/><polygon fill="#181818" points="1120.73,358.91,1117.8402,349.4946,1117.4481,355.1379,1111.8048,354.7457,1120.73,358.91" style="stroke:#181818;stroke-width:1.0;"/></g><!--link sim to questa--><g id="link_sim_questa"><path d="M989.34,284.03 C974.22,304.39 952.6196,333.4548 937.4096,353.9148 " fill="none" id="sim-to-questa" style="stroke:#181818;stroke-width:1.0;"/><polygon fill="#181818" points="933.83,358.73,942.4096,353.8936,936.813,354.7173,935.9893,349.1208,933.83,358.73" style="stroke:#181818;stroke-width:1.0;"/></g><!--link synth to vivado--><g id="link_synth_vivado"><path d="M790.65,284.08 C781.79,293.42 770.69,305.26 761,316 C748.17,330.23 737.8395,342.1299 727.5095,354.2099 " fill="none" id="synth-to-vivado" style="stroke:#181818;stroke-width:1.0;"/><polygon fill="#181818" points="723.61,358.77,732.4992,354.5295,726.8596,354.9699,726.4191,349.3303,723.61,358.77" style="stroke:#181818;stroke-width:1.0;"/></g><!--link synth to yosys--><g id="link_synth_yosys"><path d="M807.16,284.03 C807.34,304.39 807.5943,332.2703 807.7843,352.7303 " fill="none" id="synth-to-yosys" style="stroke:#181818;stroke-width:1.0;"/><polygon fill="#181818" points="807.84,358.73,811.7563,349.6932,807.7936,353.7302,803.7566,349.7675,807.84,358.73" style="stroke:#181818;stroke-width:1.0;"/></g><!--link fw to gcc--><g id="link_fw_gcc"><path d="M615.84,284.03 C615.66,304.39 615.4057,332.2703 615.2157,352.7303 " fill="none" id="fw-to-gcc" style="stroke:#181818;stroke-width:1.0;"/><polygon fill="#181818" points="615.16,358.73,619.2434,349.7675,615.2064,353.7302,611.2437,349.6932,615.16,358.73" style="stroke:#181818;stroke-width:1.0;"/></g><!--SRC=[NP7TJiCm38Nl-nGMzti5BgWsG1f8Q1C28IvCwtRHybEIT5k5U7TSfzbMRYhdEwUnVHBsodReqS0NLllMkzxMfTFEG_He0qjaOn7EhfeQx7LSEHkVqH04DYq2UTLScIfdEcVvnqqSD86dAg9jDHL5nqsm9RWfru-mne7y3VmK0F2n7JhomFWJC42bbT3I6OEsXWV-QF91nDrqA7wlBtIUybsbiurgUuzHEPlk4oBY4rhLK8Ym6K8a8xAPM9g4JASn4Ynjgoo98KvitlEE2x9ro7qtolJiul2o8Zy7PP8ysBYZeC8_USHYM2blZfnuraLkZhEUorCaRr73rZbzxlog3bWxyH-a5Fhkmf1w36ELdFnMCcCovvDeRxo0u5CU-QNdL33ZRpc9S5-MWjgg6iVZzuB5ulRoDBaGEgK_O-V8P_IIyvoFyyo1X3P375J1FgbbWNouB9d9j8XSaYmfj0j8WJL7EV2IVm00]--></g></svg>